G04 EAGLE Gerber RS-274X export*
G75*
%MOMM*%
%FSLAX34Y34*%
%LPD*%
%INTop Copper*%
%IPPOS*%
%AMOC8*
5,1,8,0,0,1.08239X$1,22.5*%
G01*
%ADD10P,1.429621X8X112.500000*%
%ADD11P,1.429621X8X292.500000*%
%ADD12P,1.429621X8X22.500000*%
%ADD13P,1.429621X8X202.500000*%
%ADD14C,1.320800*%
%ADD15C,1.879600*%
%ADD16C,1.408000*%
%ADD17C,0.609600*%
%ADD18C,0.406400*%
%ADD19C,0.756400*%


D10*
X152400Y127000D03*
X152400Y152400D03*
D11*
X331470Y419100D03*
X331470Y393700D03*
X334010Y215900D03*
X334010Y190500D03*
D12*
X353060Y457200D03*
X378460Y457200D03*
D13*
X165100Y457200D03*
X139700Y457200D03*
X429260Y392430D03*
X353060Y392430D03*
D10*
X114300Y342900D03*
X114300Y419100D03*
D13*
X429260Y419100D03*
X353060Y419100D03*
D11*
X83820Y419100D03*
X83820Y342900D03*
D14*
X205296Y418910D02*
X218504Y418910D01*
X218504Y393510D02*
X205296Y393510D01*
X205296Y368110D02*
X218504Y368110D01*
X218504Y342710D02*
X205296Y342710D01*
X205296Y317310D02*
X218504Y317310D01*
X218504Y291910D02*
X205296Y291910D01*
X205296Y266510D02*
X218504Y266510D01*
X218504Y241110D02*
X205296Y241110D01*
X205296Y215710D02*
X218504Y215710D01*
X218504Y190310D02*
X205296Y190310D01*
X205296Y164910D02*
X218504Y164910D01*
X218504Y139510D02*
X205296Y139510D01*
X205296Y114110D02*
X218504Y114110D01*
X218504Y88710D02*
X205296Y88710D01*
X281496Y88710D02*
X294704Y88710D01*
X294704Y114110D02*
X281496Y114110D01*
X281496Y139510D02*
X294704Y139510D01*
X294704Y164910D02*
X281496Y164910D01*
X281496Y190310D02*
X294704Y190310D01*
X294704Y215710D02*
X281496Y215710D01*
X281496Y241110D02*
X294704Y241110D01*
X294704Y266510D02*
X281496Y266510D01*
X281496Y291910D02*
X294704Y291910D01*
X294704Y317310D02*
X281496Y317310D01*
X281496Y342710D02*
X294704Y342710D01*
X294704Y368110D02*
X281496Y368110D01*
X281496Y393510D02*
X294704Y393510D01*
X294704Y418910D02*
X281496Y418910D01*
D15*
X406400Y114300D03*
X406400Y88900D03*
X469900Y368300D03*
X469900Y342900D03*
X469900Y317500D03*
X469900Y292100D03*
X469900Y266700D03*
X469900Y241300D03*
X469900Y215900D03*
X469900Y190500D03*
X469900Y165100D03*
X469900Y139700D03*
X25400Y241300D03*
X25400Y215900D03*
X25400Y190500D03*
X25400Y165100D03*
X25400Y139700D03*
X25400Y368300D03*
X25400Y342900D03*
X25400Y317500D03*
X25400Y292100D03*
X25400Y266700D03*
X114300Y127000D03*
X114300Y101600D03*
X114300Y76200D03*
X111760Y24130D03*
X111760Y49530D03*
D16*
X203600Y21600D03*
X228600Y21600D03*
X253600Y21600D03*
X253600Y54600D03*
X228600Y54600D03*
X203600Y54600D03*
D15*
X76200Y25400D03*
X76200Y50800D03*
X76200Y76200D03*
X76200Y101600D03*
X416560Y20320D03*
X391160Y20320D03*
X365760Y20320D03*
X340360Y20320D03*
X314960Y20320D03*
X289560Y20320D03*
X198120Y463550D03*
X223520Y463550D03*
X248920Y463550D03*
X274320Y463550D03*
X299720Y463550D03*
X444500Y25400D03*
X444500Y50800D03*
X444500Y76200D03*
X444500Y101600D03*
X429260Y468630D03*
X480060Y468630D03*
X71120Y471170D03*
X20320Y471170D03*
D17*
X203600Y54600D02*
X203600Y21600D01*
X116830Y54600D02*
X111760Y49530D01*
X116830Y54600D02*
X203600Y54600D01*
D18*
X331280Y418910D02*
X331470Y419100D01*
X331280Y418910D02*
X288100Y418910D01*
X211900Y114110D02*
X165291Y114110D01*
X152400Y127000D01*
X331470Y419100D02*
X353060Y419100D01*
X109220Y317500D02*
X83820Y342900D01*
D19*
X181610Y317500D03*
D18*
X109220Y317500D01*
D19*
X181610Y317500D03*
D18*
X181610Y421640D02*
X223520Y463550D01*
D19*
X181610Y421640D03*
D18*
X211900Y114110D02*
X241491Y114110D01*
X280670Y74930D01*
X414020Y74930D01*
X438150Y50800D02*
X444500Y50800D01*
X438150Y50800D02*
X414020Y74930D01*
X444500Y139700D02*
X469900Y165100D01*
X444500Y139700D02*
X444500Y127000D01*
X469900Y101600D01*
X469900Y76200D01*
X444500Y50800D01*
X114300Y101600D02*
X25400Y190500D01*
X268161Y418910D02*
X223520Y463550D01*
X268161Y418910D02*
X288100Y418910D01*
X139700Y127000D02*
X114300Y101600D01*
X139700Y127000D02*
X152400Y127000D01*
D17*
X253600Y54600D02*
X253600Y21600D01*
X343770Y54600D02*
X347570Y50800D01*
X343770Y54600D02*
X253600Y54600D01*
X365760Y33020D02*
X365760Y20320D01*
X365760Y33020D02*
X347980Y50800D01*
X347570Y50800D01*
D18*
X114300Y419100D02*
X114300Y431800D01*
X139700Y457200D01*
X288100Y215710D02*
X333820Y215710D01*
X334010Y215900D01*
D19*
X165100Y228600D03*
D18*
X228600Y228600D01*
X241300Y215900D01*
X241300Y168910D02*
X211900Y139510D01*
X241300Y168910D02*
X241300Y215900D01*
D19*
X99060Y207010D03*
D18*
X115570Y190500D01*
X186309Y190500D02*
X211900Y164910D01*
X186309Y190500D02*
X115570Y190500D01*
X288100Y164910D02*
X406210Y164910D01*
X406400Y165100D01*
D19*
X406400Y165100D03*
D18*
X406400Y114300D02*
X431800Y114300D01*
X444500Y101600D01*
X288290Y139700D02*
X288100Y139510D01*
X288290Y139700D02*
X335280Y139700D01*
D19*
X335280Y139700D03*
X335280Y88900D03*
D18*
X406400Y88900D01*
X431800Y88900D01*
X444500Y76200D01*
X254191Y266510D02*
X211900Y266510D01*
X254191Y266510D02*
X266700Y254000D01*
X314960Y254000D01*
D19*
X314960Y254000D03*
D18*
X321310Y39370D02*
X340360Y20320D01*
D19*
X269240Y39370D03*
D18*
X321310Y39370D01*
X25400Y368300D02*
X50610Y393510D01*
X211900Y393510D01*
X50610Y368110D02*
X25400Y342900D01*
X50610Y368110D02*
X211900Y368110D01*
X211900Y291910D02*
X50991Y291910D01*
X25400Y317500D01*
X186500Y215710D02*
X211900Y190310D01*
X186500Y215710D02*
X101791Y215710D01*
X25400Y292100D01*
X288100Y368110D02*
X288290Y368300D01*
X469900Y368300D01*
X288290Y342900D02*
X288100Y342710D01*
X288290Y342900D02*
X469900Y342900D01*
X469710Y317310D02*
X288100Y317310D01*
X469710Y317310D02*
X469900Y317500D01*
X469710Y291910D02*
X288100Y291910D01*
X469710Y291910D02*
X469900Y292100D01*
X469710Y266510D02*
X288100Y266510D01*
X469710Y266510D02*
X469900Y266700D01*
X469710Y241110D02*
X288100Y241110D01*
X469710Y241110D02*
X469900Y241300D01*
X469900Y215900D02*
X355600Y215900D01*
D19*
X355600Y215900D03*
X355600Y114300D03*
D18*
X355410Y114110D01*
X288100Y114110D01*
X288100Y88710D02*
X249809Y127000D01*
X38100Y241300D02*
X25400Y241300D01*
X38100Y241300D02*
X139700Y139700D01*
X177800Y139700D01*
X190500Y127000D01*
X249809Y127000D01*
X114300Y177800D02*
X25400Y266700D01*
D19*
X177800Y88900D03*
D18*
X211709Y88900D01*
X211900Y88710D01*
D19*
X177800Y177800D03*
D18*
X114300Y177800D01*
D19*
X381000Y190500D03*
D17*
X228600Y54600D02*
X228600Y21600D01*
X114300Y76200D02*
X76200Y76200D01*
X114300Y76200D02*
X207000Y76200D01*
X228600Y54600D01*
X250200Y76200D01*
X266700Y76200D01*
X279400Y63500D01*
X368300Y63500D01*
X381000Y50800D01*
D19*
X381000Y50800D03*
D17*
X381000Y190500D02*
X469900Y190500D01*
X50800Y190500D02*
X25400Y215900D01*
X50800Y190500D02*
X50800Y177800D01*
D19*
X50800Y177800D03*
X50800Y152400D03*
D17*
X50800Y101600D01*
X76200Y76200D01*
M02*
