G04 EAGLE Gerber RS-274X export*
G75*
%MOMM*%
%FSLAX34Y34*%
%LPD*%
%INBottom Copper*%
%IPPOS*%
%AMOC8*
5,1,8,0,0,1.08239X$1,22.5*%
G01*
%ADD10P,1.429621X8X112.500000*%
%ADD11P,1.429621X8X292.500000*%
%ADD12P,1.429621X8X22.500000*%
%ADD13P,1.429621X8X202.500000*%
%ADD14C,1.320800*%
%ADD15C,1.879600*%
%ADD16C,1.408000*%
%ADD17C,0.406400*%
%ADD18C,0.756400*%
%ADD19C,0.609600*%

G36*
X198468Y10176D02*
X198468Y10176D01*
X198565Y10186D01*
X198589Y10196D01*
X198615Y10200D01*
X198700Y10246D01*
X198790Y10286D01*
X198809Y10303D01*
X198832Y10316D01*
X198899Y10386D01*
X198971Y10452D01*
X198983Y10475D01*
X199001Y10494D01*
X199042Y10582D01*
X199089Y10668D01*
X199094Y10693D01*
X199105Y10717D01*
X199116Y10814D01*
X199133Y10910D01*
X199129Y10936D01*
X199132Y10961D01*
X199111Y11057D01*
X199097Y11153D01*
X199085Y11176D01*
X199080Y11202D01*
X199030Y11285D01*
X198986Y11372D01*
X198967Y11391D01*
X198954Y11413D01*
X198880Y11476D01*
X198810Y11544D01*
X198781Y11560D01*
X198767Y11573D01*
X198736Y11585D01*
X198663Y11625D01*
X197310Y12186D01*
X194186Y15310D01*
X192495Y19391D01*
X192495Y23809D01*
X194186Y27890D01*
X197310Y31014D01*
X201391Y32705D01*
X205809Y32705D01*
X209890Y31014D01*
X213014Y27890D01*
X214705Y23809D01*
X214705Y19391D01*
X213014Y15310D01*
X209890Y12186D01*
X208537Y11625D01*
X208454Y11574D01*
X208368Y11528D01*
X208350Y11510D01*
X208328Y11496D01*
X208266Y11420D01*
X208199Y11350D01*
X208188Y11326D01*
X208171Y11306D01*
X208136Y11215D01*
X208095Y11127D01*
X208092Y11101D01*
X208083Y11077D01*
X208079Y10979D01*
X208068Y10883D01*
X208074Y10857D01*
X208072Y10831D01*
X208100Y10737D01*
X208120Y10642D01*
X208134Y10620D01*
X208141Y10595D01*
X208196Y10515D01*
X208246Y10431D01*
X208266Y10414D01*
X208281Y10393D01*
X208359Y10334D01*
X208433Y10271D01*
X208458Y10261D01*
X208479Y10246D01*
X208571Y10216D01*
X208661Y10179D01*
X208694Y10176D01*
X208712Y10170D01*
X208745Y10170D01*
X208828Y10161D01*
X223372Y10161D01*
X223468Y10176D01*
X223565Y10186D01*
X223589Y10196D01*
X223615Y10200D01*
X223700Y10246D01*
X223790Y10286D01*
X223809Y10303D01*
X223832Y10316D01*
X223899Y10386D01*
X223971Y10452D01*
X223983Y10475D01*
X224001Y10494D01*
X224042Y10582D01*
X224089Y10668D01*
X224094Y10693D01*
X224105Y10717D01*
X224116Y10814D01*
X224133Y10910D01*
X224129Y10936D01*
X224132Y10961D01*
X224111Y11057D01*
X224097Y11153D01*
X224085Y11176D01*
X224080Y11202D01*
X224030Y11285D01*
X223986Y11372D01*
X223967Y11391D01*
X223954Y11413D01*
X223880Y11476D01*
X223810Y11544D01*
X223781Y11560D01*
X223767Y11573D01*
X223736Y11585D01*
X223663Y11625D01*
X222310Y12186D01*
X219186Y15310D01*
X217495Y19391D01*
X217495Y23809D01*
X219186Y27890D01*
X222310Y31014D01*
X226391Y32705D01*
X230809Y32705D01*
X234890Y31014D01*
X238014Y27890D01*
X239705Y23809D01*
X239705Y19391D01*
X238014Y15310D01*
X234890Y12186D01*
X233537Y11625D01*
X233454Y11574D01*
X233368Y11528D01*
X233350Y11510D01*
X233328Y11496D01*
X233266Y11420D01*
X233199Y11350D01*
X233188Y11326D01*
X233171Y11306D01*
X233136Y11215D01*
X233095Y11127D01*
X233092Y11101D01*
X233083Y11077D01*
X233079Y10979D01*
X233068Y10883D01*
X233074Y10857D01*
X233072Y10831D01*
X233100Y10737D01*
X233120Y10642D01*
X233134Y10620D01*
X233141Y10595D01*
X233196Y10515D01*
X233246Y10431D01*
X233266Y10414D01*
X233281Y10393D01*
X233359Y10334D01*
X233433Y10271D01*
X233458Y10261D01*
X233479Y10246D01*
X233571Y10216D01*
X233661Y10179D01*
X233694Y10176D01*
X233712Y10170D01*
X233745Y10170D01*
X233828Y10161D01*
X248372Y10161D01*
X248468Y10176D01*
X248565Y10186D01*
X248589Y10196D01*
X248615Y10200D01*
X248700Y10246D01*
X248790Y10286D01*
X248809Y10303D01*
X248832Y10316D01*
X248899Y10386D01*
X248971Y10452D01*
X248983Y10475D01*
X249001Y10494D01*
X249042Y10582D01*
X249089Y10668D01*
X249094Y10693D01*
X249105Y10717D01*
X249116Y10814D01*
X249133Y10910D01*
X249129Y10936D01*
X249132Y10961D01*
X249111Y11057D01*
X249097Y11153D01*
X249085Y11176D01*
X249080Y11202D01*
X249030Y11285D01*
X248986Y11372D01*
X248967Y11391D01*
X248954Y11413D01*
X248880Y11476D01*
X248810Y11544D01*
X248781Y11560D01*
X248767Y11573D01*
X248736Y11585D01*
X248663Y11625D01*
X247310Y12186D01*
X244186Y15310D01*
X242495Y19391D01*
X242495Y23809D01*
X244186Y27890D01*
X247310Y31014D01*
X251391Y32705D01*
X255809Y32705D01*
X259890Y31014D01*
X263014Y27890D01*
X264705Y23809D01*
X264705Y19391D01*
X263014Y15310D01*
X259890Y12186D01*
X258537Y11625D01*
X258454Y11574D01*
X258368Y11528D01*
X258350Y11510D01*
X258328Y11496D01*
X258266Y11420D01*
X258199Y11350D01*
X258188Y11326D01*
X258171Y11306D01*
X258136Y11215D01*
X258095Y11127D01*
X258092Y11101D01*
X258083Y11077D01*
X258079Y10979D01*
X258068Y10883D01*
X258074Y10857D01*
X258072Y10831D01*
X258100Y10737D01*
X258120Y10642D01*
X258134Y10620D01*
X258141Y10595D01*
X258196Y10515D01*
X258246Y10431D01*
X258266Y10414D01*
X258281Y10393D01*
X258359Y10334D01*
X258433Y10271D01*
X258458Y10261D01*
X258479Y10246D01*
X258571Y10216D01*
X258662Y10179D01*
X258694Y10176D01*
X258712Y10170D01*
X258746Y10170D01*
X258828Y10161D01*
X278842Y10161D01*
X278913Y10172D01*
X278985Y10174D01*
X279034Y10192D01*
X279085Y10200D01*
X279148Y10234D01*
X279216Y10259D01*
X279256Y10291D01*
X279302Y10316D01*
X279352Y10368D01*
X279408Y10412D01*
X279436Y10456D01*
X279472Y10494D01*
X279502Y10559D01*
X279541Y10619D01*
X279553Y10670D01*
X279575Y10717D01*
X279583Y10788D01*
X279601Y10858D01*
X279597Y10910D01*
X279603Y10961D01*
X279587Y11032D01*
X279582Y11103D01*
X279561Y11151D01*
X279550Y11202D01*
X279513Y11263D01*
X279485Y11329D01*
X279441Y11385D01*
X279424Y11413D01*
X279406Y11428D01*
X279381Y11460D01*
X278147Y12694D01*
X276097Y17642D01*
X276097Y22998D01*
X278147Y27946D01*
X281934Y31733D01*
X286882Y33783D01*
X292238Y33783D01*
X297186Y31733D01*
X300973Y27946D01*
X301557Y26537D01*
X301594Y26476D01*
X301624Y26411D01*
X301659Y26372D01*
X301686Y26328D01*
X301742Y26282D01*
X301790Y26230D01*
X301836Y26205D01*
X301876Y26171D01*
X301943Y26146D01*
X302006Y26111D01*
X302057Y26102D01*
X302105Y26083D01*
X302177Y26080D01*
X302248Y26067D01*
X302299Y26075D01*
X302351Y26073D01*
X302420Y26093D01*
X302491Y26103D01*
X302537Y26127D01*
X302587Y26141D01*
X302646Y26182D01*
X302710Y26215D01*
X302747Y26252D01*
X302789Y26282D01*
X302832Y26339D01*
X302882Y26390D01*
X302917Y26453D01*
X302936Y26479D01*
X302943Y26501D01*
X302963Y26537D01*
X303547Y27946D01*
X307334Y31733D01*
X308393Y32172D01*
X308492Y32233D01*
X308593Y32293D01*
X308597Y32298D01*
X308602Y32302D01*
X308677Y32392D01*
X308753Y32480D01*
X308755Y32486D01*
X308759Y32491D01*
X308801Y32599D01*
X308845Y32709D01*
X308846Y32716D01*
X308847Y32721D01*
X308848Y32739D01*
X308863Y32875D01*
X308863Y248684D01*
X308849Y248775D01*
X308841Y248865D01*
X308829Y248895D01*
X308824Y248927D01*
X308781Y249008D01*
X308745Y249092D01*
X308719Y249124D01*
X308708Y249145D01*
X308685Y249167D01*
X308640Y249223D01*
X308308Y249555D01*
X307113Y252439D01*
X307113Y255561D01*
X308308Y258445D01*
X310515Y260652D01*
X313399Y261847D01*
X316521Y261847D01*
X319405Y260652D01*
X321612Y258445D01*
X322807Y255561D01*
X322807Y252439D01*
X321612Y249555D01*
X321280Y249223D01*
X321227Y249149D01*
X321167Y249079D01*
X321155Y249049D01*
X321136Y249023D01*
X321109Y248936D01*
X321075Y248851D01*
X321071Y248810D01*
X321064Y248788D01*
X321065Y248756D01*
X321057Y248684D01*
X321057Y32875D01*
X321076Y32761D01*
X321093Y32644D01*
X321095Y32639D01*
X321096Y32632D01*
X321151Y32530D01*
X321204Y32425D01*
X321209Y32421D01*
X321212Y32415D01*
X321296Y32335D01*
X321380Y32253D01*
X321386Y32249D01*
X321390Y32246D01*
X321407Y32238D01*
X321527Y32172D01*
X322586Y31733D01*
X326373Y27946D01*
X326957Y26537D01*
X326994Y26476D01*
X327024Y26411D01*
X327059Y26372D01*
X327086Y26328D01*
X327142Y26282D01*
X327190Y26230D01*
X327236Y26205D01*
X327276Y26171D01*
X327343Y26146D01*
X327406Y26111D01*
X327457Y26102D01*
X327505Y26083D01*
X327577Y26080D01*
X327648Y26067D01*
X327699Y26075D01*
X327751Y26073D01*
X327820Y26093D01*
X327891Y26103D01*
X327937Y26127D01*
X327987Y26141D01*
X328046Y26182D01*
X328110Y26215D01*
X328147Y26252D01*
X328189Y26282D01*
X328232Y26339D01*
X328282Y26390D01*
X328317Y26453D01*
X328336Y26479D01*
X328343Y26501D01*
X328363Y26537D01*
X328947Y27946D01*
X332734Y31733D01*
X337682Y33783D01*
X343038Y33783D01*
X347986Y31733D01*
X351773Y27946D01*
X352357Y26537D01*
X352394Y26476D01*
X352424Y26411D01*
X352459Y26372D01*
X352486Y26328D01*
X352542Y26282D01*
X352590Y26230D01*
X352636Y26205D01*
X352676Y26171D01*
X352743Y26146D01*
X352806Y26111D01*
X352857Y26102D01*
X352905Y26083D01*
X352977Y26080D01*
X353048Y26067D01*
X353099Y26075D01*
X353151Y26073D01*
X353220Y26093D01*
X353291Y26103D01*
X353337Y26127D01*
X353387Y26141D01*
X353446Y26182D01*
X353510Y26215D01*
X353547Y26252D01*
X353589Y26282D01*
X353632Y26339D01*
X353682Y26390D01*
X353717Y26453D01*
X353736Y26479D01*
X353743Y26501D01*
X353763Y26537D01*
X354347Y27946D01*
X358134Y31733D01*
X363082Y33783D01*
X368438Y33783D01*
X373386Y31733D01*
X377173Y27946D01*
X377757Y26537D01*
X377794Y26476D01*
X377824Y26411D01*
X377859Y26372D01*
X377886Y26328D01*
X377942Y26282D01*
X377990Y26230D01*
X378036Y26205D01*
X378076Y26171D01*
X378143Y26146D01*
X378206Y26111D01*
X378257Y26102D01*
X378305Y26083D01*
X378377Y26080D01*
X378448Y26067D01*
X378499Y26075D01*
X378551Y26073D01*
X378620Y26093D01*
X378691Y26103D01*
X378737Y26127D01*
X378787Y26141D01*
X378846Y26182D01*
X378910Y26215D01*
X378947Y26252D01*
X378989Y26282D01*
X379032Y26339D01*
X379082Y26390D01*
X379117Y26453D01*
X379136Y26479D01*
X379143Y26501D01*
X379163Y26537D01*
X379747Y27946D01*
X383534Y31733D01*
X388482Y33783D01*
X393838Y33783D01*
X398786Y31733D01*
X402573Y27946D01*
X403976Y24560D01*
X404029Y24474D01*
X404077Y24385D01*
X404094Y24370D01*
X404105Y24351D01*
X404183Y24287D01*
X404257Y24218D01*
X404278Y24209D01*
X404295Y24194D01*
X404389Y24158D01*
X404482Y24116D01*
X404504Y24114D01*
X404524Y24106D01*
X404625Y24102D01*
X404726Y24092D01*
X404748Y24097D01*
X404770Y24096D01*
X404867Y24124D01*
X404966Y24147D01*
X404985Y24158D01*
X405006Y24164D01*
X405089Y24222D01*
X405176Y24275D01*
X405190Y24292D01*
X405208Y24305D01*
X405269Y24386D01*
X405334Y24464D01*
X405345Y24488D01*
X405355Y24502D01*
X405365Y24533D01*
X405403Y24616D01*
X405496Y24903D01*
X406349Y26577D01*
X407454Y28098D01*
X408782Y29426D01*
X410303Y30531D01*
X411977Y31384D01*
X413764Y31965D01*
X415037Y32166D01*
X415037Y21082D01*
X415040Y21062D01*
X415038Y21043D01*
X415060Y20941D01*
X415077Y20839D01*
X415086Y20822D01*
X415090Y20802D01*
X415143Y20713D01*
X415192Y20622D01*
X415206Y20608D01*
X415216Y20591D01*
X415295Y20524D01*
X415370Y20453D01*
X415388Y20444D01*
X415403Y20431D01*
X415499Y20393D01*
X415593Y20349D01*
X415613Y20347D01*
X415631Y20339D01*
X415798Y20321D01*
X416561Y20321D01*
X416561Y19558D01*
X416564Y19538D01*
X416562Y19519D01*
X416584Y19417D01*
X416601Y19315D01*
X416610Y19298D01*
X416614Y19278D01*
X416667Y19189D01*
X416716Y19098D01*
X416730Y19084D01*
X416740Y19067D01*
X416819Y19000D01*
X416894Y18929D01*
X416912Y18920D01*
X416927Y18907D01*
X417023Y18868D01*
X417117Y18825D01*
X417137Y18823D01*
X417155Y18815D01*
X417322Y18797D01*
X428406Y18797D01*
X428205Y17524D01*
X427624Y15737D01*
X426771Y14063D01*
X425666Y12542D01*
X424584Y11460D01*
X424542Y11402D01*
X424493Y11350D01*
X424471Y11303D01*
X424441Y11261D01*
X424420Y11192D01*
X424389Y11127D01*
X424384Y11075D01*
X424368Y11025D01*
X424370Y10954D01*
X424362Y10883D01*
X424373Y10832D01*
X424375Y10780D01*
X424399Y10712D01*
X424414Y10642D01*
X424441Y10597D01*
X424459Y10549D01*
X424504Y10493D01*
X424541Y10431D01*
X424580Y10397D01*
X424613Y10357D01*
X424673Y10318D01*
X424728Y10271D01*
X424776Y10252D01*
X424820Y10224D01*
X424889Y10206D01*
X424956Y10179D01*
X425027Y10171D01*
X425058Y10163D01*
X425082Y10165D01*
X425122Y10161D01*
X489078Y10161D01*
X489098Y10164D01*
X489117Y10162D01*
X489219Y10184D01*
X489321Y10200D01*
X489338Y10210D01*
X489358Y10214D01*
X489447Y10267D01*
X489538Y10316D01*
X489552Y10330D01*
X489569Y10340D01*
X489636Y10419D01*
X489708Y10494D01*
X489716Y10512D01*
X489729Y10527D01*
X489768Y10623D01*
X489811Y10717D01*
X489813Y10737D01*
X489821Y10755D01*
X489839Y10922D01*
X489839Y459688D01*
X489828Y459758D01*
X489826Y459830D01*
X489808Y459879D01*
X489800Y459930D01*
X489766Y459994D01*
X489741Y460061D01*
X489709Y460102D01*
X489684Y460148D01*
X489632Y460197D01*
X489588Y460253D01*
X489544Y460281D01*
X489506Y460317D01*
X489441Y460347D01*
X489381Y460386D01*
X489330Y460399D01*
X489283Y460421D01*
X489212Y460429D01*
X489142Y460446D01*
X489090Y460442D01*
X489039Y460448D01*
X488968Y460433D01*
X488897Y460427D01*
X488849Y460407D01*
X488798Y460396D01*
X488737Y460359D01*
X488671Y460331D01*
X488615Y460286D01*
X488587Y460269D01*
X488572Y460252D01*
X488540Y460226D01*
X487838Y459524D01*
X486317Y458419D01*
X484643Y457566D01*
X482856Y456985D01*
X481583Y456784D01*
X481583Y467868D01*
X481580Y467888D01*
X481582Y467907D01*
X481560Y468009D01*
X481543Y468111D01*
X481534Y468128D01*
X481530Y468148D01*
X481477Y468237D01*
X481428Y468328D01*
X481414Y468342D01*
X481404Y468359D01*
X481325Y468426D01*
X481250Y468497D01*
X481232Y468506D01*
X481217Y468519D01*
X481121Y468557D01*
X481027Y468601D01*
X481007Y468603D01*
X480989Y468611D01*
X480822Y468629D01*
X480059Y468629D01*
X480059Y468631D01*
X480822Y468631D01*
X480842Y468634D01*
X480861Y468632D01*
X480963Y468654D01*
X481065Y468671D01*
X481082Y468680D01*
X481102Y468684D01*
X481191Y468737D01*
X481282Y468786D01*
X481296Y468800D01*
X481313Y468810D01*
X481380Y468889D01*
X481451Y468964D01*
X481460Y468982D01*
X481473Y468997D01*
X481512Y469093D01*
X481555Y469187D01*
X481557Y469207D01*
X481565Y469225D01*
X481583Y469392D01*
X481583Y480476D01*
X482856Y480275D01*
X484643Y479694D01*
X486317Y478841D01*
X487838Y477736D01*
X488540Y477034D01*
X488598Y476992D01*
X488650Y476943D01*
X488697Y476921D01*
X488739Y476891D01*
X488808Y476870D01*
X488873Y476839D01*
X488925Y476834D01*
X488975Y476818D01*
X489046Y476820D01*
X489117Y476812D01*
X489168Y476823D01*
X489220Y476825D01*
X489288Y476849D01*
X489358Y476864D01*
X489403Y476891D01*
X489451Y476909D01*
X489507Y476954D01*
X489569Y476991D01*
X489603Y477030D01*
X489643Y477063D01*
X489682Y477123D01*
X489729Y477178D01*
X489748Y477226D01*
X489776Y477270D01*
X489794Y477339D01*
X489821Y477406D01*
X489829Y477477D01*
X489837Y477508D01*
X489835Y477532D01*
X489839Y477572D01*
X489839Y489078D01*
X489836Y489098D01*
X489838Y489117D01*
X489816Y489219D01*
X489800Y489321D01*
X489790Y489338D01*
X489786Y489358D01*
X489733Y489447D01*
X489684Y489538D01*
X489670Y489552D01*
X489660Y489569D01*
X489581Y489636D01*
X489506Y489708D01*
X489488Y489716D01*
X489473Y489729D01*
X489377Y489768D01*
X489283Y489811D01*
X489263Y489813D01*
X489245Y489821D01*
X489078Y489839D01*
X10922Y489839D01*
X10902Y489836D01*
X10883Y489838D01*
X10781Y489816D01*
X10679Y489800D01*
X10662Y489790D01*
X10642Y489786D01*
X10553Y489733D01*
X10462Y489684D01*
X10448Y489670D01*
X10431Y489660D01*
X10364Y489581D01*
X10292Y489506D01*
X10284Y489488D01*
X10271Y489473D01*
X10232Y489377D01*
X10189Y489283D01*
X10187Y489263D01*
X10179Y489245D01*
X10161Y489078D01*
X10161Y479732D01*
X10172Y479662D01*
X10174Y479590D01*
X10192Y479541D01*
X10200Y479490D01*
X10234Y479426D01*
X10259Y479359D01*
X10291Y479318D01*
X10316Y479272D01*
X10368Y479223D01*
X10412Y479167D01*
X10456Y479139D01*
X10494Y479103D01*
X10559Y479073D01*
X10619Y479034D01*
X10670Y479021D01*
X10717Y478999D01*
X10788Y478991D01*
X10858Y478974D01*
X10910Y478978D01*
X10961Y478972D01*
X11032Y478987D01*
X11103Y478993D01*
X11151Y479013D01*
X11202Y479024D01*
X11263Y479061D01*
X11329Y479089D01*
X11385Y479134D01*
X11413Y479151D01*
X11428Y479168D01*
X11460Y479194D01*
X12542Y480276D01*
X14063Y481381D01*
X15737Y482234D01*
X17524Y482815D01*
X18797Y483016D01*
X18797Y471932D01*
X18800Y471912D01*
X18798Y471893D01*
X18820Y471791D01*
X18837Y471689D01*
X18846Y471672D01*
X18850Y471652D01*
X18903Y471563D01*
X18952Y471472D01*
X18966Y471458D01*
X18976Y471441D01*
X19055Y471374D01*
X19130Y471303D01*
X19148Y471294D01*
X19163Y471281D01*
X19259Y471243D01*
X19353Y471199D01*
X19373Y471197D01*
X19391Y471189D01*
X19558Y471171D01*
X20321Y471171D01*
X20321Y471169D01*
X19558Y471169D01*
X19538Y471166D01*
X19519Y471168D01*
X19417Y471146D01*
X19315Y471129D01*
X19298Y471120D01*
X19278Y471116D01*
X19189Y471063D01*
X19098Y471014D01*
X19084Y471000D01*
X19067Y470990D01*
X19000Y470911D01*
X18929Y470836D01*
X18920Y470818D01*
X18907Y470803D01*
X18868Y470707D01*
X18825Y470613D01*
X18823Y470593D01*
X18815Y470575D01*
X18797Y470408D01*
X18797Y459324D01*
X17524Y459525D01*
X15737Y460106D01*
X14063Y460959D01*
X12542Y462064D01*
X11460Y463146D01*
X11402Y463188D01*
X11350Y463237D01*
X11303Y463259D01*
X11261Y463289D01*
X11192Y463310D01*
X11127Y463341D01*
X11075Y463346D01*
X11025Y463362D01*
X10954Y463360D01*
X10883Y463368D01*
X10832Y463357D01*
X10780Y463355D01*
X10712Y463331D01*
X10642Y463316D01*
X10597Y463289D01*
X10549Y463271D01*
X10493Y463226D01*
X10431Y463189D01*
X10397Y463150D01*
X10357Y463117D01*
X10318Y463057D01*
X10271Y463002D01*
X10252Y462954D01*
X10224Y462910D01*
X10206Y462841D01*
X10179Y462774D01*
X10171Y462703D01*
X10163Y462672D01*
X10165Y462648D01*
X10161Y462608D01*
X10161Y10922D01*
X10164Y10902D01*
X10162Y10883D01*
X10184Y10781D01*
X10200Y10679D01*
X10210Y10662D01*
X10214Y10642D01*
X10267Y10553D01*
X10316Y10462D01*
X10330Y10448D01*
X10340Y10431D01*
X10419Y10364D01*
X10494Y10292D01*
X10512Y10284D01*
X10527Y10271D01*
X10623Y10232D01*
X10717Y10189D01*
X10737Y10187D01*
X10755Y10179D01*
X10922Y10161D01*
X198372Y10161D01*
X198468Y10176D01*
G37*
%LPC*%
G36*
X25399Y165099D02*
X25399Y165099D01*
X25399Y165862D01*
X25396Y165882D01*
X25398Y165901D01*
X25376Y166003D01*
X25359Y166105D01*
X25350Y166122D01*
X25346Y166142D01*
X25293Y166231D01*
X25244Y166322D01*
X25230Y166336D01*
X25220Y166353D01*
X25141Y166420D01*
X25066Y166491D01*
X25048Y166500D01*
X25033Y166513D01*
X24937Y166552D01*
X24843Y166595D01*
X24823Y166597D01*
X24805Y166605D01*
X24638Y166623D01*
X13554Y166623D01*
X13755Y167896D01*
X14336Y169683D01*
X15189Y171357D01*
X16294Y172878D01*
X17622Y174206D01*
X19143Y175311D01*
X20817Y176164D01*
X21104Y176257D01*
X21194Y176304D01*
X21286Y176345D01*
X21302Y176360D01*
X21322Y176370D01*
X21393Y176443D01*
X21467Y176511D01*
X21478Y176531D01*
X21493Y176547D01*
X21537Y176638D01*
X21586Y176727D01*
X21590Y176749D01*
X21599Y176769D01*
X21612Y176869D01*
X21630Y176969D01*
X21626Y176991D01*
X21629Y177013D01*
X21609Y177112D01*
X21594Y177212D01*
X21584Y177232D01*
X21579Y177254D01*
X21528Y177341D01*
X21482Y177431D01*
X21466Y177447D01*
X21455Y177466D01*
X21379Y177533D01*
X21307Y177604D01*
X21283Y177617D01*
X21270Y177628D01*
X21240Y177640D01*
X21160Y177684D01*
X17774Y179087D01*
X13987Y182874D01*
X11937Y187822D01*
X11937Y193178D01*
X13987Y198126D01*
X17774Y201913D01*
X19183Y202497D01*
X19244Y202534D01*
X19309Y202564D01*
X19348Y202599D01*
X19392Y202626D01*
X19438Y202682D01*
X19490Y202730D01*
X19515Y202776D01*
X19549Y202816D01*
X19574Y202883D01*
X19609Y202946D01*
X19618Y202997D01*
X19637Y203045D01*
X19640Y203117D01*
X19653Y203188D01*
X19645Y203239D01*
X19647Y203291D01*
X19627Y203360D01*
X19617Y203431D01*
X19593Y203477D01*
X19579Y203527D01*
X19538Y203586D01*
X19505Y203650D01*
X19468Y203687D01*
X19438Y203729D01*
X19381Y203772D01*
X19330Y203822D01*
X19267Y203857D01*
X19241Y203876D01*
X19219Y203883D01*
X19183Y203903D01*
X17774Y204487D01*
X13987Y208274D01*
X11937Y213222D01*
X11937Y218578D01*
X13987Y223526D01*
X17774Y227313D01*
X19183Y227897D01*
X19244Y227934D01*
X19309Y227964D01*
X19348Y227999D01*
X19392Y228026D01*
X19438Y228082D01*
X19490Y228130D01*
X19515Y228176D01*
X19549Y228216D01*
X19574Y228283D01*
X19609Y228346D01*
X19618Y228397D01*
X19637Y228445D01*
X19640Y228517D01*
X19653Y228588D01*
X19645Y228639D01*
X19647Y228691D01*
X19627Y228760D01*
X19617Y228831D01*
X19593Y228877D01*
X19579Y228927D01*
X19538Y228986D01*
X19505Y229050D01*
X19468Y229087D01*
X19438Y229129D01*
X19381Y229172D01*
X19330Y229222D01*
X19267Y229257D01*
X19241Y229276D01*
X19219Y229283D01*
X19183Y229303D01*
X17774Y229887D01*
X13987Y233674D01*
X11937Y238622D01*
X11937Y243978D01*
X13987Y248926D01*
X17774Y252713D01*
X19183Y253297D01*
X19244Y253334D01*
X19309Y253364D01*
X19348Y253399D01*
X19392Y253426D01*
X19438Y253482D01*
X19490Y253530D01*
X19515Y253576D01*
X19549Y253616D01*
X19574Y253683D01*
X19609Y253746D01*
X19618Y253797D01*
X19637Y253845D01*
X19640Y253917D01*
X19653Y253988D01*
X19645Y254039D01*
X19647Y254091D01*
X19627Y254160D01*
X19617Y254231D01*
X19593Y254277D01*
X19579Y254327D01*
X19538Y254386D01*
X19505Y254450D01*
X19468Y254487D01*
X19438Y254529D01*
X19381Y254572D01*
X19330Y254622D01*
X19267Y254657D01*
X19241Y254676D01*
X19219Y254683D01*
X19183Y254703D01*
X17774Y255287D01*
X13987Y259074D01*
X11937Y264022D01*
X11937Y269378D01*
X13987Y274326D01*
X17774Y278113D01*
X19183Y278697D01*
X19244Y278734D01*
X19309Y278764D01*
X19348Y278799D01*
X19392Y278826D01*
X19438Y278882D01*
X19490Y278930D01*
X19515Y278976D01*
X19549Y279016D01*
X19574Y279083D01*
X19609Y279146D01*
X19618Y279197D01*
X19637Y279245D01*
X19640Y279317D01*
X19653Y279388D01*
X19645Y279439D01*
X19647Y279491D01*
X19627Y279560D01*
X19617Y279631D01*
X19593Y279677D01*
X19579Y279727D01*
X19538Y279786D01*
X19505Y279850D01*
X19468Y279887D01*
X19438Y279929D01*
X19381Y279972D01*
X19330Y280022D01*
X19267Y280057D01*
X19241Y280076D01*
X19219Y280083D01*
X19183Y280103D01*
X17774Y280687D01*
X13987Y284474D01*
X11937Y289422D01*
X11937Y294778D01*
X13987Y299726D01*
X17774Y303513D01*
X19183Y304097D01*
X19244Y304134D01*
X19309Y304164D01*
X19348Y304199D01*
X19392Y304226D01*
X19438Y304282D01*
X19490Y304330D01*
X19515Y304376D01*
X19549Y304416D01*
X19574Y304483D01*
X19609Y304546D01*
X19618Y304597D01*
X19637Y304645D01*
X19640Y304717D01*
X19653Y304788D01*
X19645Y304839D01*
X19647Y304891D01*
X19627Y304960D01*
X19617Y305031D01*
X19593Y305077D01*
X19579Y305127D01*
X19538Y305186D01*
X19505Y305250D01*
X19468Y305287D01*
X19438Y305329D01*
X19381Y305372D01*
X19330Y305422D01*
X19267Y305457D01*
X19241Y305476D01*
X19219Y305483D01*
X19183Y305503D01*
X17774Y306087D01*
X13987Y309874D01*
X11937Y314822D01*
X11937Y320178D01*
X13987Y325126D01*
X17774Y328913D01*
X19183Y329497D01*
X19244Y329534D01*
X19309Y329564D01*
X19348Y329599D01*
X19392Y329626D01*
X19438Y329682D01*
X19490Y329730D01*
X19515Y329776D01*
X19549Y329816D01*
X19574Y329883D01*
X19609Y329946D01*
X19618Y329997D01*
X19637Y330045D01*
X19640Y330117D01*
X19653Y330188D01*
X19645Y330239D01*
X19647Y330291D01*
X19627Y330360D01*
X19617Y330431D01*
X19593Y330477D01*
X19579Y330527D01*
X19538Y330586D01*
X19505Y330650D01*
X19468Y330687D01*
X19438Y330729D01*
X19381Y330772D01*
X19330Y330822D01*
X19267Y330857D01*
X19241Y330876D01*
X19219Y330883D01*
X19183Y330903D01*
X17774Y331487D01*
X13987Y335274D01*
X11937Y340222D01*
X11937Y345578D01*
X13987Y350526D01*
X17774Y354313D01*
X19183Y354897D01*
X19244Y354934D01*
X19309Y354964D01*
X19348Y354999D01*
X19392Y355026D01*
X19438Y355082D01*
X19490Y355130D01*
X19515Y355176D01*
X19549Y355216D01*
X19574Y355283D01*
X19609Y355346D01*
X19618Y355397D01*
X19637Y355445D01*
X19640Y355517D01*
X19653Y355588D01*
X19645Y355639D01*
X19647Y355691D01*
X19627Y355760D01*
X19617Y355831D01*
X19593Y355877D01*
X19579Y355927D01*
X19538Y355986D01*
X19505Y356050D01*
X19468Y356087D01*
X19438Y356129D01*
X19381Y356172D01*
X19330Y356222D01*
X19267Y356257D01*
X19241Y356276D01*
X19219Y356283D01*
X19183Y356303D01*
X17774Y356887D01*
X13987Y360674D01*
X11937Y365622D01*
X11937Y370978D01*
X13987Y375926D01*
X17774Y379713D01*
X22722Y381763D01*
X28078Y381763D01*
X33026Y379713D01*
X36813Y375926D01*
X38863Y370978D01*
X38863Y365622D01*
X36813Y360674D01*
X33026Y356887D01*
X31617Y356303D01*
X31556Y356265D01*
X31491Y356236D01*
X31452Y356201D01*
X31408Y356174D01*
X31362Y356118D01*
X31310Y356070D01*
X31285Y356024D01*
X31251Y355984D01*
X31226Y355917D01*
X31191Y355854D01*
X31182Y355803D01*
X31163Y355755D01*
X31160Y355683D01*
X31147Y355612D01*
X31155Y355561D01*
X31153Y355509D01*
X31173Y355440D01*
X31183Y355369D01*
X31207Y355323D01*
X31221Y355273D01*
X31262Y355214D01*
X31295Y355150D01*
X31332Y355113D01*
X31362Y355071D01*
X31419Y355028D01*
X31470Y354978D01*
X31533Y354943D01*
X31559Y354924D01*
X31581Y354917D01*
X31617Y354897D01*
X33026Y354313D01*
X36813Y350526D01*
X38863Y345578D01*
X38863Y340222D01*
X36813Y335274D01*
X33026Y331487D01*
X31617Y330903D01*
X31556Y330865D01*
X31491Y330836D01*
X31452Y330801D01*
X31408Y330774D01*
X31362Y330718D01*
X31310Y330670D01*
X31285Y330624D01*
X31251Y330584D01*
X31226Y330517D01*
X31191Y330454D01*
X31182Y330403D01*
X31163Y330355D01*
X31160Y330283D01*
X31147Y330212D01*
X31155Y330161D01*
X31153Y330109D01*
X31173Y330040D01*
X31183Y329969D01*
X31207Y329923D01*
X31221Y329873D01*
X31262Y329814D01*
X31295Y329750D01*
X31332Y329713D01*
X31362Y329671D01*
X31419Y329628D01*
X31470Y329578D01*
X31533Y329543D01*
X31559Y329524D01*
X31581Y329517D01*
X31617Y329497D01*
X33026Y328913D01*
X36813Y325126D01*
X38863Y320178D01*
X38863Y314822D01*
X36813Y309874D01*
X33026Y306087D01*
X31617Y305503D01*
X31556Y305465D01*
X31491Y305436D01*
X31452Y305401D01*
X31408Y305374D01*
X31362Y305318D01*
X31310Y305270D01*
X31285Y305224D01*
X31251Y305184D01*
X31226Y305117D01*
X31191Y305054D01*
X31182Y305003D01*
X31163Y304955D01*
X31160Y304883D01*
X31147Y304812D01*
X31155Y304761D01*
X31153Y304709D01*
X31173Y304640D01*
X31183Y304569D01*
X31207Y304523D01*
X31221Y304473D01*
X31262Y304414D01*
X31295Y304350D01*
X31332Y304313D01*
X31362Y304271D01*
X31419Y304228D01*
X31470Y304178D01*
X31533Y304143D01*
X31559Y304124D01*
X31581Y304117D01*
X31617Y304097D01*
X33026Y303513D01*
X36813Y299726D01*
X38863Y294778D01*
X38863Y289422D01*
X36813Y284474D01*
X33026Y280687D01*
X31617Y280103D01*
X31556Y280065D01*
X31491Y280036D01*
X31452Y280001D01*
X31408Y279974D01*
X31362Y279918D01*
X31310Y279870D01*
X31285Y279824D01*
X31251Y279784D01*
X31226Y279717D01*
X31191Y279654D01*
X31182Y279603D01*
X31163Y279555D01*
X31160Y279483D01*
X31147Y279412D01*
X31155Y279361D01*
X31153Y279309D01*
X31173Y279240D01*
X31183Y279169D01*
X31207Y279123D01*
X31221Y279073D01*
X31262Y279014D01*
X31295Y278950D01*
X31332Y278913D01*
X31362Y278871D01*
X31419Y278828D01*
X31470Y278778D01*
X31533Y278743D01*
X31559Y278724D01*
X31581Y278717D01*
X31617Y278697D01*
X33026Y278113D01*
X36813Y274326D01*
X38863Y269378D01*
X38863Y264022D01*
X36813Y259074D01*
X33026Y255287D01*
X31617Y254703D01*
X31556Y254665D01*
X31491Y254636D01*
X31452Y254601D01*
X31408Y254574D01*
X31362Y254518D01*
X31310Y254470D01*
X31285Y254424D01*
X31251Y254384D01*
X31226Y254317D01*
X31191Y254254D01*
X31182Y254203D01*
X31163Y254155D01*
X31160Y254083D01*
X31147Y254012D01*
X31155Y253961D01*
X31153Y253909D01*
X31173Y253840D01*
X31183Y253769D01*
X31207Y253723D01*
X31221Y253673D01*
X31262Y253614D01*
X31295Y253550D01*
X31332Y253513D01*
X31362Y253471D01*
X31419Y253428D01*
X31470Y253378D01*
X31533Y253343D01*
X31559Y253324D01*
X31581Y253317D01*
X31617Y253297D01*
X33026Y252713D01*
X36813Y248926D01*
X38863Y243978D01*
X38863Y238622D01*
X36813Y233674D01*
X33026Y229887D01*
X31617Y229303D01*
X31556Y229265D01*
X31491Y229236D01*
X31452Y229201D01*
X31408Y229174D01*
X31362Y229118D01*
X31310Y229070D01*
X31285Y229024D01*
X31251Y228984D01*
X31226Y228917D01*
X31191Y228854D01*
X31182Y228803D01*
X31163Y228755D01*
X31160Y228683D01*
X31147Y228612D01*
X31155Y228561D01*
X31153Y228509D01*
X31173Y228440D01*
X31183Y228369D01*
X31207Y228323D01*
X31221Y228273D01*
X31262Y228214D01*
X31295Y228150D01*
X31332Y228113D01*
X31362Y228071D01*
X31419Y228028D01*
X31470Y227978D01*
X31533Y227943D01*
X31559Y227924D01*
X31581Y227917D01*
X31617Y227897D01*
X33026Y227313D01*
X36813Y223526D01*
X38863Y218578D01*
X38863Y214423D01*
X38874Y214352D01*
X38876Y214280D01*
X38894Y214231D01*
X38902Y214180D01*
X38936Y214117D01*
X38961Y214049D01*
X38993Y214009D01*
X39018Y213962D01*
X39070Y213913D01*
X39114Y213857D01*
X39158Y213829D01*
X39196Y213793D01*
X39261Y213763D01*
X39321Y213724D01*
X39372Y213711D01*
X39419Y213689D01*
X39490Y213682D01*
X39560Y213664D01*
X39612Y213668D01*
X39663Y213662D01*
X39734Y213678D01*
X39805Y213683D01*
X39853Y213704D01*
X39904Y213715D01*
X39965Y213751D01*
X40031Y213780D01*
X40087Y213824D01*
X40115Y213841D01*
X40130Y213859D01*
X40162Y213884D01*
X77500Y251222D01*
X77553Y251296D01*
X77613Y251366D01*
X77625Y251396D01*
X77644Y251422D01*
X77671Y251509D01*
X77705Y251594D01*
X77709Y251635D01*
X77716Y251657D01*
X77715Y251689D01*
X77723Y251761D01*
X77723Y333594D01*
X77709Y333684D01*
X77701Y333775D01*
X77689Y333804D01*
X77684Y333836D01*
X77641Y333917D01*
X77605Y334001D01*
X77579Y334033D01*
X77568Y334054D01*
X77545Y334076D01*
X77500Y334132D01*
X73151Y338481D01*
X73151Y347319D01*
X79401Y353569D01*
X88239Y353569D01*
X91664Y350144D01*
X91722Y350102D01*
X91774Y350053D01*
X91821Y350031D01*
X91863Y350001D01*
X91932Y349979D01*
X91997Y349949D01*
X92049Y349944D01*
X92099Y349928D01*
X92170Y349930D01*
X92241Y349922D01*
X92292Y349933D01*
X92344Y349935D01*
X92412Y349959D01*
X92482Y349974D01*
X92527Y350001D01*
X92575Y350019D01*
X92631Y350064D01*
X92693Y350101D01*
X92727Y350140D01*
X92767Y350173D01*
X92806Y350233D01*
X92853Y350288D01*
X92872Y350336D01*
X92900Y350380D01*
X92918Y350449D01*
X92945Y350516D01*
X92953Y350587D01*
X92961Y350618D01*
X92959Y350641D01*
X92963Y350682D01*
X92963Y401019D01*
X92949Y401109D01*
X92941Y401200D01*
X92929Y401230D01*
X92924Y401262D01*
X92881Y401343D01*
X92845Y401427D01*
X92819Y401459D01*
X92808Y401479D01*
X92785Y401502D01*
X92740Y401558D01*
X86090Y408208D01*
X86016Y408261D01*
X85946Y408321D01*
X85916Y408333D01*
X85890Y408352D01*
X85803Y408379D01*
X85718Y408413D01*
X85677Y408417D01*
X85655Y408424D01*
X85623Y408423D01*
X85551Y408431D01*
X79401Y408431D01*
X73151Y414681D01*
X73151Y420831D01*
X73137Y420921D01*
X73129Y421012D01*
X73117Y421042D01*
X73112Y421074D01*
X73069Y421155D01*
X73033Y421239D01*
X73007Y421271D01*
X72996Y421291D01*
X72973Y421314D01*
X72928Y421370D01*
X65951Y428346D01*
X65023Y430587D01*
X65023Y458615D01*
X65004Y458730D01*
X64987Y458846D01*
X64985Y458851D01*
X64984Y458857D01*
X64929Y458960D01*
X64876Y459065D01*
X64871Y459069D01*
X64868Y459075D01*
X64784Y459155D01*
X64700Y459237D01*
X64694Y459241D01*
X64690Y459244D01*
X64673Y459252D01*
X64553Y459318D01*
X63494Y459757D01*
X59707Y463544D01*
X57657Y468492D01*
X57657Y473848D01*
X59707Y478796D01*
X63494Y482583D01*
X68442Y484633D01*
X73798Y484633D01*
X78746Y482583D01*
X82533Y478796D01*
X84583Y473848D01*
X84583Y468492D01*
X82533Y463544D01*
X78746Y459757D01*
X77687Y459318D01*
X77587Y459257D01*
X77487Y459197D01*
X77483Y459192D01*
X77478Y459188D01*
X77403Y459099D01*
X77327Y459010D01*
X77325Y459004D01*
X77321Y458999D01*
X77279Y458891D01*
X77235Y458781D01*
X77234Y458774D01*
X77233Y458769D01*
X77232Y458751D01*
X77217Y458615D01*
X77217Y434641D01*
X77231Y434551D01*
X77239Y434460D01*
X77251Y434430D01*
X77256Y434398D01*
X77299Y434317D01*
X77335Y434233D01*
X77361Y434201D01*
X77372Y434181D01*
X77395Y434158D01*
X77440Y434102D01*
X81550Y429992D01*
X81624Y429939D01*
X81694Y429879D01*
X81724Y429867D01*
X81750Y429848D01*
X81837Y429821D01*
X81922Y429787D01*
X81963Y429783D01*
X81985Y429776D01*
X82017Y429777D01*
X82089Y429769D01*
X88239Y429769D01*
X94489Y423519D01*
X94489Y417369D01*
X94503Y417279D01*
X94511Y417188D01*
X94523Y417158D01*
X94528Y417126D01*
X94571Y417045D01*
X94607Y416961D01*
X94633Y416929D01*
X94644Y416909D01*
X94667Y416886D01*
X94712Y416830D01*
X104229Y407314D01*
X105157Y405073D01*
X105157Y348527D01*
X105168Y348456D01*
X105170Y348385D01*
X105188Y348336D01*
X105196Y348284D01*
X105230Y348221D01*
X105255Y348154D01*
X105287Y348113D01*
X105312Y348067D01*
X105364Y348018D01*
X105408Y347962D01*
X105452Y347933D01*
X105490Y347898D01*
X105555Y347867D01*
X105615Y347829D01*
X105666Y347816D01*
X105713Y347794D01*
X105784Y347786D01*
X105854Y347769D01*
X105906Y347773D01*
X105957Y347767D01*
X106028Y347782D01*
X106099Y347788D01*
X106147Y347808D01*
X106198Y347819D01*
X106259Y347856D01*
X106325Y347884D01*
X106381Y347929D01*
X106409Y347945D01*
X106424Y347963D01*
X106456Y347989D01*
X110512Y352045D01*
X112777Y352045D01*
X112777Y343662D01*
X112780Y343642D01*
X112778Y343623D01*
X112800Y343521D01*
X112817Y343419D01*
X112826Y343402D01*
X112830Y343382D01*
X112883Y343293D01*
X112932Y343202D01*
X112946Y343188D01*
X112956Y343171D01*
X113035Y343104D01*
X113110Y343033D01*
X113128Y343024D01*
X113143Y343011D01*
X113239Y342973D01*
X113333Y342929D01*
X113353Y342927D01*
X113371Y342919D01*
X113538Y342901D01*
X114301Y342901D01*
X114301Y342899D01*
X113538Y342899D01*
X113518Y342896D01*
X113499Y342898D01*
X113397Y342876D01*
X113295Y342859D01*
X113278Y342850D01*
X113258Y342846D01*
X113169Y342793D01*
X113078Y342744D01*
X113064Y342730D01*
X113047Y342720D01*
X112980Y342641D01*
X112909Y342566D01*
X112900Y342548D01*
X112887Y342533D01*
X112848Y342437D01*
X112805Y342343D01*
X112803Y342323D01*
X112795Y342305D01*
X112777Y342138D01*
X112777Y333755D01*
X110512Y333755D01*
X106456Y337811D01*
X106398Y337853D01*
X106346Y337902D01*
X106299Y337924D01*
X106257Y337955D01*
X106188Y337976D01*
X106123Y338006D01*
X106071Y338012D01*
X106021Y338027D01*
X105950Y338025D01*
X105879Y338033D01*
X105828Y338022D01*
X105776Y338021D01*
X105708Y337996D01*
X105638Y337981D01*
X105593Y337954D01*
X105545Y337936D01*
X105489Y337891D01*
X105427Y337855D01*
X105393Y337815D01*
X105353Y337783D01*
X105314Y337722D01*
X105267Y337668D01*
X105248Y337619D01*
X105220Y337576D01*
X105202Y337506D01*
X105175Y337440D01*
X105167Y337368D01*
X105159Y337337D01*
X105161Y337314D01*
X105157Y337273D01*
X105157Y212326D01*
X105171Y212235D01*
X105179Y212145D01*
X105191Y212115D01*
X105196Y212083D01*
X105239Y212002D01*
X105275Y211918D01*
X105301Y211886D01*
X105312Y211865D01*
X105335Y211843D01*
X105380Y211787D01*
X105712Y211455D01*
X106907Y208571D01*
X106907Y205449D01*
X105712Y202565D01*
X103505Y200358D01*
X100621Y199163D01*
X97499Y199163D01*
X94615Y200358D01*
X92408Y202565D01*
X91213Y205449D01*
X91213Y208571D01*
X92408Y211455D01*
X92740Y211787D01*
X92793Y211861D01*
X92853Y211931D01*
X92865Y211961D01*
X92884Y211987D01*
X92911Y212074D01*
X92945Y212159D01*
X92949Y212200D01*
X92956Y212222D01*
X92955Y212254D01*
X92963Y212326D01*
X92963Y335118D01*
X92952Y335188D01*
X92950Y335260D01*
X92932Y335309D01*
X92924Y335360D01*
X92890Y335424D01*
X92865Y335491D01*
X92833Y335532D01*
X92808Y335578D01*
X92756Y335627D01*
X92712Y335683D01*
X92668Y335711D01*
X92630Y335747D01*
X92565Y335777D01*
X92505Y335816D01*
X92454Y335829D01*
X92407Y335851D01*
X92336Y335859D01*
X92266Y335876D01*
X92214Y335872D01*
X92163Y335878D01*
X92092Y335863D01*
X92021Y335857D01*
X91973Y335837D01*
X91922Y335826D01*
X91861Y335789D01*
X91795Y335761D01*
X91739Y335716D01*
X91711Y335699D01*
X91696Y335682D01*
X91664Y335656D01*
X90140Y334132D01*
X90087Y334058D01*
X90027Y333988D01*
X90015Y333958D01*
X89996Y333932D01*
X89969Y333845D01*
X89935Y333760D01*
X89931Y333719D01*
X89924Y333697D01*
X89925Y333665D01*
X89917Y333594D01*
X89917Y247707D01*
X88989Y245466D01*
X38589Y195067D01*
X38521Y194973D01*
X38451Y194878D01*
X38449Y194872D01*
X38445Y194867D01*
X38411Y194756D01*
X38375Y194644D01*
X38375Y194638D01*
X38373Y194632D01*
X38376Y194515D01*
X38377Y194398D01*
X38379Y194391D01*
X38379Y194386D01*
X38386Y194369D01*
X38424Y194237D01*
X38863Y193178D01*
X38863Y187822D01*
X36813Y182874D01*
X33026Y179087D01*
X29640Y177684D01*
X29554Y177631D01*
X29465Y177583D01*
X29450Y177566D01*
X29431Y177555D01*
X29367Y177477D01*
X29298Y177403D01*
X29289Y177382D01*
X29274Y177365D01*
X29238Y177271D01*
X29196Y177178D01*
X29194Y177156D01*
X29186Y177136D01*
X29182Y177035D01*
X29172Y176934D01*
X29177Y176912D01*
X29176Y176890D01*
X29204Y176793D01*
X29227Y176694D01*
X29238Y176675D01*
X29244Y176654D01*
X29302Y176571D01*
X29355Y176484D01*
X29372Y176470D01*
X29385Y176452D01*
X29466Y176391D01*
X29544Y176326D01*
X29568Y176315D01*
X29582Y176305D01*
X29613Y176295D01*
X29696Y176257D01*
X29983Y176164D01*
X31657Y175311D01*
X33178Y174206D01*
X34506Y172878D01*
X35611Y171357D01*
X36464Y169683D01*
X37045Y167896D01*
X37246Y166623D01*
X26162Y166623D01*
X26142Y166620D01*
X26123Y166622D01*
X26021Y166600D01*
X25919Y166583D01*
X25902Y166574D01*
X25882Y166570D01*
X25793Y166517D01*
X25702Y166468D01*
X25688Y166454D01*
X25671Y166444D01*
X25604Y166365D01*
X25533Y166290D01*
X25524Y166272D01*
X25511Y166257D01*
X25473Y166161D01*
X25429Y166067D01*
X25427Y166047D01*
X25419Y166029D01*
X25401Y165862D01*
X25401Y165099D01*
X25399Y165099D01*
G37*
%LPD*%
%LPC*%
G36*
X203173Y306641D02*
X203173Y306641D01*
X199252Y308265D01*
X196251Y311266D01*
X194627Y315187D01*
X194627Y319432D01*
X196251Y323353D01*
X199252Y326354D01*
X203173Y327978D01*
X213631Y327978D01*
X213721Y327993D01*
X213812Y328000D01*
X213842Y328013D01*
X213874Y328018D01*
X213954Y328061D01*
X214038Y328096D01*
X214070Y328122D01*
X214091Y328133D01*
X214113Y328156D01*
X214169Y328201D01*
X216709Y330741D01*
X216751Y330799D01*
X216800Y330851D01*
X216822Y330899D01*
X216853Y330941D01*
X216874Y331009D01*
X216904Y331075D01*
X216910Y331126D01*
X216925Y331176D01*
X216923Y331248D01*
X216931Y331319D01*
X216920Y331370D01*
X216919Y331422D01*
X216894Y331489D01*
X216879Y331559D01*
X216852Y331604D01*
X216834Y331653D01*
X216789Y331709D01*
X216753Y331770D01*
X216713Y331804D01*
X216681Y331845D01*
X216620Y331884D01*
X216566Y331930D01*
X216517Y331950D01*
X216474Y331978D01*
X216404Y331995D01*
X216338Y332022D01*
X216266Y332030D01*
X216235Y332038D01*
X216212Y332036D01*
X216171Y332041D01*
X203173Y332041D01*
X199252Y333665D01*
X196251Y336666D01*
X194627Y340587D01*
X194627Y344832D01*
X196251Y348753D01*
X199252Y351754D01*
X203173Y353378D01*
X217441Y353378D01*
X217531Y353393D01*
X217622Y353400D01*
X217652Y353413D01*
X217684Y353418D01*
X217764Y353461D01*
X217848Y353496D01*
X217880Y353522D01*
X217901Y353533D01*
X217923Y353556D01*
X217979Y353601D01*
X220519Y356141D01*
X220561Y356199D01*
X220610Y356251D01*
X220632Y356299D01*
X220663Y356341D01*
X220684Y356409D01*
X220714Y356475D01*
X220720Y356526D01*
X220735Y356576D01*
X220733Y356648D01*
X220741Y356719D01*
X220730Y356770D01*
X220729Y356822D01*
X220704Y356889D01*
X220689Y356959D01*
X220662Y357004D01*
X220644Y357053D01*
X220599Y357109D01*
X220563Y357170D01*
X220523Y357204D01*
X220491Y357245D01*
X220430Y357284D01*
X220376Y357330D01*
X220327Y357350D01*
X220284Y357378D01*
X220214Y357395D01*
X220148Y357422D01*
X220076Y357430D01*
X220045Y357438D01*
X220022Y357436D01*
X219981Y357441D01*
X203173Y357441D01*
X199252Y359065D01*
X196251Y362066D01*
X194627Y365987D01*
X194627Y370232D01*
X196251Y374153D01*
X199252Y377154D01*
X203173Y378778D01*
X220626Y378778D01*
X224547Y377154D01*
X227548Y374153D01*
X229172Y370232D01*
X229172Y366632D01*
X229184Y366561D01*
X229186Y366490D01*
X229204Y366441D01*
X229212Y366389D01*
X229246Y366326D01*
X229270Y366259D01*
X229303Y366218D01*
X229327Y366172D01*
X229379Y366123D01*
X229424Y366067D01*
X229468Y366038D01*
X229505Y366003D01*
X229570Y365972D01*
X229631Y365934D01*
X229681Y365921D01*
X229728Y365899D01*
X229800Y365891D01*
X229869Y365874D01*
X229921Y365878D01*
X229973Y365872D01*
X230043Y365887D01*
X230114Y365893D01*
X230162Y365913D01*
X230213Y365924D01*
X230275Y365961D01*
X230341Y365989D01*
X230397Y366034D01*
X230424Y366050D01*
X230440Y366068D01*
X230472Y366094D01*
X234980Y370602D01*
X235033Y370676D01*
X235093Y370746D01*
X235105Y370776D01*
X235124Y370802D01*
X235151Y370889D01*
X235185Y370974D01*
X235189Y371015D01*
X235196Y371037D01*
X235195Y371069D01*
X235203Y371141D01*
X235203Y431743D01*
X236131Y433984D01*
X252936Y450788D01*
X252976Y450843D01*
X253023Y450892D01*
X253047Y450943D01*
X253080Y450988D01*
X253100Y451053D01*
X253129Y451114D01*
X253136Y451170D01*
X253152Y451223D01*
X253150Y451291D01*
X253158Y451358D01*
X253147Y451413D01*
X253146Y451469D01*
X253122Y451533D01*
X253109Y451599D01*
X253080Y451647D01*
X253061Y451700D01*
X253019Y451753D01*
X252985Y451811D01*
X252942Y451848D01*
X252908Y451892D01*
X252851Y451929D01*
X252799Y451973D01*
X252748Y451995D01*
X252701Y452025D01*
X252635Y452042D01*
X252572Y452067D01*
X252516Y452071D01*
X252462Y452085D01*
X252395Y452080D01*
X252327Y452084D01*
X252250Y452068D01*
X252217Y452066D01*
X252198Y452058D01*
X252163Y452050D01*
X251716Y451905D01*
X250443Y451704D01*
X250443Y462788D01*
X250440Y462808D01*
X250442Y462827D01*
X250420Y462929D01*
X250403Y463031D01*
X250394Y463048D01*
X250390Y463068D01*
X250337Y463157D01*
X250288Y463248D01*
X250274Y463262D01*
X250264Y463279D01*
X250185Y463346D01*
X250110Y463417D01*
X250092Y463426D01*
X250077Y463439D01*
X249981Y463477D01*
X249887Y463521D01*
X249867Y463523D01*
X249849Y463531D01*
X249682Y463549D01*
X248158Y463549D01*
X248138Y463546D01*
X248119Y463548D01*
X248017Y463526D01*
X247915Y463509D01*
X247898Y463500D01*
X247878Y463496D01*
X247789Y463443D01*
X247698Y463394D01*
X247684Y463380D01*
X247667Y463370D01*
X247600Y463291D01*
X247529Y463216D01*
X247520Y463198D01*
X247507Y463183D01*
X247468Y463087D01*
X247425Y462993D01*
X247423Y462973D01*
X247415Y462955D01*
X247397Y462788D01*
X247397Y451704D01*
X246124Y451905D01*
X244337Y452486D01*
X242663Y453339D01*
X241142Y454444D01*
X239814Y455772D01*
X238709Y457293D01*
X237856Y458967D01*
X237763Y459254D01*
X237716Y459344D01*
X237675Y459436D01*
X237660Y459452D01*
X237650Y459472D01*
X237577Y459543D01*
X237509Y459617D01*
X237489Y459628D01*
X237473Y459643D01*
X237382Y459687D01*
X237293Y459736D01*
X237271Y459740D01*
X237251Y459749D01*
X237151Y459762D01*
X237051Y459780D01*
X237029Y459776D01*
X237007Y459779D01*
X236908Y459759D01*
X236808Y459744D01*
X236788Y459734D01*
X236766Y459729D01*
X236679Y459678D01*
X236589Y459632D01*
X236573Y459616D01*
X236554Y459605D01*
X236487Y459529D01*
X236416Y459457D01*
X236403Y459433D01*
X236392Y459420D01*
X236380Y459390D01*
X236336Y459310D01*
X234933Y455924D01*
X231146Y452137D01*
X226198Y450087D01*
X220842Y450087D01*
X215894Y452137D01*
X212107Y455924D01*
X211523Y457333D01*
X211486Y457394D01*
X211456Y457459D01*
X211421Y457498D01*
X211394Y457542D01*
X211338Y457588D01*
X211290Y457640D01*
X211244Y457665D01*
X211204Y457699D01*
X211137Y457724D01*
X211074Y457759D01*
X211023Y457768D01*
X210975Y457787D01*
X210903Y457790D01*
X210832Y457803D01*
X210781Y457795D01*
X210729Y457797D01*
X210660Y457777D01*
X210589Y457767D01*
X210543Y457743D01*
X210493Y457729D01*
X210434Y457688D01*
X210370Y457655D01*
X210333Y457618D01*
X210291Y457588D01*
X210248Y457531D01*
X210198Y457480D01*
X210163Y457417D01*
X210144Y457391D01*
X210137Y457369D01*
X210117Y457333D01*
X209533Y455924D01*
X205746Y452137D01*
X204687Y451698D01*
X204587Y451636D01*
X204487Y451577D01*
X204483Y451572D01*
X204478Y451568D01*
X204403Y451478D01*
X204327Y451390D01*
X204325Y451384D01*
X204321Y451379D01*
X204279Y451271D01*
X204235Y451161D01*
X204234Y451154D01*
X204233Y451149D01*
X204232Y451131D01*
X204217Y450995D01*
X204217Y435530D01*
X204231Y435440D01*
X204239Y435349D01*
X204251Y435319D01*
X204256Y435287D01*
X204299Y435206D01*
X204335Y435122D01*
X204361Y435090D01*
X204372Y435070D01*
X204395Y435047D01*
X204440Y434991D01*
X209630Y429801D01*
X209704Y429748D01*
X209773Y429689D01*
X209803Y429676D01*
X209830Y429658D01*
X209917Y429631D01*
X210001Y429597D01*
X210042Y429592D01*
X210065Y429585D01*
X210097Y429586D01*
X210168Y429578D01*
X220626Y429578D01*
X224547Y427954D01*
X227548Y424953D01*
X229172Y421032D01*
X229172Y416787D01*
X227548Y412866D01*
X224547Y409865D01*
X220626Y408241D01*
X203173Y408241D01*
X199252Y409865D01*
X196251Y412866D01*
X194627Y416787D01*
X194627Y421032D01*
X196265Y424987D01*
X196287Y425022D01*
X196348Y425106D01*
X196354Y425125D01*
X196364Y425142D01*
X196390Y425242D01*
X196420Y425341D01*
X196420Y425361D01*
X196424Y425380D01*
X196416Y425483D01*
X196414Y425587D01*
X196407Y425605D01*
X196405Y425625D01*
X196365Y425720D01*
X196329Y425818D01*
X196317Y425833D01*
X196309Y425852D01*
X196204Y425983D01*
X192951Y429235D01*
X192023Y431476D01*
X192023Y450995D01*
X192004Y451109D01*
X191987Y451226D01*
X191985Y451231D01*
X191984Y451238D01*
X191929Y451340D01*
X191876Y451445D01*
X191871Y451449D01*
X191868Y451455D01*
X191784Y451535D01*
X191700Y451617D01*
X191694Y451621D01*
X191690Y451624D01*
X191673Y451632D01*
X191553Y451698D01*
X190494Y452137D01*
X186707Y455924D01*
X184657Y460872D01*
X184657Y466228D01*
X186707Y471176D01*
X190494Y474963D01*
X195442Y477013D01*
X200798Y477013D01*
X205746Y474963D01*
X209533Y471176D01*
X210117Y469767D01*
X210155Y469706D01*
X210184Y469641D01*
X210219Y469602D01*
X210246Y469558D01*
X210302Y469512D01*
X210350Y469460D01*
X210396Y469435D01*
X210436Y469401D01*
X210503Y469376D01*
X210566Y469341D01*
X210617Y469332D01*
X210665Y469313D01*
X210737Y469310D01*
X210808Y469297D01*
X210859Y469305D01*
X210911Y469303D01*
X210980Y469323D01*
X211051Y469333D01*
X211097Y469357D01*
X211147Y469371D01*
X211206Y469412D01*
X211270Y469445D01*
X211307Y469482D01*
X211349Y469512D01*
X211392Y469569D01*
X211442Y469620D01*
X211477Y469683D01*
X211496Y469709D01*
X211503Y469731D01*
X211523Y469767D01*
X212107Y471176D01*
X215894Y474963D01*
X220842Y477013D01*
X226198Y477013D01*
X231146Y474963D01*
X234933Y471176D01*
X236336Y467790D01*
X236389Y467704D01*
X236437Y467615D01*
X236454Y467600D01*
X236465Y467581D01*
X236543Y467517D01*
X236617Y467448D01*
X236638Y467439D01*
X236655Y467424D01*
X236749Y467388D01*
X236842Y467346D01*
X236864Y467344D01*
X236884Y467336D01*
X236985Y467332D01*
X237086Y467322D01*
X237108Y467327D01*
X237130Y467326D01*
X237227Y467354D01*
X237326Y467377D01*
X237345Y467388D01*
X237366Y467394D01*
X237449Y467452D01*
X237536Y467505D01*
X237550Y467522D01*
X237568Y467535D01*
X237629Y467616D01*
X237694Y467694D01*
X237705Y467718D01*
X237715Y467732D01*
X237725Y467763D01*
X237763Y467846D01*
X237856Y468133D01*
X238709Y469807D01*
X239814Y471328D01*
X241142Y472656D01*
X242663Y473761D01*
X244337Y474614D01*
X246124Y475195D01*
X247397Y475396D01*
X247397Y464312D01*
X247400Y464292D01*
X247398Y464273D01*
X247420Y464171D01*
X247437Y464069D01*
X247446Y464052D01*
X247450Y464032D01*
X247503Y463943D01*
X247552Y463852D01*
X247566Y463838D01*
X247576Y463821D01*
X247655Y463754D01*
X247730Y463683D01*
X247748Y463674D01*
X247763Y463661D01*
X247859Y463623D01*
X247953Y463579D01*
X247973Y463577D01*
X247991Y463569D01*
X248158Y463551D01*
X249682Y463551D01*
X249702Y463554D01*
X249721Y463552D01*
X249823Y463574D01*
X249925Y463591D01*
X249942Y463600D01*
X249962Y463604D01*
X250051Y463657D01*
X250142Y463706D01*
X250156Y463720D01*
X250173Y463730D01*
X250240Y463809D01*
X250311Y463884D01*
X250320Y463902D01*
X250333Y463917D01*
X250372Y464013D01*
X250415Y464107D01*
X250417Y464127D01*
X250425Y464145D01*
X250443Y464312D01*
X250443Y475396D01*
X251716Y475195D01*
X253503Y474614D01*
X255177Y473761D01*
X256698Y472656D01*
X258026Y471328D01*
X259131Y469807D01*
X259984Y468133D01*
X260077Y467846D01*
X260124Y467756D01*
X260165Y467664D01*
X260180Y467648D01*
X260190Y467628D01*
X260263Y467557D01*
X260331Y467483D01*
X260351Y467472D01*
X260367Y467457D01*
X260458Y467413D01*
X260547Y467364D01*
X260569Y467360D01*
X260589Y467351D01*
X260689Y467338D01*
X260789Y467320D01*
X260811Y467324D01*
X260833Y467321D01*
X260932Y467341D01*
X261032Y467356D01*
X261052Y467366D01*
X261074Y467371D01*
X261161Y467422D01*
X261251Y467468D01*
X261267Y467484D01*
X261286Y467495D01*
X261353Y467571D01*
X261424Y467643D01*
X261437Y467667D01*
X261448Y467680D01*
X261460Y467710D01*
X261504Y467790D01*
X262907Y471176D01*
X266694Y474963D01*
X271642Y477013D01*
X276998Y477013D01*
X281946Y474963D01*
X285733Y471176D01*
X286317Y469767D01*
X286355Y469706D01*
X286384Y469641D01*
X286419Y469602D01*
X286446Y469558D01*
X286502Y469512D01*
X286550Y469460D01*
X286596Y469435D01*
X286636Y469401D01*
X286703Y469376D01*
X286766Y469341D01*
X286817Y469332D01*
X286865Y469313D01*
X286937Y469310D01*
X287008Y469297D01*
X287059Y469305D01*
X287111Y469303D01*
X287180Y469323D01*
X287251Y469333D01*
X287297Y469357D01*
X287347Y469371D01*
X287406Y469412D01*
X287470Y469445D01*
X287507Y469482D01*
X287549Y469512D01*
X287592Y469569D01*
X287642Y469620D01*
X287677Y469683D01*
X287696Y469709D01*
X287703Y469731D01*
X287723Y469767D01*
X288307Y471176D01*
X292094Y474963D01*
X297042Y477013D01*
X302398Y477013D01*
X307346Y474963D01*
X311133Y471176D01*
X313183Y466228D01*
X313183Y460872D01*
X311133Y455924D01*
X307346Y452137D01*
X302398Y450087D01*
X297042Y450087D01*
X295983Y450526D01*
X295869Y450553D01*
X295756Y450581D01*
X295749Y450581D01*
X295743Y450582D01*
X295627Y450571D01*
X295510Y450562D01*
X295505Y450560D01*
X295498Y450559D01*
X295391Y450511D01*
X295284Y450466D01*
X295278Y450461D01*
X295274Y450459D01*
X295260Y450446D01*
X295153Y450361D01*
X258415Y413623D01*
X258362Y413549D01*
X258302Y413479D01*
X258290Y413449D01*
X258271Y413423D01*
X258244Y413336D01*
X258210Y413251D01*
X258206Y413210D01*
X258199Y413188D01*
X258200Y413156D01*
X258192Y413084D01*
X258192Y356292D01*
X257264Y354051D01*
X227595Y324383D01*
X227583Y324366D01*
X227567Y324354D01*
X227512Y324267D01*
X227451Y324183D01*
X227445Y324164D01*
X227435Y324147D01*
X227409Y324047D01*
X227379Y323948D01*
X227379Y323928D01*
X227374Y323908D01*
X227383Y323805D01*
X227385Y323702D01*
X227392Y323683D01*
X227394Y323663D01*
X227434Y323568D01*
X227470Y323471D01*
X227482Y323455D01*
X227490Y323437D01*
X227538Y323377D01*
X229172Y319432D01*
X229172Y315187D01*
X227548Y311266D01*
X224547Y308265D01*
X220626Y306641D01*
X203173Y306641D01*
G37*
%LPD*%
%LPC*%
G36*
X267679Y31523D02*
X267679Y31523D01*
X264795Y32718D01*
X262588Y34925D01*
X261393Y37809D01*
X261393Y40931D01*
X262588Y43815D01*
X262920Y44147D01*
X262973Y44221D01*
X263033Y44291D01*
X263045Y44321D01*
X263064Y44347D01*
X263091Y44434D01*
X263125Y44519D01*
X263129Y44560D01*
X263136Y44582D01*
X263135Y44614D01*
X263143Y44686D01*
X263143Y46601D01*
X263132Y46672D01*
X263130Y46743D01*
X263112Y46792D01*
X263104Y46844D01*
X263070Y46907D01*
X263045Y46974D01*
X263013Y47015D01*
X262988Y47061D01*
X262936Y47110D01*
X262892Y47166D01*
X262848Y47195D01*
X262810Y47231D01*
X262745Y47261D01*
X262685Y47299D01*
X262634Y47312D01*
X262587Y47334D01*
X262516Y47342D01*
X262446Y47360D01*
X262394Y47355D01*
X262343Y47361D01*
X262272Y47346D01*
X262201Y47340D01*
X262153Y47320D01*
X262102Y47309D01*
X262041Y47272D01*
X261975Y47244D01*
X261919Y47199D01*
X261891Y47183D01*
X261876Y47165D01*
X261844Y47139D01*
X259890Y45186D01*
X255809Y43495D01*
X251391Y43495D01*
X247310Y45186D01*
X244186Y48310D01*
X242495Y52391D01*
X242495Y56809D01*
X244186Y60890D01*
X247310Y64014D01*
X251391Y65705D01*
X255809Y65705D01*
X259890Y64014D01*
X261844Y62061D01*
X261902Y62019D01*
X261954Y61969D01*
X262001Y61948D01*
X262043Y61917D01*
X262112Y61896D01*
X262177Y61866D01*
X262229Y61860D01*
X262279Y61845D01*
X262350Y61847D01*
X262421Y61839D01*
X262472Y61850D01*
X262524Y61851D01*
X262592Y61876D01*
X262662Y61891D01*
X262707Y61918D01*
X262755Y61936D01*
X262811Y61980D01*
X262873Y62017D01*
X262907Y62057D01*
X262947Y62089D01*
X262986Y62150D01*
X263033Y62204D01*
X263052Y62252D01*
X263080Y62296D01*
X263098Y62366D01*
X263125Y62432D01*
X263133Y62504D01*
X263141Y62535D01*
X263139Y62558D01*
X263143Y62599D01*
X263143Y155528D01*
X263129Y155618D01*
X263121Y155709D01*
X263109Y155739D01*
X263104Y155771D01*
X263061Y155852D01*
X263025Y155936D01*
X262999Y155968D01*
X262988Y155988D01*
X262965Y156011D01*
X262920Y156067D01*
X230454Y188532D01*
X230417Y188559D01*
X230386Y188593D01*
X230318Y188631D01*
X230255Y188676D01*
X230211Y188689D01*
X230171Y188712D01*
X230094Y188726D01*
X230020Y188748D01*
X229974Y188747D01*
X229929Y188755D01*
X229852Y188744D01*
X229774Y188742D01*
X229731Y188726D01*
X229685Y188720D01*
X229616Y188684D01*
X229543Y188658D01*
X229507Y188629D01*
X229466Y188608D01*
X229411Y188552D01*
X229351Y188504D01*
X229326Y188465D01*
X229294Y188432D01*
X229228Y188313D01*
X229218Y188297D01*
X229216Y188292D01*
X229213Y188286D01*
X227548Y184266D01*
X224547Y181265D01*
X220626Y179641D01*
X203173Y179641D01*
X199252Y181265D01*
X196251Y184266D01*
X194627Y188187D01*
X194627Y192432D01*
X196251Y196353D01*
X199252Y199354D01*
X203173Y200978D01*
X216171Y200978D01*
X216242Y200990D01*
X216313Y200992D01*
X216362Y201010D01*
X216414Y201018D01*
X216477Y201051D01*
X216544Y201076D01*
X216585Y201109D01*
X216631Y201133D01*
X216680Y201185D01*
X216736Y201230D01*
X216765Y201274D01*
X216800Y201311D01*
X216831Y201376D01*
X216869Y201437D01*
X216882Y201487D01*
X216904Y201534D01*
X216912Y201606D01*
X216929Y201675D01*
X216925Y201727D01*
X216931Y201779D01*
X216916Y201849D01*
X216910Y201920D01*
X216890Y201968D01*
X216879Y202019D01*
X216842Y202081D01*
X216814Y202147D01*
X216769Y202203D01*
X216753Y202230D01*
X216735Y202246D01*
X216709Y202278D01*
X214169Y204818D01*
X214095Y204871D01*
X214026Y204930D01*
X213996Y204943D01*
X213969Y204961D01*
X213882Y204988D01*
X213798Y205022D01*
X213757Y205027D01*
X213734Y205034D01*
X213702Y205033D01*
X213631Y205041D01*
X203173Y205041D01*
X199252Y206665D01*
X196251Y209666D01*
X194627Y213587D01*
X194627Y217832D01*
X196251Y221753D01*
X199252Y224754D01*
X203173Y226378D01*
X220626Y226378D01*
X224547Y224754D01*
X227548Y221753D01*
X229172Y217832D01*
X229172Y213587D01*
X227534Y209631D01*
X227511Y209597D01*
X227451Y209513D01*
X227445Y209494D01*
X227435Y209477D01*
X227409Y209377D01*
X227379Y209278D01*
X227379Y209258D01*
X227375Y209239D01*
X227383Y209136D01*
X227385Y209032D01*
X227392Y209013D01*
X227394Y208994D01*
X227434Y208899D01*
X227470Y208801D01*
X227482Y208785D01*
X227490Y208767D01*
X227595Y208636D01*
X269545Y166687D01*
X269582Y166660D01*
X269613Y166626D01*
X269681Y166588D01*
X269744Y166543D01*
X269788Y166530D01*
X269828Y166507D01*
X269905Y166494D01*
X269979Y166471D01*
X270025Y166472D01*
X270070Y166464D01*
X270147Y166475D01*
X270225Y166477D01*
X270268Y166493D01*
X270314Y166499D01*
X270383Y166535D01*
X270456Y166561D01*
X270492Y166590D01*
X270533Y166611D01*
X270588Y166667D01*
X270648Y166715D01*
X270673Y166754D01*
X270705Y166787D01*
X270771Y166906D01*
X270781Y166922D01*
X270783Y166927D01*
X270786Y166934D01*
X272451Y170953D01*
X275452Y173954D01*
X279373Y175578D01*
X296826Y175578D01*
X300747Y173954D01*
X303748Y170953D01*
X305372Y167032D01*
X305372Y162787D01*
X303748Y158866D01*
X300747Y155865D01*
X296826Y154241D01*
X279373Y154241D01*
X276389Y155477D01*
X276345Y155487D01*
X276303Y155507D01*
X276226Y155515D01*
X276150Y155533D01*
X276104Y155529D01*
X276059Y155534D01*
X275982Y155517D01*
X275905Y155510D01*
X275863Y155491D01*
X275818Y155481D01*
X275751Y155441D01*
X275680Y155410D01*
X275646Y155379D01*
X275607Y155355D01*
X275556Y155296D01*
X275499Y155243D01*
X275477Y155203D01*
X275447Y155168D01*
X275418Y155096D01*
X275381Y155028D01*
X275372Y154983D01*
X275355Y154940D01*
X275340Y154804D01*
X275337Y154786D01*
X275338Y154781D01*
X275337Y154773D01*
X275337Y149646D01*
X275344Y149600D01*
X275342Y149554D01*
X275364Y149480D01*
X275376Y149403D01*
X275398Y149362D01*
X275411Y149318D01*
X275455Y149254D01*
X275492Y149185D01*
X275525Y149154D01*
X275551Y149116D01*
X275614Y149070D01*
X275670Y149016D01*
X275712Y148997D01*
X275748Y148969D01*
X275822Y148945D01*
X275893Y148912D01*
X275939Y148907D01*
X275982Y148893D01*
X276060Y148894D01*
X276137Y148885D01*
X276182Y148895D01*
X276228Y148895D01*
X276360Y148934D01*
X276378Y148938D01*
X276382Y148940D01*
X276389Y148942D01*
X279373Y150178D01*
X296826Y150178D01*
X300747Y148554D01*
X303748Y145553D01*
X305372Y141632D01*
X305372Y137387D01*
X303748Y133466D01*
X300747Y130465D01*
X296826Y128841D01*
X279373Y128841D01*
X276389Y130077D01*
X276345Y130087D01*
X276303Y130107D01*
X276226Y130115D01*
X276150Y130133D01*
X276104Y130129D01*
X276059Y130134D01*
X275982Y130117D01*
X275905Y130110D01*
X275863Y130091D01*
X275818Y130081D01*
X275751Y130041D01*
X275680Y130010D01*
X275646Y129979D01*
X275607Y129955D01*
X275556Y129896D01*
X275499Y129843D01*
X275477Y129803D01*
X275447Y129768D01*
X275418Y129696D01*
X275381Y129628D01*
X275372Y129583D01*
X275355Y129540D01*
X275340Y129404D01*
X275337Y129386D01*
X275338Y129381D01*
X275337Y129373D01*
X275337Y124246D01*
X275344Y124200D01*
X275342Y124154D01*
X275364Y124080D01*
X275376Y124003D01*
X275398Y123962D01*
X275411Y123918D01*
X275455Y123854D01*
X275492Y123785D01*
X275525Y123754D01*
X275551Y123716D01*
X275614Y123670D01*
X275670Y123616D01*
X275712Y123597D01*
X275748Y123569D01*
X275822Y123545D01*
X275893Y123512D01*
X275939Y123507D01*
X275982Y123493D01*
X276060Y123494D01*
X276137Y123485D01*
X276182Y123495D01*
X276228Y123495D01*
X276360Y123534D01*
X276378Y123538D01*
X276382Y123540D01*
X276389Y123542D01*
X279373Y124778D01*
X296826Y124778D01*
X300747Y123154D01*
X303748Y120153D01*
X305372Y116232D01*
X305372Y111987D01*
X303748Y108066D01*
X300747Y105065D01*
X296826Y103441D01*
X279373Y103441D01*
X276389Y104677D01*
X276345Y104687D01*
X276303Y104707D01*
X276226Y104715D01*
X276150Y104733D01*
X276104Y104729D01*
X276059Y104734D01*
X275982Y104717D01*
X275905Y104710D01*
X275863Y104691D01*
X275818Y104681D01*
X275751Y104641D01*
X275680Y104610D01*
X275646Y104579D01*
X275607Y104555D01*
X275556Y104496D01*
X275499Y104443D01*
X275477Y104403D01*
X275447Y104368D01*
X275418Y104296D01*
X275381Y104228D01*
X275372Y104183D01*
X275355Y104140D01*
X275340Y104004D01*
X275337Y103986D01*
X275338Y103981D01*
X275337Y103973D01*
X275337Y98846D01*
X275344Y98800D01*
X275342Y98754D01*
X275364Y98680D01*
X275376Y98603D01*
X275398Y98562D01*
X275411Y98518D01*
X275455Y98454D01*
X275492Y98385D01*
X275525Y98354D01*
X275551Y98316D01*
X275614Y98270D01*
X275670Y98216D01*
X275712Y98197D01*
X275748Y98169D01*
X275822Y98145D01*
X275893Y98112D01*
X275939Y98107D01*
X275982Y98093D01*
X276060Y98094D01*
X276137Y98085D01*
X276182Y98095D01*
X276228Y98095D01*
X276360Y98134D01*
X276378Y98138D01*
X276382Y98140D01*
X276389Y98142D01*
X279373Y99378D01*
X296826Y99378D01*
X300747Y97754D01*
X303748Y94753D01*
X305372Y90832D01*
X305372Y86587D01*
X303748Y82666D01*
X300747Y79665D01*
X296826Y78041D01*
X279373Y78041D01*
X276389Y79277D01*
X276345Y79287D01*
X276303Y79307D01*
X276226Y79315D01*
X276150Y79333D01*
X276104Y79329D01*
X276059Y79334D01*
X275982Y79317D01*
X275905Y79310D01*
X275863Y79291D01*
X275818Y79281D01*
X275751Y79241D01*
X275680Y79210D01*
X275646Y79179D01*
X275607Y79155D01*
X275556Y79096D01*
X275499Y79043D01*
X275477Y79003D01*
X275447Y78968D01*
X275418Y78896D01*
X275381Y78828D01*
X275372Y78783D01*
X275355Y78740D01*
X275340Y78604D01*
X275337Y78586D01*
X275338Y78581D01*
X275337Y78573D01*
X275337Y44686D01*
X275351Y44595D01*
X275359Y44505D01*
X275371Y44475D01*
X275376Y44443D01*
X275419Y44362D01*
X275455Y44278D01*
X275481Y44246D01*
X275492Y44225D01*
X275515Y44203D01*
X275560Y44147D01*
X275892Y43815D01*
X277087Y40931D01*
X277087Y37809D01*
X275892Y34925D01*
X273685Y32718D01*
X270801Y31523D01*
X267679Y31523D01*
G37*
%LPD*%
%LPC*%
G36*
X469899Y139699D02*
X469899Y139699D01*
X469899Y140462D01*
X469896Y140482D01*
X469898Y140501D01*
X469876Y140603D01*
X469859Y140705D01*
X469850Y140722D01*
X469846Y140742D01*
X469793Y140831D01*
X469744Y140922D01*
X469730Y140936D01*
X469720Y140953D01*
X469641Y141020D01*
X469566Y141091D01*
X469548Y141100D01*
X469533Y141113D01*
X469437Y141152D01*
X469343Y141195D01*
X469323Y141197D01*
X469305Y141205D01*
X469138Y141223D01*
X458054Y141223D01*
X458255Y142496D01*
X458836Y144283D01*
X459689Y145957D01*
X460794Y147478D01*
X462122Y148806D01*
X463643Y149911D01*
X465317Y150764D01*
X465604Y150857D01*
X465694Y150904D01*
X465786Y150945D01*
X465802Y150960D01*
X465822Y150970D01*
X465893Y151043D01*
X465967Y151111D01*
X465978Y151131D01*
X465993Y151147D01*
X466037Y151238D01*
X466086Y151327D01*
X466090Y151349D01*
X466099Y151369D01*
X466112Y151469D01*
X466130Y151569D01*
X466126Y151591D01*
X466129Y151613D01*
X466109Y151712D01*
X466094Y151812D01*
X466084Y151832D01*
X466079Y151854D01*
X466028Y151941D01*
X465982Y152031D01*
X465966Y152047D01*
X465955Y152066D01*
X465879Y152133D01*
X465807Y152204D01*
X465783Y152217D01*
X465770Y152228D01*
X465740Y152240D01*
X465660Y152284D01*
X462274Y153687D01*
X458487Y157474D01*
X456437Y162422D01*
X456437Y167778D01*
X458487Y172726D01*
X462274Y176513D01*
X463683Y177097D01*
X463744Y177134D01*
X463809Y177164D01*
X463848Y177199D01*
X463892Y177226D01*
X463938Y177282D01*
X463990Y177330D01*
X464015Y177376D01*
X464049Y177416D01*
X464074Y177483D01*
X464109Y177546D01*
X464118Y177597D01*
X464137Y177645D01*
X464140Y177717D01*
X464153Y177788D01*
X464145Y177839D01*
X464147Y177891D01*
X464127Y177960D01*
X464117Y178031D01*
X464093Y178077D01*
X464079Y178127D01*
X464038Y178186D01*
X464005Y178250D01*
X463968Y178287D01*
X463938Y178329D01*
X463881Y178372D01*
X463830Y178422D01*
X463767Y178457D01*
X463741Y178476D01*
X463719Y178483D01*
X463683Y178503D01*
X462274Y179087D01*
X458487Y182874D01*
X456437Y187822D01*
X456437Y193178D01*
X458487Y198126D01*
X462274Y201913D01*
X463683Y202497D01*
X463744Y202534D01*
X463809Y202564D01*
X463848Y202599D01*
X463892Y202626D01*
X463938Y202682D01*
X463990Y202730D01*
X464015Y202776D01*
X464049Y202816D01*
X464074Y202883D01*
X464109Y202946D01*
X464118Y202997D01*
X464137Y203045D01*
X464140Y203117D01*
X464153Y203188D01*
X464145Y203239D01*
X464147Y203291D01*
X464127Y203360D01*
X464117Y203431D01*
X464093Y203477D01*
X464079Y203527D01*
X464038Y203586D01*
X464005Y203650D01*
X463968Y203687D01*
X463938Y203729D01*
X463881Y203772D01*
X463830Y203822D01*
X463767Y203857D01*
X463741Y203876D01*
X463719Y203883D01*
X463683Y203903D01*
X462274Y204487D01*
X458487Y208274D01*
X456437Y213222D01*
X456437Y218578D01*
X458487Y223526D01*
X462274Y227313D01*
X463683Y227897D01*
X463744Y227934D01*
X463809Y227964D01*
X463848Y227999D01*
X463892Y228026D01*
X463938Y228082D01*
X463990Y228130D01*
X464015Y228176D01*
X464049Y228216D01*
X464074Y228283D01*
X464109Y228346D01*
X464118Y228397D01*
X464137Y228445D01*
X464140Y228517D01*
X464153Y228588D01*
X464145Y228639D01*
X464147Y228691D01*
X464127Y228760D01*
X464117Y228831D01*
X464093Y228877D01*
X464079Y228927D01*
X464038Y228986D01*
X464005Y229050D01*
X463968Y229087D01*
X463938Y229129D01*
X463881Y229172D01*
X463830Y229222D01*
X463767Y229257D01*
X463741Y229276D01*
X463719Y229283D01*
X463683Y229303D01*
X462274Y229887D01*
X458487Y233674D01*
X456437Y238622D01*
X456437Y243978D01*
X458487Y248926D01*
X462274Y252713D01*
X463683Y253297D01*
X463744Y253334D01*
X463809Y253364D01*
X463848Y253399D01*
X463892Y253426D01*
X463938Y253482D01*
X463990Y253530D01*
X464015Y253576D01*
X464049Y253616D01*
X464074Y253683D01*
X464109Y253746D01*
X464118Y253797D01*
X464137Y253845D01*
X464140Y253917D01*
X464153Y253988D01*
X464145Y254039D01*
X464147Y254091D01*
X464127Y254160D01*
X464117Y254231D01*
X464093Y254277D01*
X464079Y254327D01*
X464038Y254386D01*
X464005Y254450D01*
X463968Y254487D01*
X463938Y254529D01*
X463881Y254572D01*
X463830Y254622D01*
X463767Y254657D01*
X463741Y254676D01*
X463719Y254683D01*
X463683Y254703D01*
X462274Y255287D01*
X458487Y259074D01*
X456437Y264022D01*
X456437Y269378D01*
X458487Y274326D01*
X462274Y278113D01*
X463683Y278697D01*
X463744Y278734D01*
X463809Y278764D01*
X463848Y278799D01*
X463892Y278826D01*
X463938Y278882D01*
X463990Y278930D01*
X464015Y278976D01*
X464049Y279016D01*
X464074Y279083D01*
X464109Y279146D01*
X464118Y279197D01*
X464137Y279245D01*
X464140Y279317D01*
X464153Y279388D01*
X464145Y279439D01*
X464147Y279491D01*
X464127Y279560D01*
X464117Y279631D01*
X464093Y279677D01*
X464079Y279727D01*
X464038Y279786D01*
X464005Y279850D01*
X463968Y279887D01*
X463938Y279929D01*
X463881Y279972D01*
X463830Y280022D01*
X463767Y280057D01*
X463741Y280076D01*
X463719Y280083D01*
X463683Y280103D01*
X462274Y280687D01*
X458487Y284474D01*
X456437Y289422D01*
X456437Y294778D01*
X458487Y299726D01*
X462274Y303513D01*
X463683Y304097D01*
X463744Y304134D01*
X463809Y304164D01*
X463848Y304199D01*
X463892Y304226D01*
X463938Y304282D01*
X463990Y304330D01*
X464015Y304376D01*
X464049Y304416D01*
X464074Y304483D01*
X464109Y304546D01*
X464118Y304597D01*
X464137Y304645D01*
X464140Y304717D01*
X464153Y304788D01*
X464145Y304839D01*
X464147Y304891D01*
X464127Y304960D01*
X464117Y305031D01*
X464093Y305077D01*
X464079Y305127D01*
X464038Y305186D01*
X464005Y305250D01*
X463968Y305287D01*
X463938Y305329D01*
X463881Y305372D01*
X463830Y305422D01*
X463767Y305457D01*
X463741Y305476D01*
X463719Y305483D01*
X463683Y305503D01*
X462274Y306087D01*
X458487Y309874D01*
X456437Y314822D01*
X456437Y320178D01*
X458487Y325126D01*
X462274Y328913D01*
X463683Y329497D01*
X463744Y329534D01*
X463809Y329564D01*
X463848Y329599D01*
X463892Y329626D01*
X463938Y329682D01*
X463990Y329730D01*
X464015Y329776D01*
X464049Y329816D01*
X464074Y329883D01*
X464109Y329946D01*
X464118Y329997D01*
X464137Y330045D01*
X464140Y330117D01*
X464153Y330188D01*
X464145Y330239D01*
X464147Y330291D01*
X464127Y330360D01*
X464117Y330431D01*
X464093Y330477D01*
X464079Y330527D01*
X464038Y330586D01*
X464005Y330650D01*
X463968Y330687D01*
X463938Y330729D01*
X463881Y330772D01*
X463830Y330822D01*
X463767Y330857D01*
X463741Y330876D01*
X463719Y330883D01*
X463683Y330903D01*
X462274Y331487D01*
X458487Y335274D01*
X456437Y340222D01*
X456437Y345578D01*
X458487Y350526D01*
X462274Y354313D01*
X463683Y354897D01*
X463744Y354934D01*
X463809Y354964D01*
X463848Y354999D01*
X463892Y355026D01*
X463938Y355082D01*
X463990Y355130D01*
X464015Y355176D01*
X464049Y355216D01*
X464074Y355283D01*
X464109Y355346D01*
X464118Y355397D01*
X464137Y355445D01*
X464140Y355517D01*
X464153Y355588D01*
X464145Y355639D01*
X464147Y355691D01*
X464127Y355760D01*
X464117Y355831D01*
X464093Y355877D01*
X464079Y355927D01*
X464038Y355986D01*
X464005Y356050D01*
X463968Y356087D01*
X463938Y356129D01*
X463881Y356172D01*
X463830Y356222D01*
X463767Y356257D01*
X463741Y356276D01*
X463719Y356283D01*
X463683Y356303D01*
X462274Y356887D01*
X458487Y360674D01*
X456437Y365622D01*
X456437Y370978D01*
X458487Y375926D01*
X462274Y379713D01*
X467222Y381763D01*
X472578Y381763D01*
X477526Y379713D01*
X481313Y375926D01*
X483363Y370978D01*
X483363Y365622D01*
X481313Y360674D01*
X477526Y356887D01*
X476117Y356303D01*
X476056Y356265D01*
X475991Y356236D01*
X475952Y356201D01*
X475908Y356174D01*
X475862Y356118D01*
X475810Y356070D01*
X475785Y356024D01*
X475751Y355984D01*
X475726Y355917D01*
X475691Y355854D01*
X475682Y355803D01*
X475663Y355755D01*
X475660Y355683D01*
X475647Y355612D01*
X475655Y355561D01*
X475653Y355509D01*
X475673Y355440D01*
X475683Y355369D01*
X475707Y355323D01*
X475721Y355273D01*
X475762Y355214D01*
X475795Y355150D01*
X475832Y355113D01*
X475862Y355071D01*
X475919Y355028D01*
X475970Y354978D01*
X476033Y354943D01*
X476059Y354924D01*
X476081Y354917D01*
X476117Y354897D01*
X477526Y354313D01*
X481313Y350526D01*
X483363Y345578D01*
X483363Y340222D01*
X481313Y335274D01*
X477526Y331487D01*
X476117Y330903D01*
X476056Y330865D01*
X475991Y330836D01*
X475952Y330801D01*
X475908Y330774D01*
X475862Y330718D01*
X475810Y330670D01*
X475785Y330624D01*
X475751Y330584D01*
X475726Y330517D01*
X475691Y330454D01*
X475682Y330403D01*
X475663Y330355D01*
X475660Y330283D01*
X475647Y330212D01*
X475655Y330161D01*
X475653Y330109D01*
X475673Y330040D01*
X475683Y329969D01*
X475707Y329923D01*
X475721Y329873D01*
X475762Y329814D01*
X475795Y329750D01*
X475832Y329713D01*
X475862Y329671D01*
X475919Y329628D01*
X475970Y329578D01*
X476033Y329543D01*
X476059Y329524D01*
X476081Y329517D01*
X476117Y329497D01*
X477526Y328913D01*
X481313Y325126D01*
X483363Y320178D01*
X483363Y314822D01*
X481313Y309874D01*
X477526Y306087D01*
X476117Y305503D01*
X476056Y305465D01*
X475991Y305436D01*
X475952Y305401D01*
X475908Y305374D01*
X475862Y305318D01*
X475810Y305270D01*
X475785Y305224D01*
X475751Y305184D01*
X475726Y305117D01*
X475691Y305054D01*
X475682Y305003D01*
X475663Y304955D01*
X475660Y304883D01*
X475647Y304812D01*
X475655Y304761D01*
X475653Y304709D01*
X475673Y304640D01*
X475683Y304569D01*
X475707Y304523D01*
X475721Y304473D01*
X475762Y304414D01*
X475795Y304350D01*
X475832Y304313D01*
X475862Y304271D01*
X475919Y304228D01*
X475970Y304178D01*
X476033Y304143D01*
X476059Y304124D01*
X476081Y304117D01*
X476117Y304097D01*
X477526Y303513D01*
X481313Y299726D01*
X483363Y294778D01*
X483363Y289422D01*
X481313Y284474D01*
X477526Y280687D01*
X476117Y280103D01*
X476056Y280065D01*
X475991Y280036D01*
X475952Y280001D01*
X475908Y279974D01*
X475862Y279918D01*
X475810Y279870D01*
X475785Y279824D01*
X475751Y279784D01*
X475726Y279717D01*
X475691Y279654D01*
X475682Y279603D01*
X475663Y279555D01*
X475660Y279483D01*
X475647Y279412D01*
X475655Y279361D01*
X475653Y279309D01*
X475673Y279240D01*
X475683Y279169D01*
X475707Y279123D01*
X475721Y279073D01*
X475762Y279014D01*
X475795Y278950D01*
X475832Y278913D01*
X475862Y278871D01*
X475919Y278828D01*
X475970Y278778D01*
X476033Y278743D01*
X476059Y278724D01*
X476081Y278717D01*
X476117Y278697D01*
X477526Y278113D01*
X481313Y274326D01*
X483363Y269378D01*
X483363Y264022D01*
X481313Y259074D01*
X477526Y255287D01*
X476117Y254703D01*
X476056Y254665D01*
X475991Y254636D01*
X475952Y254601D01*
X475908Y254574D01*
X475862Y254518D01*
X475810Y254470D01*
X475785Y254424D01*
X475751Y254384D01*
X475726Y254317D01*
X475691Y254254D01*
X475682Y254203D01*
X475663Y254155D01*
X475660Y254083D01*
X475647Y254012D01*
X475655Y253961D01*
X475653Y253909D01*
X475673Y253840D01*
X475683Y253769D01*
X475707Y253723D01*
X475721Y253673D01*
X475762Y253614D01*
X475795Y253550D01*
X475832Y253513D01*
X475862Y253471D01*
X475919Y253428D01*
X475970Y253378D01*
X476033Y253343D01*
X476059Y253324D01*
X476081Y253317D01*
X476117Y253297D01*
X477526Y252713D01*
X481313Y248926D01*
X483363Y243978D01*
X483363Y238622D01*
X481313Y233674D01*
X477526Y229887D01*
X476117Y229303D01*
X476056Y229265D01*
X475991Y229236D01*
X475952Y229201D01*
X475908Y229174D01*
X475862Y229118D01*
X475810Y229070D01*
X475785Y229024D01*
X475751Y228984D01*
X475726Y228917D01*
X475691Y228854D01*
X475682Y228803D01*
X475663Y228755D01*
X475660Y228683D01*
X475647Y228612D01*
X475655Y228561D01*
X475653Y228509D01*
X475673Y228440D01*
X475683Y228369D01*
X475707Y228323D01*
X475721Y228273D01*
X475762Y228214D01*
X475795Y228150D01*
X475832Y228113D01*
X475862Y228071D01*
X475919Y228028D01*
X475970Y227978D01*
X476033Y227943D01*
X476059Y227924D01*
X476081Y227917D01*
X476117Y227897D01*
X477526Y227313D01*
X481313Y223526D01*
X483363Y218578D01*
X483363Y213222D01*
X481313Y208274D01*
X477526Y204487D01*
X476117Y203903D01*
X476056Y203865D01*
X475991Y203836D01*
X475952Y203801D01*
X475908Y203774D01*
X475862Y203718D01*
X475810Y203670D01*
X475785Y203624D01*
X475751Y203584D01*
X475726Y203517D01*
X475691Y203454D01*
X475682Y203403D01*
X475663Y203355D01*
X475660Y203283D01*
X475647Y203212D01*
X475655Y203161D01*
X475653Y203109D01*
X475673Y203040D01*
X475683Y202969D01*
X475707Y202923D01*
X475721Y202873D01*
X475762Y202814D01*
X475795Y202750D01*
X475832Y202713D01*
X475862Y202671D01*
X475919Y202628D01*
X475970Y202578D01*
X476033Y202543D01*
X476059Y202524D01*
X476081Y202517D01*
X476117Y202497D01*
X477526Y201913D01*
X481313Y198126D01*
X483363Y193178D01*
X483363Y187822D01*
X481313Y182874D01*
X477526Y179087D01*
X476117Y178503D01*
X476056Y178465D01*
X475991Y178436D01*
X475952Y178401D01*
X475908Y178374D01*
X475862Y178318D01*
X475810Y178270D01*
X475785Y178224D01*
X475751Y178184D01*
X475726Y178117D01*
X475691Y178054D01*
X475682Y178003D01*
X475663Y177955D01*
X475660Y177883D01*
X475647Y177812D01*
X475655Y177761D01*
X475653Y177709D01*
X475673Y177640D01*
X475683Y177569D01*
X475707Y177523D01*
X475721Y177473D01*
X475762Y177414D01*
X475795Y177350D01*
X475832Y177313D01*
X475862Y177271D01*
X475919Y177228D01*
X475970Y177178D01*
X476033Y177143D01*
X476059Y177124D01*
X476081Y177117D01*
X476117Y177097D01*
X477526Y176513D01*
X481313Y172726D01*
X483363Y167778D01*
X483363Y162422D01*
X481313Y157474D01*
X477526Y153687D01*
X474140Y152284D01*
X474054Y152231D01*
X473965Y152183D01*
X473950Y152166D01*
X473931Y152155D01*
X473867Y152077D01*
X473798Y152003D01*
X473789Y151982D01*
X473774Y151965D01*
X473738Y151871D01*
X473696Y151778D01*
X473694Y151756D01*
X473686Y151736D01*
X473682Y151635D01*
X473672Y151534D01*
X473677Y151512D01*
X473676Y151490D01*
X473704Y151393D01*
X473727Y151294D01*
X473738Y151275D01*
X473744Y151254D01*
X473802Y151171D01*
X473855Y151084D01*
X473872Y151070D01*
X473885Y151052D01*
X473966Y150991D01*
X474044Y150926D01*
X474068Y150915D01*
X474082Y150905D01*
X474113Y150895D01*
X474196Y150857D01*
X474483Y150764D01*
X476157Y149911D01*
X477678Y148806D01*
X479006Y147478D01*
X480111Y145957D01*
X480964Y144283D01*
X481545Y142496D01*
X481746Y141223D01*
X470662Y141223D01*
X470642Y141220D01*
X470623Y141222D01*
X470521Y141200D01*
X470419Y141183D01*
X470402Y141174D01*
X470382Y141170D01*
X470293Y141117D01*
X470202Y141068D01*
X470188Y141054D01*
X470171Y141044D01*
X470104Y140965D01*
X470033Y140890D01*
X470024Y140872D01*
X470011Y140857D01*
X469973Y140761D01*
X469929Y140667D01*
X469927Y140647D01*
X469919Y140629D01*
X469901Y140462D01*
X469901Y139699D01*
X469899Y139699D01*
G37*
%LPD*%
%LPC*%
G36*
X73522Y11937D02*
X73522Y11937D01*
X68574Y13987D01*
X64787Y17774D01*
X62737Y22722D01*
X62737Y28078D01*
X64787Y33026D01*
X68574Y36813D01*
X71960Y38216D01*
X72046Y38269D01*
X72135Y38317D01*
X72150Y38334D01*
X72169Y38345D01*
X72233Y38423D01*
X72302Y38497D01*
X72311Y38518D01*
X72326Y38535D01*
X72362Y38629D01*
X72404Y38722D01*
X72406Y38744D01*
X72414Y38764D01*
X72418Y38865D01*
X72428Y38966D01*
X72423Y38988D01*
X72424Y39010D01*
X72396Y39107D01*
X72373Y39206D01*
X72362Y39225D01*
X72356Y39246D01*
X72298Y39329D01*
X72245Y39416D01*
X72228Y39430D01*
X72215Y39448D01*
X72134Y39509D01*
X72056Y39574D01*
X72032Y39585D01*
X72018Y39595D01*
X71987Y39605D01*
X71904Y39643D01*
X71617Y39736D01*
X69943Y40589D01*
X68422Y41694D01*
X67094Y43022D01*
X65989Y44543D01*
X65136Y46217D01*
X64555Y48004D01*
X64354Y49277D01*
X75438Y49277D01*
X75458Y49280D01*
X75477Y49278D01*
X75579Y49300D01*
X75681Y49317D01*
X75698Y49326D01*
X75718Y49330D01*
X75807Y49383D01*
X75898Y49432D01*
X75912Y49446D01*
X75929Y49456D01*
X75996Y49535D01*
X76067Y49610D01*
X76076Y49628D01*
X76089Y49643D01*
X76127Y49739D01*
X76171Y49833D01*
X76173Y49853D01*
X76181Y49871D01*
X76199Y50038D01*
X76199Y51562D01*
X76196Y51582D01*
X76198Y51601D01*
X76176Y51703D01*
X76159Y51805D01*
X76150Y51822D01*
X76146Y51842D01*
X76093Y51931D01*
X76044Y52022D01*
X76030Y52036D01*
X76020Y52053D01*
X75941Y52120D01*
X75866Y52191D01*
X75848Y52200D01*
X75833Y52213D01*
X75737Y52252D01*
X75643Y52295D01*
X75623Y52297D01*
X75605Y52305D01*
X75438Y52323D01*
X64354Y52323D01*
X64555Y53596D01*
X65136Y55383D01*
X65989Y57057D01*
X67094Y58578D01*
X68422Y59906D01*
X69943Y61011D01*
X71617Y61864D01*
X71904Y61957D01*
X71994Y62004D01*
X72086Y62045D01*
X72102Y62060D01*
X72122Y62070D01*
X72193Y62143D01*
X72267Y62211D01*
X72278Y62231D01*
X72293Y62247D01*
X72337Y62338D01*
X72386Y62427D01*
X72390Y62449D01*
X72399Y62469D01*
X72412Y62569D01*
X72430Y62669D01*
X72426Y62691D01*
X72429Y62713D01*
X72409Y62812D01*
X72394Y62912D01*
X72384Y62932D01*
X72379Y62954D01*
X72328Y63041D01*
X72282Y63131D01*
X72266Y63147D01*
X72255Y63166D01*
X72179Y63233D01*
X72107Y63304D01*
X72083Y63317D01*
X72070Y63328D01*
X72052Y63335D01*
X72049Y63338D01*
X72032Y63345D01*
X71960Y63384D01*
X68574Y64787D01*
X64787Y68574D01*
X62737Y73522D01*
X62737Y78878D01*
X64787Y83826D01*
X68574Y87613D01*
X69983Y88197D01*
X70044Y88235D01*
X70109Y88264D01*
X70148Y88299D01*
X70192Y88326D01*
X70238Y88382D01*
X70290Y88430D01*
X70315Y88476D01*
X70349Y88516D01*
X70374Y88583D01*
X70409Y88646D01*
X70418Y88697D01*
X70437Y88745D01*
X70440Y88817D01*
X70453Y88888D01*
X70445Y88939D01*
X70447Y88991D01*
X70427Y89060D01*
X70417Y89131D01*
X70393Y89177D01*
X70379Y89227D01*
X70338Y89286D01*
X70305Y89350D01*
X70268Y89387D01*
X70238Y89429D01*
X70181Y89472D01*
X70130Y89522D01*
X70067Y89557D01*
X70041Y89576D01*
X70019Y89583D01*
X69983Y89603D01*
X68574Y90187D01*
X64787Y93974D01*
X62737Y98922D01*
X62737Y104278D01*
X64787Y109226D01*
X68574Y113013D01*
X73522Y115063D01*
X78878Y115063D01*
X83826Y113013D01*
X87613Y109226D01*
X89663Y104278D01*
X89663Y98922D01*
X87613Y93974D01*
X83826Y90187D01*
X82417Y89603D01*
X82356Y89566D01*
X82291Y89536D01*
X82252Y89501D01*
X82208Y89474D01*
X82162Y89418D01*
X82110Y89370D01*
X82085Y89324D01*
X82051Y89284D01*
X82026Y89217D01*
X81991Y89154D01*
X81982Y89103D01*
X81963Y89055D01*
X81960Y88983D01*
X81947Y88912D01*
X81955Y88861D01*
X81953Y88809D01*
X81973Y88740D01*
X81983Y88669D01*
X82007Y88623D01*
X82021Y88573D01*
X82062Y88514D01*
X82095Y88450D01*
X82132Y88413D01*
X82162Y88371D01*
X82219Y88328D01*
X82270Y88278D01*
X82333Y88243D01*
X82359Y88224D01*
X82381Y88217D01*
X82417Y88197D01*
X83826Y87613D01*
X87389Y84050D01*
X87426Y84023D01*
X87457Y83989D01*
X87526Y83952D01*
X87589Y83907D01*
X87633Y83893D01*
X87673Y83871D01*
X87750Y83857D01*
X87824Y83834D01*
X87870Y83835D01*
X87915Y83827D01*
X87992Y83839D01*
X88070Y83841D01*
X88113Y83856D01*
X88158Y83863D01*
X88228Y83898D01*
X88301Y83925D01*
X88337Y83954D01*
X88378Y83975D01*
X88432Y84030D01*
X88493Y84079D01*
X88518Y84117D01*
X88550Y84150D01*
X88616Y84270D01*
X88626Y84286D01*
X88627Y84291D01*
X88631Y84297D01*
X88811Y84734D01*
X90634Y86556D01*
X101111Y97033D01*
X101180Y97128D01*
X101249Y97222D01*
X101251Y97228D01*
X101255Y97233D01*
X101289Y97345D01*
X101325Y97456D01*
X101325Y97462D01*
X101327Y97468D01*
X101324Y97585D01*
X101323Y97702D01*
X101321Y97709D01*
X101321Y97714D01*
X101314Y97731D01*
X101276Y97863D01*
X100837Y98922D01*
X100837Y104278D01*
X102887Y109226D01*
X106674Y113013D01*
X110060Y114416D01*
X110146Y114469D01*
X110235Y114517D01*
X110250Y114534D01*
X110269Y114545D01*
X110333Y114623D01*
X110402Y114697D01*
X110411Y114718D01*
X110426Y114735D01*
X110462Y114829D01*
X110504Y114922D01*
X110506Y114944D01*
X110514Y114964D01*
X110518Y115065D01*
X110528Y115166D01*
X110523Y115188D01*
X110524Y115210D01*
X110496Y115307D01*
X110473Y115406D01*
X110462Y115425D01*
X110456Y115446D01*
X110398Y115529D01*
X110345Y115616D01*
X110328Y115630D01*
X110315Y115648D01*
X110234Y115709D01*
X110156Y115774D01*
X110132Y115785D01*
X110118Y115795D01*
X110087Y115805D01*
X110004Y115843D01*
X109717Y115936D01*
X108043Y116789D01*
X106522Y117894D01*
X105194Y119222D01*
X104089Y120743D01*
X103236Y122417D01*
X102655Y124204D01*
X102454Y125477D01*
X113538Y125477D01*
X113558Y125480D01*
X113577Y125478D01*
X113679Y125500D01*
X113781Y125517D01*
X113798Y125526D01*
X113818Y125530D01*
X113907Y125583D01*
X113998Y125632D01*
X114012Y125646D01*
X114029Y125656D01*
X114096Y125735D01*
X114167Y125810D01*
X114176Y125828D01*
X114189Y125843D01*
X114227Y125939D01*
X114271Y126033D01*
X114273Y126053D01*
X114281Y126071D01*
X114299Y126238D01*
X114299Y127001D01*
X114301Y127001D01*
X114301Y126238D01*
X114304Y126218D01*
X114302Y126199D01*
X114324Y126097D01*
X114341Y125995D01*
X114350Y125978D01*
X114354Y125958D01*
X114407Y125869D01*
X114456Y125778D01*
X114470Y125764D01*
X114480Y125747D01*
X114559Y125680D01*
X114634Y125609D01*
X114652Y125600D01*
X114667Y125587D01*
X114763Y125548D01*
X114857Y125505D01*
X114877Y125503D01*
X114895Y125495D01*
X115062Y125477D01*
X126146Y125477D01*
X125945Y124204D01*
X125364Y122417D01*
X124511Y120743D01*
X123406Y119222D01*
X122078Y117894D01*
X120557Y116789D01*
X118883Y115936D01*
X118596Y115843D01*
X118506Y115796D01*
X118414Y115755D01*
X118398Y115740D01*
X118378Y115730D01*
X118307Y115657D01*
X118233Y115589D01*
X118222Y115569D01*
X118207Y115553D01*
X118163Y115462D01*
X118114Y115373D01*
X118110Y115351D01*
X118101Y115331D01*
X118088Y115231D01*
X118070Y115131D01*
X118074Y115109D01*
X118071Y115087D01*
X118091Y114988D01*
X118106Y114888D01*
X118116Y114868D01*
X118121Y114846D01*
X118172Y114759D01*
X118218Y114669D01*
X118234Y114653D01*
X118245Y114634D01*
X118321Y114567D01*
X118393Y114496D01*
X118417Y114483D01*
X118430Y114472D01*
X118460Y114460D01*
X118540Y114416D01*
X121926Y113013D01*
X125713Y109226D01*
X127763Y104278D01*
X127763Y98922D01*
X125713Y93974D01*
X121926Y90187D01*
X120517Y89603D01*
X120456Y89565D01*
X120391Y89536D01*
X120352Y89501D01*
X120308Y89474D01*
X120262Y89418D01*
X120210Y89370D01*
X120185Y89324D01*
X120151Y89284D01*
X120126Y89217D01*
X120091Y89154D01*
X120082Y89103D01*
X120063Y89055D01*
X120060Y88983D01*
X120047Y88912D01*
X120055Y88861D01*
X120053Y88809D01*
X120073Y88740D01*
X120083Y88669D01*
X120107Y88623D01*
X120121Y88573D01*
X120162Y88514D01*
X120195Y88450D01*
X120232Y88413D01*
X120262Y88371D01*
X120319Y88328D01*
X120370Y88278D01*
X120433Y88243D01*
X120459Y88224D01*
X120481Y88217D01*
X120517Y88197D01*
X121926Y87613D01*
X125713Y83826D01*
X127763Y78878D01*
X127763Y73522D01*
X125713Y68574D01*
X121926Y64787D01*
X117714Y63042D01*
X117653Y63004D01*
X117588Y62975D01*
X117549Y62940D01*
X117505Y62913D01*
X117459Y62857D01*
X117407Y62809D01*
X117382Y62763D01*
X117348Y62723D01*
X117323Y62656D01*
X117288Y62593D01*
X117279Y62542D01*
X117260Y62494D01*
X117257Y62422D01*
X117244Y62351D01*
X117252Y62300D01*
X117250Y62248D01*
X117270Y62179D01*
X117280Y62108D01*
X117304Y62062D01*
X117318Y62012D01*
X117359Y61953D01*
X117392Y61889D01*
X117429Y61852D01*
X117458Y61810D01*
X117516Y61767D01*
X117567Y61717D01*
X117630Y61682D01*
X117656Y61663D01*
X117678Y61655D01*
X117714Y61636D01*
X119386Y60943D01*
X123173Y57156D01*
X125223Y52208D01*
X125223Y46852D01*
X123173Y41904D01*
X119386Y38117D01*
X116000Y36714D01*
X115914Y36661D01*
X115825Y36613D01*
X115810Y36596D01*
X115791Y36585D01*
X115727Y36507D01*
X115658Y36433D01*
X115649Y36412D01*
X115634Y36395D01*
X115598Y36301D01*
X115556Y36208D01*
X115554Y36186D01*
X115546Y36166D01*
X115542Y36065D01*
X115532Y35964D01*
X115537Y35942D01*
X115536Y35920D01*
X115564Y35823D01*
X115587Y35724D01*
X115598Y35705D01*
X115604Y35684D01*
X115662Y35601D01*
X115715Y35514D01*
X115732Y35500D01*
X115745Y35482D01*
X115826Y35421D01*
X115904Y35356D01*
X115928Y35345D01*
X115942Y35335D01*
X115973Y35325D01*
X116056Y35287D01*
X116343Y35194D01*
X118017Y34341D01*
X119538Y33236D01*
X120866Y31908D01*
X121971Y30387D01*
X122824Y28713D01*
X123405Y26926D01*
X123606Y25653D01*
X112522Y25653D01*
X112502Y25650D01*
X112483Y25652D01*
X112381Y25630D01*
X112279Y25613D01*
X112262Y25604D01*
X112242Y25600D01*
X112153Y25547D01*
X112062Y25498D01*
X112048Y25484D01*
X112031Y25474D01*
X111964Y25395D01*
X111893Y25320D01*
X111884Y25302D01*
X111871Y25287D01*
X111833Y25191D01*
X111789Y25097D01*
X111787Y25077D01*
X111779Y25059D01*
X111761Y24892D01*
X111761Y24129D01*
X111759Y24129D01*
X111759Y24892D01*
X111756Y24912D01*
X111758Y24931D01*
X111736Y25033D01*
X111719Y25135D01*
X111710Y25152D01*
X111706Y25172D01*
X111653Y25261D01*
X111604Y25352D01*
X111590Y25366D01*
X111580Y25383D01*
X111501Y25450D01*
X111426Y25521D01*
X111408Y25530D01*
X111393Y25543D01*
X111297Y25582D01*
X111203Y25625D01*
X111183Y25627D01*
X111165Y25635D01*
X110998Y25653D01*
X99914Y25653D01*
X100115Y26926D01*
X100696Y28713D01*
X101549Y30387D01*
X102654Y31908D01*
X103982Y33236D01*
X105503Y34341D01*
X107177Y35194D01*
X107464Y35287D01*
X107554Y35334D01*
X107646Y35375D01*
X107662Y35390D01*
X107682Y35400D01*
X107753Y35473D01*
X107827Y35541D01*
X107838Y35561D01*
X107853Y35577D01*
X107897Y35668D01*
X107946Y35757D01*
X107950Y35779D01*
X107959Y35799D01*
X107972Y35899D01*
X107990Y35999D01*
X107986Y36021D01*
X107989Y36043D01*
X107969Y36142D01*
X107954Y36242D01*
X107944Y36262D01*
X107939Y36284D01*
X107888Y36371D01*
X107842Y36461D01*
X107826Y36477D01*
X107815Y36496D01*
X107739Y36563D01*
X107667Y36634D01*
X107643Y36647D01*
X107630Y36658D01*
X107600Y36670D01*
X107520Y36714D01*
X104134Y38117D01*
X100943Y41308D01*
X100906Y41335D01*
X100875Y41369D01*
X100806Y41406D01*
X100743Y41451D01*
X100699Y41465D01*
X100659Y41487D01*
X100582Y41501D01*
X100508Y41524D01*
X100462Y41523D01*
X100417Y41531D01*
X100340Y41519D01*
X100262Y41517D01*
X100219Y41502D01*
X100174Y41495D01*
X100104Y41460D01*
X100031Y41433D01*
X99995Y41404D01*
X99954Y41384D01*
X99900Y41328D01*
X99839Y41279D01*
X99814Y41241D01*
X99782Y41208D01*
X99716Y41088D01*
X99706Y41072D01*
X99705Y41068D01*
X99701Y41061D01*
X99149Y39726D01*
X89389Y29967D01*
X89321Y29873D01*
X89251Y29778D01*
X89249Y29772D01*
X89245Y29767D01*
X89211Y29656D01*
X89175Y29544D01*
X89175Y29538D01*
X89173Y29532D01*
X89176Y29415D01*
X89177Y29298D01*
X89179Y29291D01*
X89179Y29286D01*
X89186Y29269D01*
X89224Y29137D01*
X89663Y28078D01*
X89663Y22722D01*
X87613Y17774D01*
X83826Y13987D01*
X78878Y11937D01*
X73522Y11937D01*
G37*
%LPD*%
%LPC*%
G36*
X163539Y220753D02*
X163539Y220753D01*
X160655Y221948D01*
X158448Y224155D01*
X157253Y227039D01*
X157253Y230161D01*
X158448Y233045D01*
X158780Y233377D01*
X158833Y233451D01*
X158893Y233521D01*
X158905Y233551D01*
X158924Y233577D01*
X158951Y233664D01*
X158985Y233749D01*
X158989Y233790D01*
X158996Y233812D01*
X158995Y233844D01*
X159003Y233916D01*
X159003Y447894D01*
X159001Y447908D01*
X159002Y447919D01*
X158990Y447977D01*
X158989Y447984D01*
X158981Y448075D01*
X158969Y448104D01*
X158964Y448136D01*
X158921Y448217D01*
X158885Y448301D01*
X158859Y448333D01*
X158848Y448354D01*
X158825Y448376D01*
X158780Y448432D01*
X154431Y452781D01*
X154431Y461619D01*
X160681Y467869D01*
X169519Y467869D01*
X175769Y461619D01*
X175769Y452781D01*
X171420Y448432D01*
X171367Y448358D01*
X171307Y448288D01*
X171295Y448258D01*
X171276Y448232D01*
X171249Y448145D01*
X171226Y448086D01*
X171225Y448084D01*
X171215Y448060D01*
X171211Y448019D01*
X171204Y447997D01*
X171205Y447965D01*
X171197Y447894D01*
X171197Y233916D01*
X171211Y233825D01*
X171219Y233735D01*
X171231Y233705D01*
X171236Y233673D01*
X171279Y233592D01*
X171315Y233508D01*
X171341Y233476D01*
X171352Y233455D01*
X171375Y233433D01*
X171420Y233377D01*
X171752Y233045D01*
X172947Y230161D01*
X172947Y227039D01*
X171752Y224155D01*
X169545Y221948D01*
X166661Y220753D01*
X163539Y220753D01*
G37*
%LPD*%
%LPC*%
G36*
X379439Y42953D02*
X379439Y42953D01*
X376555Y44148D01*
X374348Y46355D01*
X373153Y49239D01*
X373153Y52361D01*
X373829Y53993D01*
X373844Y54057D01*
X373869Y54118D01*
X373878Y54200D01*
X373885Y54232D01*
X373884Y54252D01*
X373887Y54284D01*
X373887Y187016D01*
X373877Y187080D01*
X373876Y187146D01*
X373853Y187226D01*
X373848Y187259D01*
X373838Y187276D01*
X373829Y187307D01*
X373153Y188939D01*
X373153Y192061D01*
X374348Y194945D01*
X376555Y197152D01*
X379439Y198347D01*
X382561Y198347D01*
X385445Y197152D01*
X387652Y194945D01*
X388847Y192061D01*
X388847Y188939D01*
X388171Y187307D01*
X388156Y187243D01*
X388131Y187182D01*
X388122Y187100D01*
X388115Y187068D01*
X388116Y187048D01*
X388113Y187016D01*
X388113Y54284D01*
X388114Y54276D01*
X388114Y54274D01*
X388117Y54261D01*
X388123Y54220D01*
X388124Y54154D01*
X388147Y54074D01*
X388152Y54041D01*
X388162Y54024D01*
X388171Y53993D01*
X388847Y52361D01*
X388847Y49239D01*
X387652Y46355D01*
X385445Y44148D01*
X382561Y42953D01*
X379439Y42953D01*
G37*
%LPD*%
%LPC*%
G36*
X444499Y25399D02*
X444499Y25399D01*
X444499Y26162D01*
X444497Y26176D01*
X444498Y26186D01*
X444497Y26192D01*
X444498Y26201D01*
X444476Y26303D01*
X444459Y26405D01*
X444450Y26422D01*
X444446Y26442D01*
X444393Y26531D01*
X444344Y26622D01*
X444330Y26636D01*
X444320Y26653D01*
X444241Y26720D01*
X444166Y26791D01*
X444148Y26800D01*
X444133Y26813D01*
X444037Y26852D01*
X443943Y26895D01*
X443923Y26897D01*
X443905Y26905D01*
X443738Y26923D01*
X432654Y26923D01*
X432855Y28196D01*
X433436Y29983D01*
X434289Y31657D01*
X435394Y33178D01*
X436722Y34506D01*
X438243Y35611D01*
X439917Y36464D01*
X440204Y36557D01*
X440294Y36604D01*
X440386Y36645D01*
X440402Y36660D01*
X440422Y36670D01*
X440493Y36743D01*
X440567Y36811D01*
X440578Y36831D01*
X440593Y36847D01*
X440637Y36938D01*
X440686Y37027D01*
X440690Y37049D01*
X440699Y37069D01*
X440712Y37169D01*
X440730Y37269D01*
X440726Y37291D01*
X440729Y37313D01*
X440709Y37412D01*
X440694Y37512D01*
X440684Y37532D01*
X440679Y37554D01*
X440628Y37641D01*
X440582Y37731D01*
X440566Y37747D01*
X440555Y37766D01*
X440479Y37833D01*
X440407Y37904D01*
X440383Y37917D01*
X440370Y37928D01*
X440340Y37940D01*
X440260Y37984D01*
X436874Y39387D01*
X433087Y43174D01*
X431037Y48122D01*
X431037Y53478D01*
X433087Y58426D01*
X436874Y62213D01*
X438283Y62797D01*
X438344Y62835D01*
X438409Y62864D01*
X438448Y62899D01*
X438492Y62926D01*
X438538Y62982D01*
X438590Y63030D01*
X438615Y63076D01*
X438649Y63116D01*
X438674Y63183D01*
X438709Y63246D01*
X438718Y63297D01*
X438737Y63345D01*
X438740Y63417D01*
X438753Y63488D01*
X438745Y63539D01*
X438747Y63591D01*
X438727Y63660D01*
X438717Y63731D01*
X438693Y63777D01*
X438679Y63827D01*
X438638Y63886D01*
X438605Y63950D01*
X438568Y63987D01*
X438538Y64029D01*
X438481Y64072D01*
X438430Y64122D01*
X438367Y64157D01*
X438341Y64176D01*
X438319Y64183D01*
X438283Y64203D01*
X436874Y64787D01*
X433087Y68574D01*
X431037Y73522D01*
X431037Y78878D01*
X433087Y83826D01*
X436874Y87613D01*
X438283Y88197D01*
X438344Y88235D01*
X438409Y88264D01*
X438448Y88299D01*
X438492Y88326D01*
X438538Y88382D01*
X438590Y88430D01*
X438615Y88476D01*
X438649Y88516D01*
X438674Y88583D01*
X438709Y88646D01*
X438718Y88697D01*
X438737Y88745D01*
X438740Y88817D01*
X438753Y88888D01*
X438745Y88939D01*
X438747Y88991D01*
X438727Y89060D01*
X438717Y89131D01*
X438693Y89177D01*
X438679Y89227D01*
X438638Y89286D01*
X438605Y89350D01*
X438568Y89387D01*
X438538Y89429D01*
X438481Y89472D01*
X438430Y89522D01*
X438367Y89557D01*
X438341Y89576D01*
X438319Y89583D01*
X438283Y89603D01*
X436874Y90187D01*
X433087Y93974D01*
X431037Y98922D01*
X431037Y104278D01*
X433087Y109226D01*
X436874Y113013D01*
X441822Y115063D01*
X447178Y115063D01*
X452126Y113013D01*
X455913Y109226D01*
X457963Y104278D01*
X457963Y98922D01*
X455913Y93974D01*
X452126Y90187D01*
X450717Y89603D01*
X450656Y89566D01*
X450591Y89536D01*
X450552Y89501D01*
X450508Y89474D01*
X450462Y89418D01*
X450410Y89370D01*
X450385Y89324D01*
X450351Y89284D01*
X450326Y89217D01*
X450291Y89154D01*
X450282Y89103D01*
X450263Y89055D01*
X450260Y88983D01*
X450247Y88912D01*
X450255Y88861D01*
X450253Y88809D01*
X450273Y88740D01*
X450283Y88669D01*
X450307Y88623D01*
X450321Y88573D01*
X450362Y88514D01*
X450395Y88450D01*
X450432Y88413D01*
X450462Y88371D01*
X450519Y88328D01*
X450570Y88278D01*
X450633Y88243D01*
X450659Y88224D01*
X450681Y88217D01*
X450717Y88197D01*
X452126Y87613D01*
X455913Y83826D01*
X457963Y78878D01*
X457963Y73522D01*
X455913Y68574D01*
X452126Y64787D01*
X450717Y64203D01*
X450656Y64166D01*
X450591Y64136D01*
X450552Y64101D01*
X450508Y64074D01*
X450462Y64018D01*
X450410Y63970D01*
X450385Y63924D01*
X450351Y63884D01*
X450326Y63817D01*
X450291Y63754D01*
X450282Y63703D01*
X450263Y63655D01*
X450260Y63583D01*
X450247Y63512D01*
X450255Y63461D01*
X450253Y63409D01*
X450273Y63340D01*
X450283Y63269D01*
X450307Y63223D01*
X450321Y63173D01*
X450362Y63114D01*
X450395Y63050D01*
X450432Y63013D01*
X450462Y62971D01*
X450519Y62928D01*
X450570Y62878D01*
X450633Y62843D01*
X450659Y62824D01*
X450681Y62817D01*
X450717Y62797D01*
X452126Y62213D01*
X455913Y58426D01*
X457963Y53478D01*
X457963Y48122D01*
X455913Y43174D01*
X452126Y39387D01*
X448740Y37984D01*
X448654Y37931D01*
X448565Y37883D01*
X448550Y37866D01*
X448531Y37855D01*
X448467Y37777D01*
X448398Y37703D01*
X448389Y37682D01*
X448374Y37665D01*
X448338Y37571D01*
X448296Y37478D01*
X448294Y37456D01*
X448286Y37436D01*
X448282Y37335D01*
X448272Y37234D01*
X448277Y37212D01*
X448276Y37190D01*
X448304Y37093D01*
X448327Y36994D01*
X448338Y36975D01*
X448344Y36954D01*
X448402Y36871D01*
X448455Y36784D01*
X448472Y36770D01*
X448485Y36752D01*
X448566Y36691D01*
X448644Y36626D01*
X448668Y36615D01*
X448682Y36605D01*
X448713Y36595D01*
X448796Y36557D01*
X449083Y36464D01*
X450757Y35611D01*
X452278Y34506D01*
X453606Y33178D01*
X454711Y31657D01*
X455564Y29983D01*
X456145Y28196D01*
X456346Y26923D01*
X445262Y26923D01*
X445242Y26920D01*
X445223Y26922D01*
X445121Y26900D01*
X445019Y26883D01*
X445002Y26874D01*
X444982Y26870D01*
X444893Y26817D01*
X444802Y26768D01*
X444788Y26754D01*
X444771Y26744D01*
X444704Y26665D01*
X444633Y26590D01*
X444624Y26572D01*
X444611Y26557D01*
X444573Y26461D01*
X444529Y26367D01*
X444527Y26347D01*
X444519Y26329D01*
X444501Y26162D01*
X444501Y25399D01*
X444499Y25399D01*
G37*
%LPD*%
%LPC*%
G36*
X403722Y75437D02*
X403722Y75437D01*
X398774Y77487D01*
X394987Y81274D01*
X392937Y86222D01*
X392937Y91578D01*
X394987Y96526D01*
X398774Y100313D01*
X400183Y100897D01*
X400244Y100934D01*
X400309Y100964D01*
X400348Y100999D01*
X400392Y101026D01*
X400438Y101082D01*
X400490Y101130D01*
X400515Y101176D01*
X400549Y101216D01*
X400574Y101283D01*
X400609Y101346D01*
X400618Y101397D01*
X400637Y101445D01*
X400640Y101517D01*
X400653Y101588D01*
X400645Y101639D01*
X400647Y101691D01*
X400627Y101760D01*
X400617Y101831D01*
X400593Y101877D01*
X400579Y101927D01*
X400538Y101986D01*
X400505Y102050D01*
X400468Y102087D01*
X400438Y102129D01*
X400381Y102172D01*
X400330Y102222D01*
X400267Y102257D01*
X400241Y102276D01*
X400219Y102283D01*
X400183Y102303D01*
X398774Y102887D01*
X394987Y106674D01*
X392937Y111622D01*
X392937Y116978D01*
X394987Y121926D01*
X398774Y125713D01*
X399833Y126152D01*
X399933Y126214D01*
X400033Y126273D01*
X400037Y126278D01*
X400042Y126282D01*
X400117Y126372D01*
X400193Y126460D01*
X400195Y126466D01*
X400199Y126471D01*
X400241Y126579D01*
X400285Y126689D01*
X400286Y126696D01*
X400287Y126701D01*
X400288Y126719D01*
X400303Y126855D01*
X400303Y159784D01*
X400289Y159875D01*
X400281Y159965D01*
X400269Y159995D01*
X400264Y160027D01*
X400221Y160108D01*
X400185Y160192D01*
X400159Y160224D01*
X400148Y160245D01*
X400125Y160267D01*
X400080Y160323D01*
X399748Y160655D01*
X398553Y163539D01*
X398553Y166661D01*
X399748Y169545D01*
X401955Y171752D01*
X404839Y172947D01*
X407961Y172947D01*
X410845Y171752D01*
X413052Y169545D01*
X414247Y166661D01*
X414247Y163539D01*
X413052Y160655D01*
X412720Y160323D01*
X412667Y160249D01*
X412607Y160179D01*
X412595Y160149D01*
X412576Y160123D01*
X412549Y160036D01*
X412515Y159951D01*
X412511Y159910D01*
X412504Y159888D01*
X412505Y159856D01*
X412497Y159784D01*
X412497Y126855D01*
X412516Y126741D01*
X412533Y126624D01*
X412535Y126619D01*
X412536Y126612D01*
X412591Y126510D01*
X412644Y126405D01*
X412649Y126401D01*
X412652Y126395D01*
X412736Y126315D01*
X412820Y126233D01*
X412826Y126229D01*
X412830Y126226D01*
X412847Y126218D01*
X412967Y126152D01*
X414026Y125713D01*
X417813Y121926D01*
X419863Y116978D01*
X419863Y111622D01*
X417813Y106674D01*
X414026Y102887D01*
X412617Y102303D01*
X412556Y102265D01*
X412491Y102236D01*
X412452Y102201D01*
X412408Y102174D01*
X412362Y102118D01*
X412310Y102070D01*
X412285Y102024D01*
X412251Y101984D01*
X412226Y101917D01*
X412191Y101854D01*
X412182Y101803D01*
X412163Y101755D01*
X412160Y101683D01*
X412147Y101612D01*
X412155Y101561D01*
X412153Y101509D01*
X412173Y101440D01*
X412183Y101369D01*
X412207Y101323D01*
X412221Y101273D01*
X412262Y101214D01*
X412295Y101150D01*
X412332Y101113D01*
X412362Y101071D01*
X412419Y101028D01*
X412470Y100978D01*
X412533Y100943D01*
X412559Y100924D01*
X412581Y100917D01*
X412617Y100897D01*
X414026Y100313D01*
X417813Y96526D01*
X419863Y91578D01*
X419863Y86222D01*
X417813Y81274D01*
X414026Y77487D01*
X409078Y75437D01*
X403722Y75437D01*
G37*
%LPD*%
%LPC*%
G36*
X348641Y381761D02*
X348641Y381761D01*
X342391Y388011D01*
X342391Y396849D01*
X348641Y403099D01*
X357479Y403099D01*
X361828Y398750D01*
X361902Y398697D01*
X361972Y398637D01*
X362002Y398625D01*
X362028Y398606D01*
X362115Y398579D01*
X362200Y398545D01*
X362241Y398541D01*
X362263Y398534D01*
X362295Y398535D01*
X362366Y398527D01*
X371602Y398527D01*
X371622Y398530D01*
X371641Y398528D01*
X371743Y398550D01*
X371845Y398566D01*
X371862Y398576D01*
X371882Y398580D01*
X371971Y398633D01*
X372062Y398682D01*
X372076Y398696D01*
X372093Y398706D01*
X372160Y398785D01*
X372232Y398860D01*
X372240Y398878D01*
X372253Y398893D01*
X372292Y398989D01*
X372335Y399083D01*
X372337Y399103D01*
X372345Y399121D01*
X372363Y399288D01*
X372363Y447894D01*
X372361Y447908D01*
X372362Y447919D01*
X372350Y447977D01*
X372349Y447984D01*
X372341Y448075D01*
X372329Y448104D01*
X372324Y448136D01*
X372281Y448217D01*
X372245Y448301D01*
X372219Y448333D01*
X372208Y448354D01*
X372185Y448376D01*
X372140Y448432D01*
X367791Y452781D01*
X367791Y461619D01*
X374041Y467869D01*
X382879Y467869D01*
X389129Y461619D01*
X389129Y452781D01*
X384780Y448432D01*
X384727Y448358D01*
X384667Y448288D01*
X384655Y448258D01*
X384636Y448232D01*
X384609Y448145D01*
X384586Y448086D01*
X384585Y448084D01*
X384575Y448060D01*
X384571Y448019D01*
X384564Y447997D01*
X384565Y447965D01*
X384557Y447894D01*
X384557Y395027D01*
X383629Y392786D01*
X378104Y387261D01*
X375863Y386333D01*
X362366Y386333D01*
X362276Y386319D01*
X362185Y386311D01*
X362156Y386299D01*
X362124Y386294D01*
X362043Y386251D01*
X361959Y386215D01*
X361927Y386189D01*
X361906Y386178D01*
X361884Y386155D01*
X361828Y386110D01*
X357479Y381761D01*
X348641Y381761D01*
G37*
%LPD*%
%LPC*%
G36*
X180049Y309653D02*
X180049Y309653D01*
X177165Y310848D01*
X174958Y313055D01*
X173763Y315939D01*
X173763Y319061D01*
X174958Y321945D01*
X175290Y322277D01*
X175343Y322351D01*
X175403Y322421D01*
X175415Y322451D01*
X175434Y322477D01*
X175461Y322564D01*
X175495Y322649D01*
X175499Y322690D01*
X175506Y322712D01*
X175505Y322744D01*
X175513Y322816D01*
X175513Y416324D01*
X175499Y416415D01*
X175491Y416505D01*
X175479Y416535D01*
X175474Y416567D01*
X175431Y416648D01*
X175395Y416732D01*
X175369Y416764D01*
X175358Y416785D01*
X175335Y416807D01*
X175290Y416863D01*
X174958Y417195D01*
X173763Y420079D01*
X173763Y423201D01*
X174958Y426085D01*
X177165Y428292D01*
X180049Y429487D01*
X183171Y429487D01*
X186055Y428292D01*
X188262Y426085D01*
X189457Y423201D01*
X189457Y420079D01*
X188262Y417195D01*
X187930Y416863D01*
X187877Y416789D01*
X187817Y416719D01*
X187805Y416689D01*
X187786Y416663D01*
X187759Y416576D01*
X187725Y416491D01*
X187721Y416450D01*
X187714Y416428D01*
X187715Y416396D01*
X187707Y416324D01*
X187707Y322816D01*
X187721Y322725D01*
X187729Y322635D01*
X187741Y322605D01*
X187746Y322573D01*
X187789Y322492D01*
X187825Y322408D01*
X187851Y322376D01*
X187862Y322355D01*
X187885Y322333D01*
X187930Y322277D01*
X188262Y321945D01*
X189457Y319061D01*
X189457Y315939D01*
X188262Y313055D01*
X186055Y310848D01*
X183171Y309653D01*
X180049Y309653D01*
G37*
%LPD*%
%LPC*%
G36*
X354039Y106453D02*
X354039Y106453D01*
X351155Y107648D01*
X348948Y109855D01*
X347753Y112739D01*
X347753Y115861D01*
X348948Y118745D01*
X349280Y119077D01*
X349333Y119151D01*
X349393Y119221D01*
X349405Y119251D01*
X349424Y119277D01*
X349451Y119364D01*
X349485Y119449D01*
X349489Y119490D01*
X349496Y119512D01*
X349495Y119544D01*
X349503Y119616D01*
X349503Y210584D01*
X349489Y210675D01*
X349481Y210765D01*
X349469Y210795D01*
X349464Y210827D01*
X349421Y210908D01*
X349385Y210992D01*
X349359Y211024D01*
X349348Y211045D01*
X349325Y211067D01*
X349280Y211123D01*
X348948Y211455D01*
X347753Y214339D01*
X347753Y217461D01*
X348948Y220345D01*
X351155Y222552D01*
X354039Y223747D01*
X357161Y223747D01*
X360045Y222552D01*
X362252Y220345D01*
X363447Y217461D01*
X363447Y214339D01*
X362252Y211455D01*
X361920Y211123D01*
X361867Y211049D01*
X361807Y210979D01*
X361795Y210949D01*
X361776Y210923D01*
X361749Y210836D01*
X361715Y210751D01*
X361711Y210710D01*
X361704Y210688D01*
X361705Y210656D01*
X361697Y210584D01*
X361697Y119616D01*
X361711Y119525D01*
X361719Y119435D01*
X361731Y119405D01*
X361736Y119373D01*
X361779Y119292D01*
X361815Y119208D01*
X361841Y119176D01*
X361852Y119155D01*
X361875Y119133D01*
X361920Y119077D01*
X362252Y118745D01*
X363447Y115861D01*
X363447Y112739D01*
X362252Y109855D01*
X360045Y107648D01*
X357161Y106453D01*
X354039Y106453D01*
G37*
%LPD*%
%LPC*%
G36*
X327051Y408431D02*
X327051Y408431D01*
X320801Y414681D01*
X320801Y423519D01*
X327051Y429769D01*
X335889Y429769D01*
X341727Y423931D01*
X341743Y423920D01*
X341755Y423904D01*
X341843Y423848D01*
X341926Y423788D01*
X341945Y423782D01*
X341962Y423771D01*
X342063Y423746D01*
X342162Y423715D01*
X342181Y423716D01*
X342201Y423711D01*
X342304Y423719D01*
X342407Y423722D01*
X342426Y423728D01*
X342446Y423730D01*
X342541Y423770D01*
X342638Y423806D01*
X342654Y423819D01*
X342672Y423826D01*
X342803Y423931D01*
X346740Y427868D01*
X346793Y427942D01*
X346853Y428012D01*
X346865Y428042D01*
X346884Y428068D01*
X346911Y428155D01*
X346945Y428240D01*
X346949Y428281D01*
X346956Y428303D01*
X346955Y428335D01*
X346963Y428406D01*
X346963Y447894D01*
X346961Y447908D01*
X346962Y447919D01*
X346950Y447977D01*
X346949Y447984D01*
X346941Y448075D01*
X346929Y448104D01*
X346924Y448136D01*
X346881Y448217D01*
X346845Y448301D01*
X346819Y448333D01*
X346808Y448354D01*
X346785Y448376D01*
X346740Y448432D01*
X342391Y452781D01*
X342391Y461619D01*
X348641Y467869D01*
X357479Y467869D01*
X363729Y461619D01*
X363729Y452781D01*
X359380Y448432D01*
X359327Y448358D01*
X359267Y448288D01*
X359255Y448258D01*
X359236Y448232D01*
X359209Y448145D01*
X359186Y448086D01*
X359185Y448084D01*
X359175Y448060D01*
X359171Y448019D01*
X359164Y447997D01*
X359165Y447965D01*
X359157Y447894D01*
X359157Y428406D01*
X359171Y428316D01*
X359179Y428225D01*
X359191Y428196D01*
X359196Y428164D01*
X359239Y428083D01*
X359275Y427999D01*
X359301Y427967D01*
X359312Y427946D01*
X359335Y427924D01*
X359380Y427868D01*
X363729Y423519D01*
X363729Y414681D01*
X357479Y408431D01*
X348641Y408431D01*
X342803Y414269D01*
X342787Y414280D01*
X342775Y414296D01*
X342687Y414352D01*
X342604Y414412D01*
X342585Y414418D01*
X342568Y414429D01*
X342467Y414454D01*
X342368Y414485D01*
X342349Y414484D01*
X342329Y414489D01*
X342226Y414481D01*
X342123Y414478D01*
X342104Y414472D01*
X342084Y414470D01*
X341989Y414430D01*
X341892Y414394D01*
X341876Y414381D01*
X341858Y414374D01*
X341727Y414269D01*
X335889Y408431D01*
X327051Y408431D01*
G37*
%LPD*%
%LPC*%
G36*
X176239Y81053D02*
X176239Y81053D01*
X173355Y82248D01*
X171148Y84455D01*
X169953Y87339D01*
X169953Y90461D01*
X171148Y93345D01*
X171480Y93677D01*
X171533Y93751D01*
X171593Y93821D01*
X171605Y93851D01*
X171624Y93877D01*
X171651Y93964D01*
X171685Y94049D01*
X171689Y94090D01*
X171696Y94112D01*
X171695Y94144D01*
X171703Y94216D01*
X171703Y172484D01*
X171689Y172575D01*
X171681Y172665D01*
X171669Y172695D01*
X171664Y172727D01*
X171621Y172808D01*
X171585Y172892D01*
X171559Y172924D01*
X171548Y172945D01*
X171525Y172967D01*
X171480Y173023D01*
X171148Y173355D01*
X169953Y176239D01*
X169953Y179361D01*
X171148Y182245D01*
X173355Y184452D01*
X176239Y185647D01*
X179361Y185647D01*
X182245Y184452D01*
X184452Y182245D01*
X185647Y179361D01*
X185647Y176239D01*
X184452Y173355D01*
X184120Y173023D01*
X184067Y172949D01*
X184007Y172879D01*
X183995Y172849D01*
X183976Y172823D01*
X183949Y172736D01*
X183915Y172651D01*
X183911Y172610D01*
X183904Y172588D01*
X183905Y172556D01*
X183897Y172484D01*
X183897Y94216D01*
X183911Y94125D01*
X183919Y94035D01*
X183931Y94005D01*
X183936Y93973D01*
X183979Y93892D01*
X184015Y93808D01*
X184041Y93776D01*
X184052Y93755D01*
X184075Y93733D01*
X184120Y93677D01*
X184452Y93345D01*
X185647Y90461D01*
X185647Y87339D01*
X184452Y84455D01*
X182245Y82248D01*
X179361Y81053D01*
X176239Y81053D01*
G37*
%LPD*%
%LPC*%
G36*
X424841Y408431D02*
X424841Y408431D01*
X418591Y414681D01*
X418591Y423519D01*
X422940Y427868D01*
X422993Y427942D01*
X423053Y428012D01*
X423065Y428042D01*
X423084Y428068D01*
X423111Y428155D01*
X423145Y428240D01*
X423149Y428281D01*
X423156Y428303D01*
X423155Y428335D01*
X423163Y428406D01*
X423163Y456075D01*
X423144Y456190D01*
X423127Y456306D01*
X423125Y456311D01*
X423124Y456317D01*
X423069Y456420D01*
X423016Y456525D01*
X423011Y456529D01*
X423008Y456535D01*
X422924Y456615D01*
X422840Y456697D01*
X422834Y456701D01*
X422830Y456704D01*
X422813Y456712D01*
X422693Y456778D01*
X421634Y457217D01*
X417847Y461004D01*
X415797Y465952D01*
X415797Y471308D01*
X417847Y476256D01*
X421634Y480043D01*
X426582Y482093D01*
X431938Y482093D01*
X436886Y480043D01*
X440673Y476256D01*
X442723Y471308D01*
X442723Y465952D01*
X440673Y461004D01*
X436886Y457217D01*
X435827Y456778D01*
X435727Y456717D01*
X435627Y456657D01*
X435623Y456652D01*
X435618Y456648D01*
X435543Y456559D01*
X435467Y456470D01*
X435465Y456464D01*
X435461Y456459D01*
X435419Y456351D01*
X435375Y456241D01*
X435374Y456234D01*
X435373Y456229D01*
X435372Y456211D01*
X435357Y456075D01*
X435357Y428406D01*
X435371Y428316D01*
X435379Y428225D01*
X435391Y428196D01*
X435396Y428164D01*
X435439Y428083D01*
X435475Y427999D01*
X435501Y427967D01*
X435512Y427946D01*
X435535Y427924D01*
X435580Y427868D01*
X439929Y423519D01*
X439929Y414681D01*
X433679Y408431D01*
X424841Y408431D01*
G37*
%LPD*%
%LPC*%
G36*
X333719Y81053D02*
X333719Y81053D01*
X330835Y82248D01*
X328628Y84455D01*
X327433Y87339D01*
X327433Y90461D01*
X328628Y93345D01*
X328960Y93677D01*
X329013Y93751D01*
X329073Y93821D01*
X329085Y93851D01*
X329104Y93877D01*
X329131Y93964D01*
X329165Y94049D01*
X329169Y94090D01*
X329176Y94112D01*
X329175Y94144D01*
X329183Y94216D01*
X329183Y134384D01*
X329169Y134474D01*
X329161Y134566D01*
X329149Y134595D01*
X329144Y134627D01*
X329101Y134708D01*
X329065Y134792D01*
X329039Y134824D01*
X329028Y134845D01*
X329005Y134867D01*
X328960Y134923D01*
X328628Y135255D01*
X327433Y138139D01*
X327433Y141261D01*
X328628Y144145D01*
X330835Y146352D01*
X333719Y147547D01*
X336841Y147547D01*
X339725Y146352D01*
X341932Y144145D01*
X343127Y141261D01*
X343127Y138139D01*
X341932Y135255D01*
X341600Y134923D01*
X341546Y134849D01*
X341487Y134779D01*
X341475Y134749D01*
X341456Y134723D01*
X341429Y134636D01*
X341395Y134551D01*
X341391Y134510D01*
X341384Y134488D01*
X341385Y134456D01*
X341377Y134384D01*
X341377Y94216D01*
X341391Y94125D01*
X341399Y94035D01*
X341411Y94005D01*
X341416Y93973D01*
X341459Y93892D01*
X341495Y93808D01*
X341521Y93776D01*
X341532Y93755D01*
X341555Y93733D01*
X341600Y93677D01*
X341932Y93345D01*
X343127Y90461D01*
X343127Y87339D01*
X341932Y84455D01*
X339725Y82248D01*
X336841Y81053D01*
X333719Y81053D01*
G37*
%LPD*%
%LPC*%
G36*
X203173Y154241D02*
X203173Y154241D01*
X199252Y155865D01*
X196251Y158866D01*
X194627Y162787D01*
X194627Y167032D01*
X196251Y170953D01*
X199252Y173954D01*
X203173Y175578D01*
X220626Y175578D01*
X224547Y173954D01*
X227548Y170953D01*
X229172Y167032D01*
X229172Y162787D01*
X227548Y158866D01*
X224547Y155865D01*
X220626Y154241D01*
X203173Y154241D01*
G37*
%LPD*%
%LPC*%
G36*
X279373Y306641D02*
X279373Y306641D01*
X275452Y308265D01*
X272451Y311266D01*
X270827Y315187D01*
X270827Y319432D01*
X272451Y323353D01*
X275452Y326354D01*
X279373Y327978D01*
X296826Y327978D01*
X300747Y326354D01*
X303748Y323353D01*
X305372Y319432D01*
X305372Y315187D01*
X303748Y311266D01*
X300747Y308265D01*
X296826Y306641D01*
X279373Y306641D01*
G37*
%LPD*%
%LPC*%
G36*
X203173Y281241D02*
X203173Y281241D01*
X199252Y282865D01*
X196251Y285866D01*
X194627Y289787D01*
X194627Y294032D01*
X196251Y297953D01*
X199252Y300954D01*
X203173Y302578D01*
X220626Y302578D01*
X224547Y300954D01*
X227548Y297953D01*
X229172Y294032D01*
X229172Y289787D01*
X227548Y285866D01*
X224547Y282865D01*
X220626Y281241D01*
X203173Y281241D01*
G37*
%LPD*%
%LPC*%
G36*
X279373Y281241D02*
X279373Y281241D01*
X275452Y282865D01*
X272451Y285866D01*
X270827Y289787D01*
X270827Y294032D01*
X272451Y297953D01*
X275452Y300954D01*
X279373Y302578D01*
X296826Y302578D01*
X300747Y300954D01*
X303748Y297953D01*
X305372Y294032D01*
X305372Y289787D01*
X303748Y285866D01*
X300747Y282865D01*
X296826Y281241D01*
X279373Y281241D01*
G37*
%LPD*%
%LPC*%
G36*
X279373Y255841D02*
X279373Y255841D01*
X275452Y257465D01*
X272451Y260466D01*
X270827Y264387D01*
X270827Y268632D01*
X272451Y272553D01*
X275452Y275554D01*
X279373Y277178D01*
X296826Y277178D01*
X300747Y275554D01*
X303748Y272553D01*
X305372Y268632D01*
X305372Y264387D01*
X303748Y260466D01*
X300747Y257465D01*
X296826Y255841D01*
X279373Y255841D01*
G37*
%LPD*%
%LPC*%
G36*
X203173Y255841D02*
X203173Y255841D01*
X199252Y257465D01*
X196251Y260466D01*
X194627Y264387D01*
X194627Y268632D01*
X196251Y272553D01*
X199252Y275554D01*
X203173Y277178D01*
X220626Y277178D01*
X224547Y275554D01*
X227548Y272553D01*
X229172Y268632D01*
X229172Y264387D01*
X227548Y260466D01*
X224547Y257465D01*
X220626Y255841D01*
X203173Y255841D01*
G37*
%LPD*%
%LPC*%
G36*
X203173Y382841D02*
X203173Y382841D01*
X199252Y384465D01*
X196251Y387466D01*
X194627Y391387D01*
X194627Y395632D01*
X196251Y399553D01*
X199252Y402554D01*
X203173Y404178D01*
X220626Y404178D01*
X224547Y402554D01*
X227548Y399553D01*
X229172Y395632D01*
X229172Y391387D01*
X227548Y387466D01*
X224547Y384465D01*
X220626Y382841D01*
X203173Y382841D01*
G37*
%LPD*%
%LPC*%
G36*
X203173Y78041D02*
X203173Y78041D01*
X199252Y79665D01*
X196251Y82666D01*
X194627Y86587D01*
X194627Y90832D01*
X196251Y94753D01*
X199252Y97754D01*
X203173Y99378D01*
X220626Y99378D01*
X224547Y97754D01*
X227548Y94753D01*
X229172Y90832D01*
X229172Y86587D01*
X227548Y82666D01*
X224547Y79665D01*
X220626Y78041D01*
X203173Y78041D01*
G37*
%LPD*%
%LPC*%
G36*
X203173Y103441D02*
X203173Y103441D01*
X199252Y105065D01*
X196251Y108066D01*
X194627Y111987D01*
X194627Y116232D01*
X196251Y120153D01*
X199252Y123154D01*
X203173Y124778D01*
X220626Y124778D01*
X224547Y123154D01*
X227548Y120153D01*
X229172Y116232D01*
X229172Y111987D01*
X227548Y108066D01*
X224547Y105065D01*
X220626Y103441D01*
X203173Y103441D01*
G37*
%LPD*%
%LPC*%
G36*
X279373Y408241D02*
X279373Y408241D01*
X275452Y409865D01*
X272451Y412866D01*
X270827Y416787D01*
X270827Y421032D01*
X272451Y424953D01*
X275452Y427954D01*
X279373Y429578D01*
X296826Y429578D01*
X300747Y427954D01*
X303748Y424953D01*
X305372Y421032D01*
X305372Y416787D01*
X303748Y412866D01*
X300747Y409865D01*
X296826Y408241D01*
X279373Y408241D01*
G37*
%LPD*%
%LPC*%
G36*
X203173Y128841D02*
X203173Y128841D01*
X199252Y130465D01*
X196251Y133466D01*
X194627Y137387D01*
X194627Y141632D01*
X196251Y145553D01*
X199252Y148554D01*
X203173Y150178D01*
X220626Y150178D01*
X224547Y148554D01*
X227548Y145553D01*
X229172Y141632D01*
X229172Y137387D01*
X227548Y133466D01*
X224547Y130465D01*
X220626Y128841D01*
X203173Y128841D01*
G37*
%LPD*%
%LPC*%
G36*
X279373Y205041D02*
X279373Y205041D01*
X275452Y206665D01*
X272451Y209666D01*
X270827Y213587D01*
X270827Y217832D01*
X272451Y221753D01*
X275452Y224754D01*
X279373Y226378D01*
X296826Y226378D01*
X300747Y224754D01*
X303748Y221753D01*
X305372Y217832D01*
X305372Y213587D01*
X303748Y209666D01*
X300747Y206665D01*
X296826Y205041D01*
X279373Y205041D01*
G37*
%LPD*%
%LPC*%
G36*
X279373Y357441D02*
X279373Y357441D01*
X275452Y359065D01*
X272451Y362066D01*
X270827Y365987D01*
X270827Y370232D01*
X272451Y374153D01*
X275452Y377154D01*
X279373Y378778D01*
X296826Y378778D01*
X300747Y377154D01*
X303748Y374153D01*
X305372Y370232D01*
X305372Y365987D01*
X303748Y362066D01*
X300747Y359065D01*
X296826Y357441D01*
X279373Y357441D01*
G37*
%LPD*%
%LPC*%
G36*
X279373Y332041D02*
X279373Y332041D01*
X275452Y333665D01*
X272451Y336666D01*
X270827Y340587D01*
X270827Y344832D01*
X272451Y348753D01*
X275452Y351754D01*
X279373Y353378D01*
X296826Y353378D01*
X300747Y351754D01*
X303748Y348753D01*
X305372Y344832D01*
X305372Y340587D01*
X303748Y336666D01*
X300747Y333665D01*
X296826Y332041D01*
X279373Y332041D01*
G37*
%LPD*%
%LPC*%
G36*
X279373Y230441D02*
X279373Y230441D01*
X275452Y232065D01*
X272451Y235066D01*
X270827Y238987D01*
X270827Y243232D01*
X272451Y247153D01*
X275452Y250154D01*
X279373Y251778D01*
X296826Y251778D01*
X300747Y250154D01*
X303748Y247153D01*
X305372Y243232D01*
X305372Y238987D01*
X303748Y235066D01*
X300747Y232065D01*
X296826Y230441D01*
X279373Y230441D01*
G37*
%LPD*%
%LPC*%
G36*
X49239Y144553D02*
X49239Y144553D01*
X46355Y145748D01*
X44148Y147955D01*
X42953Y150839D01*
X42953Y153961D01*
X43629Y155593D01*
X43644Y155657D01*
X43669Y155718D01*
X43678Y155800D01*
X43685Y155832D01*
X43684Y155852D01*
X43687Y155884D01*
X43687Y174316D01*
X43677Y174380D01*
X43676Y174446D01*
X43653Y174526D01*
X43648Y174559D01*
X43638Y174576D01*
X43629Y174607D01*
X42953Y176239D01*
X42953Y179361D01*
X44148Y182245D01*
X46355Y184452D01*
X49239Y185647D01*
X52361Y185647D01*
X55245Y184452D01*
X57452Y182245D01*
X58647Y179361D01*
X58647Y176239D01*
X57971Y174607D01*
X57956Y174543D01*
X57931Y174482D01*
X57922Y174400D01*
X57915Y174368D01*
X57916Y174348D01*
X57913Y174316D01*
X57913Y155884D01*
X57923Y155820D01*
X57924Y155754D01*
X57947Y155674D01*
X57952Y155641D01*
X57962Y155624D01*
X57971Y155593D01*
X58647Y153961D01*
X58647Y150839D01*
X57452Y147955D01*
X55245Y145748D01*
X52361Y144553D01*
X49239Y144553D01*
G37*
%LPD*%
%LPC*%
G36*
X201391Y43495D02*
X201391Y43495D01*
X197310Y45186D01*
X194186Y48310D01*
X192495Y52391D01*
X192495Y56809D01*
X194186Y60890D01*
X197310Y64014D01*
X201391Y65705D01*
X205809Y65705D01*
X209890Y64014D01*
X213014Y60890D01*
X214705Y56809D01*
X214705Y52391D01*
X213014Y48310D01*
X209890Y45186D01*
X205809Y43495D01*
X201391Y43495D01*
G37*
%LPD*%
%LPC*%
G36*
X226391Y43495D02*
X226391Y43495D01*
X222310Y45186D01*
X219186Y48310D01*
X217495Y52391D01*
X217495Y56809D01*
X219186Y60890D01*
X222310Y64014D01*
X226391Y65705D01*
X230809Y65705D01*
X234890Y64014D01*
X238014Y60890D01*
X239705Y56809D01*
X239705Y52391D01*
X238014Y48310D01*
X234890Y45186D01*
X230809Y43495D01*
X226391Y43495D01*
G37*
%LPD*%
%LPC*%
G36*
X109881Y408431D02*
X109881Y408431D01*
X103631Y414681D01*
X103631Y423519D01*
X109881Y429769D01*
X118719Y429769D01*
X124969Y423519D01*
X124969Y414681D01*
X118719Y408431D01*
X109881Y408431D01*
G37*
%LPD*%
%LPC*%
G36*
X147981Y116331D02*
X147981Y116331D01*
X141731Y122581D01*
X141731Y131419D01*
X147981Y137669D01*
X156819Y137669D01*
X163069Y131419D01*
X163069Y122581D01*
X156819Y116331D01*
X147981Y116331D01*
G37*
%LPD*%
%LPC*%
G36*
X329591Y205231D02*
X329591Y205231D01*
X323341Y211481D01*
X323341Y220319D01*
X329591Y226569D01*
X338429Y226569D01*
X344679Y220319D01*
X344679Y211481D01*
X338429Y205231D01*
X329591Y205231D01*
G37*
%LPD*%
%LPC*%
G36*
X135281Y446531D02*
X135281Y446531D01*
X129031Y452781D01*
X129031Y461619D01*
X135281Y467869D01*
X144119Y467869D01*
X150369Y461619D01*
X150369Y452781D01*
X144119Y446531D01*
X135281Y446531D01*
G37*
%LPD*%
%LPC*%
G36*
X289623Y191833D02*
X289623Y191833D01*
X289623Y199454D01*
X295604Y199454D01*
X297371Y199103D01*
X299035Y198413D01*
X300533Y197413D01*
X301807Y196139D01*
X302807Y194641D01*
X303497Y192977D01*
X303724Y191833D01*
X289623Y191833D01*
G37*
%LPD*%
%LPC*%
G36*
X289623Y395033D02*
X289623Y395033D01*
X289623Y402654D01*
X295604Y402654D01*
X297371Y402303D01*
X299035Y401613D01*
X300533Y400613D01*
X301807Y399339D01*
X302807Y397841D01*
X303497Y396177D01*
X303724Y395033D01*
X289623Y395033D01*
G37*
%LPD*%
%LPC*%
G36*
X213423Y242633D02*
X213423Y242633D01*
X213423Y250254D01*
X219404Y250254D01*
X221171Y249903D01*
X222835Y249213D01*
X224333Y248213D01*
X225607Y246939D01*
X226607Y245441D01*
X227297Y243777D01*
X227524Y242633D01*
X213423Y242633D01*
G37*
%LPD*%
%LPC*%
G36*
X272475Y395033D02*
X272475Y395033D01*
X272702Y396177D01*
X273392Y397841D01*
X274392Y399339D01*
X275666Y400613D01*
X277164Y401613D01*
X278828Y402303D01*
X280595Y402654D01*
X286576Y402654D01*
X286576Y395033D01*
X272475Y395033D01*
G37*
%LPD*%
%LPC*%
G36*
X272475Y191833D02*
X272475Y191833D01*
X272702Y192977D01*
X273392Y194641D01*
X274392Y196139D01*
X275666Y197413D01*
X277164Y198413D01*
X278828Y199103D01*
X280595Y199454D01*
X286576Y199454D01*
X286576Y191833D01*
X272475Y191833D01*
G37*
%LPD*%
%LPC*%
G36*
X196275Y242633D02*
X196275Y242633D01*
X196502Y243777D01*
X197192Y245441D01*
X198192Y246939D01*
X199466Y248213D01*
X200964Y249213D01*
X202628Y249903D01*
X204395Y250254D01*
X210376Y250254D01*
X210376Y242633D01*
X196275Y242633D01*
G37*
%LPD*%
%LPC*%
G36*
X289623Y384365D02*
X289623Y384365D01*
X289623Y391986D01*
X303724Y391986D01*
X303497Y390842D01*
X302807Y389178D01*
X301807Y387680D01*
X300533Y386406D01*
X299035Y385406D01*
X297371Y384716D01*
X295604Y384365D01*
X289623Y384365D01*
G37*
%LPD*%
%LPC*%
G36*
X213423Y231965D02*
X213423Y231965D01*
X213423Y239586D01*
X227524Y239586D01*
X227297Y238442D01*
X226607Y236778D01*
X225607Y235280D01*
X224333Y234006D01*
X222835Y233006D01*
X221171Y232316D01*
X219404Y231965D01*
X213423Y231965D01*
G37*
%LPD*%
%LPC*%
G36*
X289623Y181165D02*
X289623Y181165D01*
X289623Y188786D01*
X303724Y188786D01*
X303497Y187642D01*
X302807Y185978D01*
X301807Y184480D01*
X300533Y183206D01*
X299035Y182206D01*
X297371Y181516D01*
X295604Y181165D01*
X289623Y181165D01*
G37*
%LPD*%
%LPC*%
G36*
X280595Y384365D02*
X280595Y384365D01*
X278828Y384716D01*
X277164Y385406D01*
X275666Y386406D01*
X274392Y387680D01*
X273392Y389178D01*
X272702Y390842D01*
X272475Y391986D01*
X286576Y391986D01*
X286576Y384365D01*
X280595Y384365D01*
G37*
%LPD*%
%LPC*%
G36*
X204395Y231965D02*
X204395Y231965D01*
X202628Y232316D01*
X200964Y233006D01*
X199466Y234006D01*
X198192Y235280D01*
X197192Y236778D01*
X196502Y238442D01*
X196275Y239586D01*
X210376Y239586D01*
X210376Y231965D01*
X204395Y231965D01*
G37*
%LPD*%
%LPC*%
G36*
X280595Y181165D02*
X280595Y181165D01*
X278828Y181516D01*
X277164Y182206D01*
X275666Y183206D01*
X274392Y184480D01*
X273392Y185978D01*
X272702Y187642D01*
X272475Y188786D01*
X286576Y188786D01*
X286576Y181165D01*
X280595Y181165D01*
G37*
%LPD*%
%LPC*%
G36*
X418083Y21843D02*
X418083Y21843D01*
X418083Y32166D01*
X419356Y31965D01*
X421143Y31384D01*
X422817Y30531D01*
X424338Y29426D01*
X425666Y28098D01*
X426771Y26577D01*
X427624Y24903D01*
X428205Y23116D01*
X428406Y21843D01*
X418083Y21843D01*
G37*
%LPD*%
%LPC*%
G36*
X21843Y472693D02*
X21843Y472693D01*
X21843Y483016D01*
X23116Y482815D01*
X24903Y482234D01*
X26577Y481381D01*
X28098Y480276D01*
X29426Y478948D01*
X30531Y477427D01*
X31384Y475753D01*
X31965Y473966D01*
X32166Y472693D01*
X21843Y472693D01*
G37*
%LPD*%
%LPC*%
G36*
X115823Y128523D02*
X115823Y128523D01*
X115823Y138846D01*
X117096Y138645D01*
X118883Y138064D01*
X120557Y137211D01*
X122078Y136106D01*
X123406Y134778D01*
X124511Y133257D01*
X125364Y131583D01*
X125945Y129796D01*
X126146Y128523D01*
X115823Y128523D01*
G37*
%LPD*%
%LPC*%
G36*
X26923Y141223D02*
X26923Y141223D01*
X26923Y151546D01*
X28196Y151345D01*
X29983Y150764D01*
X31657Y149911D01*
X33178Y148806D01*
X34506Y147478D01*
X35611Y145957D01*
X36464Y144283D01*
X37045Y142496D01*
X37246Y141223D01*
X26923Y141223D01*
G37*
%LPD*%
%LPC*%
G36*
X26923Y138177D02*
X26923Y138177D01*
X37246Y138177D01*
X37045Y136904D01*
X36464Y135117D01*
X35611Y133443D01*
X34506Y131922D01*
X33178Y130594D01*
X31657Y129489D01*
X29983Y128636D01*
X28196Y128055D01*
X26923Y127854D01*
X26923Y138177D01*
G37*
%LPD*%
%LPC*%
G36*
X471423Y138177D02*
X471423Y138177D01*
X481746Y138177D01*
X481545Y136904D01*
X480964Y135117D01*
X480111Y133443D01*
X479006Y131922D01*
X477678Y130594D01*
X476157Y129489D01*
X474483Y128636D01*
X472696Y128055D01*
X471423Y127854D01*
X471423Y138177D01*
G37*
%LPD*%
%LPC*%
G36*
X468214Y470153D02*
X468214Y470153D01*
X468415Y471426D01*
X468996Y473213D01*
X469849Y474887D01*
X470954Y476408D01*
X472282Y477736D01*
X473803Y478841D01*
X475477Y479694D01*
X477264Y480275D01*
X478537Y480476D01*
X478537Y470153D01*
X468214Y470153D01*
G37*
%LPD*%
%LPC*%
G36*
X21843Y469647D02*
X21843Y469647D01*
X32166Y469647D01*
X31965Y468374D01*
X31384Y466587D01*
X30531Y464913D01*
X29426Y463392D01*
X28098Y462064D01*
X26577Y460959D01*
X24903Y460106D01*
X23116Y459525D01*
X21843Y459324D01*
X21843Y469647D01*
G37*
%LPD*%
%LPC*%
G36*
X26923Y163577D02*
X26923Y163577D01*
X37246Y163577D01*
X37045Y162304D01*
X36464Y160517D01*
X35611Y158843D01*
X34506Y157322D01*
X33178Y155994D01*
X31657Y154889D01*
X29983Y154036D01*
X28196Y153455D01*
X26923Y153254D01*
X26923Y163577D01*
G37*
%LPD*%
%LPC*%
G36*
X113283Y22607D02*
X113283Y22607D01*
X123606Y22607D01*
X123405Y21334D01*
X122824Y19547D01*
X121971Y17873D01*
X120866Y16352D01*
X119538Y15024D01*
X118017Y13919D01*
X116343Y13066D01*
X114556Y12485D01*
X113283Y12284D01*
X113283Y22607D01*
G37*
%LPD*%
%LPC*%
G36*
X446023Y23877D02*
X446023Y23877D01*
X456346Y23877D01*
X456145Y22604D01*
X455564Y20817D01*
X454711Y19143D01*
X453606Y17622D01*
X452278Y16294D01*
X450757Y15189D01*
X449083Y14336D01*
X447296Y13755D01*
X446023Y13554D01*
X446023Y23877D01*
G37*
%LPD*%
%LPC*%
G36*
X102454Y128523D02*
X102454Y128523D01*
X102655Y129796D01*
X103236Y131583D01*
X104089Y133257D01*
X105194Y134778D01*
X106522Y136106D01*
X108043Y137211D01*
X109717Y138064D01*
X111504Y138645D01*
X112777Y138846D01*
X112777Y128523D01*
X102454Y128523D01*
G37*
%LPD*%
%LPC*%
G36*
X13554Y141223D02*
X13554Y141223D01*
X13755Y142496D01*
X14336Y144283D01*
X15189Y145957D01*
X16294Y147478D01*
X17622Y148806D01*
X19143Y149911D01*
X20817Y150764D01*
X22604Y151345D01*
X23877Y151546D01*
X23877Y141223D01*
X13554Y141223D01*
G37*
%LPD*%
%LPC*%
G36*
X22604Y128055D02*
X22604Y128055D01*
X20817Y128636D01*
X19143Y129489D01*
X17622Y130594D01*
X16294Y131922D01*
X15189Y133443D01*
X14336Y135117D01*
X13755Y136904D01*
X13554Y138177D01*
X23877Y138177D01*
X23877Y127854D01*
X22604Y128055D01*
G37*
%LPD*%
%LPC*%
G36*
X467104Y128055D02*
X467104Y128055D01*
X465317Y128636D01*
X463643Y129489D01*
X462122Y130594D01*
X460794Y131922D01*
X459689Y133443D01*
X458836Y135117D01*
X458255Y136904D01*
X458054Y138177D01*
X468377Y138177D01*
X468377Y127854D01*
X467104Y128055D01*
G37*
%LPD*%
%LPC*%
G36*
X477264Y456985D02*
X477264Y456985D01*
X475477Y457566D01*
X473803Y458419D01*
X472282Y459524D01*
X470954Y460852D01*
X469849Y462373D01*
X468996Y464047D01*
X468415Y465834D01*
X468214Y467107D01*
X478537Y467107D01*
X478537Y456784D01*
X477264Y456985D01*
G37*
%LPD*%
%LPC*%
G36*
X22604Y153455D02*
X22604Y153455D01*
X20817Y154036D01*
X19143Y154889D01*
X17622Y155994D01*
X16294Y157322D01*
X15189Y158843D01*
X14336Y160517D01*
X13755Y162304D01*
X13554Y163577D01*
X23877Y163577D01*
X23877Y153254D01*
X22604Y153455D01*
G37*
%LPD*%
%LPC*%
G36*
X108964Y12485D02*
X108964Y12485D01*
X107177Y13066D01*
X105503Y13919D01*
X103982Y15024D01*
X102654Y16352D01*
X101549Y17873D01*
X100696Y19547D01*
X100115Y21334D01*
X99914Y22607D01*
X110237Y22607D01*
X110237Y12284D01*
X108964Y12485D01*
G37*
%LPD*%
%LPC*%
G36*
X441704Y13755D02*
X441704Y13755D01*
X439917Y14336D01*
X438243Y15189D01*
X436722Y16294D01*
X435394Y17622D01*
X434289Y19143D01*
X433436Y20817D01*
X432855Y22604D01*
X432654Y23877D01*
X442977Y23877D01*
X442977Y13554D01*
X441704Y13755D01*
G37*
%LPD*%
%LPC*%
G36*
X115823Y344423D02*
X115823Y344423D01*
X115823Y352045D01*
X118088Y352045D01*
X123445Y346688D01*
X123445Y344423D01*
X115823Y344423D01*
G37*
%LPD*%
%LPC*%
G36*
X335533Y192023D02*
X335533Y192023D01*
X335533Y199645D01*
X337798Y199645D01*
X343155Y194288D01*
X343155Y192023D01*
X335533Y192023D01*
G37*
%LPD*%
%LPC*%
G36*
X153923Y153923D02*
X153923Y153923D01*
X153923Y161545D01*
X156188Y161545D01*
X161545Y156188D01*
X161545Y153923D01*
X153923Y153923D01*
G37*
%LPD*%
%LPC*%
G36*
X430783Y393953D02*
X430783Y393953D01*
X430783Y401575D01*
X433048Y401575D01*
X438405Y396218D01*
X438405Y393953D01*
X430783Y393953D01*
G37*
%LPD*%
%LPC*%
G36*
X332993Y395223D02*
X332993Y395223D01*
X332993Y402845D01*
X335258Y402845D01*
X340615Y397488D01*
X340615Y395223D01*
X332993Y395223D01*
G37*
%LPD*%
%LPC*%
G36*
X420115Y393953D02*
X420115Y393953D01*
X420115Y396218D01*
X425472Y401575D01*
X427737Y401575D01*
X427737Y393953D01*
X420115Y393953D01*
G37*
%LPD*%
%LPC*%
G36*
X115823Y333755D02*
X115823Y333755D01*
X115823Y341377D01*
X123445Y341377D01*
X123445Y339112D01*
X118088Y333755D01*
X115823Y333755D01*
G37*
%LPD*%
%LPC*%
G36*
X153923Y143255D02*
X153923Y143255D01*
X153923Y150877D01*
X161545Y150877D01*
X161545Y148612D01*
X156188Y143255D01*
X153923Y143255D01*
G37*
%LPD*%
%LPC*%
G36*
X430783Y383285D02*
X430783Y383285D01*
X430783Y390907D01*
X438405Y390907D01*
X438405Y388642D01*
X433048Y383285D01*
X430783Y383285D01*
G37*
%LPD*%
%LPC*%
G36*
X335533Y181355D02*
X335533Y181355D01*
X335533Y188977D01*
X343155Y188977D01*
X343155Y186712D01*
X337798Y181355D01*
X335533Y181355D01*
G37*
%LPD*%
%LPC*%
G36*
X324865Y192023D02*
X324865Y192023D01*
X324865Y194288D01*
X330222Y199645D01*
X332487Y199645D01*
X332487Y192023D01*
X324865Y192023D01*
G37*
%LPD*%
%LPC*%
G36*
X143255Y153923D02*
X143255Y153923D01*
X143255Y156188D01*
X148612Y161545D01*
X150877Y161545D01*
X150877Y153923D01*
X143255Y153923D01*
G37*
%LPD*%
%LPC*%
G36*
X322325Y395223D02*
X322325Y395223D01*
X322325Y397488D01*
X327682Y402845D01*
X329947Y402845D01*
X329947Y395223D01*
X322325Y395223D01*
G37*
%LPD*%
%LPC*%
G36*
X332993Y384555D02*
X332993Y384555D01*
X332993Y392177D01*
X340615Y392177D01*
X340615Y389912D01*
X335258Y384555D01*
X332993Y384555D01*
G37*
%LPD*%
%LPC*%
G36*
X148612Y143255D02*
X148612Y143255D01*
X143255Y148612D01*
X143255Y150877D01*
X150877Y150877D01*
X150877Y143255D01*
X148612Y143255D01*
G37*
%LPD*%
%LPC*%
G36*
X330222Y181355D02*
X330222Y181355D01*
X324865Y186712D01*
X324865Y188977D01*
X332487Y188977D01*
X332487Y181355D01*
X330222Y181355D01*
G37*
%LPD*%
%LPC*%
G36*
X327682Y384555D02*
X327682Y384555D01*
X322325Y389912D01*
X322325Y392177D01*
X329947Y392177D01*
X329947Y384555D01*
X327682Y384555D01*
G37*
%LPD*%
%LPC*%
G36*
X425472Y383285D02*
X425472Y383285D01*
X420115Y388642D01*
X420115Y390907D01*
X427737Y390907D01*
X427737Y383285D01*
X425472Y383285D01*
G37*
%LPD*%
%LPC*%
G36*
X152399Y152399D02*
X152399Y152399D01*
X152399Y152401D01*
X152401Y152401D01*
X152401Y152399D01*
X152399Y152399D01*
G37*
%LPD*%
%LPC*%
G36*
X25399Y139699D02*
X25399Y139699D01*
X25399Y139701D01*
X25401Y139701D01*
X25401Y139699D01*
X25399Y139699D01*
G37*
%LPD*%
%LPC*%
G36*
X288099Y190309D02*
X288099Y190309D01*
X288099Y190310D01*
X288100Y190310D01*
X288100Y190309D01*
X288099Y190309D01*
G37*
%LPD*%
%LPC*%
G36*
X334009Y190499D02*
X334009Y190499D01*
X334009Y190501D01*
X334011Y190501D01*
X334011Y190499D01*
X334009Y190499D01*
G37*
%LPD*%
%LPC*%
G36*
X211899Y241109D02*
X211899Y241109D01*
X211899Y241110D01*
X211900Y241110D01*
X211900Y241109D01*
X211899Y241109D01*
G37*
%LPD*%
%LPC*%
G36*
X331469Y393699D02*
X331469Y393699D01*
X331469Y393701D01*
X331471Y393701D01*
X331471Y393699D01*
X331469Y393699D01*
G37*
%LPD*%
%LPC*%
G36*
X429259Y392429D02*
X429259Y392429D01*
X429259Y392431D01*
X429261Y392431D01*
X429261Y392429D01*
X429259Y392429D01*
G37*
%LPD*%
%LPC*%
G36*
X288099Y393509D02*
X288099Y393509D01*
X288099Y393510D01*
X288100Y393510D01*
X288100Y393509D01*
X288099Y393509D01*
G37*
%LPD*%
D10*
X152400Y127000D03*
X152400Y152400D03*
D11*
X331470Y419100D03*
X331470Y393700D03*
X334010Y215900D03*
X334010Y190500D03*
D12*
X353060Y457200D03*
X378460Y457200D03*
D13*
X165100Y457200D03*
X139700Y457200D03*
X429260Y392430D03*
X353060Y392430D03*
D10*
X114300Y342900D03*
X114300Y419100D03*
D13*
X429260Y419100D03*
X353060Y419100D03*
D11*
X83820Y419100D03*
X83820Y342900D03*
D14*
X205296Y418910D02*
X218504Y418910D01*
X218504Y393510D02*
X205296Y393510D01*
X205296Y368110D02*
X218504Y368110D01*
X218504Y342710D02*
X205296Y342710D01*
X205296Y317310D02*
X218504Y317310D01*
X218504Y291910D02*
X205296Y291910D01*
X205296Y266510D02*
X218504Y266510D01*
X218504Y241110D02*
X205296Y241110D01*
X205296Y215710D02*
X218504Y215710D01*
X218504Y190310D02*
X205296Y190310D01*
X205296Y164910D02*
X218504Y164910D01*
X218504Y139510D02*
X205296Y139510D01*
X205296Y114110D02*
X218504Y114110D01*
X218504Y88710D02*
X205296Y88710D01*
X281496Y88710D02*
X294704Y88710D01*
X294704Y114110D02*
X281496Y114110D01*
X281496Y139510D02*
X294704Y139510D01*
X294704Y164910D02*
X281496Y164910D01*
X281496Y190310D02*
X294704Y190310D01*
X294704Y215710D02*
X281496Y215710D01*
X281496Y241110D02*
X294704Y241110D01*
X294704Y266510D02*
X281496Y266510D01*
X281496Y291910D02*
X294704Y291910D01*
X294704Y317310D02*
X281496Y317310D01*
X281496Y342710D02*
X294704Y342710D01*
X294704Y368110D02*
X281496Y368110D01*
X281496Y393510D02*
X294704Y393510D01*
X294704Y418910D02*
X281496Y418910D01*
D15*
X406400Y114300D03*
X406400Y88900D03*
X469900Y368300D03*
X469900Y342900D03*
X469900Y317500D03*
X469900Y292100D03*
X469900Y266700D03*
X469900Y241300D03*
X469900Y215900D03*
X469900Y190500D03*
X469900Y165100D03*
X469900Y139700D03*
X25400Y241300D03*
X25400Y215900D03*
X25400Y190500D03*
X25400Y165100D03*
X25400Y139700D03*
X25400Y368300D03*
X25400Y342900D03*
X25400Y317500D03*
X25400Y292100D03*
X25400Y266700D03*
X114300Y127000D03*
X114300Y101600D03*
X114300Y76200D03*
X111760Y24130D03*
X111760Y49530D03*
D16*
X203600Y21600D03*
X228600Y21600D03*
X253600Y21600D03*
X253600Y54600D03*
X228600Y54600D03*
X203600Y54600D03*
D15*
X76200Y25400D03*
X76200Y50800D03*
X76200Y76200D03*
X76200Y101600D03*
X416560Y20320D03*
X391160Y20320D03*
X365760Y20320D03*
X340360Y20320D03*
X314960Y20320D03*
X289560Y20320D03*
X198120Y463550D03*
X223520Y463550D03*
X248920Y463550D03*
X274320Y463550D03*
X299720Y463550D03*
X444500Y25400D03*
X444500Y50800D03*
X444500Y76200D03*
X444500Y101600D03*
X429260Y468630D03*
X480060Y468630D03*
X71120Y471170D03*
X20320Y471170D03*
D17*
X353060Y457200D02*
X353060Y419100D01*
X83820Y342900D02*
X83820Y248920D01*
X25400Y190500D01*
D18*
X181610Y317500D03*
X181610Y317500D03*
X181610Y421640D03*
D17*
X181610Y317500D01*
X114300Y101600D02*
X93980Y81280D01*
X93980Y43180D01*
X76200Y25400D01*
X381000Y454660D02*
X378460Y457200D01*
X374650Y392430D02*
X353060Y392430D01*
X374650Y392430D02*
X378460Y396240D01*
X378460Y457200D01*
X198120Y463550D02*
X198120Y432689D01*
X211900Y418910D01*
X241300Y368300D02*
X215710Y342710D01*
X211900Y342710D01*
X241300Y368300D02*
X241300Y430530D01*
X274320Y463550D01*
X252095Y357505D02*
X211900Y317310D01*
X252095Y357505D02*
X252095Y415925D01*
X299720Y463550D01*
X429260Y468630D02*
X429260Y419100D01*
X165100Y457200D02*
X165100Y228600D01*
D18*
X165100Y228600D03*
D17*
X71120Y431800D02*
X71120Y471170D01*
X71120Y431800D02*
X83820Y419100D01*
X99060Y403860D01*
X99060Y355600D01*
X99060Y350139D01*
X99060Y207010D01*
D18*
X99060Y207010D03*
X406400Y165100D03*
D17*
X406400Y114300D01*
D18*
X335280Y139700D03*
D17*
X335280Y88900D01*
D18*
X335280Y88900D03*
X314960Y254000D03*
D17*
X314960Y20320D01*
D18*
X269240Y39370D03*
D17*
X269240Y158369D01*
X211900Y215710D01*
D18*
X355600Y215900D03*
D17*
X355600Y114300D01*
D18*
X355600Y114300D03*
X177800Y88900D03*
X177800Y177800D03*
D17*
X177800Y88900D01*
D18*
X381000Y190500D03*
X381000Y50800D03*
D19*
X381000Y190500D01*
D18*
X50800Y177800D03*
D19*
X50800Y152400D01*
D18*
X50800Y152400D03*
M02*
