M48
;GenerationSoftware,Autodesk,EAGLE,9.6.2*%
;CreationDate,2022-08-01T05:12:44Z*%
FMAT,2
ICI,OFF
METRIC,TZ,000.000
T4C0.350
T3C0.813
T2C0.900
T1C1.016
%
G90
M71
T1
X46990Y13970
X2540Y36830
X2540Y13970
X2540Y16510
X2540Y19050
X2540Y21590
X2540Y24130
X46990Y16510
X46990Y19050
X46990Y21590
X46990Y24130
X46990Y26670
X46990Y29210
X46990Y31750
X46990Y34290
X34036Y2032
X46990Y36830
X40640Y8890
X40640Y11430
X2540Y34290
X2540Y31750
X2540Y29210
X2540Y26670
X11430Y12700
X11430Y10160
X11430Y7620
X11176Y2413
X11176Y4953
X7620Y5080
X7620Y2540
X7620Y7620
X7620Y10160
X41656Y2032
X39116Y2032
X36576Y2032
X31496Y2032
X28956Y2032
X19812Y46355
X22352Y46355
X24892Y46355
X27432Y46355
X29972Y46355
X44450Y2540
X44450Y5080
X44450Y7620
X44450Y10160
X42926Y46863
X48006Y46863
X7112Y47117
X2032Y47117
T2
X22860Y5460
X20360Y5460
X22860Y2160
X20360Y2160
X25360Y2160
X25360Y5460
T3
X28810Y24111
X28810Y26651
X28810Y29191
X28810Y31731
X21190Y19031
X28810Y36811
X28810Y39351
X28810Y41891
X28810Y34271
X11430Y34290
X15240Y12700
X15240Y15240
X33147Y41910
X33147Y39370
X33401Y21590
X33401Y19050
X35306Y45720
X37846Y45720
X16510Y45720
X13970Y45720
X42926Y39243
X35306Y39243
X11430Y41910
X42926Y41910
X35306Y41910
X8382Y41910
X8382Y34290
X21190Y41891
X21190Y39351
X21190Y36811
X21190Y34271
X21190Y31731
X21190Y29191
X21190Y26651
X21190Y24111
X21190Y21571
X21190Y16491
X21190Y13951
X21190Y11411
X21190Y8871
X28810Y8871
X28810Y11411
X28810Y13951
X28810Y16491
X28810Y19031
X28810Y21571
T4
X17780Y17780
X17780Y8890
X18161Y31750
X35560Y11430
X35560Y21590
X26924Y3937
X31496Y25400
X33528Y8890
X38100Y5080
X33528Y13970
X40640Y16510
X9906Y20701
X16510Y22860
X18161Y42164
X18161Y31750
X5080Y15240
X5080Y17780
X38100Y19050
M30