G04 EAGLE Gerber RS-274X export*
G75*
%MOMM*%
%FSLAX34Y34*%
%LPD*%
%INSilkscreen Bottom*%
%IPPOS*%
%AMOC8*
5,1,8,0,0,1.08239X$1,22.5*%
G01*
%ADD10C,0.177800*%
%ADD11R,0.127000X0.012700*%
%ADD12R,0.584200X0.012700*%
%ADD13R,0.812800X0.012700*%
%ADD14R,0.965200X0.012700*%
%ADD15R,1.117600X0.012700*%
%ADD16R,1.244600X0.012700*%
%ADD17R,1.358900X0.012700*%
%ADD18R,1.473200X0.012700*%
%ADD19R,1.574800X0.012700*%
%ADD20R,0.596900X0.012700*%
%ADD21R,0.647700X0.012700*%
%ADD22R,0.292100X0.012700*%
%ADD23R,0.673100X0.012700*%
%ADD24R,0.685800X0.012700*%
%ADD25R,0.711200X0.012700*%
%ADD26R,0.355600X0.012700*%
%ADD27R,0.304800X0.012700*%
%ADD28R,0.749300X0.012700*%
%ADD29R,0.482600X0.012700*%
%ADD30R,0.254000X0.012700*%
%ADD31R,0.279400X0.012700*%
%ADD32R,0.469900X0.012700*%
%ADD33R,0.266700X0.012700*%
%ADD34R,0.317500X0.012700*%
%ADD35R,0.241300X0.012700*%
%ADD36R,0.330200X0.012700*%
%ADD37R,0.508000X0.012700*%
%ADD38R,0.228600X0.012700*%
%ADD39R,0.406400X0.012700*%
%ADD40R,0.215900X0.012700*%
%ADD41R,0.381000X0.012700*%
%ADD42R,0.368300X0.012700*%
%ADD43R,0.114300X0.012700*%
%ADD44R,0.393700X0.012700*%
%ADD45R,0.101600X0.012700*%
%ADD46R,0.203200X0.012700*%
%ADD47R,0.076200X0.012700*%
%ADD48R,0.419100X0.012700*%
%ADD49R,0.190500X0.012700*%
%ADD50R,0.431800X0.012700*%
%ADD51R,0.457200X0.012700*%
%ADD52R,0.088900X0.012700*%
%ADD53R,0.152400X0.012700*%
%ADD54R,0.177800X0.012700*%
%ADD55R,0.063500X0.012700*%
%ADD56R,0.165100X0.012700*%
%ADD57R,0.038100X0.012700*%
%ADD58R,0.342900X0.012700*%
%ADD59R,0.025400X0.012700*%
%ADD60R,0.012700X0.012700*%
%ADD61R,0.444500X0.012700*%
%ADD62R,0.139700X0.012700*%
%ADD63R,0.050800X0.012700*%
%ADD64R,0.546100X0.012700*%
%ADD65R,0.520700X0.012700*%
%ADD66R,0.914400X0.012700*%
%ADD67R,0.927100X0.012700*%
%ADD68R,0.571500X0.012700*%
%ADD69R,1.003300X0.012700*%
%ADD70R,0.609600X0.012700*%
%ADD71R,1.409700X0.012700*%
%ADD72R,0.635000X0.012700*%
%ADD73R,1.549400X0.012700*%
%ADD74R,0.533400X0.012700*%
%ADD75R,0.660400X0.012700*%
%ADD76R,0.558800X0.012700*%
%ADD77R,0.698500X0.012700*%
%ADD78R,0.723900X0.012700*%
%ADD79R,0.762000X0.012700*%
%ADD80R,1.041400X0.012700*%
%ADD81R,0.622300X0.012700*%
%ADD82R,0.774700X0.012700*%
%ADD83R,0.800100X0.012700*%
%ADD84R,0.825500X0.012700*%
%ADD85R,0.495300X0.012700*%
%ADD86R,0.863600X0.012700*%
%ADD87R,0.889000X0.012700*%
%ADD88R,0.736600X0.012700*%
%ADD89R,0.939800X0.012700*%
%ADD90R,0.787400X0.012700*%
%ADD91R,0.990600X0.012700*%
%ADD92R,1.016000X0.012700*%
%ADD93R,1.346200X0.012700*%
%ADD94R,0.850900X0.012700*%
%ADD95R,1.371600X0.012700*%
%ADD96R,1.193800X0.012700*%
%ADD97R,1.384300X0.012700*%
%ADD98R,1.181100X0.012700*%
%ADD99R,1.168400X0.012700*%
%ADD100R,1.397000X0.012700*%
%ADD101R,1.155700X0.012700*%
%ADD102R,1.143000X0.012700*%
%ADD103R,1.422400X0.012700*%
%ADD104R,1.130300X0.012700*%
%ADD105R,1.435100X0.012700*%
%ADD106R,1.104900X0.012700*%
%ADD107R,1.092200X0.012700*%
%ADD108R,1.079500X0.012700*%
%ADD109R,1.066800X0.012700*%
%ADD110R,1.054100X0.012700*%
%ADD111R,1.028700X0.012700*%
%ADD112R,0.977900X0.012700*%
%ADD113R,0.952500X0.012700*%
%ADD114R,0.901700X0.012700*%
%ADD115R,0.876300X0.012700*%
%ADD116R,0.838200X0.012700*%
%ADD117R,1.231900X0.012700*%
%ADD118R,1.257300X0.012700*%
%ADD119R,1.270000X0.012700*%
%ADD120R,1.308100X0.012700*%
%ADD121R,1.498600X0.012700*%
%ADD122R,2.425700X0.012700*%
%ADD123R,2.451100X0.012700*%
%ADD124R,2.463800X0.012700*%
%ADD125R,2.489200X0.012700*%
%ADD126R,2.501900X0.012700*%
%ADD127R,2.514600X0.012700*%
%ADD128R,2.540000X0.012700*%
%ADD129R,2.552700X0.012700*%
%ADD130R,2.578100X0.012700*%
%ADD131R,2.590800X0.012700*%
%ADD132R,2.603500X0.012700*%
%ADD133R,2.616200X0.012700*%
%ADD134R,2.628900X0.012700*%
%ADD135R,2.654300X0.012700*%
%ADD136R,2.667000X0.012700*%
%ADD137R,2.692400X0.012700*%
%ADD138R,2.705100X0.012700*%
%ADD139R,2.717800X0.012700*%
%ADD140R,2.730500X0.012700*%
%ADD141R,2.755900X0.012700*%
%ADD142R,2.768600X0.012700*%
%ADD143R,2.781300X0.012700*%
%ADD144R,2.133600X0.012700*%
%ADD145R,2.044700X0.012700*%
%ADD146R,2.006600X0.012700*%
%ADD147R,1.955800X0.012700*%
%ADD148R,1.917700X0.012700*%
%ADD149R,1.879600X0.012700*%
%ADD150R,1.219200X0.012700*%
%ADD151R,1.282700X0.012700*%
%ADD152R,2.273300X0.012700*%
%ADD153R,2.286000X0.012700*%
%ADD154R,2.311400X0.012700*%
%ADD155R,2.324100X0.012700*%
%ADD156R,2.349500X0.012700*%
%ADD157R,2.362200X0.012700*%
%ADD158R,2.374900X0.012700*%
%ADD159R,2.387600X0.012700*%
%ADD160R,2.400300X0.012700*%
%ADD161R,2.413000X0.012700*%
%ADD162R,2.438400X0.012700*%
%ADD163R,2.476500X0.012700*%
%ADD164R,2.527300X0.012700*%
%ADD165R,2.641600X0.012700*%
%ADD166R,3.848100X0.012700*%
%ADD167R,3.835400X0.012700*%
%ADD168R,3.860800X0.012700*%
%ADD169R,3.873500X0.012700*%
%ADD170R,3.886200X0.012700*%
%ADD171R,3.822700X0.012700*%
%ADD172R,3.797300X0.012700*%
%ADD173R,3.784600X0.012700*%
%ADD174R,3.759200X0.012700*%
%ADD175R,3.733800X0.012700*%
%ADD176R,3.721100X0.012700*%
%ADD177R,3.708400X0.012700*%
%ADD178R,3.683000X0.012700*%
%ADD179R,3.695700X0.012700*%
%ADD180R,3.670300X0.012700*%
%ADD181R,3.657600X0.012700*%
%ADD182R,3.644900X0.012700*%
%ADD183R,3.632200X0.012700*%
%ADD184R,3.619500X0.012700*%
%ADD185R,3.606800X0.012700*%
%ADD186R,3.594100X0.012700*%
%ADD187R,3.581400X0.012700*%
%ADD188R,2.679700X0.012700*%
%ADD189R,2.565400X0.012700*%
%ADD190R,2.171700X0.012700*%
%ADD191R,2.146300X0.012700*%
%ADD192R,2.108200X0.012700*%
%ADD193R,2.095500X0.012700*%
%ADD194R,2.082800X0.012700*%
%ADD195R,2.057400X0.012700*%
%ADD196R,2.019300X0.012700*%
%ADD197R,1.993900X0.012700*%
%ADD198R,1.968500X0.012700*%
%ADD199R,1.930400X0.012700*%
%ADD200R,1.905000X0.012700*%
%ADD201R,1.866900X0.012700*%
%ADD202R,1.854200X0.012700*%
%ADD203R,1.828800X0.012700*%
%ADD204R,1.816100X0.012700*%
%ADD205R,1.790700X0.012700*%
%ADD206R,1.765300X0.012700*%
%ADD207R,1.739900X0.012700*%
%ADD208R,1.714500X0.012700*%
%ADD209R,1.701800X0.012700*%
%ADD210R,1.663700X0.012700*%
%ADD211R,1.638300X0.012700*%
%ADD212R,1.625600X0.012700*%
%ADD213R,1.587500X0.012700*%
%ADD214R,1.562100X0.012700*%
%ADD215R,1.524000X0.012700*%
%ADD216R,1.511300X0.012700*%
%ADD217R,1.447800X0.012700*%


D10*
X445487Y368229D02*
X442030Y368229D01*
X441913Y368227D01*
X441797Y368221D01*
X441680Y368211D01*
X441564Y368197D01*
X441449Y368180D01*
X441334Y368158D01*
X441220Y368133D01*
X441107Y368104D01*
X440995Y368070D01*
X440884Y368034D01*
X440775Y367993D01*
X440667Y367949D01*
X440560Y367901D01*
X440455Y367850D01*
X440352Y367795D01*
X440251Y367736D01*
X440152Y367674D01*
X440055Y367609D01*
X439960Y367541D01*
X439868Y367470D01*
X439778Y367395D01*
X439691Y367317D01*
X439606Y367237D01*
X439524Y367154D01*
X439445Y367068D01*
X439369Y366979D01*
X439296Y366888D01*
X439226Y366795D01*
X439160Y366699D01*
X439096Y366601D01*
X439036Y366501D01*
X438979Y366398D01*
X438926Y366294D01*
X438877Y366189D01*
X438831Y366081D01*
X438788Y365973D01*
X438749Y365862D01*
X438715Y365751D01*
X438683Y365639D01*
X438656Y365525D01*
X438632Y365411D01*
X438613Y365295D01*
X438597Y365180D01*
X438585Y365064D01*
X438577Y364947D01*
X438573Y364830D01*
X438573Y364714D01*
X438577Y364597D01*
X438585Y364480D01*
X438597Y364364D01*
X438613Y364249D01*
X438632Y364133D01*
X438656Y364019D01*
X438683Y363905D01*
X438715Y363793D01*
X438749Y363682D01*
X438788Y363571D01*
X438831Y363463D01*
X438877Y363355D01*
X438926Y363250D01*
X438979Y363146D01*
X439036Y363044D01*
X439096Y362943D01*
X439160Y362845D01*
X439226Y362749D01*
X439296Y362656D01*
X439369Y362565D01*
X439445Y362476D01*
X439524Y362390D01*
X439606Y362307D01*
X439691Y362227D01*
X439778Y362149D01*
X439868Y362074D01*
X439960Y362003D01*
X440055Y361935D01*
X440152Y361870D01*
X440251Y361808D01*
X440352Y361749D01*
X440455Y361694D01*
X440560Y361643D01*
X440667Y361595D01*
X440775Y361551D01*
X440884Y361510D01*
X440995Y361474D01*
X441107Y361440D01*
X441220Y361411D01*
X441334Y361386D01*
X441449Y361364D01*
X441564Y361347D01*
X441680Y361333D01*
X441797Y361323D01*
X441913Y361317D01*
X442030Y361315D01*
X445487Y361315D01*
X445487Y373761D01*
X442030Y373761D01*
X441927Y373759D01*
X441823Y373753D01*
X441720Y373744D01*
X441618Y373730D01*
X441516Y373713D01*
X441415Y373692D01*
X441314Y373667D01*
X441215Y373638D01*
X441116Y373606D01*
X441019Y373570D01*
X440924Y373530D01*
X440830Y373487D01*
X440738Y373440D01*
X440647Y373390D01*
X440558Y373337D01*
X440472Y373280D01*
X440387Y373221D01*
X440305Y373158D01*
X440226Y373092D01*
X440149Y373023D01*
X440074Y372951D01*
X440002Y372876D01*
X439933Y372799D01*
X439867Y372720D01*
X439804Y372638D01*
X439745Y372553D01*
X439688Y372467D01*
X439635Y372378D01*
X439585Y372287D01*
X439538Y372195D01*
X439495Y372101D01*
X439455Y372006D01*
X439419Y371909D01*
X439387Y371810D01*
X439358Y371711D01*
X439333Y371610D01*
X439312Y371509D01*
X439295Y371407D01*
X439281Y371305D01*
X439272Y371202D01*
X439266Y371098D01*
X439264Y370995D01*
X439266Y370892D01*
X439272Y370788D01*
X439281Y370685D01*
X439295Y370583D01*
X439312Y370481D01*
X439333Y370380D01*
X439358Y370279D01*
X439387Y370180D01*
X439419Y370081D01*
X439455Y369984D01*
X439495Y369889D01*
X439538Y369795D01*
X439585Y369703D01*
X439635Y369612D01*
X439688Y369523D01*
X439745Y369437D01*
X439804Y369352D01*
X439867Y369270D01*
X439933Y369191D01*
X440002Y369114D01*
X440074Y369039D01*
X440149Y368967D01*
X440226Y368898D01*
X440305Y368832D01*
X440387Y368769D01*
X440472Y368710D01*
X440558Y368653D01*
X440647Y368600D01*
X440738Y368550D01*
X440830Y368503D01*
X440924Y368460D01*
X441019Y368420D01*
X441116Y368384D01*
X441215Y368352D01*
X441314Y368323D01*
X441415Y368298D01*
X441516Y368277D01*
X441618Y368260D01*
X441720Y368246D01*
X441823Y368237D01*
X441927Y368231D01*
X442030Y368229D01*
X433355Y370995D02*
X429898Y373761D01*
X429898Y361315D01*
X433355Y361315D02*
X426441Y361315D01*
X420553Y361315D02*
X416405Y361315D01*
X416302Y361317D01*
X416198Y361323D01*
X416095Y361332D01*
X415993Y361346D01*
X415891Y361363D01*
X415790Y361384D01*
X415689Y361409D01*
X415590Y361438D01*
X415491Y361470D01*
X415394Y361506D01*
X415299Y361546D01*
X415205Y361589D01*
X415113Y361636D01*
X415022Y361686D01*
X414933Y361739D01*
X414847Y361796D01*
X414763Y361855D01*
X414680Y361918D01*
X414601Y361984D01*
X414524Y362053D01*
X414449Y362125D01*
X414377Y362200D01*
X414308Y362277D01*
X414242Y362356D01*
X414180Y362438D01*
X414120Y362523D01*
X414063Y362609D01*
X414010Y362698D01*
X413960Y362788D01*
X413913Y362881D01*
X413870Y362975D01*
X413830Y363070D01*
X413794Y363167D01*
X413762Y363266D01*
X413733Y363365D01*
X413708Y363465D01*
X413687Y363567D01*
X413670Y363669D01*
X413656Y363771D01*
X413647Y363874D01*
X413641Y363978D01*
X413639Y364081D01*
X413639Y365464D01*
X413641Y365567D01*
X413647Y365671D01*
X413656Y365774D01*
X413670Y365876D01*
X413687Y365978D01*
X413708Y366079D01*
X413733Y366180D01*
X413762Y366279D01*
X413794Y366378D01*
X413830Y366475D01*
X413870Y366570D01*
X413913Y366664D01*
X413960Y366756D01*
X414010Y366847D01*
X414063Y366936D01*
X414120Y367022D01*
X414179Y367107D01*
X414242Y367189D01*
X414308Y367268D01*
X414377Y367345D01*
X414449Y367420D01*
X414524Y367492D01*
X414601Y367561D01*
X414680Y367627D01*
X414763Y367690D01*
X414847Y367749D01*
X414933Y367806D01*
X415022Y367859D01*
X415113Y367909D01*
X415205Y367956D01*
X415299Y367999D01*
X415394Y368039D01*
X415491Y368075D01*
X415590Y368107D01*
X415689Y368136D01*
X415790Y368161D01*
X415891Y368182D01*
X415993Y368199D01*
X416095Y368213D01*
X416198Y368222D01*
X416302Y368228D01*
X416405Y368230D01*
X416405Y368229D02*
X420553Y368229D01*
X420553Y373761D01*
X413639Y373761D01*
X442030Y342829D02*
X445487Y342829D01*
X442030Y342829D02*
X441913Y342827D01*
X441797Y342821D01*
X441680Y342811D01*
X441564Y342797D01*
X441449Y342780D01*
X441334Y342758D01*
X441220Y342733D01*
X441107Y342704D01*
X440995Y342670D01*
X440884Y342634D01*
X440775Y342593D01*
X440667Y342549D01*
X440560Y342501D01*
X440455Y342450D01*
X440352Y342395D01*
X440251Y342336D01*
X440152Y342274D01*
X440055Y342209D01*
X439960Y342141D01*
X439868Y342070D01*
X439778Y341995D01*
X439691Y341917D01*
X439606Y341837D01*
X439524Y341754D01*
X439445Y341668D01*
X439369Y341579D01*
X439296Y341488D01*
X439226Y341395D01*
X439160Y341299D01*
X439096Y341201D01*
X439036Y341101D01*
X438979Y340998D01*
X438926Y340894D01*
X438877Y340789D01*
X438831Y340681D01*
X438788Y340573D01*
X438749Y340462D01*
X438715Y340351D01*
X438683Y340239D01*
X438656Y340125D01*
X438632Y340011D01*
X438613Y339895D01*
X438597Y339780D01*
X438585Y339664D01*
X438577Y339547D01*
X438573Y339430D01*
X438573Y339314D01*
X438577Y339197D01*
X438585Y339080D01*
X438597Y338964D01*
X438613Y338849D01*
X438632Y338733D01*
X438656Y338619D01*
X438683Y338505D01*
X438715Y338393D01*
X438749Y338282D01*
X438788Y338171D01*
X438831Y338063D01*
X438877Y337955D01*
X438926Y337850D01*
X438979Y337746D01*
X439036Y337644D01*
X439096Y337543D01*
X439160Y337445D01*
X439226Y337349D01*
X439296Y337256D01*
X439369Y337165D01*
X439445Y337076D01*
X439524Y336990D01*
X439606Y336907D01*
X439691Y336827D01*
X439778Y336749D01*
X439868Y336674D01*
X439960Y336603D01*
X440055Y336535D01*
X440152Y336470D01*
X440251Y336408D01*
X440352Y336349D01*
X440455Y336294D01*
X440560Y336243D01*
X440667Y336195D01*
X440775Y336151D01*
X440884Y336110D01*
X440995Y336074D01*
X441107Y336040D01*
X441220Y336011D01*
X441334Y335986D01*
X441449Y335964D01*
X441564Y335947D01*
X441680Y335933D01*
X441797Y335923D01*
X441913Y335917D01*
X442030Y335915D01*
X445487Y335915D01*
X445487Y348361D01*
X442030Y348361D01*
X441927Y348359D01*
X441823Y348353D01*
X441720Y348344D01*
X441618Y348330D01*
X441516Y348313D01*
X441415Y348292D01*
X441314Y348267D01*
X441215Y348238D01*
X441116Y348206D01*
X441019Y348170D01*
X440924Y348130D01*
X440830Y348087D01*
X440738Y348040D01*
X440647Y347990D01*
X440558Y347937D01*
X440472Y347880D01*
X440387Y347821D01*
X440305Y347758D01*
X440226Y347692D01*
X440149Y347623D01*
X440074Y347551D01*
X440002Y347476D01*
X439933Y347399D01*
X439867Y347320D01*
X439804Y347238D01*
X439745Y347153D01*
X439688Y347067D01*
X439635Y346978D01*
X439585Y346887D01*
X439538Y346795D01*
X439495Y346701D01*
X439455Y346606D01*
X439419Y346509D01*
X439387Y346410D01*
X439358Y346311D01*
X439333Y346210D01*
X439312Y346109D01*
X439295Y346007D01*
X439281Y345905D01*
X439272Y345802D01*
X439266Y345698D01*
X439264Y345595D01*
X439266Y345492D01*
X439272Y345388D01*
X439281Y345285D01*
X439295Y345183D01*
X439312Y345081D01*
X439333Y344980D01*
X439358Y344879D01*
X439387Y344780D01*
X439419Y344681D01*
X439455Y344584D01*
X439495Y344489D01*
X439538Y344395D01*
X439585Y344303D01*
X439635Y344212D01*
X439688Y344123D01*
X439745Y344037D01*
X439804Y343952D01*
X439867Y343870D01*
X439933Y343791D01*
X440002Y343714D01*
X440074Y343639D01*
X440149Y343567D01*
X440226Y343498D01*
X440305Y343432D01*
X440387Y343369D01*
X440472Y343310D01*
X440558Y343253D01*
X440647Y343200D01*
X440738Y343150D01*
X440830Y343103D01*
X440924Y343060D01*
X441019Y343020D01*
X441116Y342984D01*
X441215Y342952D01*
X441314Y342923D01*
X441415Y342898D01*
X441516Y342877D01*
X441618Y342860D01*
X441720Y342846D01*
X441823Y342837D01*
X441927Y342831D01*
X442030Y342829D01*
X433355Y345595D02*
X429898Y348361D01*
X429898Y335915D01*
X433355Y335915D02*
X426441Y335915D01*
X420553Y338681D02*
X417788Y348361D01*
X420553Y338681D02*
X413639Y338681D01*
X415713Y341447D02*
X415713Y335915D01*
X442030Y317429D02*
X445487Y317429D01*
X442030Y317429D02*
X441913Y317427D01*
X441797Y317421D01*
X441680Y317411D01*
X441564Y317397D01*
X441449Y317380D01*
X441334Y317358D01*
X441220Y317333D01*
X441107Y317304D01*
X440995Y317270D01*
X440884Y317234D01*
X440775Y317193D01*
X440667Y317149D01*
X440560Y317101D01*
X440455Y317050D01*
X440352Y316995D01*
X440251Y316936D01*
X440152Y316874D01*
X440055Y316809D01*
X439960Y316741D01*
X439868Y316670D01*
X439778Y316595D01*
X439691Y316517D01*
X439606Y316437D01*
X439524Y316354D01*
X439445Y316268D01*
X439369Y316179D01*
X439296Y316088D01*
X439226Y315995D01*
X439160Y315899D01*
X439096Y315801D01*
X439036Y315701D01*
X438979Y315598D01*
X438926Y315494D01*
X438877Y315389D01*
X438831Y315281D01*
X438788Y315173D01*
X438749Y315062D01*
X438715Y314951D01*
X438683Y314839D01*
X438656Y314725D01*
X438632Y314611D01*
X438613Y314495D01*
X438597Y314380D01*
X438585Y314264D01*
X438577Y314147D01*
X438573Y314030D01*
X438573Y313914D01*
X438577Y313797D01*
X438585Y313680D01*
X438597Y313564D01*
X438613Y313449D01*
X438632Y313333D01*
X438656Y313219D01*
X438683Y313105D01*
X438715Y312993D01*
X438749Y312882D01*
X438788Y312771D01*
X438831Y312663D01*
X438877Y312555D01*
X438926Y312450D01*
X438979Y312346D01*
X439036Y312244D01*
X439096Y312143D01*
X439160Y312045D01*
X439226Y311949D01*
X439296Y311856D01*
X439369Y311765D01*
X439445Y311676D01*
X439524Y311590D01*
X439606Y311507D01*
X439691Y311427D01*
X439778Y311349D01*
X439868Y311274D01*
X439960Y311203D01*
X440055Y311135D01*
X440152Y311070D01*
X440251Y311008D01*
X440352Y310949D01*
X440455Y310894D01*
X440560Y310843D01*
X440667Y310795D01*
X440775Y310751D01*
X440884Y310710D01*
X440995Y310674D01*
X441107Y310640D01*
X441220Y310611D01*
X441334Y310586D01*
X441449Y310564D01*
X441564Y310547D01*
X441680Y310533D01*
X441797Y310523D01*
X441913Y310517D01*
X442030Y310515D01*
X445487Y310515D01*
X445487Y322961D01*
X442030Y322961D01*
X441927Y322959D01*
X441823Y322953D01*
X441720Y322944D01*
X441618Y322930D01*
X441516Y322913D01*
X441415Y322892D01*
X441314Y322867D01*
X441215Y322838D01*
X441116Y322806D01*
X441019Y322770D01*
X440924Y322730D01*
X440830Y322687D01*
X440738Y322640D01*
X440647Y322590D01*
X440558Y322537D01*
X440472Y322480D01*
X440387Y322421D01*
X440305Y322358D01*
X440226Y322292D01*
X440149Y322223D01*
X440074Y322151D01*
X440002Y322076D01*
X439933Y321999D01*
X439867Y321920D01*
X439804Y321838D01*
X439745Y321753D01*
X439688Y321667D01*
X439635Y321578D01*
X439585Y321487D01*
X439538Y321395D01*
X439495Y321301D01*
X439455Y321206D01*
X439419Y321109D01*
X439387Y321010D01*
X439358Y320911D01*
X439333Y320810D01*
X439312Y320709D01*
X439295Y320607D01*
X439281Y320505D01*
X439272Y320402D01*
X439266Y320298D01*
X439264Y320195D01*
X439266Y320092D01*
X439272Y319988D01*
X439281Y319885D01*
X439295Y319783D01*
X439312Y319681D01*
X439333Y319580D01*
X439358Y319479D01*
X439387Y319380D01*
X439419Y319281D01*
X439455Y319184D01*
X439495Y319089D01*
X439538Y318995D01*
X439585Y318903D01*
X439635Y318812D01*
X439688Y318723D01*
X439745Y318637D01*
X439804Y318552D01*
X439867Y318470D01*
X439933Y318391D01*
X440002Y318314D01*
X440074Y318239D01*
X440149Y318167D01*
X440226Y318098D01*
X440305Y318032D01*
X440387Y317969D01*
X440472Y317910D01*
X440558Y317853D01*
X440647Y317800D01*
X440738Y317750D01*
X440830Y317703D01*
X440924Y317660D01*
X441019Y317620D01*
X441116Y317584D01*
X441215Y317552D01*
X441314Y317523D01*
X441415Y317498D01*
X441516Y317477D01*
X441618Y317460D01*
X441720Y317446D01*
X441823Y317437D01*
X441927Y317431D01*
X442030Y317429D01*
X433355Y320195D02*
X429898Y322961D01*
X429898Y310515D01*
X433355Y310515D02*
X426441Y310515D01*
X420553Y310515D02*
X417096Y310515D01*
X416979Y310517D01*
X416863Y310523D01*
X416746Y310533D01*
X416630Y310547D01*
X416515Y310564D01*
X416400Y310586D01*
X416286Y310611D01*
X416173Y310640D01*
X416061Y310674D01*
X415950Y310710D01*
X415841Y310751D01*
X415733Y310795D01*
X415626Y310843D01*
X415521Y310894D01*
X415418Y310949D01*
X415317Y311008D01*
X415218Y311070D01*
X415121Y311135D01*
X415026Y311203D01*
X414934Y311274D01*
X414844Y311349D01*
X414757Y311427D01*
X414672Y311507D01*
X414590Y311590D01*
X414511Y311676D01*
X414435Y311765D01*
X414362Y311856D01*
X414292Y311949D01*
X414226Y312045D01*
X414162Y312143D01*
X414102Y312244D01*
X414045Y312346D01*
X413992Y312450D01*
X413943Y312555D01*
X413897Y312663D01*
X413854Y312771D01*
X413815Y312882D01*
X413781Y312993D01*
X413749Y313105D01*
X413722Y313219D01*
X413698Y313333D01*
X413679Y313449D01*
X413663Y313564D01*
X413651Y313680D01*
X413643Y313797D01*
X413639Y313914D01*
X413639Y314030D01*
X413643Y314147D01*
X413651Y314264D01*
X413663Y314380D01*
X413679Y314495D01*
X413698Y314611D01*
X413722Y314725D01*
X413749Y314839D01*
X413781Y314951D01*
X413815Y315062D01*
X413854Y315173D01*
X413897Y315281D01*
X413943Y315389D01*
X413992Y315494D01*
X414045Y315598D01*
X414102Y315701D01*
X414162Y315801D01*
X414226Y315899D01*
X414292Y315995D01*
X414362Y316088D01*
X414435Y316179D01*
X414511Y316268D01*
X414590Y316354D01*
X414672Y316437D01*
X414757Y316517D01*
X414844Y316595D01*
X414934Y316670D01*
X415026Y316741D01*
X415121Y316809D01*
X415218Y316874D01*
X415317Y316936D01*
X415418Y316995D01*
X415521Y317050D01*
X415626Y317101D01*
X415733Y317149D01*
X415841Y317193D01*
X415950Y317234D01*
X416061Y317270D01*
X416173Y317304D01*
X416286Y317333D01*
X416400Y317358D01*
X416515Y317380D01*
X416630Y317397D01*
X416746Y317411D01*
X416863Y317421D01*
X416979Y317427D01*
X417096Y317429D01*
X416405Y322961D02*
X420553Y322961D01*
X416405Y322961D02*
X416302Y322959D01*
X416198Y322953D01*
X416095Y322944D01*
X415993Y322930D01*
X415891Y322913D01*
X415790Y322892D01*
X415689Y322867D01*
X415590Y322838D01*
X415491Y322806D01*
X415394Y322770D01*
X415299Y322730D01*
X415205Y322687D01*
X415113Y322640D01*
X415022Y322590D01*
X414933Y322537D01*
X414847Y322480D01*
X414762Y322421D01*
X414680Y322358D01*
X414601Y322292D01*
X414524Y322223D01*
X414449Y322151D01*
X414377Y322076D01*
X414308Y321999D01*
X414242Y321920D01*
X414179Y321838D01*
X414120Y321753D01*
X414063Y321667D01*
X414010Y321578D01*
X413960Y321487D01*
X413913Y321395D01*
X413870Y321301D01*
X413830Y321206D01*
X413794Y321109D01*
X413762Y321010D01*
X413733Y320911D01*
X413708Y320810D01*
X413687Y320709D01*
X413670Y320607D01*
X413656Y320505D01*
X413647Y320402D01*
X413641Y320298D01*
X413639Y320195D01*
X413641Y320092D01*
X413647Y319988D01*
X413656Y319885D01*
X413670Y319783D01*
X413687Y319681D01*
X413708Y319580D01*
X413733Y319479D01*
X413762Y319380D01*
X413794Y319281D01*
X413830Y319184D01*
X413870Y319089D01*
X413913Y318995D01*
X413960Y318903D01*
X414010Y318812D01*
X414063Y318723D01*
X414120Y318637D01*
X414179Y318552D01*
X414242Y318470D01*
X414308Y318391D01*
X414377Y318314D01*
X414449Y318239D01*
X414524Y318167D01*
X414601Y318098D01*
X414680Y318032D01*
X414762Y317969D01*
X414847Y317910D01*
X414933Y317853D01*
X415022Y317800D01*
X415113Y317750D01*
X415205Y317703D01*
X415299Y317660D01*
X415394Y317620D01*
X415491Y317584D01*
X415590Y317552D01*
X415689Y317523D01*
X415790Y317498D01*
X415891Y317477D01*
X415993Y317460D01*
X416095Y317446D01*
X416198Y317437D01*
X416302Y317431D01*
X416405Y317429D01*
X419171Y317429D01*
X442030Y292029D02*
X445487Y292029D01*
X442030Y292029D02*
X441913Y292027D01*
X441797Y292021D01*
X441680Y292011D01*
X441564Y291997D01*
X441449Y291980D01*
X441334Y291958D01*
X441220Y291933D01*
X441107Y291904D01*
X440995Y291870D01*
X440884Y291834D01*
X440775Y291793D01*
X440667Y291749D01*
X440560Y291701D01*
X440455Y291650D01*
X440352Y291595D01*
X440251Y291536D01*
X440152Y291474D01*
X440055Y291409D01*
X439960Y291341D01*
X439868Y291270D01*
X439778Y291195D01*
X439691Y291117D01*
X439606Y291037D01*
X439524Y290954D01*
X439445Y290868D01*
X439369Y290779D01*
X439296Y290688D01*
X439226Y290595D01*
X439160Y290499D01*
X439096Y290401D01*
X439036Y290301D01*
X438979Y290198D01*
X438926Y290094D01*
X438877Y289989D01*
X438831Y289881D01*
X438788Y289773D01*
X438749Y289662D01*
X438715Y289551D01*
X438683Y289439D01*
X438656Y289325D01*
X438632Y289211D01*
X438613Y289095D01*
X438597Y288980D01*
X438585Y288864D01*
X438577Y288747D01*
X438573Y288630D01*
X438573Y288514D01*
X438577Y288397D01*
X438585Y288280D01*
X438597Y288164D01*
X438613Y288049D01*
X438632Y287933D01*
X438656Y287819D01*
X438683Y287705D01*
X438715Y287593D01*
X438749Y287482D01*
X438788Y287371D01*
X438831Y287263D01*
X438877Y287155D01*
X438926Y287050D01*
X438979Y286946D01*
X439036Y286844D01*
X439096Y286743D01*
X439160Y286645D01*
X439226Y286549D01*
X439296Y286456D01*
X439369Y286365D01*
X439445Y286276D01*
X439524Y286190D01*
X439606Y286107D01*
X439691Y286027D01*
X439778Y285949D01*
X439868Y285874D01*
X439960Y285803D01*
X440055Y285735D01*
X440152Y285670D01*
X440251Y285608D01*
X440352Y285549D01*
X440455Y285494D01*
X440560Y285443D01*
X440667Y285395D01*
X440775Y285351D01*
X440884Y285310D01*
X440995Y285274D01*
X441107Y285240D01*
X441220Y285211D01*
X441334Y285186D01*
X441449Y285164D01*
X441564Y285147D01*
X441680Y285133D01*
X441797Y285123D01*
X441913Y285117D01*
X442030Y285115D01*
X445487Y285115D01*
X445487Y297561D01*
X442030Y297561D01*
X441927Y297559D01*
X441823Y297553D01*
X441720Y297544D01*
X441618Y297530D01*
X441516Y297513D01*
X441415Y297492D01*
X441314Y297467D01*
X441215Y297438D01*
X441116Y297406D01*
X441019Y297370D01*
X440924Y297330D01*
X440830Y297287D01*
X440738Y297240D01*
X440647Y297190D01*
X440558Y297137D01*
X440472Y297080D01*
X440387Y297021D01*
X440305Y296958D01*
X440226Y296892D01*
X440149Y296823D01*
X440074Y296751D01*
X440002Y296676D01*
X439933Y296599D01*
X439867Y296520D01*
X439804Y296438D01*
X439745Y296353D01*
X439688Y296267D01*
X439635Y296178D01*
X439585Y296087D01*
X439538Y295995D01*
X439495Y295901D01*
X439455Y295806D01*
X439419Y295709D01*
X439387Y295610D01*
X439358Y295511D01*
X439333Y295410D01*
X439312Y295309D01*
X439295Y295207D01*
X439281Y295105D01*
X439272Y295002D01*
X439266Y294898D01*
X439264Y294795D01*
X439266Y294692D01*
X439272Y294588D01*
X439281Y294485D01*
X439295Y294383D01*
X439312Y294281D01*
X439333Y294180D01*
X439358Y294079D01*
X439387Y293980D01*
X439419Y293881D01*
X439455Y293784D01*
X439495Y293689D01*
X439538Y293595D01*
X439585Y293503D01*
X439635Y293412D01*
X439688Y293323D01*
X439745Y293237D01*
X439804Y293152D01*
X439867Y293070D01*
X439933Y292991D01*
X440002Y292914D01*
X440074Y292839D01*
X440149Y292767D01*
X440226Y292698D01*
X440305Y292632D01*
X440387Y292569D01*
X440472Y292510D01*
X440558Y292453D01*
X440647Y292400D01*
X440738Y292350D01*
X440830Y292303D01*
X440924Y292260D01*
X441019Y292220D01*
X441116Y292184D01*
X441215Y292152D01*
X441314Y292123D01*
X441415Y292098D01*
X441516Y292077D01*
X441618Y292060D01*
X441720Y292046D01*
X441823Y292037D01*
X441927Y292031D01*
X442030Y292029D01*
X433355Y294795D02*
X429898Y297561D01*
X429898Y285115D01*
X433355Y285115D02*
X426441Y285115D01*
X416751Y297562D02*
X416640Y297560D01*
X416529Y297554D01*
X416418Y297544D01*
X416308Y297530D01*
X416198Y297513D01*
X416089Y297491D01*
X415981Y297465D01*
X415874Y297436D01*
X415768Y297403D01*
X415663Y297366D01*
X415560Y297325D01*
X415458Y297281D01*
X415358Y297233D01*
X415260Y297181D01*
X415163Y297126D01*
X415069Y297068D01*
X414976Y297006D01*
X414886Y296941D01*
X414798Y296873D01*
X414713Y296802D01*
X414630Y296728D01*
X414550Y296651D01*
X414473Y296571D01*
X414399Y296488D01*
X414328Y296403D01*
X414260Y296315D01*
X414195Y296225D01*
X414133Y296132D01*
X414075Y296038D01*
X414020Y295941D01*
X413968Y295843D01*
X413920Y295743D01*
X413876Y295641D01*
X413835Y295538D01*
X413798Y295433D01*
X413765Y295327D01*
X413736Y295220D01*
X413710Y295112D01*
X413688Y295003D01*
X413671Y294893D01*
X413657Y294783D01*
X413647Y294672D01*
X413641Y294561D01*
X413639Y294450D01*
X416751Y297561D02*
X416877Y297559D01*
X417002Y297553D01*
X417127Y297543D01*
X417252Y297529D01*
X417377Y297512D01*
X417501Y297490D01*
X417624Y297465D01*
X417746Y297435D01*
X417867Y297402D01*
X417987Y297365D01*
X418106Y297324D01*
X418223Y297280D01*
X418340Y297232D01*
X418454Y297180D01*
X418567Y297125D01*
X418678Y297066D01*
X418787Y297004D01*
X418894Y296938D01*
X418999Y296869D01*
X419102Y296797D01*
X419202Y296721D01*
X419300Y296642D01*
X419396Y296561D01*
X419489Y296476D01*
X419579Y296389D01*
X419666Y296298D01*
X419751Y296205D01*
X419832Y296110D01*
X419911Y296012D01*
X419986Y295911D01*
X420059Y295808D01*
X420127Y295703D01*
X420193Y295596D01*
X420255Y295487D01*
X420314Y295376D01*
X420369Y295263D01*
X420421Y295148D01*
X420469Y295032D01*
X420513Y294914D01*
X420554Y294796D01*
X414676Y292030D02*
X414596Y292109D01*
X414518Y292191D01*
X414443Y292275D01*
X414372Y292362D01*
X414303Y292451D01*
X414237Y292543D01*
X414174Y292636D01*
X414114Y292732D01*
X414058Y292830D01*
X414005Y292929D01*
X413955Y293031D01*
X413909Y293133D01*
X413867Y293238D01*
X413827Y293344D01*
X413792Y293451D01*
X413760Y293559D01*
X413732Y293668D01*
X413707Y293778D01*
X413686Y293889D01*
X413669Y294000D01*
X413656Y294112D01*
X413647Y294225D01*
X413641Y294337D01*
X413639Y294450D01*
X414676Y292029D02*
X420553Y285115D01*
X413639Y285115D01*
X442030Y266629D02*
X445487Y266629D01*
X442030Y266629D02*
X441913Y266627D01*
X441797Y266621D01*
X441680Y266611D01*
X441564Y266597D01*
X441449Y266580D01*
X441334Y266558D01*
X441220Y266533D01*
X441107Y266504D01*
X440995Y266470D01*
X440884Y266434D01*
X440775Y266393D01*
X440667Y266349D01*
X440560Y266301D01*
X440455Y266250D01*
X440352Y266195D01*
X440251Y266136D01*
X440152Y266074D01*
X440055Y266009D01*
X439960Y265941D01*
X439868Y265870D01*
X439778Y265795D01*
X439691Y265717D01*
X439606Y265637D01*
X439524Y265554D01*
X439445Y265468D01*
X439369Y265379D01*
X439296Y265288D01*
X439226Y265195D01*
X439160Y265099D01*
X439096Y265001D01*
X439036Y264901D01*
X438979Y264798D01*
X438926Y264694D01*
X438877Y264589D01*
X438831Y264481D01*
X438788Y264373D01*
X438749Y264262D01*
X438715Y264151D01*
X438683Y264039D01*
X438656Y263925D01*
X438632Y263811D01*
X438613Y263695D01*
X438597Y263580D01*
X438585Y263464D01*
X438577Y263347D01*
X438573Y263230D01*
X438573Y263114D01*
X438577Y262997D01*
X438585Y262880D01*
X438597Y262764D01*
X438613Y262649D01*
X438632Y262533D01*
X438656Y262419D01*
X438683Y262305D01*
X438715Y262193D01*
X438749Y262082D01*
X438788Y261971D01*
X438831Y261863D01*
X438877Y261755D01*
X438926Y261650D01*
X438979Y261546D01*
X439036Y261444D01*
X439096Y261343D01*
X439160Y261245D01*
X439226Y261149D01*
X439296Y261056D01*
X439369Y260965D01*
X439445Y260876D01*
X439524Y260790D01*
X439606Y260707D01*
X439691Y260627D01*
X439778Y260549D01*
X439868Y260474D01*
X439960Y260403D01*
X440055Y260335D01*
X440152Y260270D01*
X440251Y260208D01*
X440352Y260149D01*
X440455Y260094D01*
X440560Y260043D01*
X440667Y259995D01*
X440775Y259951D01*
X440884Y259910D01*
X440995Y259874D01*
X441107Y259840D01*
X441220Y259811D01*
X441334Y259786D01*
X441449Y259764D01*
X441564Y259747D01*
X441680Y259733D01*
X441797Y259723D01*
X441913Y259717D01*
X442030Y259715D01*
X445487Y259715D01*
X445487Y272161D01*
X442030Y272161D01*
X441927Y272159D01*
X441823Y272153D01*
X441720Y272144D01*
X441618Y272130D01*
X441516Y272113D01*
X441415Y272092D01*
X441314Y272067D01*
X441215Y272038D01*
X441116Y272006D01*
X441019Y271970D01*
X440924Y271930D01*
X440830Y271887D01*
X440738Y271840D01*
X440647Y271790D01*
X440558Y271737D01*
X440472Y271680D01*
X440387Y271621D01*
X440305Y271558D01*
X440226Y271492D01*
X440149Y271423D01*
X440074Y271351D01*
X440002Y271276D01*
X439933Y271199D01*
X439867Y271120D01*
X439804Y271038D01*
X439745Y270953D01*
X439688Y270867D01*
X439635Y270778D01*
X439585Y270687D01*
X439538Y270595D01*
X439495Y270501D01*
X439455Y270406D01*
X439419Y270309D01*
X439387Y270210D01*
X439358Y270111D01*
X439333Y270010D01*
X439312Y269909D01*
X439295Y269807D01*
X439281Y269705D01*
X439272Y269602D01*
X439266Y269498D01*
X439264Y269395D01*
X439266Y269292D01*
X439272Y269188D01*
X439281Y269085D01*
X439295Y268983D01*
X439312Y268881D01*
X439333Y268780D01*
X439358Y268679D01*
X439387Y268580D01*
X439419Y268481D01*
X439455Y268384D01*
X439495Y268289D01*
X439538Y268195D01*
X439585Y268103D01*
X439635Y268012D01*
X439688Y267923D01*
X439745Y267837D01*
X439804Y267752D01*
X439867Y267670D01*
X439933Y267591D01*
X440002Y267514D01*
X440074Y267439D01*
X440149Y267367D01*
X440226Y267298D01*
X440305Y267232D01*
X440387Y267169D01*
X440472Y267110D01*
X440558Y267053D01*
X440647Y267000D01*
X440738Y266950D01*
X440830Y266903D01*
X440924Y266860D01*
X441019Y266820D01*
X441116Y266784D01*
X441215Y266752D01*
X441314Y266723D01*
X441415Y266698D01*
X441516Y266677D01*
X441618Y266660D01*
X441720Y266646D01*
X441823Y266637D01*
X441927Y266631D01*
X442030Y266629D01*
X433355Y269395D02*
X429898Y272161D01*
X429898Y259715D01*
X433355Y259715D02*
X426441Y259715D01*
X420553Y269395D02*
X417096Y272161D01*
X417096Y259715D01*
X420553Y259715D02*
X413639Y259715D01*
X442030Y241229D02*
X445487Y241229D01*
X442030Y241229D02*
X441913Y241227D01*
X441797Y241221D01*
X441680Y241211D01*
X441564Y241197D01*
X441449Y241180D01*
X441334Y241158D01*
X441220Y241133D01*
X441107Y241104D01*
X440995Y241070D01*
X440884Y241034D01*
X440775Y240993D01*
X440667Y240949D01*
X440560Y240901D01*
X440455Y240850D01*
X440352Y240795D01*
X440251Y240736D01*
X440152Y240674D01*
X440055Y240609D01*
X439960Y240541D01*
X439868Y240470D01*
X439778Y240395D01*
X439691Y240317D01*
X439606Y240237D01*
X439524Y240154D01*
X439445Y240068D01*
X439369Y239979D01*
X439296Y239888D01*
X439226Y239795D01*
X439160Y239699D01*
X439096Y239601D01*
X439036Y239501D01*
X438979Y239398D01*
X438926Y239294D01*
X438877Y239189D01*
X438831Y239081D01*
X438788Y238973D01*
X438749Y238862D01*
X438715Y238751D01*
X438683Y238639D01*
X438656Y238525D01*
X438632Y238411D01*
X438613Y238295D01*
X438597Y238180D01*
X438585Y238064D01*
X438577Y237947D01*
X438573Y237830D01*
X438573Y237714D01*
X438577Y237597D01*
X438585Y237480D01*
X438597Y237364D01*
X438613Y237249D01*
X438632Y237133D01*
X438656Y237019D01*
X438683Y236905D01*
X438715Y236793D01*
X438749Y236682D01*
X438788Y236571D01*
X438831Y236463D01*
X438877Y236355D01*
X438926Y236250D01*
X438979Y236146D01*
X439036Y236044D01*
X439096Y235943D01*
X439160Y235845D01*
X439226Y235749D01*
X439296Y235656D01*
X439369Y235565D01*
X439445Y235476D01*
X439524Y235390D01*
X439606Y235307D01*
X439691Y235227D01*
X439778Y235149D01*
X439868Y235074D01*
X439960Y235003D01*
X440055Y234935D01*
X440152Y234870D01*
X440251Y234808D01*
X440352Y234749D01*
X440455Y234694D01*
X440560Y234643D01*
X440667Y234595D01*
X440775Y234551D01*
X440884Y234510D01*
X440995Y234474D01*
X441107Y234440D01*
X441220Y234411D01*
X441334Y234386D01*
X441449Y234364D01*
X441564Y234347D01*
X441680Y234333D01*
X441797Y234323D01*
X441913Y234317D01*
X442030Y234315D01*
X445487Y234315D01*
X445487Y246761D01*
X442030Y246761D01*
X441927Y246759D01*
X441823Y246753D01*
X441720Y246744D01*
X441618Y246730D01*
X441516Y246713D01*
X441415Y246692D01*
X441314Y246667D01*
X441215Y246638D01*
X441116Y246606D01*
X441019Y246570D01*
X440924Y246530D01*
X440830Y246487D01*
X440738Y246440D01*
X440647Y246390D01*
X440558Y246337D01*
X440472Y246280D01*
X440387Y246221D01*
X440305Y246158D01*
X440226Y246092D01*
X440149Y246023D01*
X440074Y245951D01*
X440002Y245876D01*
X439933Y245799D01*
X439867Y245720D01*
X439804Y245638D01*
X439745Y245553D01*
X439688Y245467D01*
X439635Y245378D01*
X439585Y245287D01*
X439538Y245195D01*
X439495Y245101D01*
X439455Y245006D01*
X439419Y244909D01*
X439387Y244810D01*
X439358Y244711D01*
X439333Y244610D01*
X439312Y244509D01*
X439295Y244407D01*
X439281Y244305D01*
X439272Y244202D01*
X439266Y244098D01*
X439264Y243995D01*
X439266Y243892D01*
X439272Y243788D01*
X439281Y243685D01*
X439295Y243583D01*
X439312Y243481D01*
X439333Y243380D01*
X439358Y243279D01*
X439387Y243180D01*
X439419Y243081D01*
X439455Y242984D01*
X439495Y242889D01*
X439538Y242795D01*
X439585Y242703D01*
X439635Y242612D01*
X439688Y242523D01*
X439745Y242437D01*
X439804Y242352D01*
X439867Y242270D01*
X439933Y242191D01*
X440002Y242114D01*
X440074Y242039D01*
X440149Y241967D01*
X440226Y241898D01*
X440305Y241832D01*
X440387Y241769D01*
X440472Y241710D01*
X440558Y241653D01*
X440647Y241600D01*
X440738Y241550D01*
X440830Y241503D01*
X440924Y241460D01*
X441019Y241420D01*
X441116Y241384D01*
X441215Y241352D01*
X441314Y241323D01*
X441415Y241298D01*
X441516Y241277D01*
X441618Y241260D01*
X441720Y241246D01*
X441823Y241237D01*
X441927Y241231D01*
X442030Y241229D01*
X433355Y243995D02*
X429898Y246761D01*
X429898Y234315D01*
X433355Y234315D02*
X426441Y234315D01*
X420553Y240538D02*
X420550Y240783D01*
X420541Y241028D01*
X420527Y241272D01*
X420506Y241516D01*
X420480Y241759D01*
X420448Y242002D01*
X420410Y242244D01*
X420367Y242485D01*
X420317Y242725D01*
X420262Y242963D01*
X420201Y243200D01*
X420135Y243436D01*
X420063Y243670D01*
X419985Y243902D01*
X419902Y244133D01*
X419814Y244361D01*
X419720Y244587D01*
X419621Y244811D01*
X419516Y245032D01*
X419516Y245033D02*
X419482Y245126D01*
X419444Y245218D01*
X419403Y245308D01*
X419359Y245396D01*
X419311Y245483D01*
X419259Y245568D01*
X419205Y245651D01*
X419147Y245731D01*
X419086Y245810D01*
X419023Y245886D01*
X418956Y245959D01*
X418886Y246030D01*
X418814Y246098D01*
X418740Y246163D01*
X418662Y246225D01*
X418583Y246285D01*
X418501Y246341D01*
X418417Y246393D01*
X418331Y246443D01*
X418243Y246489D01*
X418154Y246532D01*
X418063Y246571D01*
X417970Y246607D01*
X417877Y246639D01*
X417782Y246667D01*
X417686Y246692D01*
X417589Y246713D01*
X417491Y246730D01*
X417393Y246744D01*
X417294Y246753D01*
X417195Y246759D01*
X417096Y246761D01*
X416997Y246759D01*
X416898Y246753D01*
X416799Y246744D01*
X416701Y246730D01*
X416603Y246713D01*
X416506Y246692D01*
X416410Y246667D01*
X416315Y246639D01*
X416222Y246607D01*
X416129Y246571D01*
X416038Y246532D01*
X415948Y246489D01*
X415861Y246443D01*
X415775Y246393D01*
X415691Y246341D01*
X415609Y246285D01*
X415530Y246225D01*
X415452Y246163D01*
X415378Y246098D01*
X415306Y246030D01*
X415236Y245959D01*
X415169Y245886D01*
X415106Y245810D01*
X415045Y245731D01*
X414987Y245651D01*
X414933Y245568D01*
X414881Y245483D01*
X414833Y245396D01*
X414789Y245308D01*
X414748Y245218D01*
X414710Y245126D01*
X414676Y245033D01*
X414676Y245032D02*
X414572Y244811D01*
X414472Y244587D01*
X414378Y244361D01*
X414290Y244133D01*
X414207Y243902D01*
X414129Y243670D01*
X414057Y243436D01*
X413991Y243201D01*
X413930Y242963D01*
X413875Y242725D01*
X413825Y242485D01*
X413782Y242244D01*
X413744Y242002D01*
X413712Y241759D01*
X413686Y241516D01*
X413665Y241272D01*
X413651Y241028D01*
X413642Y240783D01*
X413639Y240538D01*
X420554Y240538D02*
X420551Y240293D01*
X420542Y240048D01*
X420528Y239804D01*
X420507Y239560D01*
X420481Y239317D01*
X420449Y239074D01*
X420411Y238832D01*
X420368Y238591D01*
X420318Y238351D01*
X420263Y238113D01*
X420202Y237875D01*
X420136Y237640D01*
X420064Y237406D01*
X419986Y237173D01*
X419903Y236943D01*
X419815Y236715D01*
X419721Y236489D01*
X419621Y236265D01*
X419517Y236043D01*
X419516Y236043D02*
X419482Y235950D01*
X419444Y235858D01*
X419403Y235768D01*
X419359Y235680D01*
X419311Y235593D01*
X419259Y235508D01*
X419205Y235425D01*
X419147Y235345D01*
X419086Y235266D01*
X419023Y235190D01*
X418956Y235117D01*
X418886Y235046D01*
X418814Y234978D01*
X418740Y234913D01*
X418662Y234851D01*
X418583Y234791D01*
X418501Y234735D01*
X418417Y234683D01*
X418331Y234633D01*
X418243Y234587D01*
X418154Y234544D01*
X418063Y234505D01*
X417970Y234469D01*
X417877Y234437D01*
X417782Y234409D01*
X417686Y234384D01*
X417589Y234363D01*
X417491Y234346D01*
X417393Y234332D01*
X417294Y234323D01*
X417195Y234317D01*
X417096Y234315D01*
X414676Y236044D02*
X414571Y236265D01*
X414472Y236489D01*
X414378Y236715D01*
X414290Y236943D01*
X414207Y237174D01*
X414129Y237406D01*
X414057Y237640D01*
X413991Y237876D01*
X413930Y238113D01*
X413875Y238351D01*
X413825Y238591D01*
X413782Y238832D01*
X413744Y239074D01*
X413712Y239317D01*
X413686Y239560D01*
X413665Y239804D01*
X413651Y240048D01*
X413642Y240293D01*
X413639Y240538D01*
X414676Y236043D02*
X414710Y235950D01*
X414748Y235858D01*
X414789Y235768D01*
X414833Y235680D01*
X414881Y235593D01*
X414933Y235508D01*
X414987Y235425D01*
X415045Y235345D01*
X415106Y235266D01*
X415169Y235190D01*
X415236Y235117D01*
X415306Y235046D01*
X415378Y234978D01*
X415452Y234913D01*
X415530Y234851D01*
X415609Y234791D01*
X415691Y234735D01*
X415775Y234683D01*
X415861Y234633D01*
X415949Y234587D01*
X416038Y234544D01*
X416129Y234505D01*
X416222Y234469D01*
X416315Y234437D01*
X416410Y234409D01*
X416506Y234384D01*
X416603Y234363D01*
X416701Y234346D01*
X416799Y234332D01*
X416898Y234323D01*
X416997Y234317D01*
X417096Y234315D01*
X419862Y237081D02*
X414330Y243995D01*
X429228Y215829D02*
X432685Y215829D01*
X429228Y215829D02*
X429111Y215827D01*
X428995Y215821D01*
X428878Y215811D01*
X428762Y215797D01*
X428647Y215780D01*
X428532Y215758D01*
X428418Y215733D01*
X428305Y215704D01*
X428193Y215670D01*
X428082Y215634D01*
X427973Y215593D01*
X427865Y215549D01*
X427758Y215501D01*
X427653Y215450D01*
X427550Y215395D01*
X427449Y215336D01*
X427350Y215274D01*
X427253Y215209D01*
X427158Y215141D01*
X427066Y215070D01*
X426976Y214995D01*
X426889Y214917D01*
X426804Y214837D01*
X426722Y214754D01*
X426643Y214668D01*
X426567Y214579D01*
X426494Y214488D01*
X426424Y214395D01*
X426358Y214299D01*
X426294Y214201D01*
X426234Y214101D01*
X426177Y213998D01*
X426124Y213894D01*
X426075Y213789D01*
X426029Y213681D01*
X425986Y213573D01*
X425947Y213462D01*
X425913Y213351D01*
X425881Y213239D01*
X425854Y213125D01*
X425830Y213011D01*
X425811Y212895D01*
X425795Y212780D01*
X425783Y212664D01*
X425775Y212547D01*
X425771Y212430D01*
X425771Y212314D01*
X425775Y212197D01*
X425783Y212080D01*
X425795Y211964D01*
X425811Y211849D01*
X425830Y211733D01*
X425854Y211619D01*
X425881Y211505D01*
X425913Y211393D01*
X425947Y211282D01*
X425986Y211171D01*
X426029Y211063D01*
X426075Y210955D01*
X426124Y210850D01*
X426177Y210746D01*
X426234Y210644D01*
X426294Y210543D01*
X426358Y210445D01*
X426424Y210349D01*
X426494Y210256D01*
X426567Y210165D01*
X426643Y210076D01*
X426722Y209990D01*
X426804Y209907D01*
X426889Y209827D01*
X426976Y209749D01*
X427066Y209674D01*
X427158Y209603D01*
X427253Y209535D01*
X427350Y209470D01*
X427449Y209408D01*
X427550Y209349D01*
X427653Y209294D01*
X427758Y209243D01*
X427865Y209195D01*
X427973Y209151D01*
X428082Y209110D01*
X428193Y209074D01*
X428305Y209040D01*
X428418Y209011D01*
X428532Y208986D01*
X428647Y208964D01*
X428762Y208947D01*
X428878Y208933D01*
X428995Y208923D01*
X429111Y208917D01*
X429228Y208915D01*
X432685Y208915D01*
X432685Y221361D01*
X429228Y221361D01*
X429125Y221359D01*
X429021Y221353D01*
X428918Y221344D01*
X428816Y221330D01*
X428714Y221313D01*
X428613Y221292D01*
X428512Y221267D01*
X428413Y221238D01*
X428314Y221206D01*
X428217Y221170D01*
X428122Y221130D01*
X428028Y221087D01*
X427936Y221040D01*
X427845Y220990D01*
X427756Y220937D01*
X427670Y220880D01*
X427585Y220821D01*
X427503Y220758D01*
X427424Y220692D01*
X427347Y220623D01*
X427272Y220551D01*
X427200Y220476D01*
X427131Y220399D01*
X427065Y220320D01*
X427002Y220238D01*
X426943Y220153D01*
X426886Y220067D01*
X426833Y219978D01*
X426783Y219887D01*
X426736Y219795D01*
X426693Y219701D01*
X426653Y219606D01*
X426617Y219509D01*
X426585Y219410D01*
X426556Y219311D01*
X426531Y219210D01*
X426510Y219109D01*
X426493Y219007D01*
X426479Y218905D01*
X426470Y218802D01*
X426464Y218698D01*
X426462Y218595D01*
X426464Y218492D01*
X426470Y218388D01*
X426479Y218285D01*
X426493Y218183D01*
X426510Y218081D01*
X426531Y217980D01*
X426556Y217879D01*
X426585Y217780D01*
X426617Y217681D01*
X426653Y217584D01*
X426693Y217489D01*
X426736Y217395D01*
X426783Y217303D01*
X426833Y217212D01*
X426886Y217123D01*
X426943Y217037D01*
X427002Y216952D01*
X427065Y216870D01*
X427131Y216791D01*
X427200Y216714D01*
X427272Y216639D01*
X427347Y216567D01*
X427424Y216498D01*
X427503Y216432D01*
X427585Y216369D01*
X427670Y216310D01*
X427756Y216253D01*
X427845Y216200D01*
X427936Y216150D01*
X428028Y216103D01*
X428122Y216060D01*
X428217Y216020D01*
X428314Y215984D01*
X428413Y215952D01*
X428512Y215923D01*
X428613Y215898D01*
X428714Y215877D01*
X428816Y215860D01*
X428918Y215846D01*
X429021Y215837D01*
X429125Y215831D01*
X429228Y215829D01*
X420553Y219978D02*
X420553Y221361D01*
X413639Y221361D01*
X417096Y208915D01*
X442154Y195961D02*
X438005Y183515D01*
X433857Y195961D01*
X427764Y195961D02*
X427764Y183515D01*
X429147Y183515D02*
X426381Y183515D01*
X426381Y195961D02*
X429147Y195961D01*
X420553Y195961D02*
X420553Y183515D01*
X413639Y183515D02*
X420553Y195961D01*
X413639Y195961D02*
X413639Y183515D01*
X442699Y158115D02*
X446157Y158115D01*
X442699Y158115D02*
X442582Y158117D01*
X442466Y158123D01*
X442349Y158133D01*
X442233Y158147D01*
X442118Y158164D01*
X442003Y158186D01*
X441889Y158211D01*
X441776Y158240D01*
X441664Y158274D01*
X441553Y158310D01*
X441444Y158351D01*
X441336Y158395D01*
X441229Y158443D01*
X441124Y158494D01*
X441021Y158549D01*
X440920Y158608D01*
X440821Y158670D01*
X440724Y158735D01*
X440629Y158803D01*
X440537Y158874D01*
X440447Y158949D01*
X440360Y159027D01*
X440275Y159107D01*
X440193Y159190D01*
X440114Y159276D01*
X440038Y159365D01*
X439965Y159456D01*
X439895Y159549D01*
X439829Y159645D01*
X439765Y159743D01*
X439705Y159844D01*
X439648Y159946D01*
X439595Y160050D01*
X439546Y160155D01*
X439500Y160263D01*
X439457Y160371D01*
X439418Y160482D01*
X439384Y160593D01*
X439352Y160705D01*
X439325Y160819D01*
X439301Y160933D01*
X439282Y161049D01*
X439266Y161164D01*
X439254Y161280D01*
X439246Y161397D01*
X439242Y161514D01*
X439242Y161630D01*
X439246Y161747D01*
X439254Y161864D01*
X439266Y161980D01*
X439282Y162095D01*
X439301Y162211D01*
X439325Y162325D01*
X439352Y162439D01*
X439384Y162551D01*
X439418Y162662D01*
X439457Y162773D01*
X439500Y162881D01*
X439546Y162989D01*
X439595Y163094D01*
X439648Y163198D01*
X439705Y163301D01*
X439765Y163401D01*
X439829Y163499D01*
X439895Y163595D01*
X439965Y163688D01*
X440038Y163779D01*
X440114Y163868D01*
X440193Y163954D01*
X440275Y164037D01*
X440360Y164117D01*
X440447Y164195D01*
X440537Y164270D01*
X440629Y164341D01*
X440724Y164409D01*
X440821Y164474D01*
X440920Y164536D01*
X441021Y164595D01*
X441124Y164650D01*
X441229Y164701D01*
X441336Y164749D01*
X441444Y164793D01*
X441553Y164834D01*
X441664Y164870D01*
X441776Y164904D01*
X441889Y164933D01*
X442003Y164958D01*
X442118Y164980D01*
X442233Y164997D01*
X442349Y165011D01*
X442466Y165021D01*
X442582Y165027D01*
X442699Y165029D01*
X442008Y170561D02*
X446157Y170561D01*
X442008Y170561D02*
X441905Y170559D01*
X441801Y170553D01*
X441698Y170544D01*
X441596Y170530D01*
X441494Y170513D01*
X441393Y170492D01*
X441292Y170467D01*
X441193Y170438D01*
X441094Y170406D01*
X440997Y170370D01*
X440902Y170330D01*
X440808Y170287D01*
X440716Y170240D01*
X440625Y170190D01*
X440536Y170137D01*
X440450Y170080D01*
X440365Y170021D01*
X440283Y169958D01*
X440204Y169892D01*
X440127Y169823D01*
X440052Y169751D01*
X439980Y169676D01*
X439911Y169599D01*
X439845Y169520D01*
X439782Y169438D01*
X439723Y169353D01*
X439666Y169267D01*
X439613Y169178D01*
X439563Y169087D01*
X439516Y168995D01*
X439473Y168901D01*
X439433Y168806D01*
X439397Y168709D01*
X439365Y168610D01*
X439336Y168511D01*
X439311Y168410D01*
X439290Y168309D01*
X439273Y168207D01*
X439259Y168105D01*
X439250Y168002D01*
X439244Y167898D01*
X439242Y167795D01*
X439244Y167692D01*
X439250Y167588D01*
X439259Y167485D01*
X439273Y167383D01*
X439290Y167281D01*
X439311Y167180D01*
X439336Y167079D01*
X439365Y166980D01*
X439397Y166881D01*
X439433Y166784D01*
X439473Y166689D01*
X439516Y166595D01*
X439563Y166503D01*
X439613Y166412D01*
X439666Y166323D01*
X439723Y166237D01*
X439782Y166152D01*
X439845Y166070D01*
X439911Y165991D01*
X439980Y165914D01*
X440052Y165839D01*
X440127Y165767D01*
X440204Y165698D01*
X440283Y165632D01*
X440365Y165569D01*
X440450Y165510D01*
X440536Y165453D01*
X440625Y165400D01*
X440716Y165350D01*
X440808Y165303D01*
X440902Y165260D01*
X440997Y165220D01*
X441094Y165184D01*
X441193Y165152D01*
X441292Y165123D01*
X441393Y165098D01*
X441494Y165077D01*
X441596Y165060D01*
X441698Y165046D01*
X441801Y165037D01*
X441905Y165031D01*
X442008Y165029D01*
X444774Y165029D01*
X434046Y170561D02*
X429898Y158115D01*
X425749Y170561D01*
X420553Y158115D02*
X417096Y158115D01*
X416979Y158117D01*
X416863Y158123D01*
X416746Y158133D01*
X416630Y158147D01*
X416515Y158164D01*
X416400Y158186D01*
X416286Y158211D01*
X416173Y158240D01*
X416061Y158274D01*
X415950Y158310D01*
X415841Y158351D01*
X415733Y158395D01*
X415626Y158443D01*
X415521Y158494D01*
X415418Y158549D01*
X415317Y158608D01*
X415218Y158670D01*
X415121Y158735D01*
X415026Y158803D01*
X414934Y158874D01*
X414844Y158949D01*
X414757Y159027D01*
X414672Y159107D01*
X414590Y159190D01*
X414511Y159276D01*
X414435Y159365D01*
X414362Y159456D01*
X414292Y159549D01*
X414226Y159645D01*
X414162Y159743D01*
X414102Y159844D01*
X414045Y159946D01*
X413992Y160050D01*
X413943Y160155D01*
X413897Y160263D01*
X413854Y160371D01*
X413815Y160482D01*
X413781Y160593D01*
X413749Y160705D01*
X413722Y160819D01*
X413698Y160933D01*
X413679Y161049D01*
X413663Y161164D01*
X413651Y161280D01*
X413643Y161397D01*
X413639Y161514D01*
X413639Y161630D01*
X413643Y161747D01*
X413651Y161864D01*
X413663Y161980D01*
X413679Y162095D01*
X413698Y162211D01*
X413722Y162325D01*
X413749Y162439D01*
X413781Y162551D01*
X413815Y162662D01*
X413854Y162773D01*
X413897Y162881D01*
X413943Y162989D01*
X413992Y163094D01*
X414045Y163198D01*
X414102Y163301D01*
X414162Y163401D01*
X414226Y163499D01*
X414292Y163595D01*
X414362Y163688D01*
X414435Y163779D01*
X414511Y163868D01*
X414590Y163954D01*
X414672Y164037D01*
X414757Y164117D01*
X414844Y164195D01*
X414934Y164270D01*
X415026Y164341D01*
X415121Y164409D01*
X415218Y164474D01*
X415317Y164536D01*
X415418Y164595D01*
X415521Y164650D01*
X415626Y164701D01*
X415733Y164749D01*
X415841Y164793D01*
X415950Y164834D01*
X416061Y164870D01*
X416173Y164904D01*
X416286Y164933D01*
X416400Y164958D01*
X416515Y164980D01*
X416630Y164997D01*
X416746Y165011D01*
X416863Y165021D01*
X416979Y165027D01*
X417096Y165029D01*
X416405Y170561D02*
X420553Y170561D01*
X416405Y170561D02*
X416302Y170559D01*
X416198Y170553D01*
X416095Y170544D01*
X415993Y170530D01*
X415891Y170513D01*
X415790Y170492D01*
X415689Y170467D01*
X415590Y170438D01*
X415491Y170406D01*
X415394Y170370D01*
X415299Y170330D01*
X415205Y170287D01*
X415113Y170240D01*
X415022Y170190D01*
X414933Y170137D01*
X414847Y170080D01*
X414762Y170021D01*
X414680Y169958D01*
X414601Y169892D01*
X414524Y169823D01*
X414449Y169751D01*
X414377Y169676D01*
X414308Y169599D01*
X414242Y169520D01*
X414179Y169438D01*
X414120Y169353D01*
X414063Y169267D01*
X414010Y169178D01*
X413960Y169087D01*
X413913Y168995D01*
X413870Y168901D01*
X413830Y168806D01*
X413794Y168709D01*
X413762Y168610D01*
X413733Y168511D01*
X413708Y168410D01*
X413687Y168309D01*
X413670Y168207D01*
X413656Y168105D01*
X413647Y168002D01*
X413641Y167898D01*
X413639Y167795D01*
X413641Y167692D01*
X413647Y167588D01*
X413656Y167485D01*
X413670Y167383D01*
X413687Y167281D01*
X413708Y167180D01*
X413733Y167079D01*
X413762Y166980D01*
X413794Y166881D01*
X413830Y166784D01*
X413870Y166689D01*
X413913Y166595D01*
X413960Y166503D01*
X414010Y166412D01*
X414063Y166323D01*
X414120Y166237D01*
X414179Y166152D01*
X414242Y166070D01*
X414308Y165991D01*
X414377Y165914D01*
X414449Y165839D01*
X414524Y165767D01*
X414601Y165698D01*
X414680Y165632D01*
X414762Y165569D01*
X414847Y165510D01*
X414933Y165453D01*
X415022Y165400D01*
X415113Y165350D01*
X415205Y165303D01*
X415299Y165260D01*
X415394Y165220D01*
X415491Y165184D01*
X415590Y165152D01*
X415689Y165123D01*
X415790Y165098D01*
X415891Y165077D01*
X415993Y165060D01*
X416095Y165046D01*
X416198Y165037D01*
X416302Y165031D01*
X416405Y165029D01*
X419171Y165029D01*
X440949Y139629D02*
X443023Y139629D01*
X440949Y139629D02*
X440949Y132715D01*
X445098Y132715D01*
X445201Y132717D01*
X445305Y132723D01*
X445408Y132732D01*
X445510Y132746D01*
X445612Y132763D01*
X445713Y132784D01*
X445814Y132809D01*
X445913Y132838D01*
X446012Y132870D01*
X446109Y132906D01*
X446204Y132946D01*
X446298Y132989D01*
X446390Y133036D01*
X446481Y133086D01*
X446570Y133139D01*
X446656Y133196D01*
X446741Y133255D01*
X446823Y133318D01*
X446902Y133384D01*
X446979Y133453D01*
X447054Y133525D01*
X447126Y133600D01*
X447195Y133677D01*
X447261Y133756D01*
X447324Y133838D01*
X447383Y133923D01*
X447440Y134009D01*
X447493Y134098D01*
X447543Y134189D01*
X447590Y134281D01*
X447633Y134375D01*
X447673Y134470D01*
X447709Y134567D01*
X447741Y134666D01*
X447770Y134765D01*
X447795Y134866D01*
X447816Y134967D01*
X447833Y135069D01*
X447847Y135171D01*
X447856Y135274D01*
X447862Y135378D01*
X447864Y135481D01*
X447863Y135481D02*
X447863Y142395D01*
X447864Y142395D02*
X447862Y142498D01*
X447856Y142602D01*
X447847Y142705D01*
X447833Y142807D01*
X447816Y142909D01*
X447795Y143010D01*
X447770Y143111D01*
X447741Y143210D01*
X447709Y143309D01*
X447673Y143406D01*
X447633Y143501D01*
X447590Y143595D01*
X447543Y143687D01*
X447493Y143778D01*
X447440Y143867D01*
X447383Y143953D01*
X447324Y144038D01*
X447261Y144120D01*
X447195Y144199D01*
X447126Y144276D01*
X447054Y144351D01*
X446979Y144423D01*
X446902Y144492D01*
X446823Y144558D01*
X446741Y144621D01*
X446656Y144680D01*
X446570Y144737D01*
X446481Y144790D01*
X446390Y144840D01*
X446298Y144887D01*
X446204Y144930D01*
X446109Y144970D01*
X446012Y145006D01*
X445913Y145038D01*
X445814Y145067D01*
X445713Y145092D01*
X445612Y145113D01*
X445510Y145130D01*
X445408Y145144D01*
X445305Y145153D01*
X445201Y145159D01*
X445098Y145161D01*
X440949Y145161D01*
X434208Y145161D02*
X434208Y132715D01*
X427294Y132715D02*
X434208Y145161D01*
X427294Y145161D02*
X427294Y132715D01*
X420553Y132715D02*
X420553Y145161D01*
X417096Y145161D01*
X416980Y145159D01*
X416865Y145153D01*
X416750Y145144D01*
X416635Y145130D01*
X416521Y145113D01*
X416407Y145092D01*
X416295Y145067D01*
X416183Y145038D01*
X416072Y145006D01*
X415962Y144970D01*
X415854Y144930D01*
X415746Y144887D01*
X415641Y144840D01*
X415537Y144789D01*
X415435Y144736D01*
X415334Y144678D01*
X415236Y144618D01*
X415140Y144554D01*
X415045Y144487D01*
X414954Y144417D01*
X414864Y144344D01*
X414777Y144268D01*
X414693Y144189D01*
X414611Y144107D01*
X414532Y144023D01*
X414456Y143936D01*
X414383Y143846D01*
X414313Y143755D01*
X414246Y143660D01*
X414182Y143564D01*
X414122Y143466D01*
X414064Y143365D01*
X414011Y143263D01*
X413960Y143159D01*
X413913Y143054D01*
X413870Y142946D01*
X413830Y142838D01*
X413794Y142728D01*
X413762Y142617D01*
X413733Y142505D01*
X413708Y142393D01*
X413687Y142279D01*
X413670Y142165D01*
X413656Y142050D01*
X413647Y141935D01*
X413641Y141820D01*
X413639Y141704D01*
X413639Y136172D01*
X413641Y136056D01*
X413647Y135941D01*
X413656Y135826D01*
X413670Y135711D01*
X413687Y135597D01*
X413708Y135483D01*
X413733Y135371D01*
X413762Y135259D01*
X413794Y135148D01*
X413830Y135038D01*
X413870Y134930D01*
X413913Y134822D01*
X413960Y134717D01*
X414011Y134613D01*
X414064Y134511D01*
X414122Y134410D01*
X414182Y134312D01*
X414246Y134216D01*
X414313Y134121D01*
X414383Y134030D01*
X414456Y133940D01*
X414532Y133853D01*
X414611Y133769D01*
X414693Y133687D01*
X414777Y133608D01*
X414864Y133532D01*
X414954Y133459D01*
X415045Y133389D01*
X415140Y133322D01*
X415236Y133258D01*
X415334Y133198D01*
X415435Y133140D01*
X415537Y133087D01*
X415641Y133036D01*
X415746Y132989D01*
X415854Y132946D01*
X415962Y132906D01*
X416072Y132870D01*
X416183Y132838D01*
X416295Y132809D01*
X416407Y132784D01*
X416521Y132763D01*
X416635Y132746D01*
X416750Y132732D01*
X416865Y132723D01*
X416980Y132717D01*
X417096Y132715D01*
X420553Y132715D01*
X81661Y362839D02*
X77512Y375285D01*
X73364Y362839D01*
X74401Y365951D02*
X80624Y365951D01*
X68168Y369062D02*
X68165Y369307D01*
X68156Y369552D01*
X68142Y369796D01*
X68121Y370040D01*
X68095Y370283D01*
X68063Y370526D01*
X68025Y370768D01*
X67982Y371009D01*
X67932Y371249D01*
X67877Y371487D01*
X67816Y371724D01*
X67750Y371960D01*
X67678Y372194D01*
X67600Y372426D01*
X67517Y372657D01*
X67429Y372885D01*
X67335Y373111D01*
X67236Y373335D01*
X67131Y373556D01*
X67131Y373557D02*
X67097Y373650D01*
X67059Y373742D01*
X67018Y373832D01*
X66974Y373920D01*
X66926Y374007D01*
X66874Y374092D01*
X66820Y374175D01*
X66762Y374255D01*
X66701Y374334D01*
X66638Y374410D01*
X66571Y374483D01*
X66501Y374554D01*
X66429Y374622D01*
X66355Y374687D01*
X66277Y374749D01*
X66198Y374809D01*
X66116Y374865D01*
X66032Y374917D01*
X65946Y374967D01*
X65858Y375013D01*
X65769Y375056D01*
X65678Y375095D01*
X65585Y375131D01*
X65492Y375163D01*
X65397Y375191D01*
X65301Y375216D01*
X65204Y375237D01*
X65106Y375254D01*
X65008Y375268D01*
X64909Y375277D01*
X64810Y375283D01*
X64711Y375285D01*
X64612Y375283D01*
X64513Y375277D01*
X64414Y375268D01*
X64316Y375254D01*
X64218Y375237D01*
X64121Y375216D01*
X64025Y375191D01*
X63930Y375163D01*
X63837Y375131D01*
X63744Y375095D01*
X63653Y375056D01*
X63563Y375013D01*
X63476Y374967D01*
X63390Y374917D01*
X63306Y374865D01*
X63224Y374809D01*
X63145Y374749D01*
X63067Y374687D01*
X62993Y374622D01*
X62921Y374554D01*
X62851Y374483D01*
X62784Y374410D01*
X62721Y374334D01*
X62660Y374255D01*
X62602Y374175D01*
X62548Y374092D01*
X62496Y374007D01*
X62448Y373920D01*
X62404Y373832D01*
X62363Y373742D01*
X62325Y373650D01*
X62291Y373557D01*
X62291Y373556D02*
X62187Y373335D01*
X62087Y373111D01*
X61993Y372885D01*
X61905Y372657D01*
X61822Y372426D01*
X61744Y372194D01*
X61672Y371960D01*
X61606Y371725D01*
X61545Y371487D01*
X61490Y371249D01*
X61440Y371009D01*
X61397Y370768D01*
X61359Y370526D01*
X61327Y370283D01*
X61301Y370040D01*
X61280Y369796D01*
X61266Y369552D01*
X61257Y369307D01*
X61254Y369062D01*
X68168Y369062D02*
X68165Y368817D01*
X68156Y368572D01*
X68142Y368328D01*
X68121Y368084D01*
X68095Y367841D01*
X68063Y367598D01*
X68025Y367356D01*
X67982Y367115D01*
X67932Y366875D01*
X67877Y366637D01*
X67816Y366399D01*
X67750Y366164D01*
X67678Y365930D01*
X67600Y365697D01*
X67517Y365467D01*
X67429Y365239D01*
X67335Y365013D01*
X67235Y364789D01*
X67131Y364567D01*
X67097Y364474D01*
X67059Y364382D01*
X67018Y364292D01*
X66974Y364204D01*
X66926Y364117D01*
X66874Y364032D01*
X66820Y363949D01*
X66762Y363869D01*
X66701Y363790D01*
X66638Y363714D01*
X66571Y363641D01*
X66501Y363570D01*
X66429Y363502D01*
X66355Y363437D01*
X66277Y363375D01*
X66198Y363315D01*
X66116Y363259D01*
X66032Y363207D01*
X65946Y363157D01*
X65858Y363111D01*
X65769Y363068D01*
X65678Y363029D01*
X65585Y362993D01*
X65492Y362961D01*
X65397Y362933D01*
X65301Y362908D01*
X65204Y362887D01*
X65106Y362870D01*
X65008Y362856D01*
X64909Y362847D01*
X64810Y362841D01*
X64711Y362839D01*
X62291Y364568D02*
X62186Y364789D01*
X62087Y365013D01*
X61993Y365239D01*
X61905Y365467D01*
X61822Y365698D01*
X61744Y365930D01*
X61672Y366164D01*
X61606Y366400D01*
X61545Y366637D01*
X61490Y366875D01*
X61440Y367115D01*
X61397Y367356D01*
X61359Y367598D01*
X61327Y367841D01*
X61301Y368084D01*
X61280Y368328D01*
X61266Y368572D01*
X61257Y368817D01*
X61254Y369062D01*
X62291Y364567D02*
X62325Y364474D01*
X62363Y364382D01*
X62404Y364292D01*
X62448Y364204D01*
X62496Y364117D01*
X62548Y364032D01*
X62602Y363949D01*
X62660Y363869D01*
X62721Y363790D01*
X62784Y363714D01*
X62851Y363641D01*
X62921Y363570D01*
X62993Y363502D01*
X63067Y363437D01*
X63145Y363375D01*
X63224Y363315D01*
X63306Y363259D01*
X63390Y363207D01*
X63476Y363157D01*
X63564Y363111D01*
X63653Y363068D01*
X63744Y363029D01*
X63837Y362993D01*
X63930Y362961D01*
X64025Y362933D01*
X64121Y362908D01*
X64218Y362887D01*
X64316Y362870D01*
X64414Y362856D01*
X64513Y362847D01*
X64612Y362841D01*
X64711Y362839D01*
X67477Y365605D02*
X61945Y372519D01*
X77512Y349885D02*
X81661Y337439D01*
X73364Y337439D02*
X77512Y349885D01*
X74401Y340551D02*
X80624Y340551D01*
X68168Y347119D02*
X64711Y349885D01*
X64711Y337439D01*
X68168Y337439D02*
X61254Y337439D01*
X78204Y318953D02*
X81661Y318953D01*
X78204Y318953D02*
X78087Y318951D01*
X77971Y318945D01*
X77854Y318935D01*
X77738Y318921D01*
X77623Y318904D01*
X77508Y318882D01*
X77394Y318857D01*
X77281Y318828D01*
X77169Y318794D01*
X77058Y318758D01*
X76949Y318717D01*
X76841Y318673D01*
X76734Y318625D01*
X76629Y318574D01*
X76526Y318519D01*
X76425Y318460D01*
X76326Y318398D01*
X76229Y318333D01*
X76134Y318265D01*
X76042Y318194D01*
X75952Y318119D01*
X75865Y318041D01*
X75780Y317961D01*
X75698Y317878D01*
X75619Y317792D01*
X75543Y317703D01*
X75470Y317612D01*
X75400Y317519D01*
X75334Y317423D01*
X75270Y317325D01*
X75210Y317225D01*
X75153Y317122D01*
X75100Y317018D01*
X75051Y316913D01*
X75005Y316805D01*
X74962Y316697D01*
X74923Y316586D01*
X74889Y316475D01*
X74857Y316363D01*
X74830Y316249D01*
X74806Y316135D01*
X74787Y316019D01*
X74771Y315904D01*
X74759Y315788D01*
X74751Y315671D01*
X74747Y315554D01*
X74747Y315438D01*
X74751Y315321D01*
X74759Y315204D01*
X74771Y315088D01*
X74787Y314973D01*
X74806Y314857D01*
X74830Y314743D01*
X74857Y314629D01*
X74889Y314517D01*
X74923Y314406D01*
X74962Y314295D01*
X75005Y314187D01*
X75051Y314079D01*
X75100Y313974D01*
X75153Y313870D01*
X75210Y313768D01*
X75270Y313667D01*
X75334Y313569D01*
X75400Y313473D01*
X75470Y313380D01*
X75543Y313289D01*
X75619Y313200D01*
X75698Y313114D01*
X75780Y313031D01*
X75865Y312951D01*
X75952Y312873D01*
X76042Y312798D01*
X76134Y312727D01*
X76229Y312659D01*
X76326Y312594D01*
X76425Y312532D01*
X76526Y312473D01*
X76629Y312418D01*
X76734Y312367D01*
X76841Y312319D01*
X76949Y312275D01*
X77058Y312234D01*
X77169Y312198D01*
X77281Y312164D01*
X77394Y312135D01*
X77508Y312110D01*
X77623Y312088D01*
X77738Y312071D01*
X77854Y312057D01*
X77971Y312047D01*
X78087Y312041D01*
X78204Y312039D01*
X81661Y312039D01*
X81661Y324485D01*
X78204Y324485D01*
X78101Y324483D01*
X77997Y324477D01*
X77894Y324468D01*
X77792Y324454D01*
X77690Y324437D01*
X77589Y324416D01*
X77488Y324391D01*
X77389Y324362D01*
X77290Y324330D01*
X77193Y324294D01*
X77098Y324254D01*
X77004Y324211D01*
X76912Y324164D01*
X76821Y324114D01*
X76732Y324061D01*
X76646Y324004D01*
X76561Y323945D01*
X76479Y323882D01*
X76400Y323816D01*
X76323Y323747D01*
X76248Y323675D01*
X76176Y323600D01*
X76107Y323523D01*
X76041Y323444D01*
X75978Y323362D01*
X75919Y323277D01*
X75862Y323191D01*
X75809Y323102D01*
X75759Y323011D01*
X75712Y322919D01*
X75669Y322825D01*
X75629Y322730D01*
X75593Y322633D01*
X75561Y322534D01*
X75532Y322435D01*
X75507Y322334D01*
X75486Y322233D01*
X75469Y322131D01*
X75455Y322029D01*
X75446Y321926D01*
X75440Y321822D01*
X75438Y321719D01*
X75440Y321616D01*
X75446Y321512D01*
X75455Y321409D01*
X75469Y321307D01*
X75486Y321205D01*
X75507Y321104D01*
X75532Y321003D01*
X75561Y320904D01*
X75593Y320805D01*
X75629Y320708D01*
X75669Y320613D01*
X75712Y320519D01*
X75759Y320427D01*
X75809Y320336D01*
X75862Y320247D01*
X75919Y320161D01*
X75978Y320076D01*
X76041Y319994D01*
X76107Y319915D01*
X76176Y319838D01*
X76248Y319763D01*
X76323Y319691D01*
X76400Y319622D01*
X76479Y319556D01*
X76561Y319493D01*
X76646Y319434D01*
X76732Y319377D01*
X76821Y319324D01*
X76912Y319274D01*
X77004Y319227D01*
X77098Y319184D01*
X77193Y319144D01*
X77290Y319108D01*
X77389Y319076D01*
X77488Y319047D01*
X77589Y319022D01*
X77690Y319001D01*
X77792Y318984D01*
X77894Y318970D01*
X77997Y318961D01*
X78101Y318955D01*
X78204Y318953D01*
X65726Y324486D02*
X65615Y324484D01*
X65504Y324478D01*
X65393Y324468D01*
X65283Y324454D01*
X65173Y324437D01*
X65064Y324415D01*
X64956Y324389D01*
X64849Y324360D01*
X64743Y324327D01*
X64638Y324290D01*
X64535Y324249D01*
X64433Y324205D01*
X64333Y324157D01*
X64235Y324105D01*
X64138Y324050D01*
X64044Y323992D01*
X63951Y323930D01*
X63861Y323865D01*
X63773Y323797D01*
X63688Y323726D01*
X63605Y323652D01*
X63525Y323575D01*
X63448Y323495D01*
X63374Y323412D01*
X63303Y323327D01*
X63235Y323239D01*
X63170Y323149D01*
X63108Y323056D01*
X63050Y322962D01*
X62995Y322865D01*
X62943Y322767D01*
X62895Y322667D01*
X62851Y322565D01*
X62810Y322462D01*
X62773Y322357D01*
X62740Y322251D01*
X62711Y322144D01*
X62685Y322036D01*
X62663Y321927D01*
X62646Y321817D01*
X62632Y321707D01*
X62622Y321596D01*
X62616Y321485D01*
X62614Y321374D01*
X65726Y324485D02*
X65852Y324483D01*
X65977Y324477D01*
X66102Y324467D01*
X66227Y324453D01*
X66352Y324436D01*
X66476Y324414D01*
X66599Y324389D01*
X66721Y324359D01*
X66842Y324326D01*
X66962Y324289D01*
X67081Y324248D01*
X67198Y324204D01*
X67315Y324156D01*
X67429Y324104D01*
X67542Y324049D01*
X67653Y323990D01*
X67762Y323928D01*
X67869Y323862D01*
X67974Y323793D01*
X68077Y323721D01*
X68177Y323645D01*
X68275Y323566D01*
X68371Y323485D01*
X68464Y323400D01*
X68554Y323313D01*
X68641Y323222D01*
X68726Y323129D01*
X68807Y323034D01*
X68886Y322936D01*
X68961Y322835D01*
X69034Y322732D01*
X69102Y322627D01*
X69168Y322520D01*
X69230Y322411D01*
X69289Y322300D01*
X69344Y322187D01*
X69396Y322072D01*
X69444Y321956D01*
X69488Y321838D01*
X69529Y321720D01*
X63652Y318954D02*
X63572Y319033D01*
X63494Y319115D01*
X63419Y319199D01*
X63348Y319286D01*
X63279Y319375D01*
X63213Y319467D01*
X63150Y319560D01*
X63090Y319656D01*
X63034Y319754D01*
X62981Y319853D01*
X62931Y319955D01*
X62885Y320057D01*
X62843Y320162D01*
X62803Y320268D01*
X62768Y320375D01*
X62736Y320483D01*
X62708Y320592D01*
X62683Y320702D01*
X62662Y320813D01*
X62645Y320924D01*
X62632Y321036D01*
X62623Y321149D01*
X62617Y321261D01*
X62615Y321374D01*
X63652Y318953D02*
X69529Y312039D01*
X62615Y312039D01*
X77512Y299085D02*
X81661Y286639D01*
X73364Y286639D02*
X77512Y299085D01*
X74401Y289751D02*
X80624Y289751D01*
X68168Y286639D02*
X64711Y286639D01*
X64594Y286641D01*
X64478Y286647D01*
X64361Y286657D01*
X64245Y286671D01*
X64130Y286688D01*
X64015Y286710D01*
X63901Y286735D01*
X63788Y286764D01*
X63676Y286798D01*
X63565Y286834D01*
X63456Y286875D01*
X63348Y286919D01*
X63241Y286967D01*
X63136Y287018D01*
X63033Y287073D01*
X62932Y287132D01*
X62833Y287194D01*
X62736Y287259D01*
X62641Y287327D01*
X62549Y287398D01*
X62459Y287473D01*
X62372Y287551D01*
X62287Y287631D01*
X62205Y287714D01*
X62126Y287800D01*
X62050Y287889D01*
X61977Y287980D01*
X61907Y288073D01*
X61841Y288169D01*
X61777Y288267D01*
X61717Y288368D01*
X61660Y288470D01*
X61607Y288574D01*
X61558Y288679D01*
X61512Y288787D01*
X61469Y288895D01*
X61430Y289006D01*
X61396Y289117D01*
X61364Y289229D01*
X61337Y289343D01*
X61313Y289457D01*
X61294Y289573D01*
X61278Y289688D01*
X61266Y289804D01*
X61258Y289921D01*
X61254Y290038D01*
X61254Y290154D01*
X61258Y290271D01*
X61266Y290388D01*
X61278Y290504D01*
X61294Y290619D01*
X61313Y290735D01*
X61337Y290849D01*
X61364Y290963D01*
X61396Y291075D01*
X61430Y291186D01*
X61469Y291297D01*
X61512Y291405D01*
X61558Y291513D01*
X61607Y291618D01*
X61660Y291722D01*
X61717Y291825D01*
X61777Y291925D01*
X61841Y292023D01*
X61907Y292119D01*
X61977Y292212D01*
X62050Y292303D01*
X62126Y292392D01*
X62205Y292478D01*
X62287Y292561D01*
X62372Y292641D01*
X62459Y292719D01*
X62549Y292794D01*
X62641Y292865D01*
X62736Y292933D01*
X62833Y292998D01*
X62932Y293060D01*
X63033Y293119D01*
X63136Y293174D01*
X63241Y293225D01*
X63348Y293273D01*
X63456Y293317D01*
X63565Y293358D01*
X63676Y293394D01*
X63788Y293428D01*
X63901Y293457D01*
X64015Y293482D01*
X64130Y293504D01*
X64245Y293521D01*
X64361Y293535D01*
X64478Y293545D01*
X64594Y293551D01*
X64711Y293553D01*
X64019Y299085D02*
X68168Y299085D01*
X64019Y299085D02*
X63916Y299083D01*
X63812Y299077D01*
X63709Y299068D01*
X63607Y299054D01*
X63505Y299037D01*
X63404Y299016D01*
X63303Y298991D01*
X63204Y298962D01*
X63105Y298930D01*
X63008Y298894D01*
X62913Y298854D01*
X62819Y298811D01*
X62727Y298764D01*
X62636Y298714D01*
X62547Y298661D01*
X62461Y298604D01*
X62376Y298545D01*
X62294Y298482D01*
X62215Y298416D01*
X62138Y298347D01*
X62063Y298275D01*
X61991Y298200D01*
X61922Y298123D01*
X61856Y298044D01*
X61793Y297962D01*
X61734Y297877D01*
X61677Y297791D01*
X61624Y297702D01*
X61574Y297611D01*
X61527Y297519D01*
X61484Y297425D01*
X61444Y297330D01*
X61408Y297233D01*
X61376Y297134D01*
X61347Y297035D01*
X61322Y296934D01*
X61301Y296833D01*
X61284Y296731D01*
X61270Y296629D01*
X61261Y296526D01*
X61255Y296422D01*
X61253Y296319D01*
X61255Y296216D01*
X61261Y296112D01*
X61270Y296009D01*
X61284Y295907D01*
X61301Y295805D01*
X61322Y295704D01*
X61347Y295603D01*
X61376Y295504D01*
X61408Y295405D01*
X61444Y295308D01*
X61484Y295213D01*
X61527Y295119D01*
X61574Y295027D01*
X61624Y294936D01*
X61677Y294847D01*
X61734Y294761D01*
X61793Y294676D01*
X61856Y294594D01*
X61922Y294515D01*
X61991Y294438D01*
X62063Y294363D01*
X62138Y294291D01*
X62215Y294222D01*
X62294Y294156D01*
X62376Y294093D01*
X62461Y294034D01*
X62547Y293977D01*
X62636Y293924D01*
X62727Y293874D01*
X62819Y293827D01*
X62913Y293784D01*
X63008Y293744D01*
X63105Y293708D01*
X63204Y293676D01*
X63303Y293647D01*
X63404Y293622D01*
X63505Y293601D01*
X63607Y293584D01*
X63709Y293570D01*
X63812Y293561D01*
X63916Y293555D01*
X64019Y293553D01*
X66785Y293553D01*
X78204Y268153D02*
X81661Y268153D01*
X78204Y268153D02*
X78087Y268151D01*
X77971Y268145D01*
X77854Y268135D01*
X77738Y268121D01*
X77623Y268104D01*
X77508Y268082D01*
X77394Y268057D01*
X77281Y268028D01*
X77169Y267994D01*
X77058Y267958D01*
X76949Y267917D01*
X76841Y267873D01*
X76734Y267825D01*
X76629Y267774D01*
X76526Y267719D01*
X76425Y267660D01*
X76326Y267598D01*
X76229Y267533D01*
X76134Y267465D01*
X76042Y267394D01*
X75952Y267319D01*
X75865Y267241D01*
X75780Y267161D01*
X75698Y267078D01*
X75619Y266992D01*
X75543Y266903D01*
X75470Y266812D01*
X75400Y266719D01*
X75334Y266623D01*
X75270Y266525D01*
X75210Y266425D01*
X75153Y266322D01*
X75100Y266218D01*
X75051Y266113D01*
X75005Y266005D01*
X74962Y265897D01*
X74923Y265786D01*
X74889Y265675D01*
X74857Y265563D01*
X74830Y265449D01*
X74806Y265335D01*
X74787Y265219D01*
X74771Y265104D01*
X74759Y264988D01*
X74751Y264871D01*
X74747Y264754D01*
X74747Y264638D01*
X74751Y264521D01*
X74759Y264404D01*
X74771Y264288D01*
X74787Y264173D01*
X74806Y264057D01*
X74830Y263943D01*
X74857Y263829D01*
X74889Y263717D01*
X74923Y263606D01*
X74962Y263495D01*
X75005Y263387D01*
X75051Y263279D01*
X75100Y263174D01*
X75153Y263070D01*
X75210Y262968D01*
X75270Y262867D01*
X75334Y262769D01*
X75400Y262673D01*
X75470Y262580D01*
X75543Y262489D01*
X75619Y262400D01*
X75698Y262314D01*
X75780Y262231D01*
X75865Y262151D01*
X75952Y262073D01*
X76042Y261998D01*
X76134Y261927D01*
X76229Y261859D01*
X76326Y261794D01*
X76425Y261732D01*
X76526Y261673D01*
X76629Y261618D01*
X76734Y261567D01*
X76841Y261519D01*
X76949Y261475D01*
X77058Y261434D01*
X77169Y261398D01*
X77281Y261364D01*
X77394Y261335D01*
X77508Y261310D01*
X77623Y261288D01*
X77738Y261271D01*
X77854Y261257D01*
X77971Y261247D01*
X78087Y261241D01*
X78204Y261239D01*
X81661Y261239D01*
X81661Y273685D01*
X78204Y273685D01*
X78101Y273683D01*
X77997Y273677D01*
X77894Y273668D01*
X77792Y273654D01*
X77690Y273637D01*
X77589Y273616D01*
X77488Y273591D01*
X77389Y273562D01*
X77290Y273530D01*
X77193Y273494D01*
X77098Y273454D01*
X77004Y273411D01*
X76912Y273364D01*
X76821Y273314D01*
X76732Y273261D01*
X76646Y273204D01*
X76561Y273145D01*
X76479Y273082D01*
X76400Y273016D01*
X76323Y272947D01*
X76248Y272875D01*
X76176Y272800D01*
X76107Y272723D01*
X76041Y272644D01*
X75978Y272562D01*
X75919Y272477D01*
X75862Y272391D01*
X75809Y272302D01*
X75759Y272211D01*
X75712Y272119D01*
X75669Y272025D01*
X75629Y271930D01*
X75593Y271833D01*
X75561Y271734D01*
X75532Y271635D01*
X75507Y271534D01*
X75486Y271433D01*
X75469Y271331D01*
X75455Y271229D01*
X75446Y271126D01*
X75440Y271022D01*
X75438Y270919D01*
X75440Y270816D01*
X75446Y270712D01*
X75455Y270609D01*
X75469Y270507D01*
X75486Y270405D01*
X75507Y270304D01*
X75532Y270203D01*
X75561Y270104D01*
X75593Y270005D01*
X75629Y269908D01*
X75669Y269813D01*
X75712Y269719D01*
X75759Y269627D01*
X75809Y269536D01*
X75862Y269447D01*
X75919Y269361D01*
X75978Y269276D01*
X76041Y269194D01*
X76107Y269115D01*
X76176Y269038D01*
X76248Y268963D01*
X76323Y268891D01*
X76400Y268822D01*
X76479Y268756D01*
X76561Y268693D01*
X76646Y268634D01*
X76732Y268577D01*
X76821Y268524D01*
X76912Y268474D01*
X77004Y268427D01*
X77098Y268384D01*
X77193Y268344D01*
X77290Y268308D01*
X77389Y268276D01*
X77488Y268247D01*
X77589Y268222D01*
X77690Y268201D01*
X77792Y268184D01*
X77894Y268170D01*
X77997Y268161D01*
X78101Y268155D01*
X78204Y268153D01*
X69529Y261239D02*
X65381Y261239D01*
X65278Y261241D01*
X65174Y261247D01*
X65071Y261256D01*
X64969Y261270D01*
X64867Y261287D01*
X64766Y261308D01*
X64665Y261333D01*
X64566Y261362D01*
X64467Y261394D01*
X64370Y261430D01*
X64275Y261470D01*
X64181Y261513D01*
X64089Y261560D01*
X63998Y261610D01*
X63909Y261663D01*
X63823Y261720D01*
X63739Y261779D01*
X63656Y261842D01*
X63577Y261908D01*
X63500Y261977D01*
X63425Y262049D01*
X63353Y262124D01*
X63284Y262201D01*
X63218Y262280D01*
X63156Y262362D01*
X63096Y262447D01*
X63039Y262533D01*
X62986Y262622D01*
X62936Y262712D01*
X62889Y262805D01*
X62846Y262899D01*
X62806Y262994D01*
X62770Y263091D01*
X62738Y263190D01*
X62709Y263289D01*
X62684Y263389D01*
X62663Y263491D01*
X62646Y263593D01*
X62632Y263695D01*
X62623Y263798D01*
X62617Y263902D01*
X62615Y264005D01*
X62615Y265388D01*
X62614Y265388D02*
X62616Y265491D01*
X62622Y265595D01*
X62631Y265698D01*
X62645Y265800D01*
X62662Y265902D01*
X62683Y266003D01*
X62708Y266104D01*
X62737Y266203D01*
X62769Y266302D01*
X62805Y266399D01*
X62845Y266494D01*
X62888Y266588D01*
X62935Y266680D01*
X62985Y266771D01*
X63038Y266860D01*
X63095Y266946D01*
X63154Y267031D01*
X63217Y267113D01*
X63283Y267192D01*
X63352Y267269D01*
X63424Y267344D01*
X63499Y267416D01*
X63576Y267485D01*
X63655Y267551D01*
X63738Y267614D01*
X63822Y267673D01*
X63908Y267730D01*
X63997Y267783D01*
X64088Y267833D01*
X64180Y267880D01*
X64274Y267923D01*
X64369Y267963D01*
X64466Y267999D01*
X64565Y268031D01*
X64664Y268060D01*
X64765Y268085D01*
X64866Y268106D01*
X64968Y268123D01*
X65070Y268137D01*
X65173Y268146D01*
X65277Y268152D01*
X65380Y268154D01*
X65381Y268153D02*
X69529Y268153D01*
X69529Y273685D01*
X62615Y273685D01*
X78204Y242753D02*
X81661Y242753D01*
X78204Y242753D02*
X78087Y242751D01*
X77971Y242745D01*
X77854Y242735D01*
X77738Y242721D01*
X77623Y242704D01*
X77508Y242682D01*
X77394Y242657D01*
X77281Y242628D01*
X77169Y242594D01*
X77058Y242558D01*
X76949Y242517D01*
X76841Y242473D01*
X76734Y242425D01*
X76629Y242374D01*
X76526Y242319D01*
X76425Y242260D01*
X76326Y242198D01*
X76229Y242133D01*
X76134Y242065D01*
X76042Y241994D01*
X75952Y241919D01*
X75865Y241841D01*
X75780Y241761D01*
X75698Y241678D01*
X75619Y241592D01*
X75543Y241503D01*
X75470Y241412D01*
X75400Y241319D01*
X75334Y241223D01*
X75270Y241125D01*
X75210Y241025D01*
X75153Y240922D01*
X75100Y240818D01*
X75051Y240713D01*
X75005Y240605D01*
X74962Y240497D01*
X74923Y240386D01*
X74889Y240275D01*
X74857Y240163D01*
X74830Y240049D01*
X74806Y239935D01*
X74787Y239819D01*
X74771Y239704D01*
X74759Y239588D01*
X74751Y239471D01*
X74747Y239354D01*
X74747Y239238D01*
X74751Y239121D01*
X74759Y239004D01*
X74771Y238888D01*
X74787Y238773D01*
X74806Y238657D01*
X74830Y238543D01*
X74857Y238429D01*
X74889Y238317D01*
X74923Y238206D01*
X74962Y238095D01*
X75005Y237987D01*
X75051Y237879D01*
X75100Y237774D01*
X75153Y237670D01*
X75210Y237568D01*
X75270Y237467D01*
X75334Y237369D01*
X75400Y237273D01*
X75470Y237180D01*
X75543Y237089D01*
X75619Y237000D01*
X75698Y236914D01*
X75780Y236831D01*
X75865Y236751D01*
X75952Y236673D01*
X76042Y236598D01*
X76134Y236527D01*
X76229Y236459D01*
X76326Y236394D01*
X76425Y236332D01*
X76526Y236273D01*
X76629Y236218D01*
X76734Y236167D01*
X76841Y236119D01*
X76949Y236075D01*
X77058Y236034D01*
X77169Y235998D01*
X77281Y235964D01*
X77394Y235935D01*
X77508Y235910D01*
X77623Y235888D01*
X77738Y235871D01*
X77854Y235857D01*
X77971Y235847D01*
X78087Y235841D01*
X78204Y235839D01*
X81661Y235839D01*
X81661Y248285D01*
X78204Y248285D01*
X78101Y248283D01*
X77997Y248277D01*
X77894Y248268D01*
X77792Y248254D01*
X77690Y248237D01*
X77589Y248216D01*
X77488Y248191D01*
X77389Y248162D01*
X77290Y248130D01*
X77193Y248094D01*
X77098Y248054D01*
X77004Y248011D01*
X76912Y247964D01*
X76821Y247914D01*
X76732Y247861D01*
X76646Y247804D01*
X76561Y247745D01*
X76479Y247682D01*
X76400Y247616D01*
X76323Y247547D01*
X76248Y247475D01*
X76176Y247400D01*
X76107Y247323D01*
X76041Y247244D01*
X75978Y247162D01*
X75919Y247077D01*
X75862Y246991D01*
X75809Y246902D01*
X75759Y246811D01*
X75712Y246719D01*
X75669Y246625D01*
X75629Y246530D01*
X75593Y246433D01*
X75561Y246334D01*
X75532Y246235D01*
X75507Y246134D01*
X75486Y246033D01*
X75469Y245931D01*
X75455Y245829D01*
X75446Y245726D01*
X75440Y245622D01*
X75438Y245519D01*
X75440Y245416D01*
X75446Y245312D01*
X75455Y245209D01*
X75469Y245107D01*
X75486Y245005D01*
X75507Y244904D01*
X75532Y244803D01*
X75561Y244704D01*
X75593Y244605D01*
X75629Y244508D01*
X75669Y244413D01*
X75712Y244319D01*
X75759Y244227D01*
X75809Y244136D01*
X75862Y244047D01*
X75919Y243961D01*
X75978Y243876D01*
X76041Y243794D01*
X76107Y243715D01*
X76176Y243638D01*
X76248Y243563D01*
X76323Y243491D01*
X76400Y243422D01*
X76479Y243356D01*
X76561Y243293D01*
X76646Y243234D01*
X76732Y243177D01*
X76821Y243124D01*
X76912Y243074D01*
X77004Y243027D01*
X77098Y242984D01*
X77193Y242944D01*
X77290Y242908D01*
X77389Y242876D01*
X77488Y242847D01*
X77589Y242822D01*
X77690Y242801D01*
X77792Y242784D01*
X77894Y242770D01*
X77997Y242761D01*
X78101Y242755D01*
X78204Y242753D01*
X69529Y242753D02*
X65381Y242753D01*
X65381Y242754D02*
X65278Y242752D01*
X65174Y242746D01*
X65071Y242737D01*
X64969Y242723D01*
X64867Y242706D01*
X64766Y242685D01*
X64665Y242660D01*
X64566Y242631D01*
X64467Y242599D01*
X64370Y242563D01*
X64275Y242523D01*
X64181Y242480D01*
X64089Y242433D01*
X63998Y242383D01*
X63909Y242330D01*
X63823Y242273D01*
X63739Y242214D01*
X63656Y242151D01*
X63577Y242085D01*
X63500Y242016D01*
X63425Y241944D01*
X63353Y241869D01*
X63284Y241792D01*
X63218Y241713D01*
X63155Y241631D01*
X63096Y241546D01*
X63039Y241460D01*
X62986Y241371D01*
X62936Y241280D01*
X62889Y241188D01*
X62846Y241094D01*
X62806Y240999D01*
X62770Y240902D01*
X62738Y240803D01*
X62709Y240704D01*
X62684Y240604D01*
X62663Y240502D01*
X62646Y240400D01*
X62632Y240298D01*
X62623Y240195D01*
X62617Y240091D01*
X62615Y239988D01*
X62615Y239296D01*
X62617Y239179D01*
X62623Y239063D01*
X62633Y238946D01*
X62647Y238830D01*
X62664Y238715D01*
X62686Y238600D01*
X62711Y238486D01*
X62740Y238373D01*
X62774Y238261D01*
X62810Y238150D01*
X62851Y238041D01*
X62895Y237933D01*
X62943Y237826D01*
X62994Y237721D01*
X63049Y237618D01*
X63108Y237517D01*
X63170Y237418D01*
X63235Y237321D01*
X63303Y237226D01*
X63374Y237134D01*
X63449Y237044D01*
X63527Y236957D01*
X63607Y236872D01*
X63690Y236790D01*
X63776Y236711D01*
X63865Y236635D01*
X63956Y236562D01*
X64049Y236492D01*
X64145Y236426D01*
X64243Y236362D01*
X64343Y236302D01*
X64446Y236245D01*
X64550Y236192D01*
X64655Y236143D01*
X64763Y236097D01*
X64871Y236054D01*
X64982Y236015D01*
X65093Y235981D01*
X65205Y235949D01*
X65319Y235922D01*
X65433Y235898D01*
X65549Y235879D01*
X65664Y235863D01*
X65780Y235851D01*
X65897Y235843D01*
X66014Y235839D01*
X66130Y235839D01*
X66247Y235843D01*
X66364Y235851D01*
X66480Y235863D01*
X66595Y235879D01*
X66711Y235898D01*
X66825Y235922D01*
X66939Y235949D01*
X67051Y235981D01*
X67162Y236015D01*
X67273Y236054D01*
X67381Y236097D01*
X67489Y236143D01*
X67594Y236192D01*
X67698Y236245D01*
X67800Y236302D01*
X67901Y236362D01*
X67999Y236426D01*
X68095Y236492D01*
X68188Y236562D01*
X68279Y236635D01*
X68368Y236711D01*
X68454Y236790D01*
X68537Y236872D01*
X68617Y236957D01*
X68695Y237044D01*
X68770Y237134D01*
X68841Y237226D01*
X68909Y237321D01*
X68974Y237418D01*
X69036Y237517D01*
X69095Y237618D01*
X69150Y237721D01*
X69201Y237826D01*
X69249Y237933D01*
X69293Y238041D01*
X69334Y238150D01*
X69370Y238261D01*
X69404Y238373D01*
X69433Y238486D01*
X69458Y238600D01*
X69480Y238715D01*
X69497Y238830D01*
X69511Y238946D01*
X69521Y239063D01*
X69527Y239179D01*
X69529Y239296D01*
X69529Y242753D01*
X69530Y242753D02*
X69528Y242900D01*
X69522Y243047D01*
X69512Y243194D01*
X69499Y243341D01*
X69481Y243487D01*
X69460Y243633D01*
X69434Y243778D01*
X69405Y243922D01*
X69372Y244066D01*
X69335Y244208D01*
X69294Y244350D01*
X69250Y244490D01*
X69202Y244630D01*
X69150Y244768D01*
X69095Y244904D01*
X69036Y245039D01*
X68973Y245172D01*
X68907Y245304D01*
X68837Y245434D01*
X68764Y245561D01*
X68688Y245687D01*
X68608Y245811D01*
X68525Y245933D01*
X68439Y246052D01*
X68349Y246169D01*
X68257Y246284D01*
X68161Y246396D01*
X68063Y246505D01*
X67961Y246612D01*
X67857Y246716D01*
X67750Y246818D01*
X67641Y246916D01*
X67529Y247012D01*
X67414Y247104D01*
X67297Y247194D01*
X67178Y247280D01*
X67056Y247363D01*
X66932Y247443D01*
X66806Y247519D01*
X66679Y247592D01*
X66549Y247662D01*
X66417Y247728D01*
X66284Y247791D01*
X66149Y247850D01*
X66013Y247905D01*
X65875Y247957D01*
X65736Y248005D01*
X65595Y248049D01*
X65454Y248090D01*
X65311Y248127D01*
X65167Y248160D01*
X65023Y248189D01*
X64878Y248215D01*
X64732Y248236D01*
X64586Y248254D01*
X64439Y248267D01*
X64292Y248277D01*
X64145Y248283D01*
X63998Y248285D01*
X81661Y222885D02*
X77512Y210439D01*
X73364Y222885D01*
X67271Y222885D02*
X67271Y210439D01*
X68654Y210439D02*
X65888Y210439D01*
X65888Y222885D02*
X68654Y222885D01*
X60060Y222885D02*
X60060Y210439D01*
X53146Y210439D02*
X60060Y222885D01*
X53146Y222885D02*
X53146Y210439D01*
X78204Y185039D02*
X81661Y185039D01*
X78204Y185039D02*
X78087Y185041D01*
X77971Y185047D01*
X77854Y185057D01*
X77738Y185071D01*
X77623Y185088D01*
X77508Y185110D01*
X77394Y185135D01*
X77281Y185164D01*
X77169Y185198D01*
X77058Y185234D01*
X76949Y185275D01*
X76841Y185319D01*
X76734Y185367D01*
X76629Y185418D01*
X76526Y185473D01*
X76425Y185532D01*
X76326Y185594D01*
X76229Y185659D01*
X76134Y185727D01*
X76042Y185798D01*
X75952Y185873D01*
X75865Y185951D01*
X75780Y186031D01*
X75698Y186114D01*
X75619Y186200D01*
X75543Y186289D01*
X75470Y186380D01*
X75400Y186473D01*
X75334Y186569D01*
X75270Y186667D01*
X75210Y186768D01*
X75153Y186870D01*
X75100Y186974D01*
X75051Y187079D01*
X75005Y187187D01*
X74962Y187295D01*
X74923Y187406D01*
X74889Y187517D01*
X74857Y187629D01*
X74830Y187743D01*
X74806Y187857D01*
X74787Y187973D01*
X74771Y188088D01*
X74759Y188204D01*
X74751Y188321D01*
X74747Y188438D01*
X74747Y188554D01*
X74751Y188671D01*
X74759Y188788D01*
X74771Y188904D01*
X74787Y189019D01*
X74806Y189135D01*
X74830Y189249D01*
X74857Y189363D01*
X74889Y189475D01*
X74923Y189586D01*
X74962Y189697D01*
X75005Y189805D01*
X75051Y189913D01*
X75100Y190018D01*
X75153Y190122D01*
X75210Y190225D01*
X75270Y190325D01*
X75334Y190423D01*
X75400Y190519D01*
X75470Y190612D01*
X75543Y190703D01*
X75619Y190792D01*
X75698Y190878D01*
X75780Y190961D01*
X75865Y191041D01*
X75952Y191119D01*
X76042Y191194D01*
X76134Y191265D01*
X76229Y191333D01*
X76326Y191398D01*
X76425Y191460D01*
X76526Y191519D01*
X76629Y191574D01*
X76734Y191625D01*
X76841Y191673D01*
X76949Y191717D01*
X77058Y191758D01*
X77169Y191794D01*
X77281Y191828D01*
X77394Y191857D01*
X77508Y191882D01*
X77623Y191904D01*
X77738Y191921D01*
X77854Y191935D01*
X77971Y191945D01*
X78087Y191951D01*
X78204Y191953D01*
X77512Y197485D02*
X81661Y197485D01*
X77512Y197485D02*
X77409Y197483D01*
X77305Y197477D01*
X77202Y197468D01*
X77100Y197454D01*
X76998Y197437D01*
X76897Y197416D01*
X76796Y197391D01*
X76697Y197362D01*
X76598Y197330D01*
X76501Y197294D01*
X76406Y197254D01*
X76312Y197211D01*
X76220Y197164D01*
X76129Y197114D01*
X76040Y197061D01*
X75954Y197004D01*
X75869Y196945D01*
X75787Y196882D01*
X75708Y196816D01*
X75631Y196747D01*
X75556Y196675D01*
X75484Y196600D01*
X75415Y196523D01*
X75349Y196444D01*
X75286Y196362D01*
X75227Y196277D01*
X75170Y196191D01*
X75117Y196102D01*
X75067Y196011D01*
X75020Y195919D01*
X74977Y195825D01*
X74937Y195730D01*
X74901Y195633D01*
X74869Y195534D01*
X74840Y195435D01*
X74815Y195334D01*
X74794Y195233D01*
X74777Y195131D01*
X74763Y195029D01*
X74754Y194926D01*
X74748Y194822D01*
X74746Y194719D01*
X74748Y194616D01*
X74754Y194512D01*
X74763Y194409D01*
X74777Y194307D01*
X74794Y194205D01*
X74815Y194104D01*
X74840Y194003D01*
X74869Y193904D01*
X74901Y193805D01*
X74937Y193708D01*
X74977Y193613D01*
X75020Y193519D01*
X75067Y193427D01*
X75117Y193336D01*
X75170Y193247D01*
X75227Y193161D01*
X75286Y193076D01*
X75349Y192994D01*
X75415Y192915D01*
X75484Y192838D01*
X75556Y192763D01*
X75631Y192691D01*
X75708Y192622D01*
X75787Y192556D01*
X75869Y192493D01*
X75954Y192434D01*
X76040Y192377D01*
X76129Y192324D01*
X76220Y192274D01*
X76312Y192227D01*
X76406Y192184D01*
X76501Y192144D01*
X76598Y192108D01*
X76697Y192076D01*
X76796Y192047D01*
X76897Y192022D01*
X76998Y192001D01*
X77100Y191984D01*
X77202Y191970D01*
X77305Y191961D01*
X77409Y191955D01*
X77512Y191953D01*
X80278Y191953D01*
X69551Y197485D02*
X65402Y185039D01*
X61254Y197485D01*
X56058Y185039D02*
X52601Y185039D01*
X52484Y185041D01*
X52368Y185047D01*
X52251Y185057D01*
X52135Y185071D01*
X52020Y185088D01*
X51905Y185110D01*
X51791Y185135D01*
X51678Y185164D01*
X51566Y185198D01*
X51455Y185234D01*
X51346Y185275D01*
X51238Y185319D01*
X51131Y185367D01*
X51026Y185418D01*
X50923Y185473D01*
X50822Y185532D01*
X50723Y185594D01*
X50626Y185659D01*
X50531Y185727D01*
X50439Y185798D01*
X50349Y185873D01*
X50262Y185951D01*
X50177Y186031D01*
X50095Y186114D01*
X50016Y186200D01*
X49940Y186289D01*
X49867Y186380D01*
X49797Y186473D01*
X49731Y186569D01*
X49667Y186667D01*
X49607Y186768D01*
X49550Y186870D01*
X49497Y186974D01*
X49448Y187079D01*
X49402Y187187D01*
X49359Y187295D01*
X49320Y187406D01*
X49286Y187517D01*
X49254Y187629D01*
X49227Y187743D01*
X49203Y187857D01*
X49184Y187973D01*
X49168Y188088D01*
X49156Y188204D01*
X49148Y188321D01*
X49144Y188438D01*
X49144Y188554D01*
X49148Y188671D01*
X49156Y188788D01*
X49168Y188904D01*
X49184Y189019D01*
X49203Y189135D01*
X49227Y189249D01*
X49254Y189363D01*
X49286Y189475D01*
X49320Y189586D01*
X49359Y189697D01*
X49402Y189805D01*
X49448Y189913D01*
X49497Y190018D01*
X49550Y190122D01*
X49607Y190225D01*
X49667Y190325D01*
X49731Y190423D01*
X49797Y190519D01*
X49867Y190612D01*
X49940Y190703D01*
X50016Y190792D01*
X50095Y190878D01*
X50177Y190961D01*
X50262Y191041D01*
X50349Y191119D01*
X50439Y191194D01*
X50531Y191265D01*
X50626Y191333D01*
X50723Y191398D01*
X50822Y191460D01*
X50923Y191519D01*
X51026Y191574D01*
X51131Y191625D01*
X51238Y191673D01*
X51346Y191717D01*
X51455Y191758D01*
X51566Y191794D01*
X51678Y191828D01*
X51791Y191857D01*
X51905Y191882D01*
X52020Y191904D01*
X52135Y191921D01*
X52251Y191935D01*
X52368Y191945D01*
X52484Y191951D01*
X52601Y191953D01*
X51909Y197485D02*
X56058Y197485D01*
X51909Y197485D02*
X51806Y197483D01*
X51702Y197477D01*
X51599Y197468D01*
X51497Y197454D01*
X51395Y197437D01*
X51294Y197416D01*
X51193Y197391D01*
X51094Y197362D01*
X50995Y197330D01*
X50898Y197294D01*
X50803Y197254D01*
X50709Y197211D01*
X50617Y197164D01*
X50526Y197114D01*
X50437Y197061D01*
X50351Y197004D01*
X50266Y196945D01*
X50184Y196882D01*
X50105Y196816D01*
X50028Y196747D01*
X49953Y196675D01*
X49881Y196600D01*
X49812Y196523D01*
X49746Y196444D01*
X49683Y196362D01*
X49624Y196277D01*
X49567Y196191D01*
X49514Y196102D01*
X49464Y196011D01*
X49417Y195919D01*
X49374Y195825D01*
X49334Y195730D01*
X49298Y195633D01*
X49266Y195534D01*
X49237Y195435D01*
X49212Y195334D01*
X49191Y195233D01*
X49174Y195131D01*
X49160Y195029D01*
X49151Y194926D01*
X49145Y194822D01*
X49143Y194719D01*
X49145Y194616D01*
X49151Y194512D01*
X49160Y194409D01*
X49174Y194307D01*
X49191Y194205D01*
X49212Y194104D01*
X49237Y194003D01*
X49266Y193904D01*
X49298Y193805D01*
X49334Y193708D01*
X49374Y193613D01*
X49417Y193519D01*
X49464Y193427D01*
X49514Y193336D01*
X49567Y193247D01*
X49624Y193161D01*
X49683Y193076D01*
X49746Y192994D01*
X49812Y192915D01*
X49881Y192838D01*
X49953Y192763D01*
X50028Y192691D01*
X50105Y192622D01*
X50184Y192556D01*
X50266Y192493D01*
X50351Y192434D01*
X50437Y192377D01*
X50526Y192324D01*
X50617Y192274D01*
X50709Y192227D01*
X50803Y192184D01*
X50898Y192144D01*
X50995Y192108D01*
X51094Y192076D01*
X51193Y192047D01*
X51294Y192022D01*
X51395Y192001D01*
X51497Y191984D01*
X51599Y191970D01*
X51702Y191961D01*
X51806Y191955D01*
X51909Y191953D01*
X54675Y191953D01*
X74747Y166553D02*
X76821Y166553D01*
X74747Y166553D02*
X74747Y159639D01*
X78895Y159639D01*
X78998Y159641D01*
X79102Y159647D01*
X79205Y159656D01*
X79307Y159670D01*
X79409Y159687D01*
X79510Y159708D01*
X79611Y159733D01*
X79710Y159762D01*
X79809Y159794D01*
X79906Y159830D01*
X80001Y159870D01*
X80095Y159913D01*
X80187Y159960D01*
X80278Y160010D01*
X80367Y160063D01*
X80453Y160120D01*
X80538Y160179D01*
X80620Y160242D01*
X80699Y160308D01*
X80776Y160377D01*
X80851Y160449D01*
X80923Y160524D01*
X80992Y160601D01*
X81058Y160680D01*
X81121Y160762D01*
X81180Y160847D01*
X81237Y160933D01*
X81290Y161022D01*
X81340Y161113D01*
X81387Y161205D01*
X81430Y161299D01*
X81470Y161394D01*
X81506Y161491D01*
X81538Y161590D01*
X81567Y161689D01*
X81592Y161790D01*
X81613Y161891D01*
X81630Y161993D01*
X81644Y162095D01*
X81653Y162198D01*
X81659Y162302D01*
X81661Y162405D01*
X81661Y169319D01*
X81659Y169422D01*
X81653Y169526D01*
X81644Y169629D01*
X81630Y169731D01*
X81613Y169833D01*
X81592Y169934D01*
X81567Y170035D01*
X81538Y170134D01*
X81506Y170233D01*
X81470Y170330D01*
X81430Y170425D01*
X81387Y170519D01*
X81340Y170611D01*
X81290Y170702D01*
X81237Y170791D01*
X81180Y170877D01*
X81121Y170962D01*
X81058Y171044D01*
X80992Y171123D01*
X80923Y171200D01*
X80851Y171275D01*
X80776Y171347D01*
X80699Y171416D01*
X80620Y171482D01*
X80538Y171545D01*
X80453Y171604D01*
X80367Y171661D01*
X80278Y171714D01*
X80187Y171764D01*
X80095Y171811D01*
X80001Y171854D01*
X79906Y171894D01*
X79809Y171930D01*
X79710Y171962D01*
X79611Y171991D01*
X79510Y172016D01*
X79409Y172037D01*
X79307Y172054D01*
X79205Y172068D01*
X79102Y172077D01*
X78998Y172083D01*
X78895Y172085D01*
X74747Y172085D01*
X68006Y172085D02*
X68006Y159639D01*
X61092Y159639D02*
X68006Y172085D01*
X61092Y172085D02*
X61092Y159639D01*
X54351Y159639D02*
X54351Y172085D01*
X50894Y172085D01*
X50778Y172083D01*
X50663Y172077D01*
X50548Y172068D01*
X50433Y172054D01*
X50319Y172037D01*
X50205Y172016D01*
X50093Y171991D01*
X49981Y171962D01*
X49870Y171930D01*
X49760Y171894D01*
X49652Y171854D01*
X49544Y171811D01*
X49439Y171764D01*
X49335Y171713D01*
X49233Y171660D01*
X49132Y171602D01*
X49034Y171542D01*
X48938Y171478D01*
X48843Y171411D01*
X48752Y171341D01*
X48662Y171268D01*
X48575Y171192D01*
X48491Y171113D01*
X48409Y171031D01*
X48330Y170947D01*
X48254Y170860D01*
X48181Y170770D01*
X48111Y170679D01*
X48044Y170584D01*
X47980Y170488D01*
X47920Y170390D01*
X47862Y170289D01*
X47809Y170187D01*
X47758Y170083D01*
X47711Y169978D01*
X47668Y169870D01*
X47628Y169762D01*
X47592Y169652D01*
X47560Y169541D01*
X47531Y169429D01*
X47506Y169317D01*
X47485Y169203D01*
X47468Y169089D01*
X47454Y168974D01*
X47445Y168859D01*
X47439Y168744D01*
X47437Y168628D01*
X47437Y163096D01*
X47439Y162980D01*
X47445Y162865D01*
X47454Y162750D01*
X47468Y162635D01*
X47485Y162521D01*
X47506Y162407D01*
X47531Y162295D01*
X47560Y162183D01*
X47592Y162072D01*
X47628Y161962D01*
X47668Y161854D01*
X47711Y161746D01*
X47758Y161641D01*
X47809Y161537D01*
X47862Y161435D01*
X47920Y161334D01*
X47980Y161236D01*
X48044Y161140D01*
X48111Y161045D01*
X48181Y160954D01*
X48254Y160864D01*
X48330Y160777D01*
X48409Y160693D01*
X48491Y160611D01*
X48575Y160532D01*
X48662Y160456D01*
X48752Y160383D01*
X48843Y160313D01*
X48938Y160246D01*
X49034Y160182D01*
X49132Y160122D01*
X49233Y160064D01*
X49335Y160011D01*
X49439Y159960D01*
X49544Y159913D01*
X49652Y159870D01*
X49760Y159830D01*
X49870Y159794D01*
X49981Y159762D01*
X50093Y159733D01*
X50205Y159708D01*
X50319Y159687D01*
X50433Y159670D01*
X50548Y159656D01*
X50663Y159647D01*
X50778Y159641D01*
X50894Y159639D01*
X54351Y159639D01*
X74747Y141153D02*
X76821Y141153D01*
X74747Y141153D02*
X74747Y134239D01*
X78895Y134239D01*
X78998Y134241D01*
X79102Y134247D01*
X79205Y134256D01*
X79307Y134270D01*
X79409Y134287D01*
X79510Y134308D01*
X79611Y134333D01*
X79710Y134362D01*
X79809Y134394D01*
X79906Y134430D01*
X80001Y134470D01*
X80095Y134513D01*
X80187Y134560D01*
X80278Y134610D01*
X80367Y134663D01*
X80453Y134720D01*
X80538Y134779D01*
X80620Y134842D01*
X80699Y134908D01*
X80776Y134977D01*
X80851Y135049D01*
X80923Y135124D01*
X80992Y135201D01*
X81058Y135280D01*
X81121Y135362D01*
X81180Y135447D01*
X81237Y135533D01*
X81290Y135622D01*
X81340Y135713D01*
X81387Y135805D01*
X81430Y135899D01*
X81470Y135994D01*
X81506Y136091D01*
X81538Y136190D01*
X81567Y136289D01*
X81592Y136390D01*
X81613Y136491D01*
X81630Y136593D01*
X81644Y136695D01*
X81653Y136798D01*
X81659Y136902D01*
X81661Y137005D01*
X81661Y143919D01*
X81659Y144022D01*
X81653Y144126D01*
X81644Y144229D01*
X81630Y144331D01*
X81613Y144433D01*
X81592Y144534D01*
X81567Y144635D01*
X81538Y144734D01*
X81506Y144833D01*
X81470Y144930D01*
X81430Y145025D01*
X81387Y145119D01*
X81340Y145211D01*
X81290Y145302D01*
X81237Y145391D01*
X81180Y145477D01*
X81121Y145562D01*
X81058Y145644D01*
X80992Y145723D01*
X80923Y145800D01*
X80851Y145875D01*
X80776Y145947D01*
X80699Y146016D01*
X80620Y146082D01*
X80538Y146145D01*
X80453Y146204D01*
X80367Y146261D01*
X80278Y146314D01*
X80187Y146364D01*
X80095Y146411D01*
X80001Y146454D01*
X79906Y146494D01*
X79809Y146530D01*
X79710Y146562D01*
X79611Y146591D01*
X79510Y146616D01*
X79409Y146637D01*
X79307Y146654D01*
X79205Y146668D01*
X79102Y146677D01*
X78998Y146683D01*
X78895Y146685D01*
X74747Y146685D01*
X68006Y146685D02*
X68006Y134239D01*
X61092Y134239D02*
X68006Y146685D01*
X61092Y146685D02*
X61092Y134239D01*
X54351Y134239D02*
X54351Y146685D01*
X50894Y146685D01*
X50778Y146683D01*
X50663Y146677D01*
X50548Y146668D01*
X50433Y146654D01*
X50319Y146637D01*
X50205Y146616D01*
X50093Y146591D01*
X49981Y146562D01*
X49870Y146530D01*
X49760Y146494D01*
X49652Y146454D01*
X49544Y146411D01*
X49439Y146364D01*
X49335Y146313D01*
X49233Y146260D01*
X49132Y146202D01*
X49034Y146142D01*
X48938Y146078D01*
X48843Y146011D01*
X48752Y145941D01*
X48662Y145868D01*
X48575Y145792D01*
X48491Y145713D01*
X48409Y145631D01*
X48330Y145547D01*
X48254Y145460D01*
X48181Y145370D01*
X48111Y145279D01*
X48044Y145184D01*
X47980Y145088D01*
X47920Y144990D01*
X47862Y144889D01*
X47809Y144787D01*
X47758Y144683D01*
X47711Y144578D01*
X47668Y144470D01*
X47628Y144362D01*
X47592Y144252D01*
X47560Y144141D01*
X47531Y144029D01*
X47506Y143917D01*
X47485Y143803D01*
X47468Y143689D01*
X47454Y143574D01*
X47445Y143459D01*
X47439Y143344D01*
X47437Y143228D01*
X47437Y137696D01*
X47439Y137580D01*
X47445Y137465D01*
X47454Y137350D01*
X47468Y137235D01*
X47485Y137121D01*
X47506Y137007D01*
X47531Y136895D01*
X47560Y136783D01*
X47592Y136672D01*
X47628Y136562D01*
X47668Y136454D01*
X47711Y136346D01*
X47758Y136241D01*
X47809Y136137D01*
X47862Y136035D01*
X47920Y135934D01*
X47980Y135836D01*
X48044Y135740D01*
X48111Y135645D01*
X48181Y135554D01*
X48254Y135464D01*
X48330Y135377D01*
X48409Y135293D01*
X48491Y135211D01*
X48575Y135132D01*
X48662Y135056D01*
X48752Y134983D01*
X48843Y134913D01*
X48938Y134846D01*
X49034Y134782D01*
X49132Y134722D01*
X49233Y134664D01*
X49335Y134611D01*
X49439Y134560D01*
X49544Y134513D01*
X49652Y134470D01*
X49760Y134430D01*
X49870Y134394D01*
X49981Y134362D01*
X50093Y134333D01*
X50205Y134308D01*
X50319Y134287D01*
X50433Y134270D01*
X50548Y134256D01*
X50663Y134247D01*
X50778Y134241D01*
X50894Y134239D01*
X54351Y134239D01*
X140589Y191389D02*
X153035Y195538D01*
X140589Y199686D01*
X143701Y198649D02*
X143701Y192426D01*
X140589Y205147D02*
X148886Y205147D01*
X148886Y208604D01*
X148884Y208692D01*
X148879Y208780D01*
X148869Y208867D01*
X148856Y208955D01*
X148839Y209041D01*
X148819Y209127D01*
X148795Y209211D01*
X148768Y209295D01*
X148736Y209377D01*
X148702Y209458D01*
X148664Y209538D01*
X148623Y209615D01*
X148578Y209691D01*
X148530Y209765D01*
X148479Y209837D01*
X148426Y209907D01*
X148369Y209974D01*
X148309Y210039D01*
X148247Y210101D01*
X148182Y210161D01*
X148115Y210218D01*
X148045Y210271D01*
X147973Y210322D01*
X147899Y210370D01*
X147823Y210415D01*
X147746Y210456D01*
X147666Y210494D01*
X147585Y210528D01*
X147503Y210560D01*
X147419Y210587D01*
X147335Y210611D01*
X147249Y210631D01*
X147163Y210648D01*
X147075Y210661D01*
X146988Y210671D01*
X146900Y210676D01*
X146812Y210678D01*
X140589Y210678D01*
X140589Y218762D02*
X140589Y221527D01*
X140589Y218762D02*
X140591Y218674D01*
X140596Y218586D01*
X140606Y218499D01*
X140619Y218411D01*
X140636Y218325D01*
X140656Y218239D01*
X140680Y218155D01*
X140707Y218071D01*
X140739Y217989D01*
X140773Y217908D01*
X140811Y217828D01*
X140852Y217751D01*
X140897Y217675D01*
X140945Y217601D01*
X140996Y217529D01*
X141049Y217459D01*
X141106Y217392D01*
X141166Y217327D01*
X141228Y217265D01*
X141293Y217205D01*
X141360Y217148D01*
X141430Y217095D01*
X141502Y217044D01*
X141576Y216996D01*
X141652Y216951D01*
X141729Y216910D01*
X141809Y216872D01*
X141890Y216838D01*
X141972Y216806D01*
X142056Y216779D01*
X142140Y216755D01*
X142226Y216735D01*
X142312Y216718D01*
X142400Y216705D01*
X142487Y216695D01*
X142575Y216690D01*
X142663Y216688D01*
X142663Y216687D02*
X146812Y216687D01*
X146812Y216688D02*
X146900Y216690D01*
X146988Y216695D01*
X147075Y216705D01*
X147163Y216718D01*
X147249Y216735D01*
X147335Y216755D01*
X147419Y216779D01*
X147503Y216806D01*
X147585Y216838D01*
X147666Y216872D01*
X147746Y216910D01*
X147823Y216951D01*
X147899Y216996D01*
X147973Y217044D01*
X148045Y217095D01*
X148115Y217148D01*
X148182Y217205D01*
X148247Y217265D01*
X148309Y217327D01*
X148369Y217392D01*
X148426Y217459D01*
X148479Y217529D01*
X148530Y217601D01*
X148578Y217675D01*
X148623Y217751D01*
X148664Y217828D01*
X148702Y217908D01*
X148736Y217989D01*
X148768Y218071D01*
X148795Y218155D01*
X148819Y218239D01*
X148839Y218325D01*
X148856Y218411D01*
X148869Y218499D01*
X148879Y218586D01*
X148884Y218674D01*
X148886Y218762D01*
X148886Y221527D01*
X153035Y226909D02*
X140589Y226909D01*
X148886Y226909D02*
X148886Y230367D01*
X148884Y230455D01*
X148879Y230543D01*
X148869Y230630D01*
X148856Y230718D01*
X148839Y230804D01*
X148819Y230890D01*
X148795Y230974D01*
X148768Y231058D01*
X148736Y231140D01*
X148702Y231221D01*
X148664Y231301D01*
X148623Y231378D01*
X148578Y231454D01*
X148530Y231528D01*
X148479Y231600D01*
X148426Y231670D01*
X148369Y231737D01*
X148309Y231802D01*
X148247Y231864D01*
X148182Y231924D01*
X148115Y231981D01*
X148045Y232034D01*
X147973Y232085D01*
X147899Y232133D01*
X147823Y232178D01*
X147746Y232219D01*
X147666Y232257D01*
X147585Y232291D01*
X147503Y232323D01*
X147419Y232350D01*
X147335Y232374D01*
X147249Y232394D01*
X147163Y232411D01*
X147075Y232424D01*
X146988Y232434D01*
X146900Y232439D01*
X146812Y232441D01*
X140589Y232441D01*
X140589Y240505D02*
X140589Y243962D01*
X140589Y240505D02*
X140591Y240417D01*
X140596Y240329D01*
X140606Y240242D01*
X140619Y240154D01*
X140636Y240068D01*
X140656Y239982D01*
X140680Y239898D01*
X140707Y239814D01*
X140739Y239732D01*
X140773Y239651D01*
X140811Y239571D01*
X140852Y239494D01*
X140897Y239418D01*
X140945Y239344D01*
X140996Y239272D01*
X141049Y239202D01*
X141106Y239135D01*
X141166Y239070D01*
X141228Y239008D01*
X141293Y238948D01*
X141360Y238891D01*
X141430Y238838D01*
X141502Y238787D01*
X141576Y238739D01*
X141652Y238694D01*
X141729Y238653D01*
X141809Y238615D01*
X141890Y238581D01*
X141972Y238549D01*
X142056Y238522D01*
X142140Y238498D01*
X142226Y238478D01*
X142312Y238461D01*
X142400Y238448D01*
X142487Y238438D01*
X142575Y238433D01*
X142663Y238431D01*
X146121Y238431D01*
X146224Y238433D01*
X146328Y238439D01*
X146431Y238448D01*
X146533Y238462D01*
X146635Y238479D01*
X146736Y238500D01*
X146837Y238525D01*
X146936Y238554D01*
X147035Y238586D01*
X147132Y238622D01*
X147227Y238662D01*
X147321Y238705D01*
X147413Y238752D01*
X147504Y238802D01*
X147593Y238855D01*
X147679Y238912D01*
X147764Y238971D01*
X147846Y239034D01*
X147925Y239100D01*
X148002Y239169D01*
X148077Y239241D01*
X148149Y239316D01*
X148218Y239393D01*
X148284Y239472D01*
X148347Y239554D01*
X148406Y239639D01*
X148463Y239725D01*
X148516Y239814D01*
X148566Y239905D01*
X148613Y239997D01*
X148656Y240091D01*
X148696Y240186D01*
X148732Y240283D01*
X148764Y240382D01*
X148793Y240481D01*
X148818Y240582D01*
X148839Y240683D01*
X148856Y240785D01*
X148870Y240887D01*
X148879Y240990D01*
X148885Y241094D01*
X148887Y241197D01*
X148885Y241300D01*
X148879Y241404D01*
X148870Y241507D01*
X148856Y241609D01*
X148839Y241711D01*
X148818Y241812D01*
X148793Y241913D01*
X148764Y242012D01*
X148732Y242111D01*
X148696Y242208D01*
X148656Y242303D01*
X148613Y242397D01*
X148566Y242489D01*
X148516Y242580D01*
X148463Y242669D01*
X148406Y242755D01*
X148347Y242840D01*
X148284Y242922D01*
X148218Y243001D01*
X148149Y243078D01*
X148077Y243153D01*
X148002Y243225D01*
X147925Y243294D01*
X147846Y243360D01*
X147764Y243423D01*
X147679Y243482D01*
X147593Y243539D01*
X147504Y243592D01*
X147413Y243642D01*
X147321Y243689D01*
X147227Y243732D01*
X147132Y243772D01*
X147035Y243808D01*
X146936Y243840D01*
X146837Y243869D01*
X146736Y243894D01*
X146635Y243915D01*
X146533Y243932D01*
X146431Y243946D01*
X146328Y243955D01*
X146224Y243961D01*
X146121Y243963D01*
X146121Y243962D02*
X144738Y243962D01*
X144738Y238431D01*
X148886Y249952D02*
X140589Y249952D01*
X148886Y249952D02*
X148886Y253410D01*
X148884Y253498D01*
X148879Y253586D01*
X148869Y253673D01*
X148856Y253761D01*
X148839Y253847D01*
X148819Y253933D01*
X148795Y254017D01*
X148768Y254101D01*
X148736Y254183D01*
X148702Y254264D01*
X148664Y254344D01*
X148623Y254421D01*
X148578Y254497D01*
X148530Y254571D01*
X148479Y254643D01*
X148426Y254713D01*
X148369Y254780D01*
X148309Y254845D01*
X148247Y254907D01*
X148182Y254967D01*
X148115Y255024D01*
X148045Y255077D01*
X147973Y255128D01*
X147899Y255176D01*
X147823Y255221D01*
X147746Y255262D01*
X147666Y255300D01*
X147585Y255334D01*
X147503Y255366D01*
X147419Y255393D01*
X147335Y255417D01*
X147249Y255437D01*
X147163Y255454D01*
X147075Y255467D01*
X146988Y255477D01*
X146900Y255482D01*
X146812Y255484D01*
X140589Y255484D01*
X140589Y271067D02*
X153035Y271067D01*
X153035Y267610D02*
X153035Y274524D01*
X146121Y279396D02*
X143355Y279396D01*
X146121Y279396D02*
X146224Y279398D01*
X146328Y279404D01*
X146431Y279413D01*
X146533Y279427D01*
X146635Y279444D01*
X146736Y279465D01*
X146837Y279490D01*
X146936Y279519D01*
X147035Y279551D01*
X147132Y279587D01*
X147227Y279627D01*
X147321Y279670D01*
X147413Y279717D01*
X147504Y279767D01*
X147593Y279820D01*
X147679Y279877D01*
X147764Y279936D01*
X147846Y279999D01*
X147925Y280065D01*
X148002Y280134D01*
X148077Y280206D01*
X148149Y280281D01*
X148218Y280358D01*
X148284Y280437D01*
X148347Y280519D01*
X148406Y280604D01*
X148463Y280690D01*
X148516Y280779D01*
X148566Y280870D01*
X148613Y280962D01*
X148656Y281056D01*
X148696Y281151D01*
X148732Y281248D01*
X148764Y281347D01*
X148793Y281446D01*
X148818Y281547D01*
X148839Y281648D01*
X148856Y281750D01*
X148870Y281852D01*
X148879Y281955D01*
X148885Y282059D01*
X148887Y282162D01*
X148885Y282265D01*
X148879Y282369D01*
X148870Y282472D01*
X148856Y282574D01*
X148839Y282676D01*
X148818Y282777D01*
X148793Y282878D01*
X148764Y282977D01*
X148732Y283076D01*
X148696Y283173D01*
X148656Y283268D01*
X148613Y283362D01*
X148566Y283454D01*
X148516Y283545D01*
X148463Y283634D01*
X148406Y283720D01*
X148347Y283805D01*
X148284Y283887D01*
X148218Y283966D01*
X148149Y284043D01*
X148077Y284118D01*
X148002Y284190D01*
X147925Y284259D01*
X147846Y284325D01*
X147764Y284388D01*
X147679Y284447D01*
X147593Y284504D01*
X147504Y284557D01*
X147413Y284607D01*
X147321Y284654D01*
X147227Y284697D01*
X147132Y284737D01*
X147035Y284773D01*
X146936Y284805D01*
X146837Y284834D01*
X146736Y284859D01*
X146635Y284880D01*
X146533Y284897D01*
X146431Y284911D01*
X146328Y284920D01*
X146224Y284926D01*
X146121Y284928D01*
X143355Y284928D01*
X143252Y284926D01*
X143148Y284920D01*
X143045Y284911D01*
X142943Y284897D01*
X142841Y284880D01*
X142740Y284859D01*
X142639Y284834D01*
X142540Y284805D01*
X142441Y284773D01*
X142344Y284737D01*
X142249Y284697D01*
X142155Y284654D01*
X142063Y284607D01*
X141972Y284557D01*
X141883Y284504D01*
X141797Y284447D01*
X141712Y284388D01*
X141630Y284325D01*
X141551Y284259D01*
X141474Y284190D01*
X141399Y284118D01*
X141327Y284043D01*
X141258Y283966D01*
X141192Y283887D01*
X141129Y283805D01*
X141070Y283720D01*
X141013Y283634D01*
X140960Y283545D01*
X140910Y283454D01*
X140863Y283362D01*
X140820Y283268D01*
X140780Y283173D01*
X140744Y283076D01*
X140712Y282977D01*
X140683Y282878D01*
X140658Y282777D01*
X140637Y282676D01*
X140620Y282574D01*
X140606Y282472D01*
X140597Y282369D01*
X140591Y282265D01*
X140589Y282162D01*
X140591Y282059D01*
X140597Y281955D01*
X140606Y281852D01*
X140620Y281750D01*
X140637Y281648D01*
X140658Y281547D01*
X140683Y281446D01*
X140712Y281347D01*
X140744Y281248D01*
X140780Y281151D01*
X140820Y281056D01*
X140863Y280962D01*
X140910Y280870D01*
X140960Y280779D01*
X141013Y280690D01*
X141070Y280604D01*
X141129Y280519D01*
X141192Y280437D01*
X141258Y280358D01*
X141327Y280281D01*
X141399Y280206D01*
X141474Y280134D01*
X141551Y280065D01*
X141630Y279999D01*
X141712Y279936D01*
X141797Y279877D01*
X141883Y279820D01*
X141972Y279767D01*
X142063Y279717D01*
X142155Y279670D01*
X142249Y279627D01*
X142344Y279587D01*
X142441Y279551D01*
X142540Y279519D01*
X142639Y279490D01*
X142740Y279465D01*
X142841Y279444D01*
X142943Y279427D01*
X143045Y279413D01*
X143148Y279404D01*
X143252Y279398D01*
X143355Y279396D01*
X140589Y290917D02*
X148886Y290917D01*
X148886Y294375D01*
X148884Y294463D01*
X148879Y294551D01*
X148869Y294638D01*
X148856Y294726D01*
X148839Y294812D01*
X148819Y294898D01*
X148795Y294982D01*
X148768Y295066D01*
X148736Y295148D01*
X148702Y295229D01*
X148664Y295309D01*
X148623Y295386D01*
X148578Y295462D01*
X148530Y295536D01*
X148479Y295608D01*
X148426Y295678D01*
X148369Y295745D01*
X148309Y295810D01*
X148247Y295872D01*
X148182Y295932D01*
X148115Y295989D01*
X148045Y296042D01*
X147973Y296093D01*
X147899Y296141D01*
X147823Y296186D01*
X147746Y296227D01*
X147666Y296265D01*
X147585Y296299D01*
X147503Y296331D01*
X147419Y296358D01*
X147335Y296382D01*
X147249Y296402D01*
X147163Y296419D01*
X147075Y296432D01*
X146988Y296442D01*
X146900Y296447D01*
X146812Y296449D01*
X140589Y296449D01*
X140589Y304429D02*
X140589Y307886D01*
X140589Y304429D02*
X140591Y304341D01*
X140596Y304253D01*
X140606Y304166D01*
X140619Y304078D01*
X140636Y303992D01*
X140656Y303906D01*
X140680Y303822D01*
X140707Y303738D01*
X140739Y303656D01*
X140773Y303575D01*
X140811Y303495D01*
X140852Y303418D01*
X140897Y303342D01*
X140945Y303268D01*
X140996Y303196D01*
X141049Y303126D01*
X141106Y303059D01*
X141166Y302994D01*
X141228Y302932D01*
X141293Y302872D01*
X141360Y302815D01*
X141430Y302762D01*
X141502Y302711D01*
X141576Y302663D01*
X141652Y302618D01*
X141729Y302577D01*
X141809Y302539D01*
X141890Y302505D01*
X141972Y302473D01*
X142056Y302446D01*
X142140Y302422D01*
X142226Y302402D01*
X142312Y302385D01*
X142400Y302372D01*
X142487Y302362D01*
X142575Y302357D01*
X142663Y302355D01*
X142663Y302354D02*
X146812Y302354D01*
X146812Y302355D02*
X146900Y302357D01*
X146988Y302362D01*
X147075Y302372D01*
X147163Y302385D01*
X147249Y302402D01*
X147335Y302422D01*
X147419Y302446D01*
X147503Y302473D01*
X147585Y302505D01*
X147666Y302539D01*
X147746Y302577D01*
X147823Y302618D01*
X147899Y302663D01*
X147973Y302711D01*
X148045Y302762D01*
X148115Y302815D01*
X148182Y302872D01*
X148247Y302932D01*
X148309Y302994D01*
X148369Y303059D01*
X148426Y303126D01*
X148479Y303196D01*
X148530Y303268D01*
X148578Y303342D01*
X148623Y303418D01*
X148664Y303495D01*
X148702Y303575D01*
X148736Y303656D01*
X148768Y303738D01*
X148795Y303822D01*
X148819Y303906D01*
X148839Y303992D01*
X148856Y304078D01*
X148869Y304166D01*
X148879Y304253D01*
X148884Y304341D01*
X148886Y304429D01*
X148886Y307886D01*
X138515Y307886D01*
X138515Y307885D02*
X138425Y307883D01*
X138334Y307877D01*
X138244Y307867D01*
X138155Y307853D01*
X138066Y307836D01*
X137978Y307814D01*
X137891Y307789D01*
X137806Y307760D01*
X137721Y307727D01*
X137639Y307691D01*
X137557Y307651D01*
X137478Y307607D01*
X137401Y307560D01*
X137325Y307510D01*
X137252Y307456D01*
X137182Y307400D01*
X137114Y307340D01*
X137048Y307278D01*
X136986Y307212D01*
X136926Y307144D01*
X136870Y307074D01*
X136816Y307001D01*
X136766Y306925D01*
X136719Y306848D01*
X136675Y306769D01*
X136635Y306688D01*
X136599Y306605D01*
X136566Y306520D01*
X136537Y306435D01*
X136512Y306348D01*
X136490Y306260D01*
X136473Y306171D01*
X136459Y306082D01*
X136449Y305992D01*
X136443Y305902D01*
X136441Y305811D01*
X136440Y305812D02*
X136440Y303046D01*
X140589Y321539D02*
X153035Y321539D01*
X146121Y325687D01*
X153035Y329836D01*
X140589Y329836D01*
X140589Y336771D02*
X140589Y342302D01*
X140589Y336771D02*
X153035Y336771D01*
X153035Y342302D01*
X147503Y340919D02*
X147503Y336771D01*
X143355Y347406D02*
X153035Y350172D01*
X143355Y347406D02*
X143355Y354321D01*
X146121Y352246D02*
X140589Y352246D01*
X140589Y360208D02*
X140589Y363665D01*
X140591Y363782D01*
X140597Y363898D01*
X140607Y364015D01*
X140621Y364131D01*
X140638Y364246D01*
X140660Y364361D01*
X140685Y364475D01*
X140714Y364588D01*
X140748Y364700D01*
X140784Y364811D01*
X140825Y364920D01*
X140869Y365028D01*
X140917Y365135D01*
X140968Y365240D01*
X141023Y365343D01*
X141082Y365444D01*
X141144Y365543D01*
X141209Y365640D01*
X141277Y365735D01*
X141348Y365827D01*
X141423Y365917D01*
X141501Y366004D01*
X141581Y366089D01*
X141664Y366171D01*
X141750Y366250D01*
X141839Y366326D01*
X141930Y366399D01*
X142023Y366469D01*
X142119Y366535D01*
X142217Y366599D01*
X142318Y366659D01*
X142420Y366716D01*
X142524Y366769D01*
X142629Y366818D01*
X142737Y366864D01*
X142845Y366907D01*
X142956Y366946D01*
X143067Y366980D01*
X143179Y367012D01*
X143293Y367039D01*
X143407Y367063D01*
X143523Y367082D01*
X143638Y367098D01*
X143754Y367110D01*
X143871Y367118D01*
X143988Y367122D01*
X144104Y367122D01*
X144221Y367118D01*
X144338Y367110D01*
X144454Y367098D01*
X144569Y367082D01*
X144685Y367063D01*
X144799Y367039D01*
X144913Y367012D01*
X145025Y366980D01*
X145136Y366946D01*
X145247Y366907D01*
X145355Y366864D01*
X145463Y366818D01*
X145568Y366769D01*
X145672Y366716D01*
X145775Y366659D01*
X145875Y366599D01*
X145973Y366535D01*
X146069Y366469D01*
X146162Y366399D01*
X146253Y366326D01*
X146342Y366250D01*
X146428Y366171D01*
X146511Y366089D01*
X146591Y366004D01*
X146669Y365917D01*
X146744Y365827D01*
X146815Y365735D01*
X146883Y365640D01*
X146948Y365543D01*
X147010Y365444D01*
X147069Y365343D01*
X147124Y365240D01*
X147175Y365135D01*
X147223Y365028D01*
X147267Y364920D01*
X147308Y364811D01*
X147344Y364700D01*
X147378Y364588D01*
X147407Y364475D01*
X147432Y364361D01*
X147454Y364246D01*
X147471Y364131D01*
X147485Y364015D01*
X147495Y363898D01*
X147501Y363782D01*
X147503Y363665D01*
X153035Y364357D02*
X153035Y360208D01*
X153035Y364357D02*
X153033Y364460D01*
X153027Y364564D01*
X153018Y364667D01*
X153004Y364769D01*
X152987Y364871D01*
X152966Y364972D01*
X152941Y365073D01*
X152912Y365172D01*
X152880Y365271D01*
X152844Y365368D01*
X152804Y365463D01*
X152761Y365557D01*
X152714Y365649D01*
X152664Y365740D01*
X152611Y365829D01*
X152554Y365915D01*
X152495Y366000D01*
X152432Y366082D01*
X152366Y366161D01*
X152297Y366238D01*
X152225Y366313D01*
X152150Y366385D01*
X152073Y366454D01*
X151994Y366520D01*
X151912Y366583D01*
X151827Y366642D01*
X151741Y366699D01*
X151652Y366752D01*
X151561Y366802D01*
X151469Y366849D01*
X151375Y366892D01*
X151280Y366932D01*
X151183Y366968D01*
X151084Y367000D01*
X150985Y367029D01*
X150884Y367054D01*
X150783Y367075D01*
X150681Y367092D01*
X150579Y367106D01*
X150476Y367115D01*
X150372Y367121D01*
X150269Y367123D01*
X150166Y367121D01*
X150062Y367115D01*
X149959Y367106D01*
X149857Y367092D01*
X149755Y367075D01*
X149654Y367054D01*
X149553Y367029D01*
X149454Y367000D01*
X149355Y366968D01*
X149258Y366932D01*
X149163Y366892D01*
X149069Y366849D01*
X148977Y366802D01*
X148886Y366752D01*
X148797Y366699D01*
X148711Y366642D01*
X148626Y366583D01*
X148544Y366520D01*
X148465Y366454D01*
X148388Y366385D01*
X148313Y366313D01*
X148241Y366238D01*
X148172Y366161D01*
X148106Y366082D01*
X148043Y366000D01*
X147984Y365915D01*
X147927Y365829D01*
X147874Y365740D01*
X147824Y365649D01*
X147777Y365557D01*
X147734Y365463D01*
X147694Y365368D01*
X147658Y365271D01*
X147626Y365172D01*
X147597Y365073D01*
X147572Y364972D01*
X147551Y364871D01*
X147534Y364769D01*
X147520Y364667D01*
X147511Y364564D01*
X147505Y364460D01*
X147503Y364357D01*
X147503Y361591D01*
X140589Y373010D02*
X140589Y376467D01*
X140591Y376584D01*
X140597Y376700D01*
X140607Y376817D01*
X140621Y376933D01*
X140638Y377048D01*
X140660Y377163D01*
X140685Y377277D01*
X140714Y377390D01*
X140748Y377502D01*
X140784Y377613D01*
X140825Y377722D01*
X140869Y377830D01*
X140917Y377937D01*
X140968Y378042D01*
X141023Y378145D01*
X141082Y378246D01*
X141144Y378345D01*
X141209Y378442D01*
X141277Y378537D01*
X141348Y378629D01*
X141423Y378719D01*
X141501Y378806D01*
X141581Y378891D01*
X141664Y378973D01*
X141750Y379052D01*
X141839Y379128D01*
X141930Y379201D01*
X142023Y379271D01*
X142119Y379337D01*
X142217Y379401D01*
X142318Y379461D01*
X142420Y379518D01*
X142524Y379571D01*
X142629Y379620D01*
X142737Y379666D01*
X142845Y379709D01*
X142956Y379748D01*
X143067Y379782D01*
X143179Y379814D01*
X143293Y379841D01*
X143407Y379865D01*
X143523Y379884D01*
X143638Y379900D01*
X143754Y379912D01*
X143871Y379920D01*
X143988Y379924D01*
X144104Y379924D01*
X144221Y379920D01*
X144338Y379912D01*
X144454Y379900D01*
X144569Y379884D01*
X144685Y379865D01*
X144799Y379841D01*
X144913Y379814D01*
X145025Y379782D01*
X145136Y379748D01*
X145247Y379709D01*
X145355Y379666D01*
X145463Y379620D01*
X145568Y379571D01*
X145672Y379518D01*
X145775Y379461D01*
X145875Y379401D01*
X145973Y379337D01*
X146069Y379271D01*
X146162Y379201D01*
X146253Y379128D01*
X146342Y379052D01*
X146428Y378973D01*
X146511Y378891D01*
X146591Y378806D01*
X146669Y378719D01*
X146744Y378629D01*
X146815Y378537D01*
X146883Y378442D01*
X146948Y378345D01*
X147010Y378246D01*
X147069Y378145D01*
X147124Y378042D01*
X147175Y377937D01*
X147223Y377830D01*
X147267Y377722D01*
X147308Y377613D01*
X147344Y377502D01*
X147378Y377390D01*
X147407Y377277D01*
X147432Y377163D01*
X147454Y377048D01*
X147471Y376933D01*
X147485Y376817D01*
X147495Y376700D01*
X147501Y376584D01*
X147503Y376467D01*
X153035Y377158D02*
X153035Y373010D01*
X153035Y377158D02*
X153033Y377261D01*
X153027Y377365D01*
X153018Y377468D01*
X153004Y377570D01*
X152987Y377672D01*
X152966Y377773D01*
X152941Y377874D01*
X152912Y377973D01*
X152880Y378072D01*
X152844Y378169D01*
X152804Y378264D01*
X152761Y378358D01*
X152714Y378450D01*
X152664Y378541D01*
X152611Y378630D01*
X152554Y378716D01*
X152495Y378801D01*
X152432Y378883D01*
X152366Y378962D01*
X152297Y379039D01*
X152225Y379114D01*
X152150Y379186D01*
X152073Y379255D01*
X151994Y379321D01*
X151912Y379384D01*
X151827Y379443D01*
X151741Y379500D01*
X151652Y379553D01*
X151561Y379603D01*
X151469Y379650D01*
X151375Y379693D01*
X151280Y379733D01*
X151183Y379769D01*
X151084Y379801D01*
X150985Y379830D01*
X150884Y379855D01*
X150783Y379876D01*
X150681Y379893D01*
X150579Y379907D01*
X150476Y379916D01*
X150372Y379922D01*
X150269Y379924D01*
X150166Y379922D01*
X150062Y379916D01*
X149959Y379907D01*
X149857Y379893D01*
X149755Y379876D01*
X149654Y379855D01*
X149553Y379830D01*
X149454Y379801D01*
X149355Y379769D01*
X149258Y379733D01*
X149163Y379693D01*
X149069Y379650D01*
X148977Y379603D01*
X148886Y379553D01*
X148797Y379500D01*
X148711Y379443D01*
X148626Y379384D01*
X148544Y379321D01*
X148465Y379255D01*
X148388Y379186D01*
X148313Y379114D01*
X148241Y379039D01*
X148172Y378962D01*
X148106Y378883D01*
X148043Y378801D01*
X147984Y378716D01*
X147927Y378630D01*
X147874Y378541D01*
X147824Y378450D01*
X147777Y378358D01*
X147734Y378264D01*
X147694Y378169D01*
X147658Y378072D01*
X147626Y377973D01*
X147597Y377874D01*
X147572Y377773D01*
X147551Y377672D01*
X147534Y377570D01*
X147520Y377468D01*
X147511Y377365D01*
X147505Y377261D01*
X147503Y377158D01*
X147503Y374392D01*
X153035Y393065D02*
X140589Y393065D01*
X147503Y393065D02*
X147503Y399980D01*
X153035Y399980D02*
X140589Y399980D01*
X140589Y408692D02*
X153035Y405926D01*
X148886Y411458D02*
X140589Y408692D01*
X140589Y414223D02*
X148886Y411458D01*
X153035Y416989D02*
X140589Y414223D01*
X143355Y422509D02*
X153035Y425275D01*
X143355Y422509D02*
X143355Y429423D01*
X146121Y427349D02*
X140589Y427349D01*
D11*
X352743Y278638D03*
D12*
X352743Y278765D03*
D13*
X352743Y278892D03*
D14*
X352743Y279019D03*
D15*
X352743Y279146D03*
D16*
X352743Y279273D03*
D17*
X352679Y279400D03*
D18*
X352743Y279527D03*
D19*
X352743Y279654D03*
D14*
X356172Y279781D03*
D20*
X347472Y279781D03*
D21*
X358267Y279908D03*
D22*
X352806Y279908D03*
D21*
X347218Y279908D03*
D23*
X358521Y280035D03*
D22*
X352806Y280035D03*
D24*
X347028Y280035D03*
D25*
X358712Y280162D03*
D22*
X352806Y280162D03*
D26*
X348679Y280162D03*
D27*
X344742Y280162D03*
D28*
X358902Y280289D03*
D22*
X352806Y280289D03*
D27*
X348933Y280289D03*
D22*
X344297Y280289D03*
D29*
X360617Y280416D03*
D30*
X356426Y280416D03*
D31*
X352743Y280416D03*
X349060Y280416D03*
D27*
X343980Y280416D03*
D32*
X361061Y280543D03*
D30*
X356426Y280543D03*
D31*
X352743Y280543D03*
D33*
X349123Y280543D03*
D34*
X343662Y280543D03*
D29*
X361252Y280670D03*
D33*
X356489Y280670D03*
D31*
X352743Y280670D03*
D35*
X349250Y280670D03*
D36*
X343472Y280670D03*
D37*
X361506Y280797D03*
D33*
X356489Y280797D03*
D31*
X352743Y280797D03*
D38*
X349314Y280797D03*
D26*
X343218Y280797D03*
D39*
X362395Y280924D03*
D11*
X359601Y280924D03*
D31*
X356553Y280924D03*
X352743Y280924D03*
D40*
X349377Y280924D03*
D41*
X342964Y280924D03*
D42*
X362839Y281051D03*
D43*
X359537Y281051D03*
D22*
X356489Y281051D03*
D31*
X352743Y281051D03*
D40*
X349377Y281051D03*
D44*
X342773Y281051D03*
D41*
X363030Y281178D03*
D45*
X359601Y281178D03*
D27*
X356553Y281178D03*
D31*
X352743Y281178D03*
D46*
X349441Y281178D03*
D47*
X346520Y281178D03*
D48*
X342646Y281178D03*
X363093Y281305D03*
D45*
X359601Y281305D03*
D27*
X356553Y281305D03*
D31*
X352743Y281305D03*
D49*
X349504Y281305D03*
D11*
X346520Y281305D03*
D50*
X342456Y281305D03*
D51*
X363284Y281432D03*
D52*
X359664Y281432D03*
D27*
X356553Y281432D03*
D31*
X352743Y281432D03*
D49*
X349504Y281432D03*
D53*
X346520Y281432D03*
D32*
X342265Y281432D03*
D29*
X363411Y281559D03*
D47*
X359601Y281559D03*
D34*
X356616Y281559D03*
D33*
X352679Y281559D03*
D54*
X349568Y281559D03*
X346520Y281559D03*
D29*
X342075Y281559D03*
D37*
X363538Y281686D03*
D55*
X359664Y281686D03*
D34*
X356616Y281686D03*
D33*
X352679Y281686D03*
D54*
X349568Y281686D03*
D49*
X346583Y281686D03*
D30*
X343218Y281686D03*
D40*
X340487Y281686D03*
D34*
X364744Y281813D03*
D49*
X361950Y281813D03*
D55*
X359664Y281813D03*
D36*
X356680Y281813D03*
D33*
X352679Y281813D03*
D56*
X349631Y281813D03*
D40*
X346583Y281813D03*
D38*
X343218Y281813D03*
D40*
X340233Y281813D03*
D34*
X364998Y281940D03*
D46*
X361887Y281940D03*
D55*
X359664Y281940D03*
D36*
X356680Y281940D03*
D33*
X352679Y281940D03*
D56*
X349631Y281940D03*
D40*
X346583Y281940D03*
D38*
X343218Y281940D03*
D40*
X339979Y281940D03*
D27*
X365316Y282067D03*
D46*
X361887Y282067D03*
D57*
X359664Y282067D03*
D58*
X356743Y282067D03*
D33*
X352679Y282067D03*
D56*
X349631Y282067D03*
D35*
X346583Y282067D03*
D40*
X343281Y282067D03*
D35*
X339852Y282067D03*
D34*
X365506Y282194D03*
D46*
X361887Y282194D03*
D57*
X359664Y282194D03*
D26*
X356680Y282194D03*
D33*
X352679Y282194D03*
D56*
X349631Y282194D03*
D35*
X346583Y282194D03*
D40*
X343281Y282194D03*
D31*
X339789Y282194D03*
D26*
X365570Y282321D03*
D46*
X361887Y282321D03*
D59*
X359728Y282321D03*
D42*
X356743Y282321D03*
D33*
X352679Y282321D03*
D56*
X349631Y282321D03*
D30*
X346647Y282321D03*
D46*
X343345Y282321D03*
D27*
X339662Y282321D03*
D42*
X365633Y282448D03*
D40*
X361823Y282448D03*
D59*
X359728Y282448D03*
D42*
X356743Y282448D03*
D33*
X352679Y282448D03*
D56*
X349631Y282448D03*
D30*
X346647Y282448D03*
D46*
X343345Y282448D03*
D36*
X339662Y282448D03*
D44*
X365760Y282575D03*
D40*
X361823Y282575D03*
D60*
X359664Y282575D03*
D42*
X356743Y282575D03*
D33*
X352679Y282575D03*
D53*
X349695Y282575D03*
D30*
X346647Y282575D03*
D49*
X343408Y282575D03*
D26*
X339535Y282575D03*
D48*
X365887Y282702D03*
D40*
X361823Y282702D03*
D41*
X356807Y282702D03*
D30*
X352743Y282702D03*
D53*
X349695Y282702D03*
D30*
X346647Y282702D03*
D49*
X343408Y282702D03*
D44*
X339471Y282702D03*
D61*
X366014Y282829D03*
D40*
X361823Y282829D03*
D41*
X356807Y282829D03*
D35*
X352679Y282829D03*
D56*
X349631Y282829D03*
D30*
X346647Y282829D03*
D54*
X343472Y282829D03*
D48*
X339344Y282829D03*
D51*
X366078Y282956D03*
D38*
X361760Y282956D03*
D44*
X356870Y282956D03*
D35*
X352679Y282956D03*
D56*
X349631Y282956D03*
D35*
X346583Y282956D03*
D54*
X343472Y282956D03*
D30*
X340297Y282956D03*
D54*
X338011Y282956D03*
D30*
X367348Y283083D03*
D46*
X364808Y283083D03*
D38*
X361760Y283083D03*
D44*
X356870Y283083D03*
D35*
X352679Y283083D03*
D56*
X349631Y283083D03*
D38*
X346647Y283083D03*
D56*
X343535Y283083D03*
D38*
X340424Y283083D03*
D54*
X337757Y283083D03*
D35*
X367665Y283210D03*
D56*
X364871Y283210D03*
D38*
X361760Y283210D03*
D41*
X356807Y283210D03*
D35*
X352679Y283210D03*
D56*
X349631Y283210D03*
D38*
X346647Y283210D03*
D54*
X343599Y283210D03*
D40*
X340614Y283210D03*
D54*
X337503Y283210D03*
D38*
X367856Y283337D03*
D11*
X364935Y283337D03*
D38*
X361760Y283337D03*
D42*
X356743Y283337D03*
D35*
X352679Y283337D03*
D56*
X349631Y283337D03*
D46*
X346647Y283337D03*
D56*
X343662Y283337D03*
D49*
X340741Y283337D03*
X337439Y283337D03*
D30*
X367983Y283464D03*
D52*
X364998Y283464D03*
D38*
X361760Y283464D03*
D26*
X356553Y283464D03*
D47*
X353505Y283464D03*
D53*
X352235Y283464D03*
D54*
X349568Y283464D03*
D46*
X346647Y283464D03*
D56*
X343662Y283464D03*
D54*
X340932Y283464D03*
D40*
X337312Y283464D03*
D31*
X367983Y283591D03*
D57*
X365125Y283591D03*
D38*
X361633Y283591D03*
D60*
X359537Y283591D03*
D58*
X356489Y283591D03*
D53*
X352235Y283591D03*
D54*
X349568Y283591D03*
X346647Y283591D03*
D56*
X343789Y283591D03*
D53*
X341059Y283591D03*
D35*
X337312Y283591D03*
D34*
X368046Y283718D03*
D38*
X361633Y283718D03*
D60*
X359410Y283718D03*
D30*
X356807Y283718D03*
D53*
X352235Y283718D03*
D49*
X349504Y283718D03*
D53*
X346647Y283718D03*
D56*
X343789Y283718D03*
D62*
X341249Y283718D03*
D33*
X337185Y283718D03*
D58*
X368046Y283845D03*
D38*
X361633Y283845D03*
D59*
X359347Y283845D03*
D40*
X356743Y283845D03*
D62*
X352171Y283845D03*
D49*
X349504Y283845D03*
D43*
X346710Y283845D03*
D56*
X343916Y283845D03*
D43*
X341376Y283845D03*
D22*
X337185Y283845D03*
D41*
X368110Y283972D03*
D38*
X361633Y283972D03*
D57*
X359283Y283972D03*
D46*
X356680Y283972D03*
D62*
X352171Y283972D03*
D46*
X349441Y283972D03*
D59*
X346647Y283972D03*
D54*
X343980Y283972D03*
D45*
X341567Y283972D03*
D34*
X337058Y283972D03*
D39*
X368110Y284099D03*
D59*
X363919Y284099D03*
D35*
X361569Y284099D03*
D63*
X359220Y284099D03*
D49*
X356616Y284099D03*
D62*
X352171Y284099D03*
D46*
X349441Y284099D03*
D56*
X344043Y284099D03*
D47*
X341694Y284099D03*
D58*
X337058Y284099D03*
D50*
X368237Y284226D03*
D55*
X364109Y284226D03*
D35*
X361569Y284226D03*
D55*
X359029Y284226D03*
D54*
X356553Y284226D03*
D62*
X352171Y284226D03*
D40*
X349377Y284226D03*
D54*
X344107Y284226D03*
D55*
X341884Y284226D03*
D42*
X336931Y284226D03*
D51*
X368237Y284353D03*
D52*
X364109Y284353D03*
D35*
X361569Y284353D03*
D47*
X358966Y284353D03*
D53*
X356426Y284353D03*
D64*
X350901Y284353D03*
D54*
X344234Y284353D03*
D63*
X342075Y284353D03*
D44*
X336931Y284353D03*
D29*
X368237Y284480D03*
D52*
X364109Y284480D03*
D35*
X361569Y284480D03*
D52*
X358902Y284480D03*
D62*
X356362Y284480D03*
D23*
X351409Y284480D03*
D46*
X344361Y284480D03*
D59*
X342202Y284480D03*
X340170Y284480D03*
D39*
X336868Y284480D03*
D65*
X368300Y284607D03*
D47*
X364046Y284607D03*
D30*
X361506Y284607D03*
D45*
X358839Y284607D03*
D66*
X352362Y284607D03*
D46*
X344488Y284607D03*
D63*
X340297Y284607D03*
D61*
X336804Y284607D03*
D64*
X368300Y284734D03*
D55*
X363982Y284734D03*
D30*
X361506Y284734D03*
D43*
X358775Y284734D03*
D67*
X352171Y284734D03*
D38*
X344615Y284734D03*
D55*
X340487Y284734D03*
D51*
X336741Y284734D03*
D68*
X368300Y284861D03*
D63*
X363919Y284861D03*
D30*
X361506Y284861D03*
D43*
X358648Y284861D03*
D69*
X352171Y284861D03*
D30*
X344869Y284861D03*
D52*
X340614Y284861D03*
D29*
X336741Y284861D03*
D70*
X368364Y284988D03*
D57*
X363855Y284988D03*
D30*
X361506Y284988D03*
D62*
X358521Y284988D03*
D71*
X350647Y284988D03*
D45*
X340805Y284988D03*
D37*
X336614Y284988D03*
D72*
X368364Y285115D03*
D57*
X363855Y285115D03*
D30*
X361506Y285115D03*
D73*
X351473Y285115D03*
D11*
X340932Y285115D03*
D74*
X336614Y285115D03*
D75*
X368364Y285242D03*
D59*
X363792Y285242D03*
D33*
X361442Y285242D03*
D73*
X351473Y285242D03*
D62*
X341122Y285242D03*
D76*
X336614Y285242D03*
D77*
X368427Y285369D03*
D60*
X363728Y285369D03*
D33*
X361442Y285369D03*
D73*
X351600Y285369D03*
D56*
X341249Y285369D03*
D12*
X336487Y285369D03*
D78*
X368427Y285496D03*
D33*
X361442Y285496D03*
D79*
X356045Y285496D03*
D28*
X347599Y285496D03*
D54*
X341440Y285496D03*
D70*
X336487Y285496D03*
D28*
X368427Y285623D03*
D80*
X357569Y285623D03*
D20*
X346964Y285623D03*
D46*
X341567Y285623D03*
D81*
X336423Y285623D03*
D82*
X368427Y285750D03*
D72*
X359601Y285750D03*
D27*
X353886Y285750D03*
D37*
X346520Y285750D03*
D40*
X341757Y285750D03*
D21*
X336423Y285750D03*
D83*
X368427Y285877D03*
D76*
X359982Y285877D03*
D27*
X353886Y285877D03*
D51*
X346012Y285877D03*
D35*
X341884Y285877D03*
D75*
X336360Y285877D03*
D84*
X368427Y286004D03*
D85*
X360299Y286004D03*
D34*
X353949Y286004D03*
D24*
X344234Y286004D03*
X336360Y286004D03*
D86*
X368491Y286131D03*
D61*
X360553Y286131D03*
D34*
X353949Y286131D03*
D72*
X343980Y286131D03*
D25*
X336233Y286131D03*
D87*
X368491Y286258D03*
D41*
X360744Y286258D03*
D27*
X354013Y286258D03*
D68*
X343789Y286258D03*
D88*
X336233Y286258D03*
D66*
X368491Y286385D03*
D36*
X360998Y286385D03*
D27*
X354013Y286385D03*
D65*
X343535Y286385D03*
D28*
X336169Y286385D03*
D89*
X368491Y286512D03*
D22*
X361188Y286512D03*
D34*
X354076Y286512D03*
D32*
X343408Y286512D03*
D82*
X336169Y286512D03*
D14*
X368491Y286639D03*
D30*
X361379Y286639D03*
D34*
X354076Y286639D03*
D48*
X343281Y286639D03*
D90*
X336106Y286639D03*
D91*
X368491Y286766D03*
D30*
X361506Y286766D03*
D34*
X354076Y286766D03*
D41*
X343091Y286766D03*
D13*
X336106Y286766D03*
D92*
X368491Y286893D03*
D22*
X361696Y286893D03*
D27*
X354140Y286893D03*
D36*
X342964Y286893D03*
D84*
X336042Y286893D03*
D93*
X366967Y287020D03*
D34*
X354203Y287020D03*
D27*
X342710Y287020D03*
D94*
X336042Y287020D03*
D93*
X367094Y287147D03*
D34*
X354203Y287147D03*
D27*
X342456Y287147D03*
D86*
X335979Y287147D03*
D17*
X367157Y287274D03*
D34*
X354203Y287274D03*
D22*
X342138Y287274D03*
D87*
X335979Y287274D03*
D95*
X367221Y287401D03*
D34*
X354203Y287401D03*
D96*
X337376Y287401D03*
D97*
X367284Y287528D03*
D36*
X354267Y287528D03*
D98*
X337185Y287528D03*
D97*
X367411Y287655D03*
D34*
X354330Y287655D03*
D99*
X336995Y287655D03*
D100*
X367475Y287782D03*
D34*
X354330Y287782D03*
D101*
X336804Y287782D03*
D71*
X367538Y287909D03*
D34*
X354330Y287909D03*
D102*
X336614Y287909D03*
D103*
X367602Y288036D03*
D36*
X354394Y288036D03*
D104*
X336423Y288036D03*
D105*
X367665Y288163D03*
D34*
X354457Y288163D03*
D15*
X336233Y288163D03*
D105*
X367792Y288290D03*
D34*
X354457Y288290D03*
D106*
X336042Y288290D03*
D107*
X369634Y288417D03*
D36*
X362268Y288417D03*
D34*
X354457Y288417D03*
D107*
X335852Y288417D03*
D108*
X369824Y288544D03*
D36*
X362268Y288544D03*
X354521Y288544D03*
D108*
X335661Y288544D03*
X369951Y288671D03*
D58*
X362331Y288671D03*
D34*
X354584Y288671D03*
D108*
X335534Y288671D03*
D109*
X370142Y288798D03*
D58*
X362331Y288798D03*
D34*
X354584Y288798D03*
D109*
X335344Y288798D03*
D110*
X370332Y288925D03*
D36*
X362395Y288925D03*
D34*
X354584Y288925D03*
D110*
X335153Y288925D03*
X370459Y289052D03*
D36*
X362395Y289052D03*
X354648Y289052D03*
D110*
X335026Y289052D03*
D111*
X370586Y289179D03*
D58*
X362458Y289179D03*
D34*
X354711Y289179D03*
D111*
X334899Y289179D03*
D92*
X370777Y289306D03*
D58*
X362458Y289306D03*
D34*
X354711Y289306D03*
D92*
X334709Y289306D03*
X370904Y289433D03*
D36*
X362522Y289433D03*
D34*
X354711Y289433D03*
D92*
X334582Y289433D03*
D69*
X371094Y289560D03*
D36*
X362522Y289560D03*
D34*
X354711Y289560D03*
D69*
X334391Y289560D03*
X371221Y289687D03*
D58*
X362585Y289687D03*
D34*
X354838Y289687D03*
D69*
X334264Y289687D03*
X371348Y289814D03*
D58*
X362585Y289814D03*
D34*
X354838Y289814D03*
D69*
X334137Y289814D03*
D91*
X371539Y289941D03*
D58*
X362585Y289941D03*
D34*
X354838Y289941D03*
D91*
X333947Y289941D03*
D112*
X371602Y290068D03*
D58*
X362712Y290068D03*
D27*
X354902Y290068D03*
D112*
X333883Y290068D03*
D14*
X371793Y290195D03*
D58*
X362712Y290195D03*
D34*
X354965Y290195D03*
D14*
X333693Y290195D03*
X371920Y290322D03*
D58*
X362712Y290322D03*
D34*
X354965Y290322D03*
D14*
X333566Y290322D03*
X372047Y290449D03*
D58*
X362712Y290449D03*
D34*
X354965Y290449D03*
D14*
X333439Y290449D03*
D113*
X372110Y290576D03*
D26*
X362776Y290576D03*
D27*
X355029Y290576D03*
D113*
X333375Y290576D03*
D89*
X372301Y290703D03*
D58*
X362839Y290703D03*
D34*
X355092Y290703D03*
D89*
X333185Y290703D03*
X372428Y290830D03*
D58*
X362839Y290830D03*
D34*
X355092Y290830D03*
D89*
X333058Y290830D03*
X372555Y290957D03*
D58*
X362839Y290957D03*
D34*
X355092Y290957D03*
D89*
X332931Y290957D03*
D67*
X372618Y291084D03*
D58*
X362839Y291084D03*
D27*
X355156Y291084D03*
D67*
X332867Y291084D03*
X372745Y291211D03*
D58*
X362966Y291211D03*
D27*
X355156Y291211D03*
D67*
X332740Y291211D03*
D66*
X372936Y291338D03*
D58*
X362966Y291338D03*
D34*
X355219Y291338D03*
D66*
X332550Y291338D03*
X373063Y291465D03*
D58*
X362966Y291465D03*
D27*
X355283Y291465D03*
D66*
X332423Y291465D03*
D114*
X373126Y291592D03*
D58*
X362966Y291592D03*
D27*
X355283Y291592D03*
D114*
X332359Y291592D03*
X373253Y291719D03*
D26*
X363030Y291719D03*
D27*
X355283Y291719D03*
D114*
X332232Y291719D03*
X373380Y291846D03*
D58*
X363093Y291846D03*
D34*
X355346Y291846D03*
D114*
X332105Y291846D03*
D87*
X373444Y291973D03*
D58*
X363093Y291973D03*
D27*
X355410Y291973D03*
D87*
X332042Y291973D03*
X373571Y292100D03*
D58*
X363093Y292100D03*
D27*
X355410Y292100D03*
D87*
X331915Y292100D03*
X373698Y292227D03*
D58*
X363093Y292227D03*
D27*
X355410Y292227D03*
D45*
X342329Y292227D03*
D87*
X331788Y292227D03*
D115*
X373761Y292354D03*
D26*
X363157Y292354D03*
D27*
X355410Y292354D03*
D54*
X342329Y292354D03*
D115*
X331724Y292354D03*
X373888Y292481D03*
D58*
X363220Y292481D03*
D34*
X355473Y292481D03*
D35*
X342265Y292481D03*
D115*
X331597Y292481D03*
X374015Y292608D03*
D58*
X363220Y292608D03*
D34*
X355473Y292608D03*
D22*
X342265Y292608D03*
D115*
X331470Y292608D03*
D86*
X374079Y292735D03*
D58*
X363220Y292735D03*
D34*
X355473Y292735D03*
D58*
X342265Y292735D03*
D86*
X331407Y292735D03*
X374206Y292862D03*
D26*
X363284Y292862D03*
D34*
X355473Y292862D03*
D44*
X342138Y292862D03*
D86*
X331280Y292862D03*
X374333Y292989D03*
D58*
X363347Y292989D03*
D36*
X355537Y292989D03*
D50*
X342202Y292989D03*
D86*
X331153Y292989D03*
D94*
X374396Y293116D03*
D58*
X363347Y293116D03*
D36*
X355537Y293116D03*
D32*
X342138Y293116D03*
D94*
X331089Y293116D03*
X374523Y293243D03*
D58*
X363347Y293243D03*
D36*
X355537Y293243D03*
D37*
X342075Y293243D03*
D94*
X330962Y293243D03*
D116*
X374587Y293370D03*
D58*
X363347Y293370D03*
D36*
X355537Y293370D03*
D64*
X342011Y293370D03*
D116*
X330899Y293370D03*
X374714Y293497D03*
D26*
X363411Y293497D03*
D58*
X355473Y293497D03*
D12*
X341948Y293497D03*
D116*
X330772Y293497D03*
D94*
X374777Y293624D03*
D58*
X363474Y293624D03*
D42*
X355473Y293624D03*
D81*
X341884Y293624D03*
D94*
X330708Y293624D03*
D116*
X374841Y293751D03*
D58*
X363474Y293751D03*
D41*
X355410Y293751D03*
D75*
X341821Y293751D03*
D116*
X330645Y293751D03*
X374968Y293878D03*
D58*
X363474Y293878D03*
D44*
X355346Y293878D03*
D25*
X341694Y293878D03*
D59*
X335852Y293878D03*
D116*
X330518Y293878D03*
D84*
X375031Y294005D03*
D58*
X363474Y294005D03*
D39*
X355283Y294005D03*
D90*
X341440Y294005D03*
D11*
X335979Y294005D03*
D84*
X330454Y294005D03*
X375158Y294132D03*
D26*
X363538Y294132D03*
D61*
X355219Y294132D03*
D111*
X340360Y294132D03*
D84*
X330327Y294132D03*
D13*
X375222Y294259D03*
D58*
X363601Y294259D03*
D51*
X355156Y294259D03*
D110*
X340360Y294259D03*
D13*
X330264Y294259D03*
D84*
X375285Y294386D03*
D58*
X363601Y294386D03*
D29*
X355029Y294386D03*
D108*
X340360Y294386D03*
D84*
X330200Y294386D03*
X375412Y294513D03*
D58*
X363601Y294513D03*
D85*
X354965Y294513D03*
D106*
X340360Y294513D03*
D84*
X330073Y294513D03*
D13*
X375476Y294640D03*
D26*
X363665Y294640D03*
D65*
X354838Y294640D03*
D104*
X340360Y294640D03*
D13*
X330010Y294640D03*
X375603Y294767D03*
D58*
X363728Y294767D03*
D64*
X354838Y294767D03*
D101*
X340360Y294767D03*
D13*
X329883Y294767D03*
D83*
X375666Y294894D03*
D58*
X363728Y294894D03*
D68*
X354711Y294894D03*
D98*
X340360Y294894D03*
D83*
X329819Y294894D03*
D13*
X375730Y295021D03*
D58*
X363728Y295021D03*
D20*
X354584Y295021D03*
D96*
X340424Y295021D03*
D13*
X329756Y295021D03*
D83*
X375793Y295148D03*
D58*
X363728Y295148D03*
D81*
X354457Y295148D03*
D117*
X340487Y295148D03*
D83*
X329692Y295148D03*
X375920Y295275D03*
D26*
X363792Y295275D03*
D21*
X354457Y295275D03*
D118*
X340487Y295275D03*
D83*
X329565Y295275D03*
X375920Y295402D03*
D58*
X363855Y295402D03*
D23*
X354330Y295402D03*
D119*
X340551Y295402D03*
D83*
X329565Y295402D03*
X376047Y295529D03*
D58*
X363855Y295529D03*
D77*
X354203Y295529D03*
D120*
X340614Y295529D03*
D83*
X329438Y295529D03*
D90*
X376111Y295656D03*
D58*
X363855Y295656D03*
D78*
X354076Y295656D03*
D93*
X340678Y295656D03*
D90*
X329375Y295656D03*
X376238Y295783D03*
D26*
X363919Y295783D03*
D82*
X353949Y295783D03*
D97*
X340741Y295783D03*
D90*
X329248Y295783D03*
X376238Y295910D03*
D26*
X363919Y295910D03*
D83*
X353822Y295910D03*
D103*
X340932Y295910D03*
D90*
X329248Y295910D03*
X376365Y296037D03*
D58*
X363982Y296037D03*
D86*
X353505Y296037D03*
D121*
X341186Y296037D03*
D90*
X329121Y296037D03*
D82*
X376428Y296164D03*
D58*
X363982Y296164D03*
D122*
X345694Y296164D03*
D82*
X329057Y296164D03*
D90*
X376492Y296291D03*
D58*
X363982Y296291D03*
D122*
X345694Y296291D03*
D90*
X328994Y296291D03*
D82*
X376555Y296418D03*
D26*
X364046Y296418D03*
D123*
X345694Y296418D03*
D82*
X328930Y296418D03*
X376555Y296545D03*
D58*
X364109Y296545D03*
D123*
X345694Y296545D03*
D82*
X328930Y296545D03*
X376682Y296672D03*
D58*
X364109Y296672D03*
D124*
X345631Y296672D03*
D82*
X328803Y296672D03*
D79*
X376746Y296799D03*
D58*
X364109Y296799D03*
D124*
X345631Y296799D03*
D79*
X328740Y296799D03*
D82*
X376809Y296926D03*
D58*
X364109Y296926D03*
D125*
X345631Y296926D03*
D82*
X328676Y296926D03*
D79*
X376873Y297053D03*
D26*
X364173Y297053D03*
D125*
X345631Y297053D03*
D79*
X328613Y297053D03*
D82*
X376936Y297180D03*
D58*
X364236Y297180D03*
D126*
X345567Y297180D03*
D82*
X328549Y297180D03*
D79*
X377000Y297307D03*
D58*
X364236Y297307D03*
D127*
X345504Y297307D03*
D79*
X328486Y297307D03*
X377127Y297434D03*
D58*
X364236Y297434D03*
D127*
X345504Y297434D03*
D79*
X328359Y297434D03*
X377127Y297561D03*
D26*
X364300Y297561D03*
D128*
X345504Y297561D03*
D79*
X328359Y297561D03*
D28*
X377190Y297688D03*
D26*
X364300Y297688D03*
D128*
X345504Y297688D03*
D28*
X328295Y297688D03*
D79*
X377254Y297815D03*
D58*
X364363Y297815D03*
D129*
X345440Y297815D03*
D79*
X328232Y297815D03*
D28*
X377317Y297942D03*
D58*
X364363Y297942D03*
D129*
X345440Y297942D03*
D28*
X328168Y297942D03*
X377317Y298069D03*
D58*
X364363Y298069D03*
D130*
X345440Y298069D03*
D28*
X328168Y298069D03*
X377444Y298196D03*
D26*
X364427Y298196D03*
D130*
X345440Y298196D03*
D28*
X328041Y298196D03*
X377444Y298323D03*
D58*
X364490Y298323D03*
D131*
X345377Y298323D03*
D28*
X328041Y298323D03*
X377571Y298450D03*
D58*
X364490Y298450D03*
D131*
X345377Y298450D03*
D28*
X327914Y298450D03*
X377571Y298577D03*
D58*
X364490Y298577D03*
D132*
X345313Y298577D03*
D28*
X327914Y298577D03*
D88*
X377635Y298704D03*
D58*
X364490Y298704D03*
D133*
X345377Y298704D03*
D88*
X327851Y298704D03*
D28*
X377698Y298831D03*
D26*
X364554Y298831D03*
D134*
X345313Y298831D03*
D28*
X327787Y298831D03*
D88*
X377762Y298958D03*
D58*
X364617Y298958D03*
D134*
X345313Y298958D03*
D88*
X327724Y298958D03*
X377762Y299085D03*
D58*
X364617Y299085D03*
D134*
X345313Y299085D03*
D88*
X327724Y299085D03*
X377889Y299212D03*
D58*
X364617Y299212D03*
D135*
X345313Y299212D03*
D88*
X327597Y299212D03*
X377889Y299339D03*
D26*
X364681Y299339D03*
D135*
X345313Y299339D03*
D88*
X327597Y299339D03*
D78*
X377952Y299466D03*
D26*
X364681Y299466D03*
D136*
X345250Y299466D03*
D78*
X327533Y299466D03*
D88*
X378016Y299593D03*
D58*
X364744Y299593D03*
D136*
X345250Y299593D03*
D88*
X327470Y299593D03*
D78*
X378079Y299720D03*
D58*
X364744Y299720D03*
D137*
X345250Y299720D03*
D78*
X327406Y299720D03*
X378079Y299847D03*
D58*
X364744Y299847D03*
D137*
X345250Y299847D03*
D78*
X327406Y299847D03*
X378206Y299974D03*
D26*
X364808Y299974D03*
D137*
X345250Y299974D03*
D78*
X327279Y299974D03*
X378206Y300101D03*
D58*
X364871Y300101D03*
D138*
X345186Y300101D03*
D78*
X327279Y300101D03*
X378206Y300228D03*
D58*
X364871Y300228D03*
D138*
X345186Y300228D03*
D78*
X327279Y300228D03*
X378333Y300355D03*
D58*
X364871Y300355D03*
D139*
X345250Y300355D03*
D78*
X327152Y300355D03*
X378333Y300482D03*
D58*
X364871Y300482D03*
D140*
X345186Y300482D03*
D78*
X327152Y300482D03*
X378333Y300609D03*
D58*
X364998Y300609D03*
D140*
X345186Y300609D03*
D78*
X327152Y300609D03*
D25*
X378397Y300736D03*
D58*
X364998Y300736D03*
D140*
X345186Y300736D03*
D25*
X327089Y300736D03*
D78*
X378460Y300863D03*
D58*
X364998Y300863D03*
D141*
X345186Y300863D03*
D78*
X327025Y300863D03*
D25*
X378524Y300990D03*
D58*
X364998Y300990D03*
D141*
X345186Y300990D03*
D25*
X326962Y300990D03*
X378524Y301117D03*
D26*
X365062Y301117D03*
D141*
X345186Y301117D03*
D25*
X326962Y301117D03*
D78*
X378587Y301244D03*
D58*
X365125Y301244D03*
D142*
X345123Y301244D03*
D78*
X326898Y301244D03*
D25*
X378651Y301371D03*
D58*
X365125Y301371D03*
D142*
X345123Y301371D03*
D25*
X326835Y301371D03*
X378651Y301498D03*
D58*
X365125Y301498D03*
D143*
X345186Y301498D03*
D25*
X326835Y301498D03*
X378651Y301625D03*
D58*
X365125Y301625D03*
D143*
X345186Y301625D03*
D25*
X326835Y301625D03*
X378778Y301752D03*
D58*
X365252Y301752D03*
D143*
X345186Y301752D03*
D25*
X326708Y301752D03*
X378778Y301879D03*
D58*
X365252Y301879D03*
D144*
X348425Y301879D03*
D29*
X333566Y301879D03*
D25*
X326708Y301879D03*
X378778Y302006D03*
D58*
X365252Y302006D03*
D145*
X348869Y302006D03*
D44*
X333121Y302006D03*
D25*
X326708Y302006D03*
D77*
X378841Y302133D03*
D58*
X365252Y302133D03*
D146*
X349187Y302133D03*
D58*
X332867Y302133D03*
D77*
X326644Y302133D03*
D25*
X378905Y302260D03*
D36*
X365316Y302260D03*
D147*
X349441Y302260D03*
D22*
X332613Y302260D03*
D25*
X326581Y302260D03*
X378905Y302387D03*
D58*
X365379Y302387D03*
D148*
X349631Y302387D03*
D30*
X332423Y302387D03*
D25*
X326581Y302387D03*
D77*
X378968Y302514D03*
D58*
X365379Y302514D03*
D149*
X349822Y302514D03*
D40*
X332232Y302514D03*
D77*
X326517Y302514D03*
X378968Y302641D03*
D58*
X365379Y302641D03*
D84*
X355092Y302641D03*
D86*
X344996Y302641D03*
D54*
X332042Y302641D03*
D77*
X326517Y302641D03*
X378968Y302768D03*
D58*
X365379Y302768D03*
D90*
X355410Y302768D03*
X344869Y302768D03*
D62*
X331851Y302768D03*
D77*
X326517Y302768D03*
D25*
X379032Y302895D03*
D58*
X365506Y302895D03*
D79*
X355537Y302895D03*
D25*
X344869Y302895D03*
D45*
X331661Y302895D03*
D25*
X326454Y302895D03*
D77*
X379095Y303022D03*
D58*
X365506Y303022D03*
D88*
X355664Y303022D03*
D75*
X344869Y303022D03*
D52*
X337058Y303022D03*
D47*
X331534Y303022D03*
D77*
X326390Y303022D03*
X379095Y303149D03*
D58*
X365506Y303149D03*
D25*
X355791Y303149D03*
D20*
X344805Y303149D03*
D58*
X336804Y303149D03*
D57*
X331343Y303149D03*
D77*
X326390Y303149D03*
X379095Y303276D03*
D58*
X365506Y303276D03*
D77*
X355854Y303276D03*
D64*
X344805Y303276D03*
D32*
X336677Y303276D03*
D77*
X326390Y303276D03*
X379095Y303403D03*
D36*
X365570Y303403D03*
D24*
X356045Y303403D03*
D29*
X344742Y303403D03*
D76*
X336614Y303403D03*
D77*
X326390Y303403D03*
X379222Y303530D03*
D58*
X365633Y303530D03*
D23*
X356108Y303530D03*
D50*
X344742Y303530D03*
D72*
X336614Y303530D03*
D77*
X326263Y303530D03*
X379222Y303657D03*
D58*
X365633Y303657D03*
D75*
X356172Y303657D03*
D26*
X344742Y303657D03*
D25*
X336614Y303657D03*
D77*
X326263Y303657D03*
X379222Y303784D03*
D58*
X365633Y303784D03*
D21*
X356235Y303784D03*
D53*
X350076Y303784D03*
D27*
X344742Y303784D03*
D82*
X336550Y303784D03*
D77*
X326263Y303784D03*
X379222Y303911D03*
D36*
X365697Y303911D03*
D72*
X356299Y303911D03*
D30*
X350076Y303911D03*
D40*
X344678Y303911D03*
D84*
X336550Y303911D03*
D77*
X326263Y303911D03*
D24*
X379286Y304038D03*
D58*
X365633Y304038D03*
D81*
X356362Y304038D03*
D36*
X349949Y304038D03*
D52*
X344678Y304038D03*
D115*
X336550Y304038D03*
D24*
X326200Y304038D03*
D77*
X379349Y304165D03*
D26*
X365697Y304165D03*
D81*
X356489Y304165D03*
D41*
X349949Y304165D03*
D67*
X336550Y304165D03*
D24*
X326200Y304165D03*
D77*
X379349Y304292D03*
D26*
X365697Y304292D03*
D70*
X356553Y304292D03*
D61*
X349885Y304292D03*
D14*
X336614Y304292D03*
D77*
X326136Y304292D03*
X379349Y304419D03*
D26*
X365697Y304419D03*
D20*
X356616Y304419D03*
D85*
X349885Y304419D03*
D92*
X336614Y304419D03*
D77*
X326136Y304419D03*
X379349Y304546D03*
D42*
X365633Y304546D03*
D12*
X356680Y304546D03*
D64*
X349758Y304546D03*
D110*
X336677Y304546D03*
D77*
X326136Y304546D03*
D24*
X379413Y304673D03*
D41*
X365697Y304673D03*
D68*
X356743Y304673D03*
D12*
X349695Y304673D03*
D107*
X336741Y304673D03*
D24*
X326073Y304673D03*
X379413Y304800D03*
D44*
X365633Y304800D03*
D68*
X356870Y304800D03*
D21*
X349631Y304800D03*
D104*
X336804Y304800D03*
D24*
X326073Y304800D03*
X379413Y304927D03*
D39*
X365570Y304927D03*
D68*
X356870Y304927D03*
D24*
X349568Y304927D03*
D99*
X336868Y304927D03*
D24*
X326073Y304927D03*
D77*
X379476Y305054D03*
D39*
X365570Y305054D03*
D76*
X356934Y305054D03*
D28*
X349377Y305054D03*
D150*
X336995Y305054D03*
D77*
X326009Y305054D03*
X379476Y305181D03*
D48*
X365506Y305181D03*
D64*
X356997Y305181D03*
D13*
X349187Y305181D03*
D151*
X337185Y305181D03*
D77*
X326009Y305181D03*
D24*
X379540Y305308D03*
D61*
X365506Y305308D03*
D74*
X357061Y305308D03*
D152*
X342011Y305308D03*
D77*
X326009Y305308D03*
D24*
X379540Y305435D03*
D51*
X365443Y305435D03*
D74*
X357188Y305435D03*
D153*
X342075Y305435D03*
D24*
X325946Y305435D03*
X379540Y305562D03*
D32*
X365379Y305562D03*
D74*
X357188Y305562D03*
D154*
X342075Y305562D03*
D24*
X325946Y305562D03*
X379540Y305689D03*
D29*
X365316Y305689D03*
D65*
X357251Y305689D03*
D154*
X342075Y305689D03*
D24*
X325946Y305689D03*
X379540Y305816D03*
D85*
X365252Y305816D03*
D37*
X357315Y305816D03*
D155*
X342138Y305816D03*
D24*
X325946Y305816D03*
X379540Y305943D03*
D65*
X365252Y305943D03*
D37*
X357442Y305943D03*
D156*
X342138Y305943D03*
D24*
X325946Y305943D03*
X379540Y306070D03*
D74*
X365189Y306070D03*
D85*
X357505Y306070D03*
D157*
X342202Y306070D03*
D24*
X325946Y306070D03*
D77*
X379603Y306197D03*
D64*
X365125Y306197D03*
D29*
X357569Y306197D03*
D158*
X342265Y306197D03*
D77*
X325882Y306197D03*
D24*
X379667Y306324D03*
D76*
X365062Y306324D03*
D29*
X357569Y306324D03*
D159*
X342202Y306324D03*
D24*
X325819Y306324D03*
X379667Y306451D03*
D12*
X365062Y306451D03*
D32*
X357632Y306451D03*
D160*
X342265Y306451D03*
D24*
X325819Y306451D03*
X379667Y306578D03*
D20*
X364998Y306578D03*
D51*
X357696Y306578D03*
D161*
X342329Y306578D03*
D24*
X325819Y306578D03*
X379667Y306705D03*
D70*
X364935Y306705D03*
D50*
X357696Y306705D03*
D122*
X342392Y306705D03*
D24*
X325819Y306705D03*
X379667Y306832D03*
D81*
X364871Y306832D03*
D48*
X357759Y306832D03*
D162*
X342329Y306832D03*
D24*
X325819Y306832D03*
X379667Y306959D03*
D72*
X364808Y306959D03*
D41*
X357823Y306959D03*
D123*
X342392Y306959D03*
D24*
X325819Y306959D03*
X379667Y307086D03*
D75*
X364808Y307086D03*
D26*
X357823Y307086D03*
D124*
X342456Y307086D03*
D24*
X325819Y307086D03*
X379667Y307213D03*
D23*
X364744Y307213D03*
D27*
X357823Y307213D03*
D163*
X342519Y307213D03*
D24*
X325819Y307213D03*
X379667Y307340D03*
D77*
X364617Y307340D03*
D33*
X357759Y307340D03*
D125*
X342583Y307340D03*
D24*
X325819Y307340D03*
X379667Y307467D03*
D25*
X364554Y307467D03*
D46*
X357823Y307467D03*
D126*
X342646Y307467D03*
D24*
X325819Y307467D03*
X379667Y307594D03*
D78*
X364490Y307594D03*
D11*
X357823Y307594D03*
D127*
X342710Y307594D03*
D24*
X325819Y307594D03*
D23*
X379730Y307721D03*
D79*
X364427Y307721D03*
D164*
X342773Y307721D03*
D23*
X325755Y307721D03*
X379730Y307848D03*
D82*
X364363Y307848D03*
D128*
X342837Y307848D03*
D23*
X325755Y307848D03*
X379730Y307975D03*
D83*
X364236Y307975D03*
D129*
X342900Y307975D03*
D23*
X325755Y307975D03*
X379730Y308102D03*
D13*
X364173Y308102D03*
D130*
X342900Y308102D03*
D23*
X325755Y308102D03*
X379730Y308229D03*
D116*
X364046Y308229D03*
D131*
X342964Y308229D03*
D23*
X325755Y308229D03*
D24*
X379794Y308356D03*
D115*
X363982Y308356D03*
D133*
X343091Y308356D03*
D23*
X325755Y308356D03*
D24*
X379794Y308483D03*
D66*
X363792Y308483D03*
D165*
X343218Y308483D03*
D24*
X325692Y308483D03*
X379794Y308610D03*
D89*
X363665Y308610D03*
D136*
X343345Y308610D03*
D24*
X325692Y308610D03*
X379794Y308737D03*
D91*
X363411Y308737D03*
D138*
X343535Y308737D03*
D24*
X325692Y308737D03*
X379794Y308864D03*
D166*
X349250Y308864D03*
D24*
X325692Y308864D03*
X379794Y308991D03*
D166*
X349250Y308991D03*
D24*
X325692Y308991D03*
X379794Y309118D03*
D166*
X349250Y309118D03*
D24*
X325692Y309118D03*
X379794Y309245D03*
D167*
X349314Y309245D03*
D24*
X325692Y309245D03*
X379794Y309372D03*
D167*
X349314Y309372D03*
D24*
X325692Y309372D03*
X379794Y309499D03*
D166*
X349377Y309499D03*
D24*
X325692Y309499D03*
X379794Y309626D03*
D166*
X349377Y309626D03*
D24*
X325692Y309626D03*
X379794Y309753D03*
D166*
X349377Y309753D03*
D23*
X325755Y309753D03*
X379730Y309880D03*
D166*
X349377Y309880D03*
D23*
X325755Y309880D03*
X379730Y310007D03*
D166*
X349377Y310007D03*
D23*
X325755Y310007D03*
X379730Y310134D03*
D168*
X349441Y310134D03*
D23*
X325755Y310134D03*
X379730Y310261D03*
D168*
X349441Y310261D03*
D23*
X325755Y310261D03*
X379730Y310388D03*
D168*
X349441Y310388D03*
D23*
X325755Y310388D03*
D24*
X379667Y310515D03*
D168*
X349441Y310515D03*
D24*
X325819Y310515D03*
X379667Y310642D03*
D169*
X349504Y310642D03*
D24*
X325819Y310642D03*
X379667Y310769D03*
D169*
X349504Y310769D03*
D24*
X325819Y310769D03*
X379667Y310896D03*
D169*
X349504Y310896D03*
D24*
X325819Y310896D03*
X379667Y311023D03*
D168*
X349568Y311023D03*
D24*
X325819Y311023D03*
X379667Y311150D03*
D168*
X349568Y311150D03*
D24*
X325819Y311150D03*
X379667Y311277D03*
D169*
X349631Y311277D03*
D24*
X325819Y311277D03*
X379667Y311404D03*
D169*
X349631Y311404D03*
D24*
X325819Y311404D03*
X379667Y311531D03*
D169*
X349631Y311531D03*
D24*
X325819Y311531D03*
X379667Y311658D03*
D169*
X349631Y311658D03*
D24*
X325819Y311658D03*
X379667Y311785D03*
D169*
X349631Y311785D03*
D24*
X325819Y311785D03*
D77*
X379603Y311912D03*
D170*
X349695Y311912D03*
D77*
X325882Y311912D03*
D24*
X379540Y312039D03*
D169*
X349758Y312039D03*
D24*
X325946Y312039D03*
X379540Y312166D03*
D169*
X349758Y312166D03*
D24*
X325946Y312166D03*
X379540Y312293D03*
D169*
X349758Y312293D03*
D24*
X325946Y312293D03*
X379540Y312420D03*
D170*
X349822Y312420D03*
D24*
X325946Y312420D03*
X379540Y312547D03*
D170*
X349822Y312547D03*
D24*
X325946Y312547D03*
X379540Y312674D03*
D170*
X349822Y312674D03*
D24*
X325946Y312674D03*
X379540Y312801D03*
D169*
X349885Y312801D03*
D77*
X326009Y312801D03*
X379476Y312928D03*
D169*
X349885Y312928D03*
D77*
X326009Y312928D03*
X379476Y313055D03*
D170*
X349949Y313055D03*
D77*
X326009Y313055D03*
D24*
X379413Y313182D03*
D170*
X349949Y313182D03*
D24*
X326073Y313182D03*
X379413Y313309D03*
D170*
X349949Y313309D03*
D24*
X326073Y313309D03*
X379413Y313436D03*
D169*
X350012Y313436D03*
D24*
X326073Y313436D03*
D77*
X379349Y313563D03*
D169*
X350012Y313563D03*
D77*
X326136Y313563D03*
X379349Y313690D03*
D170*
X350076Y313690D03*
D77*
X326136Y313690D03*
X379349Y313817D03*
D170*
X350076Y313817D03*
D77*
X326136Y313817D03*
X379349Y313944D03*
D170*
X350076Y313944D03*
D24*
X326200Y313944D03*
X379286Y314071D03*
D169*
X350139Y314071D03*
D24*
X326200Y314071D03*
D77*
X379222Y314198D03*
D170*
X350203Y314198D03*
D77*
X326263Y314198D03*
X379222Y314325D03*
D170*
X350203Y314325D03*
D77*
X326263Y314325D03*
X379222Y314452D03*
D170*
X350203Y314452D03*
D77*
X326263Y314452D03*
X379222Y314579D03*
D169*
X350266Y314579D03*
D77*
X326263Y314579D03*
X379095Y314706D03*
D169*
X350266Y314706D03*
D77*
X326390Y314706D03*
X379095Y314833D03*
D170*
X350330Y314833D03*
D77*
X326390Y314833D03*
X379095Y314960D03*
D169*
X350393Y314960D03*
D77*
X326390Y314960D03*
X379095Y315087D03*
D169*
X350393Y315087D03*
D77*
X326390Y315087D03*
D25*
X379032Y315214D03*
D168*
X350457Y315214D03*
D25*
X326454Y315214D03*
D77*
X378968Y315341D03*
D168*
X350457Y315341D03*
D77*
X326517Y315341D03*
X378968Y315468D03*
D168*
X350584Y315468D03*
D77*
X326517Y315468D03*
X378968Y315595D03*
D166*
X350647Y315595D03*
D77*
X326517Y315595D03*
D25*
X378905Y315722D03*
D167*
X350711Y315722D03*
D25*
X326581Y315722D03*
X378905Y315849D03*
D167*
X350711Y315849D03*
D25*
X326581Y315849D03*
D77*
X378841Y315976D03*
D167*
X350838Y315976D03*
D77*
X326644Y315976D03*
D25*
X378778Y316103D03*
D171*
X350901Y316103D03*
D25*
X326708Y316103D03*
X378778Y316230D03*
D172*
X351028Y316230D03*
D25*
X326708Y316230D03*
X378778Y316357D03*
D173*
X351092Y316357D03*
D25*
X326708Y316357D03*
X378651Y316484D03*
D174*
X351219Y316484D03*
D25*
X326835Y316484D03*
X378651Y316611D03*
D174*
X351346Y316611D03*
D25*
X326835Y316611D03*
X378651Y316738D03*
D175*
X351473Y316738D03*
D25*
X326835Y316738D03*
D78*
X378587Y316865D03*
D176*
X351536Y316865D03*
D78*
X326898Y316865D03*
D25*
X378524Y316992D03*
D177*
X351600Y316992D03*
D25*
X326962Y316992D03*
X378524Y317119D03*
D178*
X351727Y317119D03*
D25*
X326962Y317119D03*
D78*
X378460Y317246D03*
D179*
X351790Y317246D03*
D78*
X327025Y317246D03*
D25*
X378397Y317373D03*
D178*
X351854Y317373D03*
D25*
X327089Y317373D03*
D78*
X378333Y317500D03*
D180*
X351917Y317500D03*
D78*
X327152Y317500D03*
X378333Y317627D03*
D180*
X351917Y317627D03*
D78*
X327152Y317627D03*
X378333Y317754D03*
D180*
X352044Y317754D03*
D78*
X327152Y317754D03*
X378206Y317881D03*
D181*
X352108Y317881D03*
D78*
X327279Y317881D03*
X378206Y318008D03*
D181*
X352108Y318008D03*
D78*
X327279Y318008D03*
X378206Y318135D03*
D182*
X352171Y318135D03*
D78*
X327279Y318135D03*
D12*
X378778Y318262D03*
D11*
X375095Y318262D03*
D182*
X352171Y318262D03*
D78*
X327406Y318262D03*
D68*
X378841Y318389D03*
D43*
X375031Y318389D03*
D182*
X352298Y318389D03*
D78*
X327406Y318389D03*
D76*
X378905Y318516D03*
D11*
X374968Y318516D03*
D182*
X352298Y318516D03*
D43*
X330581Y318516D03*
D20*
X326771Y318516D03*
D74*
X378905Y318643D03*
D43*
X374904Y318643D03*
D183*
X352362Y318643D03*
D43*
X330581Y318643D03*
D64*
X326644Y318643D03*
D65*
X378968Y318770D03*
D11*
X374841Y318770D03*
D184*
X352425Y318770D03*
D43*
X330708Y318770D03*
D74*
X326581Y318770D03*
D65*
X378968Y318897D03*
D43*
X374777Y318897D03*
D184*
X352425Y318897D03*
D43*
X330708Y318897D03*
D74*
X326581Y318897D03*
D85*
X378968Y319024D03*
D11*
X374714Y319024D03*
D184*
X352552Y319024D03*
D43*
X330835Y319024D03*
D74*
X326708Y319024D03*
D29*
X379032Y319151D03*
D11*
X374714Y319151D03*
D185*
X352616Y319151D03*
D43*
X330835Y319151D03*
D74*
X326708Y319151D03*
D32*
X379095Y319278D03*
D53*
X374714Y319278D03*
D185*
X352616Y319278D03*
D43*
X330962Y319278D03*
D74*
X326708Y319278D03*
D61*
X379095Y319405D03*
D56*
X374777Y319405D03*
D186*
X352679Y319405D03*
D43*
X330962Y319405D03*
D11*
X328867Y319405D03*
D42*
X326009Y319405D03*
D50*
X379159Y319532D03*
D49*
X374777Y319532D03*
D187*
X352870Y319532D03*
D43*
X331089Y319532D03*
X328930Y319532D03*
D58*
X325882Y319532D03*
D48*
X379222Y319659D03*
D46*
X374841Y319659D03*
D139*
X357188Y319659D03*
D24*
X338519Y319659D03*
D43*
X331089Y319659D03*
D11*
X328994Y319659D03*
D36*
X325819Y319659D03*
D44*
X379222Y319786D03*
D38*
X374841Y319786D03*
D188*
X357378Y319786D03*
D70*
X338265Y319786D03*
D11*
X331153Y319786D03*
X328994Y319786D03*
D34*
X325882Y319786D03*
D41*
X379286Y319913D03*
D40*
X374777Y319913D03*
D135*
X357505Y319913D03*
D65*
X338074Y319913D03*
D43*
X331216Y319913D03*
D11*
X329121Y319913D03*
D36*
X325946Y319913D03*
D26*
X379286Y320040D03*
D38*
X374714Y320040D03*
D134*
X357632Y320040D03*
D50*
X337884Y320040D03*
D11*
X331280Y320040D03*
X329121Y320040D03*
D45*
X327089Y320040D03*
D49*
X325374Y320040D03*
D58*
X379349Y320167D03*
D40*
X374650Y320167D03*
D134*
X357759Y320167D03*
D36*
X337757Y320167D03*
D43*
X331343Y320167D03*
D45*
X329121Y320167D03*
X327216Y320167D03*
D56*
X325247Y320167D03*
D58*
X379349Y320294D03*
D38*
X374587Y320294D03*
D133*
X357823Y320294D03*
D46*
X337630Y320294D03*
D11*
X331407Y320294D03*
D55*
X328930Y320294D03*
D45*
X327216Y320294D03*
D62*
X325120Y320294D03*
D34*
X379349Y320421D03*
D40*
X374523Y320421D03*
D132*
X357886Y320421D03*
D43*
X331470Y320421D03*
D59*
X328867Y320421D03*
D52*
X327279Y320421D03*
D11*
X325184Y320421D03*
D27*
X379413Y320548D03*
D59*
X376619Y320548D03*
D38*
X374460Y320548D03*
D131*
X357950Y320548D03*
D11*
X331534Y320548D03*
D45*
X327343Y320548D03*
D62*
X325247Y320548D03*
D22*
X379476Y320675D03*
D63*
X376619Y320675D03*
D40*
X374396Y320675D03*
D130*
X358013Y320675D03*
D62*
X331470Y320675D03*
D45*
X327343Y320675D03*
D62*
X325247Y320675D03*
D33*
X379476Y320802D03*
D55*
X376682Y320802D03*
D38*
X374333Y320802D03*
D130*
X358140Y320802D03*
D54*
X331407Y320802D03*
D45*
X327470Y320802D03*
D62*
X325374Y320802D03*
D30*
X379540Y320929D03*
D52*
X376682Y320929D03*
D40*
X374269Y320929D03*
D189*
X358204Y320929D03*
D38*
X331280Y320929D03*
D52*
X327406Y320929D03*
D62*
X325374Y320929D03*
D38*
X379540Y321056D03*
D45*
X376746Y321056D03*
D47*
X374968Y321056D03*
D11*
X373698Y321056D03*
D129*
X358267Y321056D03*
D30*
X331153Y321056D03*
D63*
X327343Y321056D03*
D62*
X325501Y321056D03*
D40*
X379603Y321183D03*
D11*
X376746Y321183D03*
X373571Y321183D03*
D129*
X358267Y321183D03*
D22*
X331089Y321183D03*
D59*
X327216Y321183D03*
D62*
X325501Y321183D03*
D49*
X379603Y321310D03*
D45*
X377000Y321310D03*
D43*
X373507Y321310D03*
D129*
X358394Y321310D03*
D34*
X330962Y321310D03*
D11*
X325565Y321310D03*
D54*
X379667Y321437D03*
D59*
X377508Y321437D03*
D11*
X373444Y321437D03*
D128*
X358458Y321437D03*
D42*
X330835Y321437D03*
D62*
X325628Y321437D03*
D53*
X379667Y321564D03*
D11*
X373317Y321564D03*
D128*
X358458Y321564D03*
D11*
X332169Y321564D03*
D30*
X330010Y321564D03*
D11*
X325692Y321564D03*
D53*
X379667Y321691D03*
D11*
X373317Y321691D03*
D164*
X358521Y321691D03*
D43*
X332232Y321691D03*
D30*
X329756Y321691D03*
D62*
X325755Y321691D03*
X379730Y321818D03*
D11*
X373190Y321818D03*
D164*
X358521Y321818D03*
D11*
X332296Y321818D03*
D33*
X329565Y321818D03*
D62*
X325755Y321818D03*
D11*
X379667Y321945D03*
D62*
X373253Y321945D03*
D164*
X358648Y321945D03*
D43*
X332359Y321945D03*
D31*
X329248Y321945D03*
D62*
X325882Y321945D03*
D11*
X379667Y322072D03*
D30*
X373698Y322072D03*
D164*
X358648Y322072D03*
D11*
X332423Y322072D03*
D31*
X328994Y322072D03*
D62*
X325882Y322072D03*
D11*
X379540Y322199D03*
D41*
X374206Y322199D03*
D127*
X358712Y322199D03*
D11*
X332550Y322199D03*
D22*
X328803Y322199D03*
D62*
X326009Y322199D03*
D11*
X379540Y322326D03*
D29*
X374714Y322326D03*
D127*
X358712Y322326D03*
D62*
X332486Y322326D03*
D22*
X328549Y322326D03*
D62*
X326009Y322326D03*
D11*
X379413Y322453D03*
D70*
X375222Y322453D03*
D126*
X358775Y322453D03*
D56*
X332486Y322453D03*
D61*
X327660Y322453D03*
D72*
X376873Y322580D03*
D62*
X372745Y322580D03*
D127*
X358839Y322580D03*
D46*
X332423Y322580D03*
D48*
X327533Y322580D03*
D70*
X376873Y322707D03*
D62*
X372618Y322707D03*
D126*
X358902Y322707D03*
D38*
X332423Y322707D03*
D41*
X327470Y322707D03*
D20*
X376936Y322834D03*
D11*
X372555Y322834D03*
D126*
X358902Y322834D03*
D30*
X332296Y322834D03*
D42*
X327406Y322834D03*
D76*
X377000Y322961D03*
D62*
X372491Y322961D03*
D125*
X358966Y322961D03*
D22*
X332232Y322961D03*
D36*
X327343Y322961D03*
D64*
X377063Y323088D03*
D62*
X372364Y323088D03*
D126*
X359029Y323088D03*
D34*
X332232Y323088D03*
X327279Y323088D03*
D65*
X377063Y323215D03*
D11*
X372301Y323215D03*
D126*
X359029Y323215D03*
D58*
X332105Y323215D03*
D31*
X327216Y323215D03*
D85*
X377190Y323342D03*
D135*
X359918Y323342D03*
D42*
X332105Y323342D03*
D30*
X327089Y323342D03*
D32*
X377190Y323469D03*
D136*
X359982Y323469D03*
D42*
X332232Y323469D03*
D38*
X327089Y323469D03*
D51*
X377254Y323596D03*
D188*
X360045Y323596D03*
D41*
X332296Y323596D03*
D46*
X326962Y323596D03*
D50*
X377254Y323723D03*
D188*
X360172Y323723D03*
D62*
X333629Y323723D03*
D46*
X331534Y323723D03*
D54*
X326962Y323723D03*
D44*
X377317Y323850D03*
D65*
X371221Y323850D03*
D190*
X357632Y323850D03*
D62*
X333629Y323850D03*
D56*
X331470Y323850D03*
D59*
X329502Y323850D03*
D62*
X326898Y323850D03*
D41*
X377381Y323977D03*
D65*
X371348Y323977D03*
D191*
X357632Y323977D03*
D62*
X333756Y323977D03*
D53*
X331407Y323977D03*
D63*
X329502Y323977D03*
D62*
X326898Y323977D03*
D26*
X377381Y324104D03*
D74*
X371412Y324104D03*
D144*
X357569Y324104D03*
D53*
X333820Y324104D03*
D43*
X331343Y324104D03*
D47*
X329375Y324104D03*
D62*
X327025Y324104D03*
D36*
X377508Y324231D03*
D64*
X371475Y324231D03*
D144*
X357569Y324231D03*
D53*
X333947Y324231D03*
D52*
X331216Y324231D03*
D43*
X329311Y324231D03*
D53*
X327089Y324231D03*
D27*
X377508Y324358D03*
D68*
X371602Y324358D03*
D192*
X357569Y324358D03*
D56*
X334010Y324358D03*
D55*
X331216Y324358D03*
D62*
X329311Y324358D03*
X327152Y324358D03*
D22*
X377571Y324485D03*
D68*
X371729Y324485D03*
D193*
X357505Y324485D03*
D49*
X334010Y324485D03*
D59*
X331153Y324485D03*
D56*
X329184Y324485D03*
D53*
X327216Y324485D03*
D33*
X377571Y324612D03*
D12*
X371793Y324612D03*
D194*
X357442Y324612D03*
D46*
X333947Y324612D03*
D49*
X329184Y324612D03*
D53*
X327343Y324612D03*
D38*
X377635Y324739D03*
D70*
X371920Y324739D03*
D195*
X357442Y324739D03*
D35*
X333883Y324739D03*
D26*
X328486Y324739D03*
D40*
X377698Y324866D03*
D81*
X371983Y324866D03*
D145*
X357378Y324866D03*
D31*
X333820Y324866D03*
D26*
X328486Y324866D03*
D49*
X377698Y324993D03*
D31*
X373825Y324993D03*
D35*
X370205Y324993D03*
D196*
X357378Y324993D03*
D27*
X333820Y324993D03*
D26*
X328613Y324993D03*
D56*
X377825Y325120D03*
D38*
X370142Y325120D03*
D146*
X357315Y325120D03*
D58*
X333756Y325120D03*
X328549Y325120D03*
D62*
X377825Y325247D03*
D38*
X370142Y325247D03*
D197*
X357251Y325247D03*
D53*
X334836Y325247D03*
D54*
X332804Y325247D03*
D34*
X328549Y325247D03*
D11*
X377762Y325374D03*
D40*
X370078Y325374D03*
D198*
X357251Y325374D03*
D62*
X335026Y325374D03*
D49*
X332613Y325374D03*
D31*
X328486Y325374D03*
D11*
X377762Y325501D03*
D49*
X370078Y325501D03*
D147*
X357188Y325501D03*
D62*
X335153Y325501D03*
D46*
X332423Y325501D03*
D30*
X328359Y325501D03*
D11*
X377635Y325628D03*
D46*
X370142Y325628D03*
D199*
X357188Y325628D03*
D11*
X335344Y325628D03*
D46*
X332296Y325628D03*
D38*
X328359Y325628D03*
D11*
X377508Y325755D03*
D40*
X370205Y325755D03*
D148*
X357124Y325755D03*
D11*
X335471Y325755D03*
D40*
X332105Y325755D03*
D49*
X328295Y325755D03*
D62*
X377444Y325882D03*
D58*
X374777Y325882D03*
D35*
X370332Y325882D03*
D200*
X357061Y325882D03*
D62*
X335534Y325882D03*
D40*
X331978Y325882D03*
D54*
X328232Y325882D03*
D29*
X375603Y326009D03*
D30*
X370396Y326009D03*
D201*
X356997Y326009D03*
D62*
X335661Y326009D03*
D22*
X332105Y326009D03*
D53*
X328232Y326009D03*
D51*
X375603Y326136D03*
D31*
X370396Y326136D03*
D202*
X356934Y326136D03*
D62*
X335788Y326136D03*
D58*
X332105Y326136D03*
D62*
X328295Y326136D03*
D50*
X375730Y326263D03*
D34*
X370459Y326263D03*
D203*
X356934Y326263D03*
D53*
X335852Y326263D03*
D42*
X332105Y326263D03*
D53*
X328359Y326263D03*
D39*
X375730Y326390D03*
D58*
X370459Y326390D03*
D204*
X356870Y326390D03*
D53*
X335979Y326390D03*
D39*
X332042Y326390D03*
D62*
X328422Y326390D03*
D41*
X375730Y326517D03*
D42*
X370459Y326517D03*
D205*
X356870Y326517D03*
D56*
X336042Y326517D03*
D50*
X332042Y326517D03*
D62*
X328549Y326517D03*
D42*
X375793Y326644D03*
D44*
X370459Y326644D03*
D206*
X356743Y326644D03*
D54*
X336106Y326644D03*
D32*
X331978Y326644D03*
D53*
X328613Y326644D03*
D36*
X375857Y326771D03*
D33*
X371348Y326771D03*
D53*
X369126Y326771D03*
D207*
X356743Y326771D03*
D54*
X336233Y326771D03*
D72*
X331153Y326771D03*
D27*
X375857Y326898D03*
D33*
X371475Y326898D03*
D56*
X368935Y326898D03*
D208*
X356743Y326898D03*
D46*
X336360Y326898D03*
D81*
X331216Y326898D03*
D31*
X375857Y327025D03*
D33*
X371602Y327025D03*
D56*
X368808Y327025D03*
D209*
X356680Y327025D03*
D40*
X336423Y327025D03*
D70*
X331280Y327025D03*
D30*
X375984Y327152D03*
D33*
X371729Y327152D03*
D56*
X368681Y327152D03*
D210*
X356616Y327152D03*
D38*
X336487Y327152D03*
D70*
X331280Y327152D03*
D38*
X375984Y327279D03*
D31*
X371920Y327279D03*
D56*
X368554Y327279D03*
D211*
X356616Y327279D03*
D35*
X336550Y327279D03*
D20*
X331343Y327279D03*
D46*
X375984Y327406D03*
D31*
X372047Y327406D03*
D54*
X368491Y327406D03*
D212*
X356553Y327406D03*
D30*
X336614Y327406D03*
D31*
X332931Y327406D03*
D22*
X329946Y327406D03*
D54*
X375984Y327533D03*
D31*
X372174Y327533D03*
D40*
X368427Y327533D03*
D213*
X356489Y327533D03*
D31*
X336741Y327533D03*
X332931Y327533D03*
D33*
X329946Y327533D03*
D56*
X376047Y327660D03*
D22*
X372364Y327660D03*
D35*
X368427Y327660D03*
D214*
X356489Y327660D03*
D27*
X336741Y327660D03*
D31*
X332931Y327660D03*
D30*
X329883Y327660D03*
D53*
X375984Y327787D03*
D22*
X372491Y327787D03*
D33*
X368427Y327787D03*
D215*
X356426Y327787D03*
D34*
X336804Y327787D03*
D30*
X332931Y327787D03*
D38*
X329883Y327787D03*
D53*
X375857Y327914D03*
D22*
X372618Y327914D03*
X368427Y327914D03*
D216*
X356362Y327914D03*
D36*
X336868Y327914D03*
D30*
X332931Y327914D03*
D46*
X329883Y327914D03*
D53*
X375730Y328041D03*
D22*
X372745Y328041D03*
D36*
X368364Y328041D03*
D18*
X356299Y328041D03*
D26*
X336995Y328041D03*
D35*
X332867Y328041D03*
D54*
X329883Y328041D03*
D56*
X375666Y328168D03*
D27*
X372936Y328168D03*
D26*
X368364Y328168D03*
D217*
X356299Y328168D03*
D41*
X336995Y328168D03*
D40*
X332867Y328168D03*
D54*
X329883Y328168D03*
D56*
X375539Y328295D03*
D27*
X373063Y328295D03*
D44*
X368300Y328295D03*
D71*
X356235Y328295D03*
D49*
X338201Y328295D03*
D56*
X335915Y328295D03*
D46*
X332804Y328295D03*
D56*
X329946Y328295D03*
D51*
X373952Y328422D03*
D38*
X369253Y328422D03*
D54*
X367094Y328422D03*
D95*
X356172Y328422D03*
D56*
X338455Y328422D03*
D62*
X335661Y328422D03*
D54*
X332804Y328422D03*
D56*
X330073Y328422D03*
D50*
X373952Y328549D03*
D38*
X369380Y328549D03*
D54*
X366967Y328549D03*
D93*
X356172Y328549D03*
D56*
X338582Y328549D03*
D62*
X335534Y328549D03*
D11*
X332804Y328549D03*
D53*
X330137Y328549D03*
D39*
X373952Y328676D03*
D38*
X369507Y328676D03*
D49*
X366776Y328676D03*
D120*
X356108Y328676D03*
D56*
X338836Y328676D03*
D43*
X335407Y328676D03*
D55*
X332740Y328676D03*
D53*
X330264Y328676D03*
D30*
X374587Y328803D03*
D43*
X372618Y328803D03*
D38*
X369634Y328803D03*
D54*
X366586Y328803D03*
D119*
X356045Y328803D03*
D56*
X338963Y328803D03*
D43*
X335280Y328803D03*
D62*
X330327Y328803D03*
D38*
X374587Y328930D03*
D52*
X372618Y328930D03*
D35*
X369697Y328930D03*
D49*
X366395Y328930D03*
D117*
X355981Y328930D03*
D54*
X339154Y328930D03*
D43*
X335153Y328930D03*
D53*
X330391Y328930D03*
D40*
X374650Y329057D03*
D55*
X372618Y329057D03*
D35*
X369824Y329057D03*
D38*
X366332Y329057D03*
D96*
X355918Y329057D03*
D46*
X339281Y329057D03*
D11*
X335090Y329057D03*
D53*
X330518Y329057D03*
D49*
X374650Y329184D03*
D57*
X372618Y329184D03*
D38*
X369888Y329184D03*
D30*
X366332Y329184D03*
D99*
X355918Y329184D03*
D46*
X339408Y329184D03*
D11*
X334963Y329184D03*
D53*
X330645Y329184D03*
D54*
X374587Y329311D03*
D38*
X370015Y329311D03*
D31*
X366205Y329311D03*
D104*
X355854Y329311D03*
D38*
X339535Y329311D03*
D55*
X337058Y329311D03*
D53*
X334836Y329311D03*
D56*
X330835Y329311D03*
X374523Y329438D03*
D38*
X370142Y329438D03*
D34*
X366141Y329438D03*
D108*
X355727Y329438D03*
D38*
X339662Y329438D03*
D52*
X337058Y329438D03*
D56*
X334645Y329438D03*
X330962Y329438D03*
X374396Y329565D03*
D35*
X370205Y329565D03*
D11*
X367221Y329565D03*
D46*
X365443Y329565D03*
D111*
X355727Y329565D03*
D30*
X339789Y329565D03*
D43*
X337058Y329565D03*
D46*
X334455Y329565D03*
D49*
X331216Y329565D03*
D56*
X374269Y329692D03*
D35*
X370332Y329692D03*
D11*
X367348Y329692D03*
D46*
X365189Y329692D03*
D91*
X355664Y329692D03*
D31*
X339916Y329692D03*
D43*
X337058Y329692D03*
D37*
X332931Y329692D03*
D56*
X374142Y329819D03*
D35*
X370459Y329819D03*
D11*
X367348Y329819D03*
D40*
X364998Y329819D03*
D89*
X355664Y329819D03*
D27*
X340043Y329819D03*
D43*
X337058Y329819D03*
D85*
X332994Y329819D03*
D56*
X374015Y329946D03*
D35*
X370586Y329946D03*
D11*
X367475Y329946D03*
D40*
X364744Y329946D03*
D87*
X355537Y329946D03*
D36*
X340170Y329946D03*
D43*
X337058Y329946D03*
D29*
X333058Y329946D03*
D56*
X373888Y330073D03*
D38*
X370650Y330073D03*
D11*
X367602Y330073D03*
D35*
X364617Y330073D03*
D84*
X355473Y330073D03*
D38*
X340932Y330073D03*
D43*
X339090Y330073D03*
D45*
X337122Y330073D03*
D32*
X333121Y330073D03*
D56*
X373761Y330200D03*
D40*
X370586Y330200D03*
D62*
X367665Y330200D03*
D33*
X364490Y330200D03*
D79*
X355410Y330200D03*
D38*
X341186Y330200D03*
D45*
X339027Y330200D03*
X337122Y330200D03*
D32*
X333248Y330200D03*
D56*
X373634Y330327D03*
D49*
X370586Y330327D03*
D62*
X367792Y330327D03*
D27*
X364427Y330327D03*
D24*
X355410Y330327D03*
D38*
X341440Y330327D03*
D31*
X338138Y330327D03*
D51*
X333312Y330327D03*
D56*
X373507Y330454D03*
X370586Y330454D03*
D11*
X367856Y330454D03*
D58*
X364363Y330454D03*
D81*
X355346Y330454D03*
D35*
X341630Y330454D03*
D33*
X338074Y330454D03*
D51*
X333439Y330454D03*
D56*
X373380Y330581D03*
D62*
X370586Y330581D03*
X367919Y330581D03*
D42*
X364236Y330581D03*
D65*
X355346Y330581D03*
D33*
X341757Y330581D03*
D35*
X338074Y330581D03*
D61*
X333502Y330581D03*
D56*
X373253Y330708D03*
D62*
X370586Y330708D03*
X368046Y330708D03*
D39*
X364173Y330708D03*
X355283Y330708D03*
D27*
X341821Y330708D03*
D35*
X338074Y330708D03*
D61*
X333629Y330708D03*
D54*
X373063Y330835D03*
D62*
X370713Y330835D03*
X368173Y330835D03*
D53*
X365570Y330835D03*
D31*
X363157Y330835D03*
D46*
X355156Y330835D03*
D36*
X341948Y330835D03*
D40*
X338074Y330835D03*
D50*
X333693Y330835D03*
D54*
X372936Y330962D03*
D62*
X370840Y330962D03*
D53*
X368237Y330962D03*
X365570Y330962D03*
D33*
X362839Y330962D03*
D41*
X342075Y330962D03*
D40*
X338074Y330962D03*
D45*
X335471Y330962D03*
D27*
X333185Y330962D03*
D54*
X372809Y331089D03*
D62*
X370967Y331089D03*
X368300Y331089D03*
D56*
X365633Y331089D03*
D31*
X362522Y331089D03*
D39*
X342202Y331089D03*
D46*
X338011Y331089D03*
D45*
X335471Y331089D03*
D30*
X333058Y331089D03*
D34*
X371983Y331216D03*
D53*
X368364Y331216D03*
D54*
X365697Y331216D03*
D27*
X362395Y331216D03*
D51*
X342329Y331216D03*
D54*
X338011Y331216D03*
D45*
X335471Y331216D03*
D38*
X333058Y331216D03*
D27*
X371920Y331343D03*
D53*
X368491Y331343D03*
D54*
X365697Y331343D03*
D58*
X362204Y331343D03*
D22*
X343535Y331343D03*
D54*
X340932Y331343D03*
X338011Y331343D03*
D52*
X335534Y331343D03*
D40*
X333121Y331343D03*
D31*
X371920Y331470D03*
D53*
X368618Y331470D03*
D49*
X365760Y331470D03*
D41*
X362014Y331470D03*
D22*
X343916Y331470D03*
D54*
X340805Y331470D03*
D56*
X337947Y331470D03*
D52*
X335534Y331470D03*
D40*
X333248Y331470D03*
D30*
X371920Y331597D03*
D53*
X368618Y331597D03*
D46*
X365824Y331597D03*
D48*
X361823Y331597D03*
D27*
X344234Y331597D03*
D49*
X340741Y331597D03*
D54*
X337884Y331597D03*
D47*
X335598Y331597D03*
D46*
X333312Y331597D03*
D38*
X371920Y331724D03*
D53*
X368745Y331724D03*
D49*
X365760Y331724D03*
D51*
X361633Y331724D03*
D58*
X344424Y331724D03*
D49*
X340741Y331724D03*
D56*
X337820Y331724D03*
D46*
X333439Y331724D03*
D40*
X371856Y331851D03*
D53*
X368872Y331851D03*
D56*
X365760Y331851D03*
D37*
X361379Y331851D03*
D39*
X344615Y331851D03*
D49*
X340614Y331851D03*
D56*
X337820Y331851D03*
D49*
X333502Y331851D03*
X371856Y331978D03*
D56*
X368935Y331978D03*
D62*
X365633Y331978D03*
D76*
X361125Y331978D03*
D51*
X344869Y331978D03*
D49*
X340614Y331978D03*
D56*
X337693Y331978D03*
D49*
X333629Y331978D03*
X371602Y332105D03*
D56*
X369062Y332105D03*
D11*
X365570Y332105D03*
D49*
X362966Y332105D03*
D41*
X359728Y332105D03*
D65*
X345059Y332105D03*
D49*
X340487Y332105D03*
D56*
X337566Y332105D03*
D54*
X333820Y332105D03*
D49*
X371475Y332232D03*
D53*
X369126Y332232D03*
D45*
X365443Y332232D03*
D53*
X362903Y332232D03*
D48*
X359283Y332232D03*
D12*
X345377Y332232D03*
D46*
X340424Y332232D03*
D54*
X337503Y332232D03*
X333947Y332232D03*
D49*
X371348Y332359D03*
D56*
X369189Y332359D03*
D52*
X365379Y332359D03*
D11*
X362776Y332359D03*
D51*
X358839Y332359D03*
D21*
X345694Y332359D03*
D49*
X340360Y332359D03*
D54*
X337376Y332359D03*
X334074Y332359D03*
D49*
X371221Y332486D03*
D56*
X369316Y332486D03*
D59*
X367221Y332486D03*
D52*
X365379Y332486D03*
X362712Y332486D03*
D64*
X358267Y332486D03*
D51*
X347663Y332486D03*
D38*
X343472Y332486D03*
D46*
X340297Y332486D03*
D49*
X337312Y332486D03*
D54*
X334201Y332486D03*
D58*
X370332Y332613D03*
D63*
X367221Y332613D03*
D45*
X365443Y332613D03*
D57*
X362585Y332613D03*
D77*
X357632Y332613D03*
D68*
X348488Y332613D03*
D49*
X343281Y332613D03*
X340233Y332613D03*
D40*
X337058Y332613D03*
D46*
X334455Y332613D03*
D36*
X370269Y332740D03*
D47*
X367094Y332740D03*
D45*
X365443Y332740D03*
D53*
X360490Y332740D03*
D93*
X352616Y332740D03*
D49*
X343154Y332740D03*
D46*
X340170Y332740D03*
D51*
X335852Y332740D03*
D22*
X370205Y332867D03*
D43*
X367030Y332867D03*
X365506Y332867D03*
X360807Y332867D03*
D151*
X352425Y332867D03*
D54*
X343091Y332867D03*
D46*
X340170Y332867D03*
D48*
X335915Y332867D03*
D33*
X370205Y332994D03*
D62*
X367030Y332994D03*
D11*
X365570Y332994D03*
D60*
X363982Y332994D03*
D43*
X360934Y332994D03*
D118*
X352425Y332994D03*
D54*
X342964Y332994D03*
D46*
X340043Y332994D03*
D44*
X335915Y332994D03*
D30*
X370142Y333121D03*
D31*
X366332Y333121D03*
D57*
X363855Y333121D03*
D45*
X361125Y333121D03*
D150*
X352362Y333121D03*
D56*
X342900Y333121D03*
D40*
X339979Y333121D03*
D41*
X335979Y333121D03*
D40*
X370078Y333248D03*
D33*
X366268Y333248D03*
D55*
X363728Y333248D03*
D45*
X361252Y333248D03*
D110*
X353060Y333248D03*
D11*
X346901Y333248D03*
D56*
X342773Y333248D03*
D46*
X339916Y333248D03*
D58*
X336042Y333248D03*
D46*
X370015Y333375D03*
D30*
X366205Y333375D03*
D52*
X363601Y333375D03*
D43*
X361315Y333375D03*
D91*
X353378Y333375D03*
D43*
X346964Y333375D03*
D63*
X344996Y333375D03*
D56*
X342773Y333375D03*
D40*
X339852Y333375D03*
D36*
X336106Y333375D03*
D40*
X369824Y333502D03*
D38*
X366078Y333502D03*
D47*
X363665Y333502D03*
D62*
X361315Y333502D03*
D14*
X353378Y333502D03*
D43*
X346964Y333502D03*
D52*
X345059Y333502D03*
D56*
X342773Y333502D03*
D46*
X339789Y333502D03*
D27*
X336106Y333502D03*
D46*
X369634Y333629D03*
X365951Y333629D03*
D55*
X363728Y333629D03*
D56*
X361315Y333629D03*
D63*
X359601Y333629D03*
D38*
X356934Y333629D03*
D48*
X352425Y333629D03*
D45*
X348933Y333629D03*
X347028Y333629D03*
X345123Y333629D03*
D56*
X342646Y333629D03*
D40*
X339725Y333629D03*
D33*
X336169Y333629D03*
D40*
X369443Y333756D03*
D49*
X365887Y333756D03*
D63*
X363792Y333756D03*
D54*
X361379Y333756D03*
D45*
X359601Y333756D03*
D46*
X357061Y333756D03*
D41*
X352362Y333756D03*
D45*
X348933Y333756D03*
X347028Y333756D03*
D43*
X345059Y333756D03*
D56*
X342646Y333756D03*
D46*
X339662Y333756D03*
D30*
X336233Y333756D03*
D38*
X369253Y333883D03*
D54*
X365824Y333883D03*
D63*
X363919Y333883D03*
D46*
X361379Y333883D03*
D43*
X359664Y333883D03*
D54*
X357188Y333883D03*
D43*
X353441Y333883D03*
D53*
X351219Y333883D03*
D45*
X348933Y333883D03*
D52*
X346964Y333883D03*
D43*
X345059Y333883D03*
D54*
X342583Y333883D03*
D40*
X339598Y333883D03*
D38*
X336233Y333883D03*
D40*
X369062Y334010D03*
D54*
X365824Y334010D03*
D57*
X363982Y334010D03*
D26*
X360744Y334010D03*
D53*
X357315Y334010D03*
D45*
X353378Y334010D03*
D53*
X351219Y334010D03*
D45*
X348933Y334010D03*
D43*
X346837Y334010D03*
D11*
X345123Y334010D03*
D54*
X342583Y334010D03*
D38*
X339535Y334010D03*
D40*
X336423Y334010D03*
D38*
X368872Y334137D03*
D54*
X365951Y334137D03*
D59*
X364046Y334137D03*
D42*
X360807Y334137D03*
D62*
X357378Y334137D03*
D45*
X353378Y334137D03*
D53*
X351219Y334137D03*
D45*
X348933Y334137D03*
D62*
X346710Y334137D03*
D11*
X345123Y334137D03*
D49*
X342519Y334137D03*
D40*
X339471Y334137D03*
D38*
X336614Y334137D03*
D40*
X368681Y334264D03*
D54*
X365951Y334264D03*
D60*
X364109Y334264D03*
D41*
X360871Y334264D03*
D11*
X357442Y334264D03*
D45*
X353378Y334264D03*
D53*
X351219Y334264D03*
D45*
X348933Y334264D03*
D31*
X346012Y334264D03*
D49*
X342519Y334264D03*
D38*
X339408Y334264D03*
D40*
X336804Y334264D03*
D38*
X368491Y334391D03*
D49*
X366014Y334391D03*
D60*
X364109Y334391D03*
D41*
X360998Y334391D03*
D43*
X357505Y334391D03*
D45*
X353378Y334391D03*
D56*
X351155Y334391D03*
D43*
X348869Y334391D03*
D33*
X346075Y334391D03*
D46*
X342456Y334391D03*
D55*
X340106Y334391D03*
D26*
X337630Y334391D03*
D40*
X368300Y334518D03*
D46*
X366078Y334518D03*
D44*
X361061Y334518D03*
D43*
X357505Y334518D03*
D47*
X355156Y334518D03*
D45*
X353378Y334518D03*
D56*
X351155Y334518D03*
D43*
X348869Y334518D03*
D30*
X346139Y334518D03*
D40*
X342519Y334518D03*
D57*
X340233Y334518D03*
D36*
X337757Y334518D03*
D48*
X367157Y334645D03*
D44*
X361188Y334645D03*
D45*
X357569Y334645D03*
D11*
X355156Y334645D03*
D43*
X353441Y334645D03*
D53*
X351092Y334645D03*
D43*
X348869Y334645D03*
D38*
X346139Y334645D03*
D40*
X342519Y334645D03*
D34*
X337820Y334645D03*
D44*
X367030Y334772D03*
D26*
X361506Y334772D03*
D52*
X357632Y334772D03*
D56*
X355092Y334772D03*
D43*
X353441Y334772D03*
D53*
X351092Y334772D03*
D43*
X348869Y334772D03*
D40*
X346202Y334772D03*
D35*
X342519Y334772D03*
D31*
X337884Y334772D03*
D41*
X366967Y334899D03*
D22*
X361950Y334899D03*
D45*
X357696Y334899D03*
D49*
X355092Y334899D03*
D43*
X353441Y334899D03*
D53*
X351092Y334899D03*
D43*
X348869Y334899D03*
D46*
X346266Y334899D03*
D30*
X342583Y334899D03*
D33*
X337947Y334899D03*
D26*
X366840Y335026D03*
D31*
X362141Y335026D03*
D45*
X357696Y335026D03*
D36*
X354521Y335026D03*
D53*
X351092Y335026D03*
D11*
X348806Y335026D03*
D49*
X346329Y335026D03*
D31*
X342583Y335026D03*
D35*
X338074Y335026D03*
D36*
X366713Y335153D03*
D31*
X362268Y335153D03*
D45*
X357823Y335153D03*
D36*
X354521Y335153D03*
D53*
X351092Y335153D03*
D11*
X348806Y335153D03*
D54*
X346393Y335153D03*
D30*
X342837Y335153D03*
D38*
X338265Y335153D03*
D34*
X366649Y335280D03*
D33*
X362331Y335280D03*
D43*
X357886Y335280D03*
D58*
X354584Y335280D03*
D53*
X351092Y335280D03*
D43*
X348742Y335280D03*
D56*
X346329Y335280D03*
D35*
X343027Y335280D03*
D30*
X338519Y335280D03*
D22*
X366522Y335407D03*
D33*
X362458Y335407D03*
D11*
X357950Y335407D03*
D58*
X354584Y335407D03*
D53*
X351092Y335407D03*
D43*
X348742Y335407D03*
D53*
X346393Y335407D03*
D35*
X343154Y335407D03*
D30*
X338773Y335407D03*
D33*
X366395Y335534D03*
X362585Y335534D03*
D11*
X358077Y335534D03*
D26*
X354648Y335534D03*
D53*
X351092Y335534D03*
D43*
X348742Y335534D03*
D53*
X346393Y335534D03*
D30*
X343218Y335534D03*
X339027Y335534D03*
D35*
X366268Y335661D03*
D31*
X362649Y335661D03*
D54*
X358331Y335661D03*
D42*
X354584Y335661D03*
D43*
X351282Y335661D03*
X348742Y335661D03*
D53*
X346393Y335661D03*
D33*
X343281Y335661D03*
D30*
X339281Y335661D03*
D35*
X366141Y335788D03*
D22*
X362712Y335788D03*
D30*
X358712Y335788D03*
D42*
X354584Y335788D03*
D11*
X348679Y335788D03*
D53*
X346393Y335788D03*
D43*
X344043Y335788D03*
D62*
X342519Y335788D03*
D31*
X339535Y335788D03*
D30*
X365824Y335915D03*
D27*
X362776Y335915D03*
D31*
X358839Y335915D03*
D42*
X354584Y335915D03*
D11*
X348679Y335915D03*
D53*
X346393Y335915D03*
D45*
X344107Y335915D03*
D11*
X342456Y335915D03*
D31*
X339789Y335915D03*
D64*
X364109Y336042D03*
D22*
X358902Y336042D03*
D42*
X354584Y336042D03*
D11*
X348679Y336042D03*
D62*
X346329Y336042D03*
D47*
X344107Y336042D03*
D43*
X342265Y336042D03*
D31*
X340043Y336042D03*
D65*
X363982Y336169D03*
D22*
X358902Y336169D03*
D42*
X354584Y336169D03*
D11*
X348679Y336169D03*
D53*
X346266Y336169D03*
D63*
X344107Y336169D03*
D44*
X340868Y336169D03*
D85*
X363855Y336296D03*
D22*
X358902Y336296D03*
D42*
X354584Y336296D03*
D11*
X348679Y336296D03*
D53*
X346266Y336296D03*
D42*
X340995Y336296D03*
D29*
X363665Y336423D03*
D27*
X358839Y336423D03*
D42*
X354584Y336423D03*
D11*
X348679Y336423D03*
D56*
X346202Y336423D03*
D26*
X341186Y336423D03*
D51*
X363538Y336550D03*
D52*
X359791Y336550D03*
D49*
X358267Y336550D03*
D26*
X354521Y336550D03*
D53*
X350965Y336550D03*
D62*
X348615Y336550D03*
D56*
X346202Y336550D03*
D58*
X341376Y336550D03*
D50*
X363411Y336677D03*
D57*
X359791Y336677D03*
D49*
X358267Y336677D03*
D26*
X354521Y336677D03*
D53*
X350965Y336677D03*
D62*
X348615Y336677D03*
D54*
X346139Y336677D03*
D36*
X341567Y336677D03*
D39*
X363157Y336804D03*
D54*
X358204Y336804D03*
D58*
X354457Y336804D03*
D53*
X350965Y336804D03*
D62*
X348615Y336804D03*
D54*
X346012Y336804D03*
D27*
X341821Y336804D03*
D41*
X363030Y336931D03*
D49*
X358140Y336931D03*
D58*
X354457Y336931D03*
D53*
X350965Y336931D03*
D62*
X348615Y336931D03*
D46*
X345885Y336931D03*
D27*
X342075Y336931D03*
D42*
X362839Y337058D03*
D49*
X358140Y337058D03*
D36*
X354394Y337058D03*
D53*
X350965Y337058D03*
D11*
X348552Y337058D03*
D38*
X345758Y337058D03*
D27*
X342329Y337058D03*
D26*
X362649Y337185D03*
D49*
X358013Y337185D03*
D62*
X355219Y337185D03*
D53*
X353505Y337185D03*
X350965Y337185D03*
D62*
X348488Y337185D03*
D12*
X343980Y337185D03*
D58*
X362331Y337312D03*
D46*
X358077Y337312D03*
D45*
X355156Y337312D03*
D53*
X353505Y337312D03*
X350965Y337312D03*
D62*
X348488Y337312D03*
D64*
X344170Y337312D03*
D58*
X361950Y337439D03*
D30*
X358204Y337439D03*
D56*
X353441Y337439D03*
D53*
X350965Y337439D03*
D62*
X348488Y337439D03*
D37*
X344234Y337439D03*
D75*
X360109Y337566D03*
D56*
X353441Y337566D03*
D53*
X350965Y337566D03*
D62*
X348488Y337566D03*
D32*
X344424Y337566D03*
D72*
X359855Y337693D03*
D54*
X353505Y337693D03*
D53*
X350965Y337693D03*
D62*
X348488Y337693D03*
D50*
X344615Y337693D03*
D70*
X359601Y337820D03*
D54*
X353505Y337820D03*
D53*
X350965Y337820D03*
X348425Y337820D03*
D51*
X345123Y337820D03*
D12*
X359347Y337947D03*
D54*
X353505Y337947D03*
D53*
X350965Y337947D03*
D20*
X346202Y337947D03*
D68*
X359029Y338074D03*
D54*
X353505Y338074D03*
D56*
X350901Y338074D03*
D76*
X346393Y338074D03*
X358712Y338201D03*
D49*
X353568Y338201D03*
D82*
X347853Y338201D03*
D68*
X358140Y338328D03*
D30*
X353886Y338328D03*
D82*
X348234Y338328D03*
D19*
X352743Y338455D03*
D18*
X352743Y338582D03*
D95*
X352743Y338709D03*
D16*
X352743Y338836D03*
D104*
X352679Y338963D03*
D112*
X352806Y339090D03*
D13*
X352743Y339217D03*
D12*
X352743Y339344D03*
D11*
X352743Y339471D03*
M02*
