G04 EAGLE Gerber RS-274X export*
G75*
%MOMM*%
%FSLAX34Y34*%
%LPD*%
%INSoldermask Bottom*%
%IPPOS*%
%AMOC8*
5,1,8,0,0,1.08239X$1,22.5*%
G01*
%ADD10P,1.649562X8X112.500000*%
%ADD11P,1.649562X8X292.500000*%
%ADD12P,1.649562X8X22.500000*%
%ADD13P,1.649562X8X202.500000*%
%ADD14C,1.524000*%
%ADD15C,2.082800*%
%ADD16C,1.611200*%
%ADD17C,0.959600*%


D10*
X152400Y127000D03*
X152400Y152400D03*
D11*
X331470Y419100D03*
X331470Y393700D03*
X334010Y215900D03*
X334010Y190500D03*
D12*
X353060Y457200D03*
X378460Y457200D03*
D13*
X165100Y457200D03*
X139700Y457200D03*
X429260Y392430D03*
X353060Y392430D03*
D10*
X114300Y342900D03*
X114300Y419100D03*
D13*
X429260Y419100D03*
X353060Y419100D03*
D11*
X83820Y419100D03*
X83820Y342900D03*
D14*
X205296Y418910D02*
X218504Y418910D01*
X218504Y393510D02*
X205296Y393510D01*
X205296Y368110D02*
X218504Y368110D01*
X218504Y342710D02*
X205296Y342710D01*
X205296Y317310D02*
X218504Y317310D01*
X218504Y291910D02*
X205296Y291910D01*
X205296Y266510D02*
X218504Y266510D01*
X218504Y241110D02*
X205296Y241110D01*
X205296Y215710D02*
X218504Y215710D01*
X218504Y190310D02*
X205296Y190310D01*
X205296Y164910D02*
X218504Y164910D01*
X218504Y139510D02*
X205296Y139510D01*
X205296Y114110D02*
X218504Y114110D01*
X218504Y88710D02*
X205296Y88710D01*
X281496Y88710D02*
X294704Y88710D01*
X294704Y114110D02*
X281496Y114110D01*
X281496Y139510D02*
X294704Y139510D01*
X294704Y164910D02*
X281496Y164910D01*
X281496Y190310D02*
X294704Y190310D01*
X294704Y215710D02*
X281496Y215710D01*
X281496Y241110D02*
X294704Y241110D01*
X294704Y266510D02*
X281496Y266510D01*
X281496Y291910D02*
X294704Y291910D01*
X294704Y317310D02*
X281496Y317310D01*
X281496Y342710D02*
X294704Y342710D01*
X294704Y368110D02*
X281496Y368110D01*
X281496Y393510D02*
X294704Y393510D01*
X294704Y418910D02*
X281496Y418910D01*
D15*
X406400Y114300D03*
X406400Y88900D03*
X469900Y368300D03*
X469900Y342900D03*
X469900Y317500D03*
X469900Y292100D03*
X469900Y266700D03*
X469900Y241300D03*
X469900Y215900D03*
X469900Y190500D03*
X469900Y165100D03*
X469900Y139700D03*
X25400Y241300D03*
X25400Y215900D03*
X25400Y190500D03*
X25400Y165100D03*
X25400Y139700D03*
X25400Y368300D03*
X25400Y342900D03*
X25400Y317500D03*
X25400Y292100D03*
X25400Y266700D03*
X114300Y127000D03*
X114300Y101600D03*
X114300Y76200D03*
X111760Y24130D03*
X111760Y49530D03*
D16*
X203600Y21600D03*
X228600Y21600D03*
X253600Y21600D03*
X253600Y54600D03*
X228600Y54600D03*
X203600Y54600D03*
D15*
X76200Y25400D03*
X76200Y50800D03*
X76200Y76200D03*
X76200Y101600D03*
X416560Y20320D03*
X391160Y20320D03*
X365760Y20320D03*
X340360Y20320D03*
X314960Y20320D03*
X289560Y20320D03*
X198120Y463550D03*
X223520Y463550D03*
X248920Y463550D03*
X274320Y463550D03*
X299720Y463550D03*
X444500Y25400D03*
X444500Y50800D03*
X444500Y76200D03*
X444500Y101600D03*
X429260Y468630D03*
X480060Y468630D03*
X71120Y471170D03*
X20320Y471170D03*
D17*
X181610Y317500D03*
X181610Y317500D03*
X181610Y421640D03*
X165100Y228600D03*
X99060Y207010D03*
X406400Y165100D03*
X335280Y139700D03*
X335280Y88900D03*
X314960Y254000D03*
X269240Y39370D03*
X355600Y215900D03*
X355600Y114300D03*
X177800Y88900D03*
X177800Y177800D03*
X381000Y190500D03*
X381000Y50800D03*
X50800Y177800D03*
X50800Y152400D03*
M02*
